<svg width="58" height="58" viewBox="0 0 58 58" fill="none" xmlns="http://www.w3.org/2000/svg">
<path d="M37.0793 16.3481H21.0013C18.1112 16.3481 15.7598 18.6995 15.7598 21.5897V37.1049C15.7598 39.9951 18.1112 42.3465 21.0013 42.3465H37.0793C39.9695 42.3465 42.3209 39.9951 42.3209 37.1049V21.5897C42.3209 18.6995 39.9695 16.3481 37.0793 16.3481ZM40.3345 37.1049C40.3345 38.8998 38.8743 40.36 37.0793 40.36H21.0013C19.2064 40.36 17.7462 38.8998 17.7462 37.1049V21.5897C17.7462 19.7948 19.2064 18.3346 21.0013 18.3346H37.0793C38.8743 18.3346 40.3345 19.7948 40.3345 21.5897V37.1049Z" fill="#7E7E7E"/>
<path d="M21.9817 9.01118V12.7766C21.9817 13.3252 22.4263 13.7698 22.9749 13.7698C23.5235 13.7698 23.9681 13.3252 23.9681 12.7766V9.01118C25.7359 8.56657 27.0488 6.96407 27.0488 5.06028C27.0488 2.81389 25.2213 0.986328 22.9749 0.986328C20.7285 0.986328 18.9009 2.81389 18.9009 5.06028C18.9009 6.96407 20.2138 8.56657 21.9817 9.01118ZM22.9749 2.97277C24.1259 2.97277 25.0623 3.90921 25.0623 5.06028C25.0623 6.21127 24.1259 7.14772 22.9749 7.14772C21.8238 7.14772 20.8873 6.21127 20.8873 5.06028C20.8873 3.90921 21.8238 2.97277 22.9749 2.97277Z" fill="#7E7E7E"/>
<path d="M33.6526 9.01118V12.7766C33.6526 13.3252 34.0972 13.7698 34.6458 13.7698C35.1944 13.7698 35.639 13.3252 35.639 12.7766V9.01118C37.4068 8.56657 38.7197 6.96407 38.7197 5.06028C38.7197 2.81389 36.8922 0.986328 34.6458 0.986328C32.3994 0.986328 30.5718 2.81389 30.5718 5.06028C30.5718 6.96407 31.8847 8.56657 33.6526 9.01118ZM34.6458 2.97277C35.7968 2.97277 36.7332 3.90921 36.7332 5.06028C36.7332 6.21127 35.7968 7.14772 34.6458 7.14772C33.4947 7.14772 32.5582 6.21127 32.5582 5.06028C32.5582 3.90921 33.4947 2.97277 34.6458 2.97277Z" fill="#7E7E7E"/>
<path d="M35.8693 49.6835V45.918C35.8693 45.3695 35.4247 44.9248 34.8761 44.9248C34.3275 44.9248 33.8829 45.3695 33.8829 45.918V49.6835C32.1151 50.1281 30.8022 51.7306 30.8022 53.6344C30.8022 55.8808 32.6297 57.7083 34.8761 57.7083C37.1225 57.7083 38.9501 55.8808 38.9501 53.6344C38.9501 51.7306 37.6372 50.1281 35.8693 49.6835ZM34.8761 55.7219C33.7251 55.7219 32.7887 54.7854 32.7887 53.6344C32.7887 52.4834 33.7251 51.5469 34.8761 51.5469C36.0273 51.5469 36.9637 52.4834 36.9637 53.6344C36.9637 54.7854 36.0273 55.7219 34.8761 55.7219Z" fill="#7E7E7E"/>
<path d="M24.198 49.6835V45.918C24.198 45.3695 23.7533 44.9248 23.2047 44.9248C22.6561 44.9248 22.2115 45.3695 22.2115 45.918V49.6835C20.4437 50.1281 19.1309 51.7306 19.1309 53.6344C19.1309 55.8808 20.9584 57.7083 23.2047 57.7083C25.4511 57.7083 27.2788 55.8808 27.2788 53.6344C27.2788 51.7306 25.9658 50.1281 24.198 49.6835ZM23.2047 55.7219C22.0537 55.7219 21.1173 54.7854 21.1173 53.6344C21.1173 52.4834 22.0537 51.5469 23.2047 51.5469C24.3559 51.5469 25.2923 52.4834 25.2923 53.6344C25.2923 54.7854 24.3559 55.7219 23.2047 55.7219Z" fill="#7E7E7E"/>
<path d="M45.4961 24.3899H49.2616C49.7062 26.1577 51.3088 27.4706 53.2126 27.4706C55.459 27.4706 57.2865 25.643 57.2865 23.3966C57.2865 21.1503 55.459 19.3228 53.2126 19.3228C51.3088 19.3228 49.7062 20.6356 49.2616 22.4034H45.4961C44.9475 22.4034 44.5029 22.8481 44.5029 23.3966C44.5029 23.9452 44.9476 24.3899 45.4961 24.3899ZM53.2126 21.3092C54.3636 21.3092 55.3001 22.2456 55.3001 23.3966C55.3001 24.5477 54.3636 25.4841 53.2126 25.4841C52.0615 25.4841 51.125 24.5477 51.125 23.3966C51.125 22.2456 52.0615 21.3092 53.2126 21.3092Z" fill="#7E7E7E"/>
<path d="M53.2126 30.9939C51.3088 30.9939 49.7062 32.3068 49.2616 34.0746H45.4961C44.9475 34.0746 44.5029 34.5193 44.5029 35.0678C44.5029 35.6164 44.9475 36.0611 45.4961 36.0611H49.2616C49.7062 37.8289 51.3088 39.1418 53.2126 39.1418C55.459 39.1418 57.2865 37.3142 57.2865 35.0678C57.2865 32.8215 55.459 30.9939 53.2126 30.9939ZM53.2126 37.1554C52.0615 37.1554 51.125 36.2189 51.125 35.0678C51.125 33.9168 52.0615 32.9803 53.2126 32.9803C54.3636 32.9803 55.3001 33.9168 55.3001 35.0678C55.3001 36.2189 54.3636 37.1554 53.2126 37.1554Z" fill="#7E7E7E"/>
<path d="M12.3548 34.3048H8.58937C8.14475 32.537 6.54221 31.2241 4.63834 31.2241C2.39195 31.2241 0.564453 33.0517 0.564453 35.2981C0.564453 37.5444 2.39195 39.372 4.63834 39.372C6.54214 39.372 8.14473 38.0591 8.58937 36.2913H12.3548C12.9034 36.2913 13.348 35.8466 13.348 35.2981C13.348 34.7495 12.9034 34.3048 12.3548 34.3048ZM4.63834 37.3855C3.48734 37.3855 2.55089 36.4491 2.55089 35.2981C2.55089 34.147 3.48734 33.2106 4.63834 33.2106C5.78947 33.2106 6.72591 34.147 6.72591 35.2981C6.72591 36.4491 5.78947 37.3855 4.63834 37.3855Z" fill="#7E7E7E"/>
<path d="M12.3548 22.6335H8.58937C8.14475 20.8656 6.54221 19.5527 4.63834 19.5527C2.39195 19.5527 0.564453 21.3803 0.564453 23.6267C0.564453 25.8731 2.39195 27.7006 4.63834 27.7006C6.54221 27.7006 8.14473 26.3877 8.58937 24.6199H12.3548C12.9034 24.6199 13.348 24.1752 13.348 23.6267C13.348 23.0782 12.9034 22.6335 12.3548 22.6335ZM4.63834 25.7142C3.48734 25.7142 2.55089 24.7777 2.55089 23.6267C2.55089 22.4756 3.48734 21.5392 4.63834 21.5392C5.78947 21.5392 6.72591 22.4756 6.72591 23.6267C6.72591 24.7777 5.78947 25.7142 4.63834 25.7142Z" fill="#7E7E7E"/>
<path d="M27.9406 24.0159C27.6698 23.4042 27.0637 23.0098 26.3948 23.0098C25.7258 23.0098 25.1198 23.4042 24.8489 24.0159L20.5634 33.6937C20.2605 34.3779 20.7614 35.1475 21.5096 35.1475C21.9216 35.1475 22.2943 34.9032 22.4586 34.5254L23.2735 32.6519C23.3185 32.5483 23.4208 32.4813 23.5337 32.4813H29.2475C29.3604 32.4813 29.4627 32.5483 29.5077 32.6519L30.3215 34.5231C30.4864 34.9023 30.8605 35.1475 31.274 35.1475C32.0251 35.1475 32.5279 34.375 32.2238 33.6883L27.9406 24.0159ZM28.2391 30.6953H24.5675C24.3632 30.6953 24.2258 30.4859 24.3072 30.2984L26.143 26.0722C26.2419 25.8445 26.5648 25.8445 26.6636 26.0722L28.4993 30.2985C28.5807 30.4859 28.4434 30.6953 28.2391 30.6953Z" fill="#7E7E7E"/>
<path d="M35.3918 23.0098C34.7982 23.0098 34.3169 23.491 34.3169 24.0847V34.0726C34.3169 34.6663 34.7982 35.1475 35.3918 35.1475C35.9855 35.1475 36.4668 34.6662 36.4668 34.0726V24.0847C36.4668 23.491 35.9855 23.0098 35.3918 23.0098Z" fill="#7E7E7E"/>
</svg>
