<svg width="49" height="48" viewBox="0 0 49 48" fill="none" xmlns="http://www.w3.org/2000/svg">
<path d="M3.70508 5.69141H5.30508V7.29141H3.70508V5.69141Z" fill="#7E7E7E"/>
<path d="M6.90479 5.69141H8.50478V7.29141H6.90479V5.69141Z" fill="#7E7E7E"/>
<path d="M10.105 5.69141H11.705V7.29141H10.105V5.69141Z" fill="#7E7E7E"/>
<path d="M3.70488 40.8912H17.8107L17.3743 45.6912H14.9049V47.2912H32.5049V45.6912H30.0355L29.5991 40.8912H43.7049C44.5533 40.8902 45.3667 40.5528 45.9666 39.9529C46.5665 39.353 46.9039 38.5396 46.9049 37.6912V20.0912H45.3049V32.8912H2.10488V10.4912H22.9049V8.89121H2.10488V5.69121C2.10539 5.26702 2.27412 4.86034 2.57407 4.5604C2.87402 4.26045 3.28069 4.09171 3.70488 4.09121H28.5049V2.49121H3.70488C2.85648 2.49216 2.0431 2.82961 1.44319 3.42952C0.843283 4.02943 0.505836 4.84281 0.504883 5.69121V37.6912C0.505836 38.5396 0.843283 39.353 1.44319 39.9529C2.0431 40.5528 2.85648 40.8902 3.70488 40.8912ZM28.4289 45.6912H18.9809L19.4173 40.8912H27.9925L28.4289 45.6912ZM45.3049 34.4912V37.6912C45.3044 38.1154 45.1356 38.5221 44.8357 38.822C44.5357 39.122 44.1291 39.2907 43.7049 39.2912H3.70488C3.28069 39.2907 2.87402 39.122 2.57407 38.822C2.27412 38.5221 2.10539 38.1154 2.10488 37.6912V34.4912H45.3049Z" fill="#7E7E7E"/>
<path d="M22.9048 36.0913H24.5048V37.6913H22.9048V36.0913Z" fill="#7E7E7E"/>
<path d="M36.5051 16.8913C37.4544 16.8913 38.3825 16.6097 39.1718 16.0823C39.9612 15.5549 40.5764 14.8052 40.9397 13.9281C41.303 13.0511 41.3981 12.0859 41.2128 11.1548C41.0276 10.2237 40.5705 9.36844 39.8992 8.69715C39.2279 8.02586 38.3726 7.5687 37.4415 7.38349C36.5104 7.19828 35.5453 7.29334 34.6682 7.65664C33.7911 8.01994 33.0415 8.63517 32.514 9.42452C31.9866 10.2139 31.7051 11.1419 31.7051 12.0913C31.7065 13.3639 32.2127 14.5839 33.1126 15.4838C34.0124 16.3836 35.2325 16.8898 36.5051 16.8913ZM36.5051 8.89126C37.138 8.89126 37.7567 9.07894 38.2829 9.43056C38.8091 9.78218 39.2193 10.282 39.4615 10.8667C39.7037 11.4514 39.7671 12.0948 39.6436 12.7155C39.5201 13.3363 39.2153 13.9065 38.7678 14.354C38.3203 14.8015 37.7501 15.1063 37.1294 15.2298C36.5086 15.3532 35.8652 15.2899 35.2805 15.0477C34.6958 14.8055 34.196 14.3953 33.8444 13.8691C33.4928 13.3428 33.3051 12.7242 33.3051 12.0913C33.306 11.2429 33.6435 10.4295 34.2434 9.82957C34.8433 9.22966 35.6567 8.89221 36.5051 8.89126Z" fill="#7E7E7E"/>
<path d="M26.4208 5.57812C26.2558 5.56957 26.0922 5.61237 25.9525 5.70062C25.8128 5.78887 25.7039 5.91824 25.6408 6.07092L24.5658 8.66632C24.5026 8.81894 24.4881 8.98738 24.5245 9.14853C24.5608 9.30968 24.6462 9.45562 24.7688 9.56632L26.7338 11.3403V12.8423L24.7688 14.6163C24.6462 14.727 24.5608 14.873 24.5245 15.0341C24.4881 15.1953 24.5026 15.3637 24.5658 15.5163L25.6408 18.1117C25.704 18.2643 25.8129 18.3937 25.9526 18.4819C26.0923 18.5701 26.2558 18.613 26.4208 18.6045L29.0647 18.4695L30.1267 19.5315L29.9917 22.1754C29.9833 22.3404 30.0261 22.504 30.1143 22.6436C30.2026 22.7833 30.3319 22.8922 30.4845 22.9554L33.0799 24.0304C33.2325 24.0936 33.401 24.1081 33.5621 24.0717C33.7233 24.0354 33.8692 23.95 33.9799 23.8274L35.7539 21.8624H37.2559L39.0299 23.8274C39.1406 23.95 39.2865 24.0354 39.4477 24.0717C39.6088 24.1081 39.7773 24.0936 39.9299 24.0304L42.5253 22.9554C42.6779 22.8922 42.8072 22.7833 42.8955 22.6436C42.9837 22.504 43.0265 22.3404 43.0181 22.1754L42.8831 19.5315L43.9451 18.4695L46.589 18.6045C46.754 18.6133 46.9177 18.5705 47.0574 18.4823C47.1971 18.394 47.306 18.2645 47.369 18.1117L48.444 15.5163C48.5072 15.3637 48.5216 15.1953 48.4853 15.0341C48.4489 14.873 48.3636 14.727 48.241 14.6163L46.276 12.8423V11.3403L48.241 9.56632C48.3636 9.45562 48.4489 9.30968 48.4853 9.14853C48.5216 8.98738 48.5072 8.81894 48.444 8.66632L47.369 6.07132C47.3058 5.9187 47.1968 5.78939 47.0572 5.70115C46.9175 5.61291 46.754 5.57008 46.589 5.57852L43.9449 5.71312L42.8831 4.65132L43.0181 2.00742C43.0265 1.84244 42.9837 1.67889 42.8955 1.53922C42.8072 1.39956 42.6779 1.29064 42.5253 1.22742L39.9299 0.152223C39.7773 0.0889966 39.6088 0.0745666 39.4477 0.110914C39.2865 0.147262 39.1406 0.232604 39.0299 0.355223L37.2559 2.32022H35.7539L33.9799 0.355223C33.8692 0.232604 33.7233 0.147262 33.5621 0.110914C33.401 0.0745666 33.2325 0.0889966 33.0799 0.152223L30.4849 1.22722C30.3323 1.29044 30.203 1.39936 30.1147 1.53902C30.0265 1.67869 29.9836 1.84224 29.9921 2.00722L30.1271 4.65112L29.0649 5.71312L26.4208 5.57812ZM29.9449 7.09592L31.5095 5.53132C31.5886 5.45217 31.6503 5.3573 31.6905 5.25283C31.7307 5.14835 31.7485 5.03661 31.7428 4.92482L31.6184 2.48972L33.1706 1.84682L34.8049 3.65632C34.8799 3.7394 34.9715 3.80582 35.0738 3.85128C35.1761 3.89673 35.2868 3.92022 35.3987 3.92022H37.6117C37.7235 3.92014 37.8341 3.89661 37.9363 3.85115C38.0384 3.8057 38.13 3.73933 38.2049 3.65632L39.8389 1.84632L41.3911 2.48922L41.2667 4.92432C41.261 5.03611 41.2788 5.14785 41.319 5.25233C41.3592 5.3568 41.4208 5.45167 41.5 5.53082L43.0649 7.09592C43.1441 7.17501 43.239 7.23664 43.3434 7.27682C43.4479 7.317 43.5596 7.33485 43.6714 7.32922L46.1065 7.20482L46.7494 8.75702L44.9399 10.3913C44.8568 10.4663 44.7904 10.5579 44.7449 10.6602C44.6995 10.7625 44.676 10.8732 44.676 10.9851V13.1981C44.6761 13.3099 44.6996 13.4205 44.7451 13.5227C44.7905 13.6249 44.8569 13.7164 44.9399 13.7913L46.7499 15.4253L46.107 16.9775L43.6719 16.8531C43.5601 16.8474 43.4483 16.8652 43.3439 16.9053C43.2394 16.9455 43.1445 17.0072 43.0654 17.0864L41.5003 18.6513C41.4211 18.7305 41.3595 18.8253 41.3193 18.9298C41.2791 19.0343 41.2613 19.146 41.267 19.2578L41.3914 21.6929L39.8392 22.3358L38.2049 20.5263C38.1299 20.4432 38.0383 20.3768 37.936 20.3314C37.8337 20.2859 37.723 20.2624 37.6111 20.2624H35.3981C35.2863 20.2625 35.1757 20.286 35.0735 20.3315C34.9713 20.3769 34.8798 20.4433 34.8049 20.5263L33.1709 22.3363L31.6187 21.6934L31.7431 19.2583C31.7488 19.1465 31.731 19.0348 31.6908 18.9303C31.6506 18.8258 31.5889 18.731 31.5098 18.6518L29.9449 17.0867C29.8657 17.0076 29.7708 16.946 29.6663 16.9058C29.5619 16.8657 29.4502 16.8478 29.3384 16.8534L26.9033 16.9778L26.2604 15.4256L28.0699 13.7913C28.153 13.7163 28.2194 13.6247 28.2648 13.5224C28.3103 13.4201 28.3338 13.3094 28.3338 13.1975V10.9845C28.3337 10.8727 28.3102 10.7621 28.2647 10.6599C28.2193 10.5578 28.1529 10.4663 28.0699 10.3913L26.2599 8.75732L26.9028 7.20512L29.3379 7.32952C29.4498 7.33523 29.5616 7.31739 29.6662 7.27715C29.7707 7.23691 29.8657 7.17517 29.9449 7.09592Z" fill="#7E7E7E"/>
<path d="M9.30488 13.6914C9.30488 13.4792 9.2206 13.2757 9.07057 13.1257C8.92054 12.9756 8.71705 12.8914 8.50488 12.8914H5.30488C5.09271 12.8914 4.88923 12.9756 4.7392 13.1257C4.58917 13.2757 4.50488 13.4792 4.50488 13.6914V16.8914C4.50488 17.1035 4.58917 17.307 4.7392 17.457C4.88923 17.6071 5.09271 17.6914 5.30488 17.6914H8.50488C8.71705 17.6914 8.92054 17.6071 9.07057 17.457C9.2206 17.307 9.30488 17.1035 9.30488 16.8914V13.6914ZM7.70488 16.0914H6.10488V14.4914H7.70488V16.0914Z" fill="#7E7E7E"/>
<path d="M15.7048 13.6914C15.7048 13.4792 15.6205 13.2757 15.4705 13.1257C15.3204 12.9756 15.117 12.8914 14.9048 12.8914H11.7048C11.4926 12.8914 11.2891 12.9756 11.1391 13.1257C10.9891 13.2757 10.9048 13.4792 10.9048 13.6914V16.8914C10.9048 17.1035 10.9891 17.307 11.1391 17.457C11.2891 17.6071 11.4926 17.6914 11.7048 17.6914H14.9048C15.117 17.6914 15.3204 17.6071 15.4705 17.457C15.6205 17.307 15.7048 17.1035 15.7048 16.8914V13.6914ZM14.1048 16.0914H12.5048V14.4914H14.1048V16.0914Z" fill="#7E7E7E"/>
<path d="M22.1047 13.6914C22.1047 13.4792 22.0204 13.2757 21.8704 13.1257C21.7203 12.9756 21.5169 12.8914 21.3047 12.8914H18.1047C17.8925 12.8914 17.689 12.9756 17.539 13.1257C17.389 13.2757 17.3047 13.4792 17.3047 13.6914V16.8914C17.3047 17.1035 17.389 17.307 17.539 17.457C17.689 17.6071 17.8925 17.6914 18.1047 17.6914H21.3047C21.5169 17.6914 21.7203 17.6071 21.8704 17.457C22.0204 17.307 22.1047 17.1035 22.1047 16.8914V13.6914ZM20.5047 16.0914H18.9047V14.4914H20.5047V16.0914Z" fill="#7E7E7E"/>
<path d="M9.30488 20.0913C9.30488 19.8791 9.2206 19.6756 9.07057 19.5256C8.92054 19.3755 8.71705 19.2913 8.50488 19.2913H5.30488C5.09271 19.2913 4.88923 19.3755 4.7392 19.5256C4.58917 19.6756 4.50488 19.8791 4.50488 20.0913V23.2913C4.50488 23.5034 4.58917 23.7069 4.7392 23.8569C4.88923 24.007 5.09271 24.0913 5.30488 24.0913H8.50488C8.71705 24.0913 8.92054 24.007 9.07057 23.8569C9.2206 23.7069 9.30488 23.5034 9.30488 23.2913V20.0913ZM7.70488 22.4913H6.10488V20.8913H7.70488V22.4913Z" fill="#7E7E7E"/>
<path d="M15.7048 20.0913C15.7048 19.8791 15.6205 19.6756 15.4705 19.5256C15.3204 19.3755 15.117 19.2913 14.9048 19.2913H11.7048C11.4926 19.2913 11.2891 19.3755 11.1391 19.5256C10.9891 19.6756 10.9048 19.8791 10.9048 20.0913V23.2913C10.9048 23.5034 10.9891 23.7069 11.1391 23.8569C11.2891 24.007 11.4926 24.0913 11.7048 24.0913H14.9048C15.117 24.0913 15.3204 24.007 15.4705 23.8569C15.6205 23.7069 15.7048 23.5034 15.7048 23.2913V20.0913ZM14.1048 22.4913H12.5048V20.8913H14.1048V22.4913Z" fill="#7E7E7E"/>
<path d="M22.1047 20.0913C22.1047 19.8791 22.0204 19.6756 21.8704 19.5256C21.7203 19.3755 21.5169 19.2913 21.3047 19.2913H18.1047C17.8925 19.2913 17.689 19.3755 17.539 19.5256C17.389 19.6756 17.3047 19.8791 17.3047 20.0913V23.2913C17.3047 23.5034 17.389 23.7069 17.539 23.8569C17.689 24.007 17.8925 24.0913 18.1047 24.0913H21.3047C21.5169 24.0913 21.7203 24.007 21.8704 23.8569C22.0204 23.7069 22.1047 23.5034 22.1047 23.2913V20.0913ZM20.5047 22.4913H18.9047V20.8913H20.5047V22.4913Z" fill="#7E7E7E"/>
<path d="M8.50488 25.6914H5.30488C5.09271 25.6914 4.88923 25.7757 4.7392 25.9257C4.58917 26.0757 4.50488 26.2792 4.50488 26.4914V29.6914C4.50488 29.9036 4.58917 30.1071 4.7392 30.2571C4.88923 30.4071 5.09271 30.4914 5.30488 30.4914H8.50488C8.71705 30.4914 8.92054 30.4071 9.07057 30.2571C9.2206 30.1071 9.30488 29.9036 9.30488 29.6914V26.4914C9.30488 26.2792 9.2206 26.0757 9.07057 25.9257C8.92054 25.7757 8.71705 25.6914 8.50488 25.6914ZM7.70488 28.8914H6.10488V27.2914H7.70488V28.8914Z" fill="#7E7E7E"/>
<path d="M14.9048 25.6914H11.7048C11.4926 25.6914 11.2891 25.7757 11.1391 25.9257C10.9891 26.0757 10.9048 26.2792 10.9048 26.4914V29.6914C10.9048 29.9036 10.9891 30.1071 11.1391 30.2571C11.2891 30.4071 11.4926 30.4914 11.7048 30.4914H14.9048C15.117 30.4914 15.3204 30.4071 15.4705 30.2571C15.6205 30.1071 15.7048 29.9036 15.7048 29.6914V26.4914C15.7048 26.2792 15.6205 26.0757 15.4705 25.9257C15.3204 25.7757 15.117 25.6914 14.9048 25.6914ZM14.1048 28.8914H12.5048V27.2914H14.1048V28.8914Z" fill="#7E7E7E"/>
<path d="M21.3047 25.6914H18.1047C17.8925 25.6914 17.689 25.7757 17.539 25.9257C17.389 26.0757 17.3047 26.2792 17.3047 26.4914V29.6914C17.3047 29.9036 17.389 30.1071 17.539 30.2571C17.689 30.4071 17.8925 30.4914 18.1047 30.4914H21.3047C21.5169 30.4914 21.7203 30.4071 21.8704 30.2571C22.0204 30.1071 22.1047 29.9036 22.1047 29.6914V26.4914C22.1047 26.2792 22.0204 26.0757 21.8704 25.9257C21.7203 25.7757 21.5169 25.6914 21.3047 25.6914ZM20.5047 28.8914H18.9047V27.2914H20.5047V28.8914Z" fill="#7E7E7E"/>
<path d="M26.105 25.6914H27.705V27.2914H26.105V25.6914Z" fill="#7E7E7E"/>
<path d="M29.3047 25.6914H42.9047V27.2914H29.3047V25.6914Z" fill="#7E7E7E"/>
<path d="M24.5049 28.8914H39.7049V30.4914H24.5049V28.8914Z" fill="#7E7E7E"/>
</svg>
