<svg width="55" height="55" viewBox="0 0 55 55" fill="none" xmlns="http://www.w3.org/2000/svg">
<path d="M53.964 23.6853C53.8797 23.6529 50.1967 23.7153 48.76 19.8428C48.5767 19.3543 48.3765 18.8834 48.1647 18.4072C46.4506 14.6224 49.0866 12.0741 49.1242 11.9895C49.4035 11.6542 49.3812 11.1615 49.0727 10.853L44.5842 6.36442C44.2764 6.05624 43.7829 6.03409 43.4476 6.31295C43.3631 6.3505 40.8298 8.99397 37.0247 7.27029C36.5539 7.06062 36.083 6.86044 35.592 6.67629C31.7192 5.23939 31.7843 1.55747 31.7519 1.4731C31.7145 1.03646 31.3494 0.701172 30.9111 0.701172H24.5672C24.1288 0.701172 23.7639 1.03646 23.7264 1.4731C23.694 1.55747 23.7563 5.24055 19.8838 6.67714C19.3953 6.86044 18.9244 7.06062 18.4482 7.2724C14.6632 8.98564 12.115 6.35039 12.0305 6.31295C11.6956 6.03367 11.2025 6.05593 10.894 6.36442L6.40544 10.853C6.09694 11.1615 6.07469 11.6542 6.35397 11.9895C6.39278 12.0769 9.03762 14.5993 7.31131 18.4124C7.10164 18.8832 6.90146 19.3542 6.71731 19.8451C5.2804 23.7179 1.59849 23.6529 1.51411 23.6852C1.07747 23.7227 0.742188 24.0877 0.742188 24.526V30.87C0.742188 31.3083 1.07747 31.6732 1.51411 31.7108L1.90382 31.7437C4.07637 31.946 5.92113 33.4046 6.71815 35.5533C6.90146 36.0419 7.10164 36.5128 7.31342 36.989C9.0276 40.7737 6.39152 43.322 6.35397 43.4066C6.07469 43.7419 6.09694 44.2347 6.40544 44.5432L10.894 49.0317C11.2037 49.341 11.6968 49.3633 12.0309 49.0827C12.1153 49.0453 14.6402 46.3998 18.4536 48.1258C18.9244 48.3355 19.3953 48.5357 19.8867 48.7198C23.7596 50.1563 23.694 53.8386 23.7264 53.923C23.7638 54.3597 24.1288 54.695 24.5672 54.695H30.9111C31.3494 54.695 31.7144 54.3597 31.7519 53.923C31.7843 53.8386 31.7213 50.155 35.5944 48.719C36.083 48.5357 36.5539 48.3355 37.0301 48.1237C40.814 46.4081 43.3628 49.0453 43.4473 49.0827C43.7819 49.3629 44.2754 49.3406 44.5843 49.0317L49.0728 44.5432C49.3813 44.2347 49.4036 43.7419 49.1243 43.4066C49.0855 43.3192 46.4406 40.7967 48.167 36.9837C48.3766 36.5129 48.5768 36.042 48.7609 35.551C50.1979 31.6782 53.8798 31.7433 53.9641 31.7109C54.4008 31.6734 54.7361 31.3084 54.7361 30.8701V24.5261C54.736 24.0878 54.4007 23.7229 53.964 23.6853ZM53.0487 30.1075C50.3863 30.4931 48.1581 32.3255 47.1798 34.961C47.0088 35.4175 46.821 35.8578 46.6273 36.2929C45.4603 38.8704 45.7396 41.7449 47.3421 43.8879L43.9291 47.3009C41.7854 45.6988 38.9112 45.4195 36.3391 46.5845C35.8987 46.7802 35.4583 46.968 35.0048 47.1381C32.3679 48.116 30.5365 50.3418 30.1488 53.0079H25.3295C24.9439 50.3451 23.112 48.1169 20.476 47.139C20.0196 46.968 19.5792 46.7802 19.1442 46.5865C16.567 45.4203 13.6933 45.6988 11.5488 47.3009L8.13586 43.8879C9.73836 41.745 10.0181 38.8704 8.85263 36.2982C8.65698 35.8579 8.46914 35.4175 8.29902 34.9635C7.3207 32.3271 5.09457 30.496 2.42927 30.108V25.2887C5.09161 24.9031 7.31985 23.0708 8.29818 20.4352C8.46914 19.9787 8.65699 19.5384 8.85063 19.1034C10.0176 16.5258 9.73836 13.6514 8.13586 11.5083L11.5493 8.09495C13.6917 9.69787 16.5671 9.97715 19.1389 8.81172C19.5792 8.61607 20.0197 8.42823 20.4736 8.25811C23.11 7.27979 24.9411 5.05366 25.3292 2.38836H30.1485C30.534 5.0507 32.3664 7.27894 35.0019 8.25727C35.4584 8.42823 35.8987 8.61607 36.3338 8.80972C38.9109 9.97715 41.7862 9.69829 43.9288 8.09495L47.3422 11.5083C45.7397 13.6513 45.46 16.5258 46.6254 19.098C46.8211 19.5383 47.0089 19.9788 47.179 20.4327C48.1582 23.0708 50.3864 24.9031 53.0488 25.2887L53.0487 30.1075Z" fill="url(#paint0_linear_1008_810)"/>
<path d="M27.7391 9.55961C17.7376 9.55961 9.60052 17.6967 9.60052 27.6982C9.60052 37.6997 17.7376 45.8368 27.7391 45.8368C37.7406 45.8368 45.8778 37.6997 45.8778 27.6982C45.8778 17.6967 37.7406 9.55961 27.7391 9.55961ZM27.7391 44.1496C18.6678 44.1496 11.2878 36.7696 11.2878 27.6982C11.2878 18.6269 18.6678 11.2469 27.7391 11.2469C36.8105 11.2469 44.1905 18.6269 44.1905 27.6982C44.1905 36.7696 36.8105 44.1496 27.7391 44.1496Z" fill="url(#paint1_linear_1008_810)"/>
<path d="M36.7405 27.6777H27.7589V18.7018C27.7589 18.236 27.3811 17.8582 26.9152 17.8582C21.0323 17.8582 16.2459 22.6392 16.2459 28.5155C16.2459 34.3984 21.0323 39.1848 26.9152 39.1848C32.7945 39.1848 37.5804 34.4014 37.5841 28.5217C37.5841 28.0523 37.2034 27.6777 36.7405 27.6777ZM26.9152 37.4975C21.9624 37.4975 17.9333 33.4683 17.9333 28.5156C17.9333 23.8537 21.5131 20.0107 26.0716 19.5847V28.5214C26.0716 28.9873 26.4494 29.3651 26.9152 29.3651H35.8569C35.4276 33.9206 31.5801 37.4975 26.9152 37.4975Z" fill="url(#paint2_linear_1008_810)"/>
<path d="M29.6097 15.1637C29.1439 15.1637 28.7661 15.5415 28.7661 16.0073V25.8272C28.7661 26.2931 29.1439 26.6709 29.6097 26.6709H39.4346C39.8976 26.6709 40.2791 26.2971 40.2791 25.821C40.2791 19.9447 35.4927 15.1637 29.6097 15.1637ZM30.4534 24.9836V16.8901C34.7359 17.2905 38.1546 20.706 38.553 24.9836H30.4534Z" fill="url(#paint3_linear_1008_810)"/>
<defs>
<linearGradient id="paint0_linear_1008_810" x1="26.0035" y1="0.701172" x2="27.7391" y2="54.695" gradientUnits="userSpaceOnUse">
<stop stop-color="#B2F0FB"/>
<stop offset="1" stop-color="#1783F7"/>
</linearGradient>
<linearGradient id="paint1_linear_1008_810" x1="26.0035" y1="0.701172" x2="27.7391" y2="54.695" gradientUnits="userSpaceOnUse">
<stop stop-color="#B2F0FB"/>
<stop offset="1" stop-color="#1783F7"/>
</linearGradient>
<linearGradient id="paint2_linear_1008_810" x1="26.0035" y1="0.701172" x2="27.7391" y2="54.695" gradientUnits="userSpaceOnUse">
<stop stop-color="#B2F0FB"/>
<stop offset="1" stop-color="#1783F7"/>
</linearGradient>
<linearGradient id="paint3_linear_1008_810" x1="26.0035" y1="0.701172" x2="27.7391" y2="54.695" gradientUnits="userSpaceOnUse">
<stop stop-color="#B2F0FB"/>
<stop offset="1" stop-color="#1783F7"/>
</linearGradient>
</defs>
</svg>
