<svg width="55" height="55" viewBox="0 0 55 55" fill="none" xmlns="http://www.w3.org/2000/svg">
<path d="M22.5178 36.9579H31.5179C33.0091 36.9579 34.2179 35.749 34.2179 34.2578V26.1577C34.2179 24.6665 33.0091 23.4576 31.5179 23.4576V21.6576C31.5179 19.1723 29.5031 17.1575 27.0178 17.1575C24.5325 17.1575 22.5178 19.1723 22.5178 21.6576V23.4576C21.0266 23.4576 19.8177 24.6665 19.8177 26.1577V34.2578C19.8177 35.749 21.0266 36.9579 22.5178 36.9579ZM24.3178 21.6576C24.3178 20.1664 25.5266 18.9576 27.0178 18.9576C28.509 18.9576 29.7179 20.1664 29.7179 21.6576V23.4576H24.3178V21.6576ZM21.6177 26.1577C21.6177 25.6606 22.0207 25.2577 22.5178 25.2577H31.5179C32.015 25.2577 32.4179 25.6606 32.4179 26.1577V34.2578C32.4179 34.7549 32.015 35.1578 31.5179 35.1578H22.5178C22.0207 35.1578 21.6177 34.7549 21.6177 34.2578V26.1577Z" fill="url(#paint0_linear_1008_1029)"/>
<path d="M26.1178 32.2922V32.4578C26.1178 32.9549 26.5207 33.3578 27.0178 33.3578C27.5149 33.3578 27.9178 32.9549 27.9178 32.4578V32.2922C29.1576 31.8539 29.9013 30.5861 29.679 29.29C29.4566 27.9939 28.3328 27.0465 27.0178 27.0465C25.7028 27.0465 24.579 27.9939 24.3566 29.29C24.1343 30.5861 24.878 31.8539 26.1178 32.2922ZM27.0178 28.8577C27.5149 28.8577 27.9178 29.2607 27.9178 29.7578C27.9178 30.2548 27.5149 30.6578 27.0178 30.6578C26.5207 30.6578 26.1178 30.2548 26.1178 29.7578C26.1178 29.2607 26.5207 28.8577 27.0178 28.8577Z" fill="url(#paint1_linear_1008_1029)"/>
<path d="M11.7175 27.9577C11.7175 36.4078 18.5676 43.258 27.0177 43.258C35.4678 43.258 42.318 36.4078 42.318 27.9577C42.318 19.5076 35.4678 12.6575 27.0177 12.6575C18.5716 12.6669 11.7269 19.5116 11.7175 27.9577ZM27.0177 14.4575C34.4737 14.4575 40.5179 20.5018 40.5179 27.9577C40.5179 35.4137 34.4737 41.4579 27.0177 41.4579C19.5618 41.4579 13.5175 35.4137 13.5175 27.9577C13.526 20.5053 19.5653 14.466 27.0177 14.4575Z" fill="url(#paint2_linear_1008_1029)"/>
<path d="M45.0181 47.758C43.3815 47.7642 41.955 48.8734 41.5458 50.4581H35.1179V45.0175C37.1302 44.0702 38.9585 42.7736 40.518 41.1879C40.7486 40.9594 40.8382 40.6244 40.7526 40.3113C40.6669 39.9982 40.4193 39.7555 40.1046 39.6761C39.7898 39.5967 39.4567 39.6929 39.2328 39.9279C37.7047 41.4902 35.8907 42.7444 33.8894 43.6225C33.7686 43.6704 33.6598 43.7445 33.5708 43.8394C33.5609 43.8502 33.5555 43.8646 33.5456 43.8772C33.4798 43.9504 33.4266 44.034 33.3881 44.1247C33.3705 44.1812 33.3587 44.2394 33.353 44.2984C33.3363 44.3493 33.3245 44.4018 33.3179 44.455V50.4581C33.3179 51.4522 34.1238 52.2581 35.1179 52.2581H41.5458C42.0167 54.0649 43.7929 55.2102 45.6331 54.8934C47.4732 54.5767 48.7643 52.9035 48.6039 51.0432C48.4436 49.1829 46.8853 47.7552 45.0181 47.758ZM45.0181 53.1581C44.024 53.1581 43.2181 52.3522 43.2181 51.3581C43.2181 50.3639 44.024 49.558 45.0181 49.558C46.0122 49.558 46.8181 50.3639 46.8181 51.3581C46.8181 52.3522 46.0122 53.1581 45.0181 53.1581Z" fill="url(#paint3_linear_1008_1029)"/>
<path d="M7.0897 37.8579H11.4386C11.4458 37.8579 11.4521 37.8534 11.4602 37.8534C11.5497 37.8494 11.6381 37.8315 11.7221 37.8003C11.7641 37.7865 11.805 37.7697 11.8445 37.7499C11.8544 37.7445 11.8661 37.7427 11.876 37.7364C11.8859 37.7301 11.9012 37.7112 11.9156 37.7013C11.9972 37.6509 12.0697 37.587 12.1298 37.5123C12.1404 37.4984 12.1503 37.484 12.1595 37.4691C12.2177 37.3871 12.2616 37.2958 12.2891 37.1991C12.2891 37.1856 12.2945 37.1721 12.2972 37.1586C12.319 37.0936 12.3329 37.0262 12.3386 36.9579C12.3339 36.9238 12.327 36.8902 12.3179 36.8571C12.3179 36.8454 12.3179 36.8346 12.3116 36.822C12.2963 36.7164 12.2618 36.6145 12.2099 36.5214L12.2054 36.507C11.2825 34.9139 10.6253 33.1812 10.2595 31.3769C10.1601 30.8898 9.68465 30.5755 9.19753 30.6749C8.71041 30.7743 8.39611 31.2498 8.49552 31.7369C8.79833 33.23 9.2819 34.6807 9.93554 36.057H7.0897C6.63648 34.3017 4.94876 33.1572 3.15034 33.3856C1.35192 33.614 0.00390625 35.1441 0.00390625 36.957C0.00390625 38.7698 1.35192 40.2999 3.15034 40.5283C4.94876 40.7568 6.63648 39.6132 7.0897 37.8579ZM3.61745 38.7579C2.62332 38.7579 1.81742 37.952 1.81742 36.9579C1.81742 35.9637 2.62332 35.1578 3.61745 35.1578C4.61157 35.1578 5.41747 35.9637 5.41747 36.9579C5.41747 37.952 4.61157 38.7579 3.61745 38.7579Z" fill="url(#paint4_linear_1008_1029)"/>
<path d="M0.0172989 18.9576C0.0150473 20.7682 1.36045 22.2976 3.15659 22.5262C4.95272 22.7548 6.6383 21.6111 7.08961 19.8576H11.4628C11.5516 19.8525 11.6392 19.8347 11.7229 19.8045C11.7624 19.7919 11.8009 19.7762 11.8381 19.7577C11.8861 19.7324 11.9313 19.7023 11.9731 19.6677C12.049 19.6104 12.1147 19.5407 12.1675 19.4616C12.1792 19.4445 12.1945 19.4319 12.2053 19.4139C13.3593 17.4112 14.908 15.6638 16.7576 14.2775C17.0148 14.0846 17.1496 13.7691 17.1111 13.4499C17.0726 13.1306 16.8668 12.8562 16.5711 12.7298C16.2754 12.6035 15.9348 12.6446 15.6775 12.8375C13.7835 14.2643 12.1753 16.0352 10.9372 18.0576H7.08961C6.6383 16.3041 4.95272 15.1604 3.15659 15.389C1.36045 15.6176 0.0150473 17.147 0.0172989 18.9576ZM5.41738 18.9576C5.41738 19.9517 4.61148 20.7576 3.61736 20.7576C2.62323 20.7576 1.81733 19.9517 1.81733 18.9576C1.81733 17.9635 2.62323 17.1576 3.61736 17.1576C4.09475 17.1576 4.5526 17.3472 4.89017 17.6848C5.22774 18.0224 5.41738 18.4802 5.41738 18.9576Z" fill="url(#paint5_linear_1008_1029)"/>
<path d="M50.4182 33.3578C48.7816 33.364 47.3551 34.4732 46.9459 36.0579H44.0992C44.7534 34.6819 45.237 33.2311 45.5392 31.7378C45.6386 31.2504 45.3241 30.7747 44.8367 30.6753C44.3494 30.5759 43.8737 30.8904 43.7743 31.3778C43.4092 33.182 42.7526 34.9148 41.8302 36.5079V36.5196C41.7765 36.6147 41.741 36.7191 41.7258 36.8274C41.7258 36.8373 41.7258 36.8463 41.7195 36.8562C41.7103 36.8897 41.7027 36.9236 41.697 36.9579C41.7025 37.0286 41.7164 37.0984 41.7384 37.1658C41.7384 37.1775 41.7384 37.1892 41.7456 37.2009C41.7736 37.2979 41.8184 37.3893 41.8779 37.4709C41.8869 37.4844 41.8941 37.4979 41.904 37.5105C41.965 37.5856 42.038 37.6501 42.12 37.7013C42.1344 37.7112 42.1434 37.7265 42.1587 37.7355C42.174 37.7445 42.1804 37.7436 42.1903 37.749C42.2302 37.7694 42.2717 37.7865 42.3144 37.8003C42.3981 37.8304 42.4857 37.848 42.5746 37.8525C42.5827 37.8525 42.589 37.857 42.5971 37.857H46.9459C47.4164 39.6641 49.1925 40.8098 51.0328 40.4933C52.8732 40.1768 54.1645 38.5036 54.0042 36.6431C53.844 34.7827 52.2855 33.3549 50.4182 33.3578ZM50.4182 38.7579C49.424 38.7579 48.6181 37.952 48.6181 36.9579C48.6181 35.9637 49.424 35.1578 50.4182 35.1578C51.4123 35.1578 52.2182 35.9637 52.2182 36.9579C52.2182 37.952 51.4123 38.7579 50.4182 38.7579Z" fill="url(#paint6_linear_1008_1029)"/>
<path d="M20.7176 44.455C20.7119 44.4045 20.702 44.3545 20.6879 44.3056C20.6816 44.2445 20.6692 44.1842 20.651 44.1256C20.6132 44.0363 20.5609 43.9539 20.4962 43.8817C20.4845 43.8682 20.4791 43.852 20.4674 43.8394C20.3781 43.7445 20.2691 43.6705 20.1479 43.6225C17.792 42.5827 15.699 41.0284 14.0224 39.0738C13.8162 38.82 13.4885 38.6979 13.1665 38.7551C12.8445 38.8123 12.5788 39.0396 12.4726 39.349C12.3664 39.6583 12.4363 40.0009 12.6553 40.2438C14.3861 42.2585 16.5192 43.8888 18.9176 45.0301V50.4581H12.4897C12.0365 48.7028 10.3488 47.5583 8.55034 47.7867C6.75192 48.0152 5.40391 49.5452 5.40391 51.3581C5.40391 53.171 6.75192 54.701 8.55034 54.9295C10.3488 55.1579 12.0365 54.0134 12.4897 52.2581H18.9176C19.9117 52.2581 20.7176 51.4522 20.7176 50.4581V44.455ZM9.01745 53.1581C8.02332 53.1581 7.21742 52.3522 7.21742 51.3581C7.21742 50.364 8.02332 49.5581 9.01745 49.5581C10.0116 49.5581 10.8175 50.364 10.8175 51.3581C10.8175 52.3522 10.0116 53.1581 9.01745 53.1581Z" fill="url(#paint7_linear_1008_1029)"/>
<path d="M30.4379 44.716C28.1804 45.1693 25.8553 45.1693 23.5978 44.716C23.2793 44.6429 22.9463 44.7482 22.7277 44.991C22.5091 45.2337 22.4392 45.5759 22.5451 45.885C22.6511 46.1941 22.9162 46.4214 23.2378 46.4791C24.1878 46.6637 25.1507 46.7753 26.1178 46.813V54.0581C26.1178 54.5552 26.5207 54.9581 27.0178 54.9581C27.5149 54.9581 27.9178 54.5552 27.9178 54.0581V46.813C28.885 46.7754 29.8478 46.6637 30.7979 46.4791C31.2741 46.3698 31.5762 45.9005 31.4785 45.4218C31.3807 44.9431 30.9188 44.6298 30.4379 44.716Z" fill="url(#paint8_linear_1008_1029)"/>
<path d="M18.9176 3.65734H12.4897C12.0365 1.90204 10.3488 0.757562 8.55034 0.985991C6.75192 1.21442 5.40391 2.74448 5.40391 4.55735C5.40391 6.37022 6.75192 7.90029 8.55034 8.12871C10.3488 8.35714 12.0365 7.21267 12.4897 5.45737H18.9176V11.4623C18.9176 11.4983 18.9347 11.5334 18.9392 11.5694C18.9486 11.6625 18.9726 11.7536 19.0103 11.8394C19.0477 11.9196 19.0975 11.9934 19.1579 12.0581C19.1881 12.0907 19.2209 12.1208 19.256 12.1481C19.3001 12.1841 19.3474 12.2161 19.3973 12.2435C19.4389 12.2665 19.4823 12.2864 19.5269 12.3029C19.5913 12.3233 19.6577 12.3366 19.7249 12.3425C19.7545 12.3506 19.7846 12.3569 19.8149 12.3614C19.9439 12.3587 20.0707 12.3279 20.1866 12.2714C21.283 11.796 22.4263 11.437 23.5977 11.2004C24.085 11.1009 24.3995 10.6253 24.3001 10.1379C24.2007 9.65052 23.725 9.33601 23.2377 9.43543C22.3823 9.61044 21.5403 9.84501 20.7176 10.1374V5.45737C20.7176 4.46324 19.9117 3.65734 18.9176 3.65734ZM9.01745 6.35738C8.02332 6.35738 7.21742 5.55148 7.21742 4.55735C7.21742 3.56323 8.02332 2.75733 9.01745 2.75733C10.0116 2.75733 10.8175 3.56323 10.8175 4.55735C10.8175 5.03475 10.6278 5.49259 10.2903 5.83016C9.95269 6.16774 9.49484 6.35738 9.01745 6.35738Z" fill="url(#paint9_linear_1008_1029)"/>
<path d="M41.5458 5.45737C41.9991 7.21267 43.6868 8.35714 45.4852 8.12872C47.2836 7.90029 48.6316 6.37022 48.6316 4.55735C48.6316 2.74448 47.2836 1.21442 45.4852 0.985991C43.6868 0.757562 41.9991 1.90204 41.5458 3.65734H35.1179C34.1238 3.65734 33.3179 4.46324 33.3179 5.45737V11.4596C33.3234 11.5126 33.3339 11.5651 33.3494 11.6162C33.3551 11.6751 33.3669 11.7333 33.3845 11.7899C33.423 11.8805 33.4762 11.9641 33.542 12.0374C33.5519 12.0491 33.5573 12.0644 33.5672 12.0752C33.6562 12.17 33.765 12.2441 33.8858 12.2921C35.8867 13.1687 37.7007 14.4214 39.2292 15.9821C39.4499 16.2274 39.7872 16.3322 40.108 16.2553C40.4289 16.1784 40.6819 15.932 40.7675 15.6134C40.853 15.2947 40.7573 14.9547 40.518 14.7275C38.9586 13.1418 37.1302 11.8452 35.1179 10.898V5.45737H41.5458ZM45.0181 2.75733C46.0122 2.75733 46.8181 3.56323 46.8181 4.55735C46.8181 5.55148 46.0122 6.35738 45.0181 6.35738C44.024 6.35738 43.2181 5.55148 43.2181 4.55735C43.2181 3.56323 44.024 2.75733 45.0181 2.75733Z" fill="url(#paint10_linear_1008_1029)"/>
<path d="M27.0177 0.957289C26.5207 0.957289 26.1177 1.36024 26.1177 1.8573V9.95743C26.1177 10.4545 26.5207 10.8574 27.0177 10.8574C28.1663 10.8572 29.312 10.9718 30.4378 11.1994C30.497 11.2116 30.5573 11.2177 30.6178 11.2174C31.0785 11.2157 31.4635 10.8663 31.5098 10.4079C31.5561 9.94956 31.2488 9.53022 30.7978 9.43632C29.8477 9.25166 28.8849 9.14003 27.9177 9.10241V1.8573C27.9177 1.36024 27.5148 0.957289 27.0177 0.957289Z" fill="url(#paint11_linear_1008_1029)"/>
<path d="M46.9459 19.8576C47.3991 21.6129 49.0869 22.7574 50.8853 22.5289C52.6837 22.3005 54.0317 20.7704 54.0317 18.9576C54.0317 17.1447 52.6837 15.6146 50.8853 15.3862C49.0869 15.1578 47.3991 16.3022 46.9459 18.0575H42.5971C42.58 18.0575 42.5665 18.0665 42.5503 18.0665C42.4981 18.0722 42.4466 18.0827 42.3964 18.098C42.3224 18.1126 42.2507 18.1368 42.183 18.17C42.1758 18.17 42.1668 18.17 42.1587 18.179C42.1506 18.188 42.1353 18.2033 42.12 18.2132C42.038 18.2645 41.965 18.329 41.904 18.4041C41.8941 18.4167 41.8869 18.4302 41.8779 18.4437C41.8184 18.5252 41.7736 18.6166 41.7456 18.7137C41.7456 18.7254 41.7456 18.7371 41.7384 18.7488C41.7163 18.8164 41.7024 18.8866 41.697 18.9576C41.7018 18.9921 41.7084 19.0263 41.7168 19.0602C41.7168 19.0701 41.7213 19.0791 41.7231 19.089C41.7383 19.1972 41.7738 19.3016 41.8275 19.3968V19.4085C43.3286 22.0076 44.1186 24.9563 44.1181 27.9577C44.1181 28.4548 44.521 28.8577 45.0181 28.8577H53.1182C53.6153 28.8577 54.0182 28.4548 54.0182 27.9577C54.0182 27.4606 53.6153 27.0577 53.1182 27.0577H45.8884C45.7704 24.5622 45.1586 22.115 44.0884 19.8576H46.9459ZM50.4182 17.1575C51.4123 17.1575 52.2182 17.9634 52.2182 18.9576C52.2182 19.9517 51.4123 20.7576 50.4182 20.7576C49.424 20.7576 48.6181 19.9517 48.6181 18.9576C48.6181 17.9634 49.424 17.1575 50.4182 17.1575Z" fill="url(#paint12_linear_1008_1029)"/>
<path d="M0.91731 28.8577H9.01743C9.5145 28.8577 9.91745 28.4548 9.91745 27.9577C9.91555 26.1392 10.2039 24.3321 10.7716 22.6044C10.872 22.299 10.8019 21.9631 10.5876 21.7233C10.3733 21.4836 10.0474 21.3764 9.73261 21.4421C9.41783 21.5078 9.16202 21.7365 9.06153 22.0419C8.53281 23.665 8.22701 25.3523 8.15252 27.0577H0.91731C0.420246 27.0577 0.017296 27.4606 0.017296 27.9577C0.017296 28.4548 0.420246 28.8577 0.91731 28.8577Z" fill="url(#paint13_linear_1008_1029)"/>
<defs>
<linearGradient id="paint0_linear_1008_1029" x1="4.32754" y1="4.45454" x2="6.74611" y2="54.9584" gradientUnits="userSpaceOnUse">
<stop stop-color="#AFEEFB"/>
<stop offset="1" stop-color="#2F94F8"/>
</linearGradient>
<linearGradient id="paint1_linear_1008_1029" x1="4.32754" y1="4.45454" x2="6.74611" y2="54.9584" gradientUnits="userSpaceOnUse">
<stop stop-color="#AFEEFB"/>
<stop offset="1" stop-color="#2F94F8"/>
</linearGradient>
<linearGradient id="paint2_linear_1008_1029" x1="4.32754" y1="4.45454" x2="6.74611" y2="54.9584" gradientUnits="userSpaceOnUse">
<stop stop-color="#AFEEFB"/>
<stop offset="1" stop-color="#2F94F8"/>
</linearGradient>
<linearGradient id="paint3_linear_1008_1029" x1="4.32754" y1="4.45454" x2="6.74611" y2="54.9584" gradientUnits="userSpaceOnUse">
<stop stop-color="#AFEEFB"/>
<stop offset="1" stop-color="#2F94F8"/>
</linearGradient>
<linearGradient id="paint4_linear_1008_1029" x1="4.32754" y1="4.45454" x2="6.74611" y2="54.9584" gradientUnits="userSpaceOnUse">
<stop stop-color="#AFEEFB"/>
<stop offset="1" stop-color="#2F94F8"/>
</linearGradient>
<linearGradient id="paint5_linear_1008_1029" x1="4.32754" y1="4.45454" x2="6.74611" y2="54.9584" gradientUnits="userSpaceOnUse">
<stop stop-color="#AFEEFB"/>
<stop offset="1" stop-color="#2F94F8"/>
</linearGradient>
<linearGradient id="paint6_linear_1008_1029" x1="4.32754" y1="4.45454" x2="6.74611" y2="54.9584" gradientUnits="userSpaceOnUse">
<stop stop-color="#AFEEFB"/>
<stop offset="1" stop-color="#2F94F8"/>
</linearGradient>
<linearGradient id="paint7_linear_1008_1029" x1="4.32754" y1="4.45454" x2="6.74611" y2="54.9584" gradientUnits="userSpaceOnUse">
<stop stop-color="#AFEEFB"/>
<stop offset="1" stop-color="#2F94F8"/>
</linearGradient>
<linearGradient id="paint8_linear_1008_1029" x1="4.32754" y1="4.45454" x2="6.74611" y2="54.9584" gradientUnits="userSpaceOnUse">
<stop stop-color="#AFEEFB"/>
<stop offset="1" stop-color="#2F94F8"/>
</linearGradient>
<linearGradient id="paint9_linear_1008_1029" x1="4.32754" y1="4.45454" x2="6.74611" y2="54.9584" gradientUnits="userSpaceOnUse">
<stop stop-color="#AFEEFB"/>
<stop offset="1" stop-color="#2F94F8"/>
</linearGradient>
<linearGradient id="paint10_linear_1008_1029" x1="4.32754" y1="4.45454" x2="6.74611" y2="54.9584" gradientUnits="userSpaceOnUse">
<stop stop-color="#AFEEFB"/>
<stop offset="1" stop-color="#2F94F8"/>
</linearGradient>
<linearGradient id="paint11_linear_1008_1029" x1="4.32754" y1="4.45454" x2="6.74611" y2="54.9584" gradientUnits="userSpaceOnUse">
<stop stop-color="#AFEEFB"/>
<stop offset="1" stop-color="#2F94F8"/>
</linearGradient>
<linearGradient id="paint12_linear_1008_1029" x1="4.32754" y1="4.45454" x2="6.74611" y2="54.9584" gradientUnits="userSpaceOnUse">
<stop stop-color="#AFEEFB"/>
<stop offset="1" stop-color="#2F94F8"/>
</linearGradient>
<linearGradient id="paint13_linear_1008_1029" x1="4.32754" y1="4.45454" x2="6.74611" y2="54.9584" gradientUnits="userSpaceOnUse">
<stop stop-color="#AFEEFB"/>
<stop offset="1" stop-color="#2F94F8"/>
</linearGradient>
</defs>
</svg>
