<svg width="46" height="57" viewBox="0 0 46 57" fill="none" xmlns="http://www.w3.org/2000/svg">
<path d="M43.1332 0.0849609H30.4014C28.8972 0.0849609 27.6731 1.30903 27.6731 2.81321V4.63204C25.6669 4.63204 24.0354 6.26353 24.0354 8.2697C24.0354 10.2759 25.6669 11.9074 27.6731 11.9074V16.4544H34.9484V14.6356C34.9484 13.6325 35.7642 12.8168 36.7673 12.8168C37.7704 12.8168 38.5861 13.6325 38.5861 14.6356V16.4544H43.1332C44.6373 16.4544 45.8614 15.2304 45.8614 13.7262V2.81321C45.8614 1.30903 44.6373 0.0849609 43.1332 0.0849609ZM44.0426 13.7262C44.0426 14.2273 43.6352 14.6356 43.1332 14.6356H40.4049C40.4049 12.6294 38.7734 10.998 36.7673 10.998C34.7611 10.998 33.1296 12.6294 33.1296 14.6356H29.4919V10.0885H27.6731C26.67 10.0885 25.8543 9.27279 25.8543 8.2697C25.8543 7.26662 26.67 6.45087 27.6731 6.45087H29.4919V2.81321C29.4919 2.31212 29.8994 1.90379 30.4014 1.90379H43.1332C43.6352 1.90379 44.0426 2.31212 44.0426 2.81321V13.7262Z" fill="url(#paint0_linear_1008_1030)"/>
<path d="M27.6731 18.2733C25.6669 18.2733 24.0354 19.9048 24.0354 21.9109H20.3978V17.3639H18.5789C17.5759 17.3639 16.7601 16.5481 16.7601 15.545C16.7601 14.5419 17.5759 13.7262 18.5789 13.7262H20.3978V5.54146H17.9596C8.27253 5.54146 0.390625 13.4234 0.390625 23.1105C0.390625 28.4014 2.73965 33.3578 6.83475 36.708L10.3942 39.6209V42.0863C9.33837 42.4628 8.57537 43.4632 8.57537 44.6473C8.57537 45.905 9.43477 46.9563 10.5943 47.27C10.4679 47.5838 10.3942 47.9248 10.3942 48.284C10.3942 49.4863 11.1808 50.4975 12.2621 50.8604C12.6386 54.0142 15.326 56.4688 18.5789 56.4688C21.8319 56.4688 24.5193 54.0142 24.8958 50.8604C25.977 50.4975 26.7637 49.4863 26.7637 48.284C26.7637 47.9248 26.69 47.5838 26.5636 47.2691C27.7231 46.9544 28.5825 45.9041 28.5825 44.6463C28.5825 43.4623 27.8195 42.4619 26.7637 42.0854V39.62L30.3231 36.7071C34.4182 33.3578 36.7673 28.4014 36.7673 23.1105V21.9109H31.3108C31.3108 19.9048 29.6793 18.2733 27.6731 18.2733ZM17.9596 7.36029H18.5789V11.9074C16.5728 11.9074 14.9413 13.5389 14.9413 15.545C14.9413 17.5512 16.5728 19.1827 18.5789 19.1827V21.9109H14.9413C14.9413 19.9048 13.3098 18.2733 11.3036 18.2733C9.29745 18.2733 7.66595 19.9048 7.66595 21.9109H2.25493C2.86969 13.7844 9.67849 7.36029 17.9596 7.36029ZM7.98607 35.3003C4.47481 32.4274 2.39589 28.2387 2.22219 23.7298H9.48479V21.9109C9.48479 20.9079 10.3005 20.0921 11.3036 20.0921C12.3067 20.0921 13.1224 20.9079 13.1224 21.9109V23.7298H18.5789V27.3674C16.5728 27.3674 14.9413 28.9989 14.9413 31.0051C14.9413 33.0113 16.5728 34.6428 18.5789 34.6428V41.9181H12.213V38.7588L7.98607 35.3003ZM18.5789 54.6499C16.3836 54.6499 14.5466 53.0848 14.1237 51.0123H23.0342C22.6113 53.0848 20.7743 54.6499 18.5789 54.6499ZM24.0354 49.1934H13.1224C12.6205 49.1934 12.213 48.7851 12.213 48.284C12.213 47.7829 12.6205 47.3746 13.1224 47.3746H24.0354C24.5374 47.3746 24.9449 47.7829 24.9449 48.284C24.9449 48.7851 24.5374 49.1934 24.0354 49.1934ZM25.8543 45.5558H11.3036C10.8016 45.5558 10.3942 45.1474 10.3942 44.6463C10.3942 44.1453 10.8016 43.7369 11.3036 43.7369H25.8543C26.3563 43.7369 26.7637 44.1453 26.7637 44.6463C26.7637 45.1474 26.3563 45.5558 25.8543 45.5558ZM29.1718 35.3003L24.9449 38.7588V41.9181H20.3978V32.8239H18.5789C17.5759 32.8239 16.7601 32.0082 16.7601 31.0051C16.7601 30.002 17.5759 29.1863 18.5789 29.1863H20.3978V23.7298H25.8543V21.9109C25.8543 20.9079 26.67 20.0921 27.6731 20.0921C28.6762 20.0921 29.4919 20.9079 29.4919 21.9109V23.7298H34.9357C34.762 28.2387 32.6831 32.4274 29.1718 35.3003Z" fill="url(#paint1_linear_1008_1030)"/>
<defs>
<linearGradient id="paint0_linear_1008_1030" x1="4.02948" y1="3.73677" x2="7.15849" y2="56.4038" gradientUnits="userSpaceOnUse">
<stop stop-color="#AFEEFB"/>
<stop offset="1" stop-color="#2F94F8"/>
</linearGradient>
<linearGradient id="paint1_linear_1008_1030" x1="4.02948" y1="3.73677" x2="7.15849" y2="56.4038" gradientUnits="userSpaceOnUse">
<stop stop-color="#AFEEFB"/>
<stop offset="1" stop-color="#2F94F8"/>
</linearGradient>
</defs>
</svg>
