<svg width="50" height="50" viewBox="0 0 50 50" fill="none" xmlns="http://www.w3.org/2000/svg">
<path d="M32.1795 24.3447C31.5344 24.3447 30.9038 24.536 30.3675 24.8944C29.8311 25.2528 29.4131 25.7621 29.1662 26.3581C28.9194 26.9541 28.8548 27.6098 28.9806 28.2425C29.1065 28.8752 29.4171 29.4563 29.8732 29.9125C30.3294 30.3686 30.9105 30.6792 31.5432 30.8051C32.1759 30.9309 32.8316 30.8663 33.4276 30.6195C34.0236 30.3726 34.5329 29.9546 34.8913 29.4182C35.2497 28.8819 35.441 28.2513 35.441 27.6062C35.441 26.7412 35.0974 25.9116 34.4857 25.3C33.8741 24.6883 33.0445 24.3447 32.1795 24.3447ZM32.1795 29.2366C31.857 29.2366 31.5418 29.141 31.2737 28.9618C31.0056 28.7827 30.7966 28.5281 30.6732 28.2301C30.5498 27.9322 30.5175 27.6044 30.5804 27.2882C30.6433 26.9719 30.7986 26.6814 31.0266 26.4534C31.2546 26.2254 31.5451 26.0701 31.8614 26.0072C32.1777 25.9443 32.5055 25.9766 32.8034 26.1C33.1013 26.2234 33.3559 26.4323 33.5351 26.7004C33.7142 26.9686 33.8098 27.2838 33.8098 27.6062C33.8098 28.0386 33.6381 28.4533 33.3323 28.7591C33.0266 29.0648 32.6119 29.2366 32.1795 29.2366Z" fill="url(#paint0_linear_1008_811)"/>
<path d="M44.4097 15.3769H43.5291C43.5751 15.1075 43.5968 14.8346 43.5941 14.5614C43.5925 13.0481 42.9907 11.5974 41.9207 10.5274C40.8506 9.45737 39.3999 8.85553 37.8867 8.85391C36.6814 8.85095 35.507 9.23518 34.5365 9.95C33.4331 8.81606 32.0491 7.99455 30.5252 7.56903C30.4056 6.14309 29.7554 4.81389 28.7031 3.84416C27.6509 2.87442 26.2731 2.3347 24.8422 2.33167C23.637 2.32743 22.4624 2.71032 21.4912 3.42393C20.2967 2.19218 18.7739 1.32896 17.1035 0.936705C15.433 0.544452 13.6852 0.639629 12.0672 1.21094C10.4493 1.78226 9.02918 2.80573 7.97545 4.15991C6.92172 5.51408 6.27858 7.14213 6.12236 8.85085H5.27469C3.97728 8.85085 2.73301 9.36625 1.81561 10.2836C0.898205 11.2011 0.382813 12.4453 0.382812 13.7427C0.382813 15.0401 0.898205 16.2844 1.81561 17.2018C2.73301 18.1192 3.97728 18.6346 5.27469 18.6346H13.7132C13.4486 19.3722 13.3656 20.1627 13.4712 20.9392C13.5768 21.7156 13.8678 22.4552 14.3197 23.0954C14.7716 23.7356 15.3711 24.2575 16.0674 24.617C16.7637 24.9765 17.5363 25.163 18.3199 25.1607H25.5599L25.4621 25.1851C25.2852 25.2288 25.1281 25.3305 25.0158 25.4738C24.9034 25.6172 24.8423 25.7941 24.8422 25.9762V26.7918H4.45912C4.008 26.7909 3.56552 26.9155 3.1811 27.1515C2.79668 27.3876 2.48547 27.7259 2.28224 28.1287C2.10819 28.4726 2.01611 28.8522 2.01318 29.2377V44.7282H1.29622C1.17783 44.7289 1.06101 44.7554 0.953894 44.8058C0.846774 44.8562 0.751915 44.9293 0.675908 45.0201C0.599901 45.1109 0.544568 45.2171 0.513753 45.3314C0.482938 45.4457 0.47738 45.5654 0.497466 45.6821L0.872764 47.7695C0.873428 47.8 0.878844 47.8302 0.888816 47.859C1.03937 48.3655 1.34885 48.8102 1.77154 49.1273C2.19424 49.4444 2.70773 49.6172 3.23615 49.62H31.7726C32.3008 49.6175 32.8141 49.4453 33.2369 49.1287C33.6597 48.8122 33.9696 48.3681 34.1207 47.862C34.1307 47.8332 34.1361 47.8031 34.1367 47.7726L34.512 45.6851C34.5326 45.5682 34.5274 45.4481 34.4968 45.3334C34.4662 45.2186 34.4108 45.112 34.3347 45.0208C34.2586 44.9297 34.1634 44.8563 34.056 44.8057C33.9485 44.7552 33.8313 44.7287 33.7125 44.7282H32.9948V34.9444H33.8104C33.9925 34.9443 34.1694 34.8832 34.3127 34.7708C34.4561 34.6585 34.5578 34.5014 34.6015 34.3245L34.7398 33.778L35.2206 34.0715C35.3763 34.1645 35.5585 34.2029 35.7384 34.1808C35.9184 34.1586 36.0858 34.0772 36.2143 33.9492L38.5241 31.6424C38.6521 31.5139 38.7336 31.3465 38.7557 31.1665C38.7778 30.9866 38.7394 30.8044 38.6464 30.6487L38.3529 30.168L38.8994 30.0296C39.0763 29.9859 39.2334 29.8843 39.3457 29.7409C39.4581 29.5975 39.5192 29.4207 39.5193 29.2385V25.9762C39.5192 25.7941 39.4581 25.6172 39.3457 25.4738C39.2334 25.3305 39.0763 25.2288 38.8994 25.1851L38.8001 25.1607H44.4097C45.7071 25.1607 46.9513 24.6453 47.8687 23.7279C48.7862 22.8105 49.3015 21.5662 49.3015 20.2688C49.3015 18.9714 48.7862 17.7271 47.8687 16.8097C46.9513 15.8923 45.7071 15.3769 44.4097 15.3769ZM14.6831 17.0073H5.27469C4.84223 17.0139 4.41277 16.9345 4.01131 16.7735C3.60985 16.6126 3.24441 16.3735 2.93625 16.07C2.62809 15.7665 2.38336 15.4048 2.21632 15.0058C2.04928 14.6069 1.96325 14.1787 1.96325 13.7462C1.96325 13.3137 2.04928 12.8855 2.21632 12.4865C2.38336 12.0876 2.62809 11.7258 2.93625 11.4223C3.24441 11.1189 3.60985 10.8797 4.01131 10.7188C4.41277 10.5579 4.84223 10.4784 5.27469 10.485H6.90506C7.12136 10.485 7.3288 10.3991 7.48175 10.2462C7.6347 10.0932 7.72062 9.88578 7.72062 9.66948C7.72144 8.15132 8.19312 6.67079 9.07066 5.43195C9.9482 4.19312 11.1884 3.25696 12.6203 2.75252C14.0522 2.24808 15.6053 2.2002 17.0656 2.61546C18.5258 3.03072 19.8213 3.88869 20.7735 5.07112C20.8466 5.15981 20.9372 5.23243 21.0396 5.28439C21.1421 5.33635 21.2542 5.36653 21.3689 5.37304C21.4817 5.37811 21.5942 5.35974 21.6995 5.31908C21.8047 5.27843 21.9004 5.21638 21.9804 5.13685C22.5049 4.61889 23.1602 4.25309 23.8764 4.0785C24.5926 3.90392 25.3427 3.9271 26.0468 4.14558C26.7508 4.36407 27.3823 4.76964 27.8738 5.31901C28.3653 5.86838 28.6984 6.54091 28.8375 7.26482C28.5929 7.24036 28.3483 7.22431 28.1037 7.22431C25.8666 7.22687 23.7109 8.06388 22.0583 9.57163C20.4056 11.0794 19.3749 13.1494 19.1676 15.3769H18.3199C17.6333 15.3782 16.9546 15.524 16.328 15.8049C15.7014 16.0858 15.141 16.4955 14.6831 17.0073ZM3.64355 29.237C3.64606 29.1096 3.67659 28.9843 3.73298 28.8701C3.79979 28.7349 3.90319 28.6212 4.03142 28.5419C4.15965 28.4626 4.30757 28.4208 4.45835 28.4214H24.8422V29.237C24.8423 29.4191 24.9034 29.596 25.0158 29.7394C25.1281 29.8827 25.2852 29.9844 25.4621 30.0281L26.0086 30.1664L25.7151 30.6472C25.6221 30.8029 25.5837 30.9851 25.6058 31.165C25.628 31.345 25.7094 31.5124 25.8374 31.6409L28.1442 33.9508C28.2727 34.0787 28.4401 34.1602 28.6201 34.1823C28.8 34.2045 28.9822 34.166 29.1379 34.073L29.6186 33.7795L29.757 34.326C29.8007 34.5029 29.9023 34.66 30.0457 34.7723C30.1891 34.8847 30.3659 34.9458 30.5481 34.9459H31.3637V44.7282H19.9503C19.734 44.7282 19.5266 44.8141 19.3736 44.967C19.2207 45.12 19.1347 45.3274 19.1347 45.5437H15.874C15.874 45.3274 15.7881 45.12 15.6351 44.967C15.4822 44.8141 15.2747 44.7282 15.0584 44.7282H3.64432L3.64355 29.237ZM32.5469 47.4347C32.4907 47.5956 32.3861 47.7352 32.2475 47.8344C32.1089 47.9336 31.943 47.9876 31.7726 47.9889H3.23615C3.06572 47.9876 2.89985 47.9336 2.76126 47.8344C2.62266 47.7352 2.51809 47.5956 2.46186 47.4347L2.27459 46.3585H14.2429C14.2429 46.5748 14.3288 46.7823 14.4817 46.9352C14.6347 47.0882 14.8421 47.1741 15.0584 47.1741H19.9503C20.1666 47.1741 20.3741 47.0882 20.527 46.9352C20.6799 46.7823 20.7659 46.5748 20.7659 46.3585H32.7341L32.5469 47.4347ZM37.8874 28.6003L36.8938 28.8449C36.7704 28.8765 36.6562 28.9365 36.56 29.0199C36.4638 29.1033 36.3884 29.208 36.3396 29.3256C36.2909 29.4435 36.27 29.571 36.2785 29.6982C36.2869 29.8255 36.3246 29.9491 36.3885 30.0594L36.9182 30.94L35.5149 32.3456L34.6343 31.8106C34.524 31.7466 34.4004 31.709 34.2732 31.7005C34.1459 31.692 34.0184 31.7129 33.9006 31.7616C33.7829 31.8104 33.6783 31.8858 33.5948 31.982C33.5114 32.0782 33.4514 32.1925 33.4198 32.3158L33.1752 33.3095H31.1863L30.9417 32.3158C30.9101 32.1925 30.8501 32.0782 30.7667 31.982C30.6833 31.8858 30.5786 31.8104 30.461 31.7616C30.3431 31.7129 30.2156 31.692 30.0884 31.7005C29.9611 31.709 29.8375 31.7466 29.7272 31.8106L28.8466 32.3403L27.441 30.9415L27.9707 30.0609C28.0346 29.9506 28.0723 29.827 28.0807 29.6998C28.0892 29.5725 28.0683 29.445 28.0196 29.3272C27.9708 29.2095 27.8954 29.1049 27.7992 29.0214C27.703 28.938 27.5888 28.8781 27.4654 28.8464L26.4718 28.6018V26.6129L27.4654 26.3683C27.5888 26.3367 27.703 26.2768 27.7992 26.1933C27.8954 26.1099 27.9708 26.0052 28.0196 25.8876C28.0683 25.7697 28.0892 25.6422 28.0807 25.515C28.0723 25.3877 28.0346 25.2641 27.9707 25.1538L27.441 24.2717L28.8451 22.8676L29.7256 23.3897C29.8346 23.4568 29.958 23.4969 30.0856 23.5069C30.2132 23.5169 30.3413 23.4963 30.4594 23.447C30.5771 23.3982 30.6817 23.3228 30.7652 23.2266C30.8486 23.1304 30.9085 23.0162 30.9402 22.8928L31.1848 21.8992H33.1721L33.4167 22.8928C33.4484 23.0162 33.5083 23.1304 33.5918 23.2266C33.6752 23.3228 33.7799 23.3982 33.8975 23.447C34.0156 23.4963 34.1437 23.5169 34.2713 23.5069C34.3989 23.4969 34.5223 23.4568 34.6313 23.3897L35.5149 22.8676L36.919 24.2717L36.3839 25.1523C36.32 25.2626 36.2824 25.3862 36.2739 25.5134C36.2654 25.6407 36.2863 25.7682 36.335 25.886C36.3838 26.0037 36.4592 26.1083 36.5554 26.1918C36.6516 26.2752 36.7659 26.3351 36.8892 26.3668L37.8828 26.6114L37.8874 28.6003ZM44.4097 23.5303H38.4821L36.2158 21.2625C36.0873 21.1345 35.9199 21.053 35.7399 21.0309C35.56 21.0087 35.3778 21.0472 35.2221 21.1402L34.7413 21.4337L34.603 20.8872C34.5593 20.7103 34.4577 20.5532 34.3143 20.4409C34.1709 20.3285 33.994 20.2674 33.8119 20.2673H30.5496C30.3675 20.2674 30.1906 20.3285 30.0472 20.4409C29.9039 20.5532 29.8022 20.7103 29.7585 20.8872L29.6202 21.4337L29.1394 21.1402C28.9837 21.0472 28.8015 21.0087 28.6216 21.0309C28.4416 21.053 28.2742 21.1345 28.1457 21.2625L25.8794 23.5288H18.3199C17.8875 23.5354 17.458 23.4559 17.0566 23.295C16.6551 23.1341 16.2897 22.8949 15.9815 22.5915C15.6733 22.288 15.4286 21.9262 15.2616 21.5273C15.0945 21.1283 15.0085 20.7002 15.0085 20.2676C15.0085 19.8351 15.0945 19.4069 15.2616 19.008C15.4286 18.609 15.6733 18.2473 15.9815 17.9438C16.2897 17.6404 16.6551 17.4012 17.0566 17.2403C17.458 17.0794 17.8875 16.9999 18.3199 17.0065H19.9503C20.1666 17.0065 20.3741 16.9206 20.527 16.7677C20.6799 16.6147 20.7659 16.4073 20.7659 16.191C20.7667 14.6728 21.2384 13.1923 22.1159 11.9534C22.9935 10.7146 24.2336 9.77844 25.6655 9.274C27.0974 8.76956 28.6506 8.72167 30.1108 9.13694C31.5711 9.5522 32.8666 10.4102 33.8188 11.5926C33.8918 11.6813 33.9824 11.7539 34.0849 11.8059C34.1874 11.8578 34.2995 11.888 34.4142 11.8945C34.5269 11.8996 34.6395 11.8812 34.7447 11.8406C34.85 11.7999 34.9456 11.7379 35.0257 11.6583C35.5982 11.094 36.3247 10.7115 37.114 10.5589C37.9033 10.4064 38.72 10.4907 39.4616 10.8011C40.2031 11.1115 40.8363 11.6343 41.2815 12.3036C41.7267 12.973 41.9641 13.759 41.9637 14.5629C41.96 15.0265 41.8802 15.4864 41.7276 15.9242C41.6843 16.0469 41.6707 16.178 41.6877 16.307C41.7047 16.436 41.7519 16.5591 41.8254 16.6664C41.9027 16.7714 42.0033 16.857 42.1194 16.9165C42.2355 16.9759 42.3638 17.0075 42.4942 17.0088H44.4097C44.8421 17.0022 45.2716 17.0817 45.673 17.2426C46.0745 17.4035 46.44 17.6426 46.7481 17.9461C47.0563 18.2496 47.301 18.6113 47.468 19.0103C47.6351 19.4092 47.7211 19.8374 47.7211 20.2699C47.7211 20.7024 47.6351 21.1306 47.468 21.5296C47.301 21.9285 47.0563 22.2903 46.7481 22.5938C46.44 22.8972 46.0745 23.1364 45.673 23.2973C45.2716 23.4582 44.8421 23.5377 44.4097 23.5311V23.5303Z" fill="url(#paint1_linear_1008_811)"/>
<path d="M43.5932 36.5748C43.5932 37.2235 43.3355 37.8456 42.8768 38.3043C42.4181 38.763 41.7959 39.0207 41.1472 39.0207H34.625V40.6511H41.1472C42.228 40.6499 43.2642 40.22 44.0286 39.4559C44.7929 38.6917 45.2229 37.6556 45.2243 36.5748V26.791H43.5932V36.5748Z" fill="url(#paint2_linear_1008_811)"/>
<path d="M17.9623 35.8608H16.4336V37.3896H17.9623V35.8608Z" fill="url(#paint3_linear_1008_811)"/>
<path d="M21.7865 35.8608H20.2578V37.3896H21.7865V35.8608Z" fill="url(#paint4_linear_1008_811)"/>
<path d="M14.9037 35.8608H13.375V37.3896H14.9037V35.8608Z" fill="url(#paint5_linear_1008_811)"/>
<defs>
<linearGradient id="paint0_linear_1008_811" x1="32.1795" y1="24.3447" x2="32.1795" y2="30.8677" gradientUnits="userSpaceOnUse">
<stop stop-color="#B2F0FB"/>
<stop offset="1" stop-color="#1783F7"/>
</linearGradient>
<linearGradient id="paint1_linear_1008_811" x1="24.8422" y1="0.699219" x2="24.8422" y2="49.62" gradientUnits="userSpaceOnUse">
<stop stop-color="#B2F0FB"/>
<stop offset="1" stop-color="#1783F7"/>
</linearGradient>
<linearGradient id="paint2_linear_1008_811" x1="39.9247" y1="26.791" x2="39.9247" y2="40.6511" gradientUnits="userSpaceOnUse">
<stop stop-color="#B2F0FB"/>
<stop offset="1" stop-color="#1783F7"/>
</linearGradient>
<linearGradient id="paint3_linear_1008_811" x1="17.1979" y1="35.8608" x2="17.1979" y2="37.3896" gradientUnits="userSpaceOnUse">
<stop stop-color="#B2F0FB"/>
<stop offset="1" stop-color="#1783F7"/>
</linearGradient>
<linearGradient id="paint4_linear_1008_811" x1="21.0222" y1="35.8608" x2="21.0222" y2="37.3896" gradientUnits="userSpaceOnUse">
<stop stop-color="#B2F0FB"/>
<stop offset="1" stop-color="#1783F7"/>
</linearGradient>
<linearGradient id="paint5_linear_1008_811" x1="14.1394" y1="35.8608" x2="14.1394" y2="37.3896" gradientUnits="userSpaceOnUse">
<stop stop-color="#B2F0FB"/>
<stop offset="1" stop-color="#1783F7"/>
</linearGradient>
</defs>
</svg>
