<svg width="54" height="55" viewBox="0 0 54 55" fill="none" xmlns="http://www.w3.org/2000/svg">
<path d="M47.4504 30.4488C47.4504 29.5893 47.9897 28.8058 48.7817 28.5025L51.9413 27.2723C52.1098 27.2049 52.2362 27.0785 52.2951 26.91C52.3541 26.7415 52.3457 26.5562 52.2614 26.4045L48.9081 20.2286C49.1018 19.1585 49.1945 18.0716 49.1861 16.9931C49.1018 8.22213 42.2013 0.824482 33.4809 0.142011C28.8047 -0.220288 24.3475 1.27946 20.8594 4.34637H12.5433C12.3327 4.34637 12.1389 4.4559 12.0209 4.63284L7.01617 12.4518H2.61802C2.281 12.4518 2.00296 12.7298 2.00296 13.0668C2.00296 13.4038 2.281 13.6819 2.61802 13.6819H7.36161C7.57225 13.6819 7.76604 13.5724 7.884 13.3954L12.8888 5.5765H28.0127L32.0317 7.32902C31.9643 7.55651 31.9137 7.784 31.9137 8.03676C31.9137 9.38485 33.009 10.4886 34.3655 10.4886C35.7221 10.4886 36.8174 9.39328 36.8174 8.03676C36.8174 6.68025 35.7221 5.58493 34.3655 5.58493C33.7083 5.58493 33.1186 5.84612 32.6804 6.2674L28.3918 4.39692C28.316 4.36322 28.2317 4.34637 28.1475 4.34637H22.8646C25.8979 2.13887 29.563 1.07725 33.3797 1.37214C41.4683 2.00406 47.8633 8.87089 47.9475 17.01C47.956 18.0885 47.8549 19.1838 47.6442 20.2623C47.6105 20.456 47.6695 20.6498 47.8043 20.7846L50.8459 26.3708L48.3351 27.3482C47.046 27.8537 46.2119 29.067 46.2119 30.4488V35.9085C46.2119 36.4141 45.799 36.8269 45.2935 36.8269H39.7242C39.3872 36.8269 39.1091 37.105 39.1091 37.442V42.5647H24.4487V31.384C24.4487 31.1649 24.3307 30.9627 24.1369 30.8532C23.0921 30.255 22.1232 29.5304 21.2554 28.6962C21.2469 28.6878 21.2469 28.6878 21.2385 28.6794C21.1037 28.5614 20.9436 28.3929 20.7835 28.216H25.5019L29.6135 34.3751C29.7315 34.5436 29.9168 34.6531 30.1275 34.6531H33.2702C33.5483 35.7063 34.4919 36.4815 35.6294 36.4815C36.9775 36.4815 38.0812 35.3861 38.0812 34.0296C38.0812 32.6815 36.9859 31.5778 35.6294 31.5778C34.4919 31.5778 33.5483 32.3614 33.2702 33.4061H30.4561L26.9848 28.2076H32.2002C32.4782 29.2608 33.4219 30.0359 34.5593 30.0359C35.9074 30.0359 37.0112 28.9406 37.0112 27.5841C37.0112 26.236 35.9158 25.1322 34.5593 25.1322C33.4219 25.1322 32.4782 25.9158 32.2002 26.9606H12.5349L7.10042 19.2343C6.98246 19.0742 6.7971 18.9731 6.59489 18.9731H2.61802C2.281 18.9731 2.00296 19.2512 2.00296 19.5882C2.00296 19.9252 2.281 20.2033 2.61802 20.2033H6.27472L11.7092 27.9295C11.8272 28.0896 12.0125 28.1907 12.2147 28.1907H19.149C19.5871 28.7215 20.0505 29.2523 20.4128 29.5725C21.2638 30.3814 22.2075 31.0975 23.2101 31.7042V42.5479C21.9126 42.5816 20.8762 43.6432 20.8762 44.9997C20.8762 45.421 20.9942 45.817 21.188 46.1624H14.0347L14.161 45.4294C14.6076 45.2862 15.0373 45.1092 15.4502 44.8817L16.4444 45.5979C16.6887 45.7749 17.0342 45.7496 17.2532 45.5305L18.9805 43.7274C19.1827 43.5168 19.208 43.1966 19.0479 42.9523L18.3401 41.8907C18.576 41.4357 18.753 40.9807 18.8878 40.5089L20.0842 40.2898C20.3791 40.2393 20.5897 39.9781 20.5897 39.6832V37.1387C20.5897 36.8438 20.3791 36.5826 20.0842 36.532L18.8962 36.313C18.7614 35.8411 18.576 35.3777 18.3485 34.9312L19.0563 33.8695C19.2164 33.6252 19.1911 33.305 18.9889 33.0944L17.2617 31.2913C17.051 31.0723 16.7056 31.0385 16.4528 31.2155L15.4586 31.9317C15.0542 31.7042 14.6244 31.5188 14.1695 31.384L13.9504 30.1117C13.8999 29.8168 13.6387 29.5978 13.3438 29.5978H10.9088C10.6055 29.5978 10.3527 29.8168 10.3021 30.1117L10.0831 31.384C9.62809 31.5272 9.19839 31.7042 8.78553 31.9401L7.79132 31.2239C7.54698 31.047 7.1931 31.0723 6.98246 31.2997L5.26365 33.1028C5.06144 33.3134 5.03616 33.6336 5.19624 33.8695L5.90399 34.9312C5.66808 35.3777 5.48271 35.8411 5.3479 36.313L4.16833 36.532C3.87343 36.5826 3.66279 36.8438 3.66279 37.1387V39.6832C3.66279 39.9781 3.87343 40.2393 4.16833 40.2898L5.35633 40.5089C5.49114 40.9807 5.66808 41.4441 5.90399 41.8907L5.19624 42.9523C5.03616 43.1966 5.06144 43.5168 5.26365 43.719L6.98246 45.5221C7.1931 45.7496 7.54698 45.7749 7.79132 45.5979L8.78553 44.8817C9.19839 45.1092 9.62809 45.2946 10.0831 45.4378L10.2095 46.1709H1.39632C1.05929 46.1709 0.78125 46.4489 0.78125 46.7859C0.78125 47.1229 1.05929 47.401 1.39632 47.401H42.5552C43.1197 47.401 43.5831 47.8644 43.5831 48.4289C43.5831 48.9934 43.1197 49.4568 42.5552 49.4568H12.9225C12.9056 49.4568 12.8972 49.4653 12.8888 49.4653C12.8298 49.4653 12.7793 49.4821 12.7287 49.499C12.7118 49.5074 12.6866 49.5074 12.6697 49.5242C12.6023 49.5579 12.5433 49.5916 12.4928 49.6422C12.3832 49.7517 12.3074 49.9118 12.3074 50.0803C12.3074 50.4173 12.5855 50.6954 12.9225 50.6954H42.5636C43.8106 50.6954 44.8301 49.6759 44.8301 48.4289C44.8301 47.1819 43.8106 46.1624 42.5636 46.1624H42.3614C42.5552 45.817 42.6731 45.421 42.6731 44.9997V44.9323C42.6731 43.6348 41.6284 42.5816 40.3393 42.5479V38.0318H45.3019C46.4899 38.0318 47.4589 37.0628 47.4589 35.8748V30.4488H47.4504ZM34.3655 6.83191C35.0312 6.83191 35.5788 7.37957 35.5788 8.04519C35.5788 8.71081 35.0312 9.25847 34.3655 9.25847C33.6999 9.25847 33.1523 8.71081 33.1523 8.04519C33.1523 7.37114 33.6915 6.83191 34.3655 6.83191ZM35.6294 32.8248C36.295 32.8248 36.8427 33.3724 36.8427 34.0381C36.8427 34.7037 36.295 35.2513 35.6294 35.2513C34.9638 35.2513 34.4161 34.7037 34.4161 34.0381C34.4161 33.3724 34.9553 32.8248 35.6294 32.8248ZM34.5593 26.3876C35.2249 26.3876 35.7726 26.9353 35.7726 27.6009C35.7726 28.2665 35.2249 28.8142 34.5593 28.8142C33.8937 28.8142 33.346 28.2665 33.346 27.6009C33.346 26.9353 33.8853 26.3876 34.5593 26.3876ZM9.08043 43.6516C8.86979 43.5168 8.59175 43.5168 8.38111 43.6685L7.49642 44.3088L6.49378 43.2556L7.13412 42.2951C7.26893 42.1013 7.26893 41.8401 7.15097 41.6379C6.81395 41.065 6.58646 40.4836 6.45165 39.877C6.4011 39.6326 6.20731 39.4388 5.96297 39.3967L4.89292 39.2029V37.6863L5.96297 37.4925C6.20731 37.4504 6.4011 37.265 6.45165 37.0207C6.58646 36.4056 6.8308 35.8074 7.1594 35.2513C7.27736 35.0491 7.27736 34.7879 7.14255 34.5941L6.49378 33.6252L7.49642 32.572L8.38111 33.2123C8.58332 33.364 8.86136 33.3724 9.08043 33.2292C9.59439 32.9006 10.1589 32.6563 10.7655 32.513C11.0015 32.454 11.1868 32.2603 11.2289 32.0159L11.4227 30.87H12.813L13.0067 32.0159C13.0489 32.2603 13.2258 32.454 13.4701 32.513C14.0684 32.6563 14.6329 32.9006 15.1468 33.2292C15.3659 33.364 15.6355 33.3556 15.8462 33.2123L16.7308 32.572L17.7419 33.6252L17.1016 34.5857C16.9752 34.7795 16.9668 35.0323 17.0847 35.2345C17.4133 35.799 17.6492 36.3972 17.784 37.0123C17.8346 37.2566 18.0284 37.442 18.2727 37.4841L19.3428 37.6779V39.1945L18.2643 39.3967C18.0199 39.4388 17.8262 39.6326 17.7756 39.877C17.6492 40.4836 17.4217 41.0565 17.0847 41.6463C16.9668 41.8485 16.9752 42.1013 17.1016 42.2951L17.7419 43.2556L16.7308 44.3088L15.8462 43.6685C15.6439 43.5168 15.3659 43.5084 15.1468 43.6516C14.6329 43.9802 14.0684 44.2246 13.4701 44.3678C13.2342 44.4268 13.0489 44.6206 13.0067 44.8649L12.813 46.0108H11.4143L11.2205 44.8649C11.1784 44.6206 11.0015 44.4268 10.7571 44.3678C10.1589 44.2246 9.59439 43.9802 9.08043 43.6516ZM41.443 44.966V45.0334C41.443 45.6738 40.9206 46.1961 40.2719 46.1961H23.2775C22.6287 46.1961 22.1063 45.6737 22.1063 44.966C22.1063 44.3257 22.6287 43.8033 23.2775 43.8033H40.2719C40.9122 43.8033 41.443 44.3257 41.443 44.966Z" fill="url(#paint0_linear_1008_1031)"/>
<path d="M45.0407 17.1701C45.0407 17.5071 45.3188 17.7851 45.6558 17.7851C45.9928 17.7851 46.2709 17.5071 46.2709 17.1701C46.2709 12.1737 43.5915 7.49753 39.2692 4.95301C38.9743 4.77607 38.5952 4.87718 38.4267 5.17207C38.2497 5.46697 38.3508 5.84612 38.6457 6.01463C42.5889 8.34008 45.0407 12.6118 45.0407 17.1701Z" fill="url(#paint1_linear_1008_1031)"/>
<path d="M33.9274 3.11624C33.582 3.07411 33.2786 3.31002 33.2365 3.64705C33.1944 3.98407 33.4303 4.29581 33.7673 4.33794C34.0285 4.37164 34.2897 4.41377 34.5425 4.46432C34.5846 4.47275 34.6183 4.47275 34.6604 4.47275C34.9469 4.47275 35.2081 4.27054 35.2671 3.97564C35.3345 3.63862 35.1154 3.31845 34.7784 3.25104C34.4919 3.20049 34.2139 3.15836 33.9274 3.11624Z" fill="url(#paint2_linear_1008_1031)"/>
<path d="M38.1149 5.01199C38.2497 4.70024 38.1065 4.33794 37.7947 4.19471C37.5336 4.07675 37.2639 3.97564 36.9943 3.87454C36.6741 3.75658 36.3203 3.91666 36.2023 4.23683C36.0844 4.55701 36.2444 4.91088 36.5646 5.02884C36.809 5.12152 37.0533 5.22263 37.2976 5.32373C37.3819 5.35743 37.4661 5.37429 37.542 5.37429C37.7863 5.38271 38.0138 5.23948 38.1149 5.01199Z" fill="url(#paint3_linear_1008_1031)"/>
<path d="M22.9826 10.6992C23.2607 11.7524 24.2043 12.5276 25.3418 12.5276C26.6899 12.5276 27.7936 11.4323 27.7936 10.0758C27.7936 8.72766 26.6983 7.62391 25.3418 7.62391C24.2043 7.62391 23.2607 8.40749 22.9826 9.45226H14.7003C14.4981 9.45226 14.3127 9.55337 14.1947 9.71345L9.7292 16.0663C9.71235 16.0916 9.70392 16.1169 9.69549 16.1422C9.68707 16.1674 9.67022 16.1843 9.66179 16.2096C9.61124 16.3528 9.61124 16.5045 9.66179 16.6393C9.67022 16.6645 9.67864 16.6814 9.69549 16.7067C9.71235 16.7319 9.71235 16.7572 9.7292 16.7825L14.1947 23.1354C14.3127 23.2955 14.4981 23.3966 14.7003 23.3966H37.9548C38.2329 24.4498 39.1765 25.2249 40.314 25.2249C41.6621 25.2249 42.7658 24.1296 42.7658 22.7731C42.7658 21.4166 41.6705 20.3212 40.314 20.3212C39.1765 20.3212 38.2329 21.1048 37.9548 22.1496H26.6056L30.0264 17.0353H33.5567C33.86 18.0379 34.7868 18.7709 35.8906 18.7709C37.2387 18.7709 38.3424 17.6756 38.3424 16.3191C38.3424 14.971 37.2471 13.8673 35.8906 13.8673C34.7194 13.8673 33.7421 14.693 33.4977 15.7883H29.6978C29.4871 15.7883 29.3018 15.8894 29.1838 16.0663L25.1227 22.1412H15.0204L11.4227 17.0268H20.2612C20.5392 18.08 21.4829 18.8552 22.6203 18.8552C23.9684 18.8552 25.0721 17.7599 25.0721 16.4033C25.0721 15.0553 23.9768 13.9515 22.6203 13.9515C21.4829 13.9515 20.5392 14.7351 20.2612 15.7799H11.4227L15.0204 10.6655H22.9826V10.6992ZM25.3418 8.8709C26.0074 8.8709 26.555 9.41856 26.555 10.0842C26.555 10.7498 26.0074 11.2975 25.3418 11.2975C24.6761 11.2975 24.1285 10.7498 24.1285 10.0842C24.1285 9.41856 24.6677 8.8709 25.3418 8.8709ZM35.8821 15.1311C36.5478 15.1311 37.0954 15.6788 37.0954 16.3444C37.0954 17.01 36.5478 17.5576 35.8821 17.5576C35.2165 17.5576 34.6689 17.01 34.6689 16.3444C34.6689 15.6788 35.2165 15.1311 35.8821 15.1311ZM40.314 21.5766C40.9796 21.5766 41.5273 22.1243 41.5273 22.7899C41.5273 23.4555 40.9796 24.0032 40.314 24.0032C39.6484 24.0032 39.1007 23.4555 39.1007 22.7899C39.1007 22.1243 39.6484 21.5766 40.314 21.5766ZM22.6287 15.2238C23.2944 15.2238 23.842 15.7714 23.842 16.437C23.842 17.1027 23.2944 17.6503 22.6287 17.6503C21.9631 17.6503 21.4155 17.1027 21.4155 16.437C21.4155 15.7714 21.9547 15.2238 22.6287 15.2238Z" fill="url(#paint4_linear_1008_1031)"/>
<path d="M8.07779 17.0521C8.41481 17.0521 8.69285 16.7741 8.69285 16.437C8.69285 16.1 8.41481 15.822 8.07779 15.822H5.75233C5.41531 15.822 5.13727 16.1 5.13727 16.437C5.13727 16.7741 5.41531 17.0521 5.75233 17.0521H8.07779Z" fill="url(#paint5_linear_1008_1031)"/>
<path d="M15.6608 38.4446C15.6608 36.4225 14.0684 34.7795 12.1221 34.7795C10.1673 34.7795 8.57489 36.4225 8.57489 38.4446C8.57489 40.4668 10.1673 42.1097 12.1221 42.1097C14.0684 42.1097 15.6608 40.4668 15.6608 38.4446ZM9.7966 38.4446C9.7966 37.105 10.8329 36.0096 12.1136 36.0096C13.3859 36.0096 14.4222 37.105 14.4222 38.4446C14.4222 39.7843 13.3859 40.8796 12.1136 40.8796C10.8414 40.8796 9.7966 39.7843 9.7966 38.4446Z" fill="url(#paint6_linear_1008_1031)"/>
<path d="M8.92877 35.3356C9.15626 35.1081 9.14783 34.7542 8.92877 34.5267C8.7097 34.3077 8.3474 34.2992 8.11991 34.5267C7.90085 34.7458 7.90928 35.1081 8.12834 35.3272C8.35583 35.5546 8.7097 35.5547 8.92877 35.3356Z" fill="url(#paint7_linear_1008_1031)"/>
<path d="M15.2901 41.6969C15.071 41.916 15.0794 42.2783 15.2985 42.4973C15.5176 42.7164 15.8799 42.7248 16.0989 42.5057C16.3264 42.2783 16.318 41.9244 16.0989 41.6969C15.8799 41.4778 15.5176 41.4694 15.2901 41.6969Z" fill="url(#paint8_linear_1008_1031)"/>
<path d="M7.04987 37.9475C6.73812 37.9475 6.47693 38.1919 6.47693 38.5204C6.47693 38.8322 6.73812 39.0765 7.04987 39.0765C7.36161 39.0765 7.62281 38.8322 7.62281 38.5204C7.61438 38.2003 7.36161 37.9475 7.04987 37.9475Z" fill="url(#paint9_linear_1008_1031)"/>
<path d="M17.1858 39.0765C17.4976 39.0765 17.7588 38.8322 17.7588 38.5204C17.7588 38.2003 17.4976 37.9475 17.1858 37.9475C16.8741 37.9475 16.6129 38.1919 16.6129 38.5204C16.6129 38.8322 16.8741 39.0765 17.1858 39.0765Z" fill="url(#paint10_linear_1008_1031)"/>
<path d="M8.12834 41.6969C7.90928 41.916 7.90085 42.2783 8.12834 42.5057C8.3474 42.7248 8.7097 42.7164 8.92877 42.4973C9.14783 42.2783 9.15626 41.916 8.93719 41.6969C8.7097 41.4694 8.35583 41.4778 8.12834 41.6969Z" fill="url(#paint11_linear_1008_1031)"/>
<path d="M16.0989 35.3272C16.318 35.1081 16.3264 34.7458 16.1073 34.5267C15.8799 34.2992 15.526 34.3077 15.2985 34.5267C15.0794 34.7458 15.071 35.1081 15.2985 35.3356C15.5176 35.5631 15.8799 35.5546 16.0989 35.3272Z" fill="url(#paint12_linear_1008_1031)"/>
<path d="M12.1221 43.0113C11.8019 43.0113 11.5491 43.2725 11.5491 43.5842C11.5491 43.896 11.7935 44.1571 12.1221 44.1571C12.4338 44.1571 12.6781 43.896 12.6781 43.5842C12.6781 43.2725 12.4338 43.0113 12.1221 43.0113Z" fill="url(#paint13_linear_1008_1031)"/>
<path d="M12.1221 34.0128C12.4338 34.0128 12.6781 33.7516 12.6781 33.4398C12.6781 33.1281 12.4338 32.8669 12.1221 32.8669C11.8019 32.8669 11.5491 33.1281 11.5491 33.4398C11.5491 33.76 11.8019 34.0128 12.1221 34.0128Z" fill="url(#paint14_linear_1008_1031)"/>
<path d="M35.9748 52.7765H17.8599C17.5228 52.7765 17.2448 53.0545 17.2448 53.3916C17.2448 53.7286 17.5228 54.0151 17.8599 54.0151H35.9748C36.3118 54.0151 36.5899 53.737 36.5899 53.4C36.5899 53.063 36.3118 52.7765 35.9748 52.7765Z" fill="url(#paint15_linear_1008_1031)"/>
<path d="M52.4384 46.1961H47.501C47.164 46.1961 46.8859 46.4742 46.8859 46.8112C46.8859 47.1482 47.164 47.4263 47.501 47.4263H52.4384C52.7754 47.4263 53.0534 47.1482 53.0534 46.8112C53.0534 46.4742 52.7754 46.1961 52.4384 46.1961Z" fill="url(#paint16_linear_1008_1031)"/>
<path d="M9.86401 49.5327C9.63652 49.4316 9.35847 49.4905 9.19839 49.6675C9.08043 49.7854 9.02145 49.9371 9.02145 50.1056C9.02145 50.2741 9.08885 50.4258 9.19839 50.5437C9.31634 50.6617 9.468 50.7207 9.63652 50.7207C9.80503 50.7207 9.95669 50.6533 10.0746 50.5437C10.1926 50.4258 10.2516 50.2741 10.2516 50.1056C10.2516 49.9371 10.1842 49.7854 10.0746 49.6675C10.0072 49.6085 9.93984 49.5664 9.86401 49.5327Z" fill="url(#paint17_linear_1008_1031)"/>
<defs>
<linearGradient id="paint0_linear_1008_1031" x1="4.96439" y1="3.58151" x2="7.45686" y2="54.0075" gradientUnits="userSpaceOnUse">
<stop stop-color="#AFEEFB"/>
<stop offset="1" stop-color="#2F94F8"/>
</linearGradient>
<linearGradient id="paint1_linear_1008_1031" x1="4.96439" y1="3.58151" x2="7.45686" y2="54.0075" gradientUnits="userSpaceOnUse">
<stop stop-color="#AFEEFB"/>
<stop offset="1" stop-color="#2F94F8"/>
</linearGradient>
<linearGradient id="paint2_linear_1008_1031" x1="4.96439" y1="3.58151" x2="7.45686" y2="54.0075" gradientUnits="userSpaceOnUse">
<stop stop-color="#AFEEFB"/>
<stop offset="1" stop-color="#2F94F8"/>
</linearGradient>
<linearGradient id="paint3_linear_1008_1031" x1="4.96439" y1="3.58151" x2="7.45686" y2="54.0075" gradientUnits="userSpaceOnUse">
<stop stop-color="#AFEEFB"/>
<stop offset="1" stop-color="#2F94F8"/>
</linearGradient>
<linearGradient id="paint4_linear_1008_1031" x1="4.96439" y1="3.58151" x2="7.45686" y2="54.0075" gradientUnits="userSpaceOnUse">
<stop stop-color="#AFEEFB"/>
<stop offset="1" stop-color="#2F94F8"/>
</linearGradient>
<linearGradient id="paint5_linear_1008_1031" x1="4.96439" y1="3.58151" x2="7.45686" y2="54.0075" gradientUnits="userSpaceOnUse">
<stop stop-color="#AFEEFB"/>
<stop offset="1" stop-color="#2F94F8"/>
</linearGradient>
<linearGradient id="paint6_linear_1008_1031" x1="4.96439" y1="3.58151" x2="7.45686" y2="54.0075" gradientUnits="userSpaceOnUse">
<stop stop-color="#AFEEFB"/>
<stop offset="1" stop-color="#2F94F8"/>
</linearGradient>
<linearGradient id="paint7_linear_1008_1031" x1="4.96439" y1="3.58151" x2="7.45686" y2="54.0075" gradientUnits="userSpaceOnUse">
<stop stop-color="#AFEEFB"/>
<stop offset="1" stop-color="#2F94F8"/>
</linearGradient>
<linearGradient id="paint8_linear_1008_1031" x1="4.96439" y1="3.58151" x2="7.45686" y2="54.0075" gradientUnits="userSpaceOnUse">
<stop stop-color="#AFEEFB"/>
<stop offset="1" stop-color="#2F94F8"/>
</linearGradient>
<linearGradient id="paint9_linear_1008_1031" x1="4.96439" y1="3.58151" x2="7.45686" y2="54.0075" gradientUnits="userSpaceOnUse">
<stop stop-color="#AFEEFB"/>
<stop offset="1" stop-color="#2F94F8"/>
</linearGradient>
<linearGradient id="paint10_linear_1008_1031" x1="4.96439" y1="3.58151" x2="7.45686" y2="54.0075" gradientUnits="userSpaceOnUse">
<stop stop-color="#AFEEFB"/>
<stop offset="1" stop-color="#2F94F8"/>
</linearGradient>
<linearGradient id="paint11_linear_1008_1031" x1="4.96439" y1="3.58151" x2="7.45686" y2="54.0075" gradientUnits="userSpaceOnUse">
<stop stop-color="#AFEEFB"/>
<stop offset="1" stop-color="#2F94F8"/>
</linearGradient>
<linearGradient id="paint12_linear_1008_1031" x1="4.96439" y1="3.58151" x2="7.45686" y2="54.0075" gradientUnits="userSpaceOnUse">
<stop stop-color="#AFEEFB"/>
<stop offset="1" stop-color="#2F94F8"/>
</linearGradient>
<linearGradient id="paint13_linear_1008_1031" x1="4.96439" y1="3.58151" x2="7.45686" y2="54.0075" gradientUnits="userSpaceOnUse">
<stop stop-color="#AFEEFB"/>
<stop offset="1" stop-color="#2F94F8"/>
</linearGradient>
<linearGradient id="paint14_linear_1008_1031" x1="4.96439" y1="3.58151" x2="7.45686" y2="54.0075" gradientUnits="userSpaceOnUse">
<stop stop-color="#AFEEFB"/>
<stop offset="1" stop-color="#2F94F8"/>
</linearGradient>
<linearGradient id="paint15_linear_1008_1031" x1="4.96439" y1="3.58151" x2="7.45686" y2="54.0075" gradientUnits="userSpaceOnUse">
<stop stop-color="#AFEEFB"/>
<stop offset="1" stop-color="#2F94F8"/>
</linearGradient>
<linearGradient id="paint16_linear_1008_1031" x1="4.96439" y1="3.58151" x2="7.45686" y2="54.0075" gradientUnits="userSpaceOnUse">
<stop stop-color="#AFEEFB"/>
<stop offset="1" stop-color="#2F94F8"/>
</linearGradient>
<linearGradient id="paint17_linear_1008_1031" x1="4.96439" y1="3.58151" x2="7.45686" y2="54.0075" gradientUnits="userSpaceOnUse">
<stop stop-color="#AFEEFB"/>
<stop offset="1" stop-color="#2F94F8"/>
</linearGradient>
</defs>
</svg>
