<svg width="49" height="43" viewBox="0 0 49 43" fill="none" xmlns="http://www.w3.org/2000/svg">
<path d="M41.0011 30.9063H39.3357C38.8995 30.9063 38.5427 30.5494 38.5427 30.1132C38.5427 29.677 38.8995 29.3202 39.3357 29.3202H41.0011C44.1812 29.3202 46.7665 26.7349 46.7665 23.5548C46.7665 21.0012 45.1328 18.7807 42.6982 18.0353C42.3017 17.9084 42.0638 17.504 42.1589 17.0916C42.2462 16.7347 42.2858 16.3382 42.2858 15.8862C42.2858 12.7378 39.7322 10.1446 36.5997 10.1049C36.3063 10.097 36.0446 9.9384 35.9098 9.6767C33.5862 5.21985 29.0183 2.44422 23.9905 2.44422C17.551 2.44422 11.9998 7.02797 10.7865 13.3485C10.7072 13.7608 10.3265 14.0384 9.90619 13.9829C9.81895 13.975 9.72379 13.975 9.63656 13.975C5.40968 13.975 1.96791 17.4167 1.96791 21.6515C1.96791 25.8784 5.40968 29.3202 9.63656 29.3202H10.4613C10.8975 29.3202 11.2543 29.677 11.2543 30.1132C11.2543 30.5494 10.8975 30.9063 10.4613 30.9063H9.63656C4.52941 30.9063 0.381836 26.7507 0.381836 21.6515C0.381836 16.6316 4.39459 12.5316 9.37485 12.3889C10.9768 5.66395 17.0197 0.858154 23.9905 0.858154C29.4545 0.858154 34.4348 3.79238 37.0914 8.54266C40.8663 8.83609 43.8719 12.0399 43.8719 15.8862C43.8719 16.1875 43.856 16.4809 43.8243 16.7506C46.5603 17.8846 48.3446 20.5334 48.3446 23.5548C48.3605 27.6072 45.0614 30.9063 41.0011 30.9063Z" fill="#625B71"/>
<path d="M36.7744 43.0001H13.0309C11.1752 43.0001 9.66846 41.4933 9.66846 39.6376V22.6191C9.66846 20.7634 11.1752 19.2566 13.0309 19.2566H36.7744C38.6301 19.2566 40.1369 20.7634 40.1369 22.6191V39.6376C40.1369 41.4933 38.6301 43.0001 36.7744 43.0001ZM13.0309 20.8427C12.0555 20.8427 11.2545 21.6357 11.2545 22.6191V39.6376C11.2545 40.613 12.0476 41.414 13.0309 41.414H36.7744C37.7498 41.414 38.5508 40.621 38.5508 39.6376V22.6191C38.5508 21.6436 37.7578 20.8427 36.7744 20.8427H13.0309Z" fill="#625B71"/>
<path d="M39.3438 26.0211H10.4615C10.0253 26.0211 9.66846 25.6643 9.66846 25.2281C9.66846 24.7919 10.0253 24.4351 10.4615 24.4351H39.3359C39.7721 24.4351 40.1289 24.7919 40.1289 25.2281C40.1289 25.6643 39.78 26.0211 39.3438 26.0211Z" fill="#625B71"/>
<path d="M32.7376 23.4515H32.0953C31.6591 23.4515 31.3022 23.0947 31.3022 22.6585C31.3022 22.2223 31.6591 21.8655 32.0953 21.8655H32.7376C33.1738 21.8655 33.5307 22.2223 33.5307 22.6585C33.5307 23.0947 33.1738 23.4515 32.7376 23.4515Z" fill="#625B71"/>
<path d="M35.7435 23.4515H35.1011C34.665 23.4515 34.3081 23.0947 34.3081 22.6585C34.3081 22.2223 34.665 21.8655 35.1011 21.8655H35.7435C36.1797 21.8655 36.5365 22.2223 36.5365 22.6585C36.5365 23.0947 36.1797 23.4515 35.7435 23.4515Z" fill="#625B71"/>
<path d="M19.8906 37.6233C19.7241 37.6233 19.5496 37.5678 19.4069 37.4567L15.5289 34.4511C15.3386 34.3005 15.2276 34.0784 15.2196 33.8405C15.2117 33.6026 15.3227 33.3726 15.5051 33.214L19.3831 29.9784C19.7161 29.7009 20.2237 29.7405 20.5013 30.0815C20.7788 30.4146 20.7392 30.9142 20.3982 31.1997L17.2815 33.8009L20.3744 36.1958C20.7233 36.4655 20.7867 36.9651 20.5171 37.3061C20.3585 37.5202 20.1206 37.6233 19.8906 37.6233Z" fill="#625B71"/>
<path d="M22.151 39.8199C22.0558 39.8199 21.9606 39.8041 21.8655 39.7644C21.461 39.6058 21.2548 39.1459 21.4134 38.7414L25.5451 28.1147C25.7038 27.7103 26.1637 27.5041 26.5682 27.6627C26.9726 27.8213 27.1788 28.2813 27.0202 28.6857L22.8885 39.3124C22.7695 39.6217 22.4682 39.8199 22.151 39.8199Z" fill="#625B71"/>
<path d="M28.5425 37.6233C28.3046 37.6233 28.0746 37.5202 27.916 37.314C27.6464 36.965 27.7098 36.4734 28.0588 36.2037L31.1516 33.8088L28.035 31.2076C27.7019 30.9301 27.6543 30.4304 27.9319 30.0894C28.2095 29.7564 28.7091 29.7088 29.0501 29.9863L32.9201 33.2219C33.1025 33.3726 33.2056 33.6026 33.2056 33.8484C33.1976 34.0863 33.0866 34.3163 32.8963 34.4591L29.0263 37.4647C28.8835 37.5678 28.7091 37.6233 28.5425 37.6233Z" fill="#625B71"/>
</svg>
