<svg width="49" height="49" viewBox="0 0 49 49" fill="none" xmlns="http://www.w3.org/2000/svg">
<path d="M13.7831 18.7844H12.1831V20.3844H13.7831V18.7844Z" fill="#625B71"/>
<path d="M21.7831 18.7844H20.1831V20.3844H21.7831V18.7844Z" fill="#625B71"/>
<path d="M48.297 27.5924L45.1714 27.146C45.0228 26.7089 44.8472 26.2815 44.6458 25.866L46.537 23.3444C46.6525 23.1904 46.7086 22.9998 46.6949 22.8078C46.6812 22.6157 46.5988 22.435 46.4626 22.2988L43.0682 18.9044C42.9378 18.775 42.7664 18.6949 42.5834 18.678V10.9773C43.3319 10.378 43.9362 9.61817 44.3516 8.75398C44.767 7.88979 44.9829 6.9433 44.9834 5.98445C44.9907 4.77204 44.6499 3.58299 44.0014 2.55856C43.3529 1.53412 42.424 0.717352 41.325 0.205261C41.2031 0.14769 41.0686 0.121866 40.934 0.130187C40.7995 0.138508 40.6692 0.180705 40.5553 0.252857C40.4414 0.325009 40.3476 0.424776 40.2826 0.54289C40.2175 0.661004 40.1834 0.793635 40.1834 0.92846V5.40846L38.5834 5.94205L36.9834 5.40846V0.92846C36.9828 0.793906 36.9483 0.661669 36.8831 0.543986C36.8179 0.426304 36.724 0.326977 36.6102 0.255197C36.4964 0.183418 36.3663 0.141504 36.232 0.133335C36.0977 0.125165 35.9635 0.151004 35.8418 0.208461C34.7433 0.720325 33.8147 1.5366 33.1663 2.56041C32.5178 3.58422 32.1767 4.77258 32.1834 5.98445C32.1839 6.9433 32.3998 7.88979 32.8152 8.75398C33.2306 9.61817 33.8349 10.378 34.5834 10.9773V16.3844H32.1834C31.9909 16.3844 31.8048 16.4538 31.6594 16.5799C31.5139 16.706 31.4188 16.8803 31.3914 17.0708L30.8738 20.694L32.4578 20.9204L32.877 17.9844H36.2898L36.709 20.9204C36.7308 21.0725 36.796 21.2152 36.8967 21.3312C36.9975 21.4473 37.1295 21.5318 37.277 21.5748C37.9438 21.7675 38.5876 22.0323 39.197 22.3644C39.3318 22.4384 39.4851 22.4719 39.6385 22.4609C39.7918 22.45 39.9388 22.3951 40.0618 22.3028L42.4306 20.5268L44.8434 22.9396L43.0634 25.3084C42.9711 25.4314 42.9162 25.5784 42.9053 25.7318C42.8944 25.8851 42.9279 26.0384 43.0018 26.1732C43.334 26.7826 43.5987 27.4264 43.7914 28.0932C43.8344 28.2408 43.919 28.3728 44.035 28.4735C44.1511 28.5742 44.2937 28.6394 44.4458 28.6612L47.3818 29.0804V32.4932L44.4458 32.9124C44.2937 32.9343 44.1511 32.9994 44.035 33.1002C43.919 33.2009 43.8344 33.3329 43.7914 33.4804C43.5987 34.1472 43.334 34.791 43.0018 35.4004C42.9279 35.5352 42.8944 35.6885 42.9053 35.8419C42.9162 35.9953 42.9711 36.1422 43.0634 36.2652L44.8394 38.634L42.4266 41.0468L40.0594 39.2644C39.9364 39.1721 39.7894 39.1172 39.6361 39.1063C39.4827 39.0954 39.3294 39.1289 39.1946 39.2028C38.5852 39.535 37.9414 39.7998 37.2746 39.9924C37.1271 40.0354 36.9951 40.12 36.8943 40.2361C36.7936 40.3521 36.7284 40.4947 36.7066 40.6468L36.2898 43.5844H32.9834V40.2012C32.9828 39.3561 32.8616 38.5153 32.6234 37.7044C34.1472 38.1505 35.775 38.0868 37.2592 37.5229C38.7435 36.9591 40.003 35.926 40.8462 34.5807C41.6895 33.2353 42.0703 31.6515 41.9309 30.0699C41.7914 28.4882 41.1393 26.9954 40.0736 25.8185C39.008 24.6415 37.5871 23.8447 36.0271 23.5493C34.4671 23.2538 32.8533 23.476 31.431 24.1818C30.0088 24.8877 28.856 26.0387 28.148 27.4598C27.4399 28.8809 27.2152 30.4944 27.5082 32.0548C27.489 32.0468 27.4706 32.0372 27.4514 32.03L20.9834 29.4428V28.2132C22.0524 27.6663 22.9993 26.9081 23.7666 25.9844H25.7834C26.4199 25.9844 27.0304 25.7316 27.4805 25.2815C27.9306 24.8314 28.1834 24.221 28.1834 23.5844V21.8372C28.6497 21.6724 29.0537 21.3675 29.3401 20.9642C29.6265 20.5609 29.7814 20.079 29.7834 19.5844V17.1844C29.7814 16.6898 29.6265 16.2079 29.3401 15.8047C29.0537 15.4014 28.6497 15.0965 28.1834 14.9316V13.9844C28.1834 11.014 27.0034 8.16526 24.903 6.06486C22.8026 3.96445 19.9539 2.78446 16.9834 2.78446C14.013 2.78446 11.1642 3.96445 9.06384 6.06486C6.96343 8.16526 5.78344 11.014 5.78344 13.9844V14.9316C5.31711 15.0965 4.91311 15.4014 4.62671 15.8047C4.34031 16.2079 4.18549 16.6898 4.18344 17.1844V19.5844C4.18344 20.221 4.4363 20.8314 4.88638 21.2815C5.33647 21.7316 5.94692 21.9844 6.58344 21.9844H8.18344C8.23464 21.9844 8.28424 21.9764 8.33464 21.9732C8.58061 23.2996 9.12761 24.5519 9.93355 25.6337C10.7395 26.7155 11.7829 27.598 12.9834 28.2132V29.4428L6.51544 32.03C4.8791 32.6785 3.47609 33.805 2.48932 35.2625C1.50255 36.72 0.977784 38.4411 0.983444 40.2012V47.5844C0.983444 47.7966 1.06773 48.0001 1.21776 48.1501C1.36779 48.3001 1.57127 48.3844 1.78344 48.3844H32.1834C32.3956 48.3844 32.5991 48.3001 32.7491 48.1501C32.8991 48.0001 32.9834 47.7966 32.9834 47.5844V45.1844H36.9834C37.1759 45.1844 37.362 45.115 37.5075 44.989C37.6529 44.8629 37.7481 44.6886 37.7754 44.498L38.2218 41.3724C38.6589 41.2238 39.0864 41.0482 39.5018 40.8468L42.0234 42.738C42.1775 42.8535 42.368 42.9096 42.5601 42.8959C42.7522 42.8823 42.9328 42.7998 43.069 42.6636L46.4634 39.2692C46.5996 39.1331 46.682 38.9524 46.6957 38.7603C46.7094 38.5682 46.6533 38.3777 46.5378 38.2236L44.6466 35.702C44.848 35.2866 45.0236 34.8591 45.1722 34.422L48.2978 33.9756C48.4881 33.9481 48.6621 33.853 48.788 33.7077C48.9139 33.5625 48.9833 33.3767 48.9834 33.1844V28.3844C48.9834 28.1919 48.914 28.0059 48.7879 27.8604C48.6619 27.7149 48.4876 27.6198 48.297 27.5924ZM39.497 20.722C39.4594 20.7036 39.417 20.6916 39.3794 20.674V10.7845H37.7834V17.1284L37.7754 17.0708C37.7481 16.8803 37.6529 16.706 37.5075 16.5799C37.362 16.4538 37.1759 16.3844 36.9834 16.3844H36.1834V10.5765C36.1834 10.4474 36.1522 10.3203 36.0924 10.2059C36.0327 10.0915 35.9461 9.99333 35.8402 9.91965C35.2455 9.50563 34.7523 8.96233 34.3975 8.33051C34.0427 7.69869 33.8356 6.99474 33.7916 6.27146C33.7477 5.54817 33.868 4.82432 34.1437 4.15419C34.4194 3.48406 34.8432 2.88504 35.3834 2.40206V5.98445C35.3834 6.15243 35.4362 6.31615 35.5344 6.45241C35.6326 6.58868 35.7712 6.69058 35.9306 6.74365L38.3306 7.54365C38.4947 7.59831 38.6721 7.59831 38.8362 7.54365L41.2362 6.74365C41.3956 6.69058 41.5342 6.58868 41.6324 6.45241C41.7306 6.31615 41.7834 6.15243 41.7834 5.98445V2.40206C42.324 2.88503 42.7482 3.48419 43.0242 4.15456C43.3001 4.82493 43.4207 5.5491 43.3767 6.27271C43.3328 6.99633 43.1255 7.70058 42.7704 8.33262C42.4153 8.96466 41.9217 9.50807 41.3266 9.92205C41.221 9.9955 41.1347 10.0933 41.0749 10.2073C41.0152 10.3212 40.9838 10.4478 40.9834 10.5765V19.6108L39.497 20.722ZM28.9834 30.7844C28.9746 29.5335 29.3819 28.3152 30.1412 27.3211C30.9006 26.3271 31.9688 25.6136 33.178 25.2931C34.3871 24.9725 35.6685 25.063 36.8206 25.5504C37.9727 26.0377 38.93 26.8942 39.5421 27.9852C40.1541 29.0762 40.3861 30.3396 40.2015 31.5768C40.017 32.8141 39.4263 33.9548 38.5225 34.8197C37.6188 35.6845 36.4531 36.2243 35.2089 36.3542C33.9648 36.4841 32.7128 36.1967 31.6498 35.5372C31.0968 34.6513 30.3893 33.8717 29.561 33.2356C29.1804 32.4746 28.9826 31.6353 28.9834 30.7844ZM25.7834 24.3844H24.8122C25.2021 23.6252 25.4784 22.8128 25.6322 21.9732C25.6826 21.9732 25.7322 21.9844 25.7834 21.9844H26.5834V23.5844C26.5834 23.7966 26.4991 24.0001 26.3491 24.1501C26.1991 24.3001 25.9956 24.3844 25.7834 24.3844ZM24.1834 15.5844C23.811 15.5835 23.4438 15.4964 23.1107 15.3298C22.7776 15.1633 22.4876 14.9218 22.2634 14.6244L20.8234 12.7044C20.7591 12.6187 20.6783 12.5468 20.5856 12.4929C20.493 12.4391 20.3905 12.4043 20.2842 12.3908C20.1779 12.3778 20.07 12.386 19.9669 12.415C19.8638 12.4439 19.7674 12.4931 19.6834 12.5596L16.9986 14.7044C16.2902 15.2713 15.4107 15.5815 14.5034 15.5844H9.78343V14.7844C9.78343 12.8749 10.542 11.0435 11.8923 9.69328C13.2425 8.34302 15.0739 7.58445 16.9834 7.58445C18.893 7.58445 20.7243 8.34302 22.0746 9.69328C23.4249 11.0435 24.1834 12.8749 24.1834 14.7844V15.5844ZM28.1834 19.5844C28.1834 19.7966 28.0991 20.0001 27.9491 20.1501C27.7991 20.3002 27.5956 20.3844 27.3834 20.3844H25.7834V16.3844H27.3834C27.5956 16.3844 27.7991 16.4687 27.9491 16.6188C28.0991 16.7688 28.1834 16.9723 28.1834 17.1844V19.5844ZM16.9834 4.38446C19.5287 4.38721 21.9689 5.39952 23.7686 7.19927C25.5684 8.99902 26.5807 11.4392 26.5834 13.9844V14.7844H25.7834C25.7834 12.4505 24.8563 10.2122 23.206 8.56191C21.5556 6.91159 19.3173 5.98445 16.9834 5.98445C14.6495 5.98445 12.4112 6.91159 10.7609 8.56191C9.11058 10.2122 8.18344 12.4505 8.18344 14.7844H7.38344V13.9844C7.38619 11.4392 8.3985 8.99902 10.1982 7.19927C11.998 5.39952 14.4382 4.38721 16.9834 4.38446ZM6.58344 20.3844C6.37127 20.3844 6.16778 20.3002 6.01775 20.1501C5.86772 20.0001 5.78344 19.7966 5.78344 19.5844V17.1844C5.78344 16.9723 5.86772 16.7688 6.01775 16.6188C6.16778 16.4687 6.37127 16.3844 6.58344 16.3844H8.18344V20.3844H6.58344ZM9.78343 20.3844V17.1844H14.5034C15.7745 17.1827 17.0075 16.7501 18.001 15.9572L20.0418 14.3244L20.9834 15.5844C21.3571 16.0801 21.8404 16.4825 22.3956 16.7601C22.9508 17.0376 23.5627 17.1829 24.1834 17.1844V20.3844C24.1847 21.8092 23.7608 23.202 22.9658 24.3844H16.9834V25.9844H21.4986C20.4421 26.8387 19.1653 27.3762 17.816 27.5348C16.4666 27.6934 15.1 27.4666 13.8742 26.8807C12.6484 26.2948 11.6136 25.3736 10.8897 24.224C10.1657 23.0743 9.78216 21.7431 9.78343 20.3844ZM16.9834 29.1844C17.7953 29.1824 18.6031 29.0677 19.3834 28.8436V29.9844C19.3834 30.6209 19.1306 31.2314 18.6805 31.6815C18.2304 32.1316 17.6199 32.3844 16.9834 32.3844C16.3469 32.3844 15.7365 32.1316 15.2864 31.6815C14.8363 31.2314 14.5834 30.6209 14.5834 29.9844V28.8436C15.3638 29.0677 16.1715 29.1824 16.9834 29.1844ZM31.3834 46.7844H26.5834V37.9844H24.9834V46.7844H8.98344V37.9844H7.38344V46.7844H2.58344V40.2012C2.57878 38.7611 3.00815 37.3529 3.81555 36.1603C4.62296 34.9678 5.77095 34.0462 7.10984 33.5156L13.1602 31.0956C13.3965 31.9275 13.8976 32.6596 14.5876 33.1809C15.2775 33.7022 16.1187 33.9842 16.9834 33.9842C17.8482 33.9842 18.6893 33.7022 19.3793 33.1809C20.0693 32.6596 20.5704 31.9275 20.8066 31.0956L26.857 33.5156C28.1959 34.0462 29.3439 34.9678 30.1513 36.1603C30.9587 37.3529 31.3881 38.7611 31.3834 40.2012V46.7844Z" fill="#625B71"/>
<path d="M35.3837 19.5842H33.7837V21.1842H35.3837V19.5842Z" fill="#625B71"/>
<path d="M35.3837 40.3843H33.7837V41.9843H35.3837V40.3843Z" fill="#625B71"/>
<path d="M41.9365 37.0073L40.8052 38.1387L41.9365 39.27L43.0679 38.1387L41.9365 37.0073Z" fill="#625B71"/>
<path d="M45.7831 29.9846H44.1831V31.5846H45.7831V29.9846Z" fill="#625B71"/>
<path d="M41.937 22.2995L40.8057 23.4309L41.937 24.5623L43.0684 23.4309L41.937 22.2995Z" fill="#625B71"/>
</svg>
