<svg width="43" height="48" viewBox="0 0 43 48" fill="none" xmlns="http://www.w3.org/2000/svg">
<path d="M39.1671 43.3363C40.9021 43.3363 42.314 41.9244 42.314 40.1894V11.1657C42.314 9.43066 40.9021 8.0188 39.1671 8.0188H29.3218V3.81402C29.3218 1.71114 27.6107 0 25.5078 0H4.12799C2.02511 0 0.313965 1.71114 0.313965 3.81402V15.103C0.313965 16.5874 1.16705 17.876 2.40889 18.5054V40.1894C2.40889 41.9244 3.82076 43.3363 5.55576 43.3363H5.77748V46.7307H3.00546C2.67635 46.7307 2.40889 46.9982 2.40889 47.3273C2.40889 47.6564 2.67635 47.9239 3.00546 47.9239H41.7174C42.0465 47.9239 42.314 47.6564 42.314 47.3273C42.314 46.9982 42.0465 46.7307 41.7174 46.7307H38.9454V43.3363H39.1671ZM39.1671 9.21192C40.2439 9.21192 41.1208 10.0879 41.1208 11.1657V14.6287H29.3218V9.21192H39.1671ZM1.50709 15.103V3.81402C1.50709 2.36935 2.68232 1.19313 4.12799 1.19313H25.5088C26.9535 1.19313 28.1297 2.36835 28.1297 3.81402V15.103C28.1297 16.5477 26.9545 17.7239 25.5088 17.7239H11.9101C11.7739 17.7239 11.6427 17.7706 11.5363 17.8551L5.81825 22.4516V18.3204C5.81825 17.9913 5.55079 17.7239 5.22169 17.7239H4.12799C2.68232 17.7239 1.50709 16.5477 1.50709 15.103ZM5.55576 42.1432C4.47897 42.1432 3.60202 41.2672 3.60202 40.1894V18.8792C3.77403 18.9031 3.94902 18.916 4.12799 18.916H4.62512V23.6955C4.62512 23.9251 4.75736 24.1339 4.96417 24.2334C5.0467 24.2731 5.13419 24.292 5.22169 24.292C5.35492 24.292 5.48716 24.2473 5.59553 24.1608L12.1199 18.916H25.5088C27.3661 18.916 28.9162 17.5817 29.2532 15.8208H41.1208V40.1894C41.1208 41.2662 40.2449 42.1432 39.1671 42.1432H38.9454V29.0526C38.9454 28.7235 38.6779 28.456 38.3488 28.456H32.8356C32.5065 28.456 32.239 28.7235 32.239 29.0526V42.1432H30.1242V36.0443C30.1242 35.7152 29.8567 35.4478 29.5276 35.4478H24.0144C23.6853 35.4478 23.4178 35.7152 23.4178 36.0443V42.1432H21.304V32.1567C21.304 31.8276 21.0366 31.5602 20.7075 31.5602H15.1942C14.8651 31.5602 14.5977 31.8276 14.5977 32.1567V42.1432H12.4828V38.3053C12.4828 37.9762 12.2154 37.7087 11.8863 37.7087H6.37305C6.04395 37.7087 5.77649 37.9762 5.77649 38.3053V42.1442H5.55576V42.1432ZM12.4838 43.3363H14.5987V46.7307H12.4838V43.3363ZM20.1109 46.7307H15.7908V32.7533H20.1109V46.7307ZM21.304 43.3363H23.4188V46.7307H21.304V43.3363ZM28.9321 46.7307H24.612V36.6409H28.9321V46.7307ZM30.1252 43.3363H32.24V46.7307H30.1252V43.3363ZM6.97061 38.9019H11.2907V46.7307H6.97061V38.9019ZM33.4331 46.7307V29.6492H37.7532V46.7307H33.4331ZM9.13017 34.9099C10.6653 34.9099 11.9141 33.661 11.9141 32.1259C11.9141 31.6228 11.7789 31.1505 11.5453 30.7429L16.3386 26.3999C16.794 26.725 17.3508 26.9169 17.9523 26.9169C18.7478 26.9169 19.4656 26.5808 19.9737 26.0439L24.1357 28.5455C24.0413 28.8249 23.9895 29.1242 23.9895 29.4344C23.9895 30.9696 25.2384 32.2184 26.7735 32.2184C28.3087 32.2184 29.5575 30.9696 29.5575 29.4344C29.5575 28.9134 29.4133 28.4262 29.1637 28.0086L34.0217 23.4479C34.4692 23.7561 35.011 23.9361 35.5947 23.9361C37.1298 23.9361 38.3786 22.6873 38.3786 21.1521C38.3786 19.617 37.1298 18.3682 35.5947 18.3682C34.0595 18.3682 32.8107 19.617 32.8107 21.1521C32.8107 21.6731 32.9549 22.1603 33.2045 22.5779L28.3464 27.1386C27.899 26.8304 27.3571 26.6504 26.7735 26.6504C25.9781 26.6504 25.2592 26.9865 24.7522 27.5234L20.5901 25.0218C20.6846 24.7424 20.7363 24.4432 20.7363 24.1329C20.7363 22.5978 19.4875 21.349 17.9523 21.349C16.4172 21.349 15.1684 22.5978 15.1684 24.1329C15.1684 24.6361 15.3036 25.1083 15.5372 25.516L10.7439 29.859C10.2885 29.5338 9.7317 29.3419 9.13017 29.3419C7.59501 29.3419 6.34621 30.5907 6.34621 32.1259C6.34621 33.661 7.59501 34.9099 9.13017 34.9099ZM35.5927 19.5623C36.4696 19.5623 37.1835 20.2762 37.1835 21.1531C37.1835 22.0301 36.4696 22.744 35.5927 22.744C34.7157 22.744 34.0019 22.0301 34.0019 21.1531C34.0019 20.2762 34.7157 19.5623 35.5927 19.5623ZM26.7715 27.8446C27.6485 27.8446 28.3624 28.5585 28.3624 29.4354C28.3624 30.3123 27.6485 31.0262 26.7715 31.0262C25.8946 31.0262 25.1807 30.3123 25.1807 29.4354C25.1807 28.5585 25.8946 27.8446 26.7715 27.8446ZM17.9513 22.5431C18.8283 22.5431 19.5422 23.257 19.5422 24.1339C19.5422 25.0109 18.8283 25.7248 17.9513 25.7248C17.0744 25.7248 16.3605 25.0109 16.3605 24.1339C16.3605 23.257 17.0744 22.5431 17.9513 22.5431ZM9.13017 30.5351C10.0071 30.5351 10.721 31.2489 10.721 32.1259C10.721 33.0028 10.0071 33.7167 9.13017 33.7167C8.25322 33.7167 7.53933 33.0028 7.53933 32.1259C7.53933 31.2489 8.25322 30.5351 9.13017 30.5351ZM12.2929 13.4664C12.622 13.4664 12.8895 13.1989 12.8895 12.8698V10.0551H13.9862L15.5273 13.1363C15.6317 13.3451 15.8425 13.4664 16.0612 13.4664C16.1507 13.4664 16.2422 13.4465 16.3277 13.4038C16.622 13.2566 16.7423 12.8977 16.5942 12.6034L15.233 9.88107C16.0682 9.53506 16.6568 8.7118 16.6568 7.75333C16.6568 6.48364 15.6238 5.45159 14.3551 5.45159H12.2929C11.9638 5.45159 11.6964 5.71905 11.6964 6.04815V12.8708C11.6964 13.1989 11.9628 13.4664 12.2929 13.4664ZM15.4637 7.75233C15.4637 8.36381 14.9665 8.86094 14.3551 8.86094H12.8895V6.64372H14.3541C14.9665 6.64372 15.4637 7.14086 15.4637 7.75233ZM3.66366 9.65537V9.26164C3.66366 7.16074 5.37282 5.45059 7.47471 5.45059H7.52939C8.31288 5.45059 9.06554 5.68823 9.70784 6.13664C9.97729 6.32555 10.0439 6.69741 9.85499 6.96785C9.66608 7.23829 9.29422 7.30392 9.02378 7.115C8.58332 6.80678 8.0663 6.64372 7.52939 6.64372H7.47471C6.03102 6.64372 4.85679 7.81795 4.85679 9.26164V9.65537C4.85679 11.099 6.03102 12.2733 7.47471 12.2733H7.52939C8.0663 12.2733 8.58332 12.1102 9.02378 11.802C9.29422 11.6131 9.66608 11.6787 9.85499 11.9492C10.0439 12.2196 9.97828 12.5914 9.70784 12.7804C9.06554 13.2298 8.31188 13.4674 7.52939 13.4674H7.47471C5.37282 13.4664 3.66366 11.7563 3.66366 9.65537ZM18.4216 12.8698V6.04716C18.4216 5.78566 18.5917 5.55499 18.8402 5.47744C19.0898 5.39989 19.3602 5.49335 19.5084 5.70811L22.1959 9.60267L24.8834 5.70811C25.0315 5.49335 25.302 5.39989 25.5515 5.47744C25.8011 5.55499 25.9701 5.78566 25.9701 6.04716V12.8698C25.9701 13.1989 25.7027 13.4664 25.3736 13.4664C25.0445 13.4664 24.777 13.1989 24.777 12.8698V7.96212L22.688 10.9927C22.5767 11.1537 22.3927 11.2502 22.1969 11.2502C22.001 11.2502 21.8171 11.1537 21.7057 10.9927L19.6148 7.96212V12.8698C19.6148 13.1989 19.3473 13.4664 19.0182 13.4664C18.6891 13.4664 18.4216 13.1989 18.4216 12.8698Z" fill="#7E7E7E"/>
</svg>
