<svg width="50" height="47" viewBox="0 0 50 47" fill="none" xmlns="http://www.w3.org/2000/svg">
<path d="M28.3612 43.3159C28.5928 43.3159 28.8149 43.2239 28.9787 43.0601C29.1424 42.8963 29.2344 42.6742 29.2344 42.4426V33.9287C29.2333 32.9448 28.8419 32.0015 28.1462 31.3058C27.4504 30.6101 26.5072 30.2187 25.5232 30.2175H24.1043C23.1203 30.2187 22.1771 30.6101 21.4813 31.3058C20.7856 32.0015 20.3942 32.9448 20.3931 33.9287V42.4426C20.3975 42.6713 20.4915 42.8891 20.6548 43.0492C20.8181 43.2093 21.0376 43.299 21.2663 43.299C21.495 43.299 21.7146 43.2093 21.8778 43.0491C22.0411 42.889 22.1351 42.6712 22.1395 42.4426V37.6399H27.488V42.4426C27.488 42.6742 27.58 42.8963 27.7438 43.0601C27.9075 43.2239 28.1296 43.3159 28.3612 43.3159ZM22.1395 35.8935V33.9287C22.1401 33.4078 22.3473 32.9084 22.7156 32.5401C23.0839 32.1717 23.5833 31.9645 24.1043 31.964H25.5232C26.0442 31.9645 26.5436 32.1717 26.9119 32.5401C27.2802 32.9084 27.4874 33.4078 27.488 33.9287V35.8935H22.1395Z" fill="#7E7E7E"/>
<path d="M32.7821 42.4426V37.6399H36.1658C37.1443 37.6311 38.0798 37.2363 38.7686 36.5412C39.4575 35.8462 39.8439 34.9072 39.8439 33.9287C39.8439 32.9501 39.4574 32.0112 38.7686 31.3161C38.0797 30.6211 37.1442 30.2263 36.1657 30.2175H31.9089C31.6773 30.2175 31.4552 30.3095 31.2914 30.4733C31.1276 30.6371 31.0356 30.8592 31.0356 31.0908V42.4426C31.0401 42.6713 31.1341 42.8891 31.2973 43.0492C31.4606 43.2093 31.6802 43.299 31.9089 43.299C32.1376 43.299 32.3571 43.2093 32.5204 43.0492C32.6837 42.8891 32.7776 42.6713 32.7821 42.4426ZM32.7821 31.964H36.1658C36.6869 31.964 37.1867 32.171 37.5551 32.5394C37.9236 32.9079 38.1306 33.4076 38.1306 33.9287C38.1306 34.4498 37.9236 34.9495 37.5551 35.318C37.1867 35.6865 36.6869 35.8935 36.1658 35.8935H32.7821V31.964Z" fill="#7E7E7E"/>
<path d="M14.8807 41.5694H10.6237C10.3921 41.5694 10.17 41.6614 10.0062 41.8252C9.84249 41.9889 9.75049 42.211 9.75049 42.4426C9.75049 42.6742 9.84249 42.8963 10.0062 43.0601C10.17 43.2239 10.3921 43.3159 10.6237 43.3159H14.8807C15.8592 43.3071 16.7946 42.9122 17.4835 42.2172C18.1723 41.5221 18.5588 40.5832 18.5588 39.6046C18.5587 38.6261 18.1723 37.6871 17.4834 36.9921C16.7946 36.2971 15.8591 35.9022 14.8806 35.8935H13.4617C12.9444 35.8877 12.4503 35.6781 12.0865 35.3103C11.7228 34.9425 11.5187 34.446 11.5188 33.9287C11.5188 33.4114 11.7228 32.9149 12.0865 32.5471C12.4503 32.1793 12.9444 31.9697 13.4617 31.964H17.7186C17.9502 31.964 18.1723 31.872 18.3361 31.7082C18.4999 31.5445 18.5919 31.3223 18.5919 31.0908C18.5919 30.8592 18.4999 30.6371 18.3361 30.4733C18.1723 30.3095 17.9502 30.2175 17.7186 30.2175H13.4617C12.4832 30.2263 11.5477 30.6212 10.8589 31.3162C10.17 32.0112 9.78357 32.9502 9.78359 33.9288C9.7836 34.9073 10.1701 35.8463 10.8589 36.5413C11.5478 37.2363 12.4833 37.6312 13.4618 37.6399H14.8807C15.398 37.6457 15.8921 37.8552 16.2559 38.2231C16.6196 38.5909 16.8236 39.0873 16.8236 39.6047C16.8236 40.122 16.6196 40.6184 16.2559 40.9863C15.8921 41.3541 15.398 41.5636 14.8807 41.5694Z" fill="#7E7E7E"/>
<path d="M42.2784 27.1611H7.34951C6.19196 27.1625 5.08221 27.6229 4.2637 28.4414C3.44519 29.2599 2.98476 30.3697 2.9834 31.5272V38.513C2.98762 38.7418 3.08149 38.9598 3.24479 39.1201C3.4081 39.2805 3.6278 39.3703 3.85665 39.3703C4.08549 39.3703 4.30519 39.2804 4.46848 39.1201C4.63178 38.9598 4.72563 38.7418 4.72984 38.513V31.5272C4.7306 30.8327 5.00684 30.1668 5.49796 29.6757C5.98908 29.1846 6.65496 28.9083 7.34951 28.9076H42.2784C42.9729 28.9083 43.6388 29.1846 44.1299 29.6757C44.621 30.1668 44.8973 30.8327 44.898 31.5272C44.898 31.7588 44.99 31.9809 45.1538 32.1447C45.3176 32.3085 45.5397 32.4005 45.7713 32.4005C46.0029 32.4005 46.225 32.3085 46.3887 32.1447C46.5525 31.9809 46.6445 31.7588 46.6445 31.5272C46.6431 30.3697 46.1827 29.2599 45.3642 28.4414C44.5457 27.6229 43.4359 27.1625 42.2784 27.1611Z" fill="#7E7E7E"/>
<path d="M45.7713 34.147C45.5397 34.147 45.3176 34.239 45.1538 34.4027C44.99 34.5665 44.898 34.7886 44.898 35.0202V42.006C44.8973 42.7005 44.621 43.3664 44.1299 43.8575C43.6388 44.3486 42.9729 44.6249 42.2784 44.6256H7.34951C6.65496 44.6249 5.98908 44.3486 5.49796 43.8575C5.00684 43.3664 4.7306 42.7005 4.72984 42.006C4.72984 41.7744 4.63784 41.5523 4.47408 41.3885C4.31032 41.2247 4.08821 41.1327 3.85662 41.1327C3.62503 41.1327 3.40292 41.2247 3.23916 41.3885C3.0754 41.5523 2.9834 41.7744 2.9834 42.006C2.98476 43.1635 3.44519 44.2733 4.2637 45.0918C5.08221 45.9103 6.19196 46.3707 7.34951 46.3721H42.2784C43.4359 46.3707 44.5457 45.9103 45.3642 45.0918C46.1827 44.2733 46.6431 43.1635 46.6445 42.006V35.0202C46.6445 34.7886 46.5525 34.5665 46.3887 34.4027C46.225 34.239 46.0029 34.147 45.7713 34.147Z" fill="#7E7E7E"/>
<path d="M48.3905 19.9831H46.8973C45.9954 19.9723 45.1165 19.6971 44.3695 19.1915C43.6225 18.6859 43.0404 17.9722 42.6952 17.1389C42.35 16.3056 42.257 15.3893 42.4276 14.5036C42.5983 13.618 43.0251 12.8018 43.6552 12.1564L44.7117 11.0999C44.7928 11.0189 44.8571 10.9226 44.901 10.8167C44.9449 10.7107 44.9675 10.5972 44.9675 10.4825C44.9675 10.3679 44.9449 10.2543 44.901 10.1484C44.8571 10.0424 44.7928 9.9462 44.7117 9.86513L39.4898 4.64327C38.5843 3.80901 37.8072 5.19319 37.1985 5.69986C36.5541 6.33652 35.7367 6.76965 34.848 6.94538C33.9594 7.12111 33.0387 7.03168 32.2005 6.68821C31.3613 6.34488 30.6438 5.75881 30.1399 5.0051C29.6359 4.2514 29.3685 3.36439 29.3719 2.45774V0.964531C29.3719 0.732938 29.2799 0.51083 29.1161 0.34707C28.9524 0.183309 28.7303 0.0913086 28.4987 0.0913086H21.1283C20.8967 0.0913086 20.6746 0.183309 20.5109 0.34707C20.3471 0.51083 20.2551 0.732938 20.2551 0.964531V2.45774C20.2538 3.36394 19.9842 4.24946 19.4802 5.00259C18.9762 5.75572 18.2605 6.34272 17.4233 6.68953C16.5861 7.03635 15.6649 7.12744 14.776 6.95132C13.8871 6.77519 13.0702 6.33975 12.4285 5.69992L11.3719 4.64332C11.2908 4.56221 11.1946 4.49788 11.0886 4.45398C10.9827 4.41009 10.8692 4.38749 10.7545 4.38749C10.6398 4.38749 10.5263 4.41009 10.4204 4.45398C10.3144 4.49788 10.2182 4.56221 10.1371 4.64332L4.91524 9.86519C4.83414 9.94625 4.7698 10.0425 4.7259 10.1484C4.68201 10.2544 4.65941 10.3679 4.65941 10.4826C4.65941 10.5972 4.68201 10.7108 4.7259 10.8167C4.7698 10.9227 4.83414 11.0189 4.91524 11.1L5.97184 12.1566C6.61167 12.7983 7.04712 13.6151 7.22324 14.504C7.39937 15.393 7.30828 16.3141 6.96147 17.1513C6.61466 17.9885 6.02767 18.7043 5.27454 19.2082C4.52142 19.7122 3.63591 19.9818 2.72971 19.9831H1.2365C1.00491 19.9831 0.782803 20.0751 0.619042 20.2389C0.455281 20.4026 0.363281 20.6248 0.363281 20.8563V28.1568C0.367628 28.3855 0.461542 28.6034 0.624835 28.7636C0.788129 28.9238 1.00776 29.0136 1.23653 29.0136C1.46529 29.0136 1.68492 28.9238 1.84821 28.7636C2.01149 28.6033 2.10539 28.3855 2.10973 28.1567V21.7296C3.4635 21.8521 4.82101 21.5388 5.98413 20.8353C7.14725 20.1318 8.0551 19.075 8.57519 17.8192C9.09529 16.5633 9.2004 15.174 8.87518 13.8542C8.54997 12.5344 7.81146 11.353 6.76742 10.4826L10.7546 6.4955C11.3924 7.24797 12.1953 7.84316 13.1007 8.23477C14.0061 8.62638 14.9896 8.80385 15.9747 8.75338C16.9599 8.70291 17.9202 8.42587 18.7808 7.94379C19.6414 7.46171 20.3793 6.7876 20.9369 5.97388C21.7355 4.74914 22.1096 3.29588 22.0015 1.83775H27.6255C27.5093 3.1891 27.8265 4.54233 28.531 5.70132C29.2355 6.8603 30.2909 7.76482 31.544 8.28376C32.7971 8.8027 34.183 8.90912 35.5006 8.58757C36.8183 8.26603 37.9993 7.53323 38.8726 6.4954L42.8596 10.4825L42.4204 10.9217C38.2232 15.1008 41.6659 22.2406 47.5174 21.7294L47.5173 28.1568C47.5212 28.3858 47.615 28.604 47.7783 28.7645C47.9417 28.925 48.1615 29.015 48.3905 29.015C48.6195 29.015 48.8394 28.925 49.0027 28.7645C49.166 28.604 49.2598 28.3857 49.2637 28.1567V20.8563C49.2637 20.6248 49.1717 20.4026 49.0079 20.2389C48.8442 20.0751 48.6221 19.9831 48.3905 19.9831Z" fill="#7E7E7E"/>
<path d="M12.1517 24.5417C12.8485 7.7422 36.7828 7.75111 37.4752 24.5418C37.4752 24.7734 37.5672 24.9955 37.7309 25.1593C37.8947 25.323 38.1168 25.415 38.3484 25.415C38.58 25.415 38.8021 25.323 38.9659 25.1592C39.1296 24.9954 39.2216 24.7733 39.2216 24.5417C39.2216 20.7204 37.7036 17.0557 35.0015 14.3536C32.2995 11.6515 28.6347 10.1335 24.8134 10.1335C20.9922 10.1335 17.3274 11.6515 14.6253 14.3536C11.9233 17.0557 10.4053 20.7204 10.4053 24.5417C10.4096 24.7704 10.5035 24.9883 10.6668 25.1485C10.8301 25.3088 11.0497 25.3985 11.2785 25.3985C11.5073 25.3985 11.7269 25.3088 11.8902 25.1485C12.0535 24.9883 12.1474 24.7704 12.1517 24.5417Z" fill="#7E7E7E"/>
</svg>
