<svg width="49" height="49" viewBox="0 0 49 49" fill="none" xmlns="http://www.w3.org/2000/svg">
<path d="M13.0844 19.2754H11.4844V20.8754H13.0844V19.2754Z" fill="#625B71"/>
<path d="M21.0844 19.2754H19.4844V20.8754H21.0844V19.2754Z" fill="#625B71"/>
<path d="M47.5948 28.0829L44.4693 27.6365C44.3206 27.1994 44.1451 26.7719 43.9437 26.3565L45.8349 23.8349C45.9504 23.6809 46.0064 23.4903 45.9928 23.2982C45.9791 23.1062 45.8966 22.9255 45.7605 22.7893L42.3661 19.3949C42.2356 19.2654 42.0642 19.1854 41.8813 19.1685V11.4677C42.6298 10.8684 43.234 10.1086 43.6494 9.24446C44.0649 8.38027 44.2808 7.43378 44.2813 6.47493C44.2886 5.26251 43.9478 4.07347 43.2993 3.04904C42.6508 2.0246 41.7218 1.20783 40.6229 0.695739C40.5009 0.638169 40.3665 0.612345 40.2319 0.620666C40.0973 0.628987 39.967 0.671183 39.8531 0.743335C39.7392 0.815487 39.6454 0.915254 39.5804 1.03337C39.5154 1.15148 39.4813 1.28411 39.4813 1.41894V5.89893L37.8813 6.43253L36.2813 5.89893V1.41894C36.2807 1.28438 36.2462 1.15215 36.181 1.03446C36.1157 0.916782 36.0218 0.817456 35.908 0.745676C35.7942 0.673896 35.6641 0.631982 35.5298 0.623813C35.3955 0.615644 35.2613 0.641483 35.1397 0.698939C34.0412 1.2108 33.1126 2.02708 32.4641 3.05089C31.8157 4.0747 31.4746 5.26306 31.4813 6.47493C31.4817 7.43378 31.6977 8.38027 32.1131 9.24446C32.5285 10.1086 33.1328 10.8684 33.8813 11.4677V16.8749H31.4813C31.2888 16.8749 31.1027 16.9443 30.9572 17.0704C30.8117 17.1965 30.7166 17.3708 30.6893 17.5613L30.1717 21.1845L31.7557 21.4109L32.1749 18.4749H35.5877L36.0069 21.4109C36.0287 21.563 36.0939 21.7056 36.1946 21.8217C36.2953 21.9377 36.4273 22.0223 36.5749 22.0653C37.2416 22.258 37.8854 22.5227 38.4949 22.8549C38.6297 22.9288 38.783 22.9623 38.9363 22.9514C39.0897 22.9405 39.2367 22.8856 39.3597 22.7933L41.7285 21.0173L44.1413 23.4301L42.3613 25.7989C42.269 25.9219 42.2141 26.0689 42.2031 26.2222C42.1922 26.3756 42.2257 26.5289 42.2997 26.6637C42.6318 27.2731 42.8966 27.9169 43.0893 28.5837C43.1323 28.7312 43.2168 28.8633 43.3329 28.964C43.4489 29.0647 43.5915 29.1299 43.7437 29.1517L46.6797 29.5709V32.9837L43.7437 33.4029C43.5915 33.4247 43.4489 33.4899 43.3329 33.5906C43.2168 33.6914 43.1323 33.8234 43.0893 33.9709C42.8966 34.6377 42.6318 35.2815 42.2997 35.8909C42.2257 36.0257 42.1922 36.179 42.2031 36.3324C42.2141 36.4857 42.269 36.6327 42.3613 36.7557L44.1373 39.1245L41.7245 41.5373L39.3573 39.7549C39.2343 39.6626 39.0873 39.6077 38.9339 39.5968C38.7806 39.5859 38.6273 39.6194 38.4925 39.6933C37.883 40.0255 37.2392 40.2902 36.5725 40.4829C36.4249 40.5259 36.2929 40.6105 36.1922 40.7265C36.0915 40.8426 36.0263 40.9852 36.0045 41.1373L35.5877 44.0749H32.2813V40.6917C32.2807 39.8465 32.1595 39.0058 31.9213 38.1949C33.4451 38.641 35.0728 38.5773 36.5571 38.0134C38.0413 37.4496 39.3008 36.4164 40.1441 35.0711C40.9873 33.7258 41.3682 32.1419 41.2287 30.5603C41.0893 28.9787 40.4371 27.4859 39.3715 26.3089C38.3058 25.132 36.885 24.3352 35.3249 24.0397C33.7649 23.7443 32.1511 23.9664 30.7289 24.6723C29.3067 25.3782 28.1539 26.5292 27.4458 27.9503C26.7377 29.3714 26.5131 30.9848 26.8061 32.5453C26.7869 32.5373 26.7685 32.5277 26.7493 32.5205L20.2813 29.9333V28.7037C21.3503 28.1568 22.2971 27.3986 23.0645 26.4749H25.0813C25.7178 26.4749 26.3282 26.2221 26.7783 25.772C27.2284 25.3219 27.4813 24.7114 27.4813 24.0749V22.3277C27.9476 22.1628 28.3516 21.8579 28.638 21.4547C28.9244 21.0514 29.0792 20.5695 29.0813 20.0749V17.6749C29.0792 17.1803 28.9244 16.6984 28.638 16.2952C28.3516 15.8919 27.9476 15.587 27.4813 15.4221V14.4749C27.4813 11.5045 26.3013 8.65574 24.2009 6.55534C22.1005 4.45493 19.2517 3.27494 16.2813 3.27494C13.3109 3.27494 10.4621 4.45493 8.36169 6.55534C6.26129 8.65574 5.08129 11.5045 5.08129 14.4749V15.4221C4.61496 15.587 4.21096 15.8919 3.92456 16.2952C3.63816 16.6984 3.48334 17.1803 3.48129 17.6749V20.0749C3.48129 20.7114 3.73415 21.3219 4.18424 21.772C4.63432 22.2221 5.24477 22.4749 5.88129 22.4749H7.48129C7.53249 22.4749 7.58209 22.4669 7.63249 22.4637C7.87846 23.7901 8.42546 25.0424 9.2314 26.1242C10.0373 27.206 11.0807 28.0885 12.2813 28.7037V29.9333L5.81329 32.5205C4.17695 33.169 2.77394 34.2954 1.78717 35.753C0.800398 37.2105 0.275636 38.9315 0.281295 40.6917V48.0749C0.281295 48.2871 0.365581 48.4905 0.51561 48.6406C0.665639 48.7906 0.869122 48.8749 1.08129 48.8749H31.4813C31.6934 48.8749 31.8969 48.7906 32.047 48.6406C32.197 48.4905 32.2813 48.2871 32.2813 48.0749V45.6749H36.2813C36.4738 45.6749 36.6598 45.6055 36.8053 45.4794C36.9508 45.3534 37.0459 45.1791 37.0733 44.9885L37.5197 41.8629C37.9568 41.7142 38.3842 41.5387 38.7997 41.3373L41.3213 43.2285C41.4753 43.344 41.6659 43.4001 41.8579 43.3864C42.05 43.3727 42.2307 43.2903 42.3669 43.1541L45.7612 39.7597C45.8974 39.6235 45.9799 39.4428 45.9936 39.2508C46.0072 39.0587 45.9512 38.8682 45.8357 38.7141L43.9445 36.1925C44.1459 35.7771 44.3214 35.3496 44.4701 34.9125L47.5957 34.4661C47.7859 34.4386 47.9599 34.3435 48.0858 34.1982C48.2117 34.0529 48.2811 33.8672 48.2812 33.6749V28.8749C48.2813 28.6824 48.2119 28.4963 48.0858 28.3509C47.9597 28.2054 47.7854 28.1102 47.5948 28.0829ZM38.7949 21.2125C38.7573 21.1941 38.7149 21.1821 38.6773 21.1645V11.2749H37.0813V17.6189L37.0733 17.5613C37.0459 17.3708 36.9508 17.1965 36.8053 17.0704C36.6598 16.9443 36.4738 16.8749 36.2813 16.8749H35.4813V11.0669C35.4813 10.9379 35.4501 10.8108 35.3903 10.6964C35.3305 10.582 35.244 10.4838 35.1381 10.4101C34.5434 9.9961 34.0501 9.45281 33.6953 8.82099C33.3406 8.18917 33.1334 7.48522 33.0895 6.76194C33.0455 6.03865 33.1659 5.3148 33.4416 4.64467C33.7173 3.97454 34.1411 3.37552 34.6813 2.89254V6.47493C34.6812 6.6429 34.7341 6.80663 34.8323 6.94289C34.9305 7.07916 35.0691 7.18105 35.2285 7.23413L37.6285 8.03413C37.7926 8.08879 37.97 8.08879 38.1341 8.03413L40.5341 7.23413C40.6934 7.18105 40.832 7.07916 40.9302 6.94289C41.0285 6.80663 41.0813 6.6429 41.0813 6.47493V2.89254C41.6219 3.37551 42.0461 3.97467 42.322 4.64504C42.598 5.31541 42.7185 6.03958 42.6746 6.76319C42.6306 7.4868 42.4233 8.19106 42.0683 8.8231C41.7132 9.45514 41.2196 9.99855 40.6245 10.4125C40.5189 10.486 40.4325 10.5838 40.3728 10.6977C40.313 10.8116 40.2816 10.9383 40.2813 11.0669V20.1013L38.7949 21.2125ZM28.2813 31.2749C28.2725 30.024 28.6798 28.8057 29.4391 27.8116C30.1984 26.8175 31.2667 26.1041 32.4758 25.7835C33.685 25.463 34.9664 25.5535 36.1184 26.0408C37.2705 26.5282 38.2279 27.3847 38.8399 28.4757C39.452 29.5666 39.684 30.8301 39.4994 32.0673C39.3148 33.3046 38.7242 34.4453 37.8204 35.3101C36.9166 36.175 35.7509 36.7148 34.5068 36.8447C33.2626 36.9746 32.0106 36.6872 30.9477 36.0277C30.3946 35.1418 29.6872 34.3622 28.8589 33.7261C28.4783 32.9651 28.2805 32.1258 28.2813 31.2749ZM25.0813 24.8749H24.1101C24.4999 24.1156 24.7762 23.3032 24.9301 22.4637C24.9805 22.4637 25.0301 22.4749 25.0813 22.4749H25.8813V24.0749C25.8813 24.2871 25.797 24.4906 25.647 24.6406C25.4969 24.7906 25.2934 24.8749 25.0813 24.8749ZM23.4813 16.0749C23.1089 16.074 22.7417 15.9868 22.4086 15.8203C22.0755 15.6537 21.7855 15.4123 21.5613 15.1149L20.1213 13.1949C20.057 13.1092 19.9761 13.0373 19.8835 12.9834C19.7909 12.9295 19.6884 12.8948 19.5821 12.8813C19.4757 12.8683 19.3679 12.8765 19.2647 12.9054C19.1616 12.9344 19.0653 12.9836 18.9813 13.0501L16.2965 15.1949C15.5881 15.7618 14.7086 16.072 13.8013 16.0749H9.08129V15.2749C9.08129 13.3654 9.83986 11.534 11.1901 10.1838C12.5404 8.8335 14.3717 8.07493 16.2813 8.07493C18.1908 8.07493 20.0222 8.8335 21.3724 10.1838C22.7227 11.534 23.4813 13.3654 23.4813 15.2749V16.0749ZM27.4813 20.0749C27.4813 20.2871 27.397 20.4906 27.247 20.6406C27.0969 20.7906 26.8934 20.8749 26.6813 20.8749H25.0813V16.8749H26.6813C26.8934 16.8749 27.0969 16.9592 27.247 17.1092C27.397 17.2593 27.4813 17.4627 27.4813 17.6749V20.0749ZM16.2813 4.87494C18.8265 4.87769 21.2667 5.89 23.0665 7.68975C24.8662 9.4895 25.8785 11.9297 25.8813 14.4749V15.2749H25.0813C25.0813 12.941 24.1541 10.7027 22.5038 9.05239C20.8535 7.40207 18.6152 6.47493 16.2813 6.47493C13.9474 6.47493 11.7091 7.40207 10.0587 9.05239C8.40843 10.7027 7.48129 12.941 7.48129 15.2749H6.68129V14.4749C6.68404 11.9297 7.69635 9.4895 9.4961 7.68975C11.2959 5.89 13.736 4.87769 16.2813 4.87494ZM5.88129 20.8749C5.66912 20.8749 5.46563 20.7906 5.31561 20.6406C5.16558 20.4906 5.08129 20.2871 5.08129 20.0749V17.6749C5.08129 17.4627 5.16558 17.2593 5.31561 17.1092C5.46563 16.9592 5.66912 16.8749 5.88129 16.8749H7.48129V20.8749H5.88129ZM9.08129 20.8749V17.6749H13.8013C15.0724 17.6732 16.3054 17.2406 17.2989 16.4477L19.3397 14.8149L20.2813 16.0749C20.6549 16.5706 21.1383 16.9729 21.6935 17.2505C22.2486 17.5281 22.8606 17.6734 23.4813 17.6749V20.8749C23.4826 22.2997 23.0586 23.6925 22.2637 24.8749H16.2813V26.4749H20.7965C19.74 27.3291 18.4632 27.8667 17.1138 28.0253C15.7645 28.1839 14.3978 27.9571 13.172 27.3712C11.9462 26.7852 10.9115 25.8641 10.1875 24.7144C9.46355 23.5648 9.08001 22.2335 9.08129 20.8749ZM16.2813 29.6749C17.0932 29.6729 17.9009 29.5582 18.6813 29.3341V30.4749C18.6813 31.1114 18.4284 31.7219 17.9783 32.172C17.5282 32.622 16.9178 32.8749 16.2813 32.8749C15.6448 32.8749 15.0343 32.622 14.5842 32.172C14.1341 31.7219 13.8813 31.1114 13.8813 30.4749V29.3341C14.6617 29.5582 15.4694 29.6729 16.2813 29.6749ZM30.6813 47.2749H25.8813V38.4749H24.2813V47.2749H8.28129V38.4749H6.68129V47.2749H1.88129V40.6917C1.87664 39.2515 2.306 37.8434 3.11341 36.6508C3.92081 35.4583 5.0688 34.5366 6.40769 34.0061L12.4581 31.5861C12.6943 32.418 13.1955 33.1501 13.8854 33.6714C14.5754 34.1926 15.4165 34.4747 16.2813 34.4747C17.146 34.4747 17.9872 34.1926 18.6771 33.6714C19.3671 33.1501 19.8682 32.418 20.1045 31.5861L26.1549 34.0061C27.4938 34.5366 28.6417 35.4583 29.4492 36.6508C30.2566 37.8434 30.6859 39.2515 30.6813 40.6917V47.2749Z" fill="#625B71"/>
<path d="M34.6781 20.0742H33.0781V21.6742H34.6781V20.0742Z" fill="#625B71"/>
<path d="M34.6781 40.875H33.0781V42.475H34.6781V40.875Z" fill="#625B71"/>
<path d="M41.2329 37.4975L40.1016 38.6289L41.2329 39.7603L42.3643 38.6289L41.2329 37.4975Z" fill="#625B71"/>
<path d="M45.0844 30.4746H43.4844V32.0746H45.0844V30.4746Z" fill="#625B71"/>
<path d="M41.2329 22.7905L40.1016 23.9219L41.2329 25.0532L42.3643 23.9219L41.2329 22.7905Z" fill="#625B71"/>
</svg>
