<svg width="57" height="58" viewBox="0 0 57 58" fill="none" xmlns="http://www.w3.org/2000/svg">
<path d="M36.679 16.1719H20.6009C17.7108 16.1719 15.3594 18.5232 15.3594 21.4134V36.9286C15.3594 39.8189 17.7108 42.1702 20.6009 42.1702H36.679C39.5691 42.1702 41.9205 39.8189 41.9205 36.9286V21.4134C41.9205 18.5232 39.5691 16.1719 36.679 16.1719ZM39.9341 36.9286C39.9341 38.7235 38.4739 40.1838 36.679 40.1838H20.6009C18.806 40.1838 17.3458 38.7235 17.3458 36.9286V21.4134C17.3458 19.6185 18.806 18.1583 20.6009 18.1583H36.679C38.4739 18.1583 39.9341 19.6185 39.9341 21.4134V36.9286Z" fill="#7E7E7E"/>
<path d="M21.5808 8.83539V12.6008C21.5808 13.1494 22.0254 13.5941 22.574 13.5941C23.1226 13.5941 23.5672 13.1494 23.5672 12.6008V8.83539C25.335 8.39079 26.6479 6.78829 26.6479 4.8845C26.6479 2.63811 24.8204 0.810547 22.574 0.810547C20.3276 0.810547 18.5 2.63811 18.5 4.8845C18.5 6.78829 19.8129 8.39079 21.5808 8.83539ZM22.574 2.79699C23.725 2.79699 24.6615 3.73343 24.6615 4.8845C24.6615 6.03549 23.725 6.97194 22.574 6.97194C21.4229 6.97194 20.4864 6.03549 20.4864 4.8845C20.4865 3.73343 21.4229 2.79699 22.574 2.79699Z" fill="#7E7E7E"/>
<path d="M33.2527 8.83539V12.6008C33.2527 13.1494 33.6973 13.5941 34.2459 13.5941C34.7945 13.5941 35.2391 13.1494 35.2391 12.6008V8.83539C37.0069 8.39079 38.3198 6.78829 38.3198 4.8845C38.3198 2.63811 36.4923 0.810547 34.2459 0.810547C31.9995 0.810547 30.1719 2.63811 30.1719 4.8845C30.1719 6.78829 31.4848 8.39079 33.2527 8.83539ZM34.2459 2.79699C35.3969 2.79699 36.3333 3.73343 36.3333 4.8845C36.3333 6.03549 35.3969 6.97194 34.2459 6.97194C33.0948 6.97194 32.1583 6.03549 32.1583 4.8845C32.1583 3.73343 33.0948 2.79699 34.2459 2.79699Z" fill="#7E7E7E"/>
<path d="M35.4655 49.5067V45.7413C35.4655 45.1927 35.0209 44.748 34.4723 44.748C33.9237 44.748 33.4791 45.1927 33.4791 45.7413V49.5067C31.7113 49.9513 30.3984 51.5538 30.3984 53.4576C30.3984 55.704 32.2259 57.5316 34.4723 57.5316C36.7187 57.5316 38.5463 55.704 38.5463 53.4576C38.5463 51.5538 37.2334 49.9513 35.4655 49.5067ZM34.4723 55.5451C33.3213 55.5451 32.3849 54.6087 32.3849 53.4576C32.3849 52.3066 33.3213 51.3702 34.4723 51.3702C35.6234 51.3702 36.5599 52.3066 36.5599 53.4576C36.5599 54.6087 35.6234 55.5451 34.4723 55.5451Z" fill="#7E7E7E"/>
<path d="M23.8015 49.5067V45.7413C23.8015 45.1927 23.3569 44.748 22.8083 44.748C22.2597 44.748 21.815 45.1927 21.815 45.7413V49.5067C20.0472 49.9513 18.7344 51.5538 18.7344 53.4576C18.7344 55.704 20.5619 57.5316 22.8083 57.5316C25.0546 57.5316 26.8823 55.704 26.8823 53.4576C26.8823 51.5538 25.5694 49.9513 23.8015 49.5067ZM22.8083 55.5451C21.6573 55.5451 20.7208 54.6087 20.7208 53.4576C20.7208 52.3066 21.6573 51.3702 22.8083 51.3702C23.9594 51.3702 24.8958 52.3066 24.8958 53.4576C24.8958 54.6087 23.9594 55.5451 22.8083 55.5451Z" fill="#7E7E7E"/>
<path d="M45.0948 24.2136H48.8602C49.3048 25.9814 50.9074 27.2943 52.8113 27.2943C55.0576 27.2943 56.8851 25.4668 56.8851 23.2204C56.8851 20.974 55.0576 19.1465 52.8113 19.1465C50.9075 19.1465 49.3049 20.4594 48.8602 22.2271H45.0948C44.5462 22.2271 44.1016 22.6718 44.1016 23.2204C44.1016 23.7689 44.5462 24.2136 45.0948 24.2136ZM52.8113 21.1329C53.9623 21.1329 54.8987 22.0694 54.8987 23.2204C54.8987 24.3714 53.9623 25.3079 52.8113 25.3079C51.6601 25.3079 50.7237 24.3714 50.7237 23.2204C50.7237 22.0694 51.6601 21.1329 52.8113 21.1329Z" fill="#7E7E7E"/>
<path d="M52.8113 30.8184C50.9074 30.8184 49.3049 32.1313 48.8602 33.8991H45.0948C44.5462 33.8991 44.1016 34.3438 44.1016 34.8923C44.1016 35.4408 44.5462 35.8855 45.0948 35.8855H48.8602C49.3048 37.6534 50.9074 38.9663 52.8113 38.9663C55.0576 38.9663 56.8851 37.1387 56.8851 34.8923C56.8851 32.6459 55.0576 30.8184 52.8113 30.8184ZM52.8113 36.9798C51.6601 36.9798 50.7237 36.0434 50.7237 34.8923C50.7237 33.7412 51.6601 32.8048 52.8113 32.8048C53.9623 32.8048 54.8987 33.7412 54.8987 34.8923C54.8987 36.0434 53.9623 36.9798 52.8113 36.9798Z" fill="#7E7E7E"/>
<path d="M11.9544 34.1296H8.18898C7.74436 32.3617 6.14182 31.0488 4.23795 31.0488C1.99156 31.0488 0.164062 32.8764 0.164062 35.1228C0.164062 37.3691 1.99156 39.1967 4.23795 39.1967C6.14175 39.1967 7.74434 37.8838 8.18898 36.116H11.9544C12.503 36.116 12.9476 35.6713 12.9476 35.1228C12.9476 34.5742 12.503 34.1296 11.9544 34.1296ZM4.23795 37.2102C3.08695 37.2102 2.1505 36.2738 2.1505 35.1228C2.1505 33.9717 3.08695 33.0353 4.23795 33.0353C5.38907 33.0353 6.32552 33.9717 6.32552 35.1228C6.32552 36.2738 5.38907 37.2102 4.23795 37.2102Z" fill="#7E7E7E"/>
<path d="M11.9544 22.4578H8.18898C7.74436 20.69 6.14182 19.3771 4.23795 19.3771C1.99156 19.3771 0.164062 21.2046 0.164062 23.451C0.164062 25.6974 1.99156 27.525 4.23795 27.525C6.14182 27.525 7.74434 26.2121 8.18898 24.4442H11.9544C12.503 24.4442 12.9476 23.9996 12.9476 23.451C12.9476 22.9025 12.503 22.4578 11.9544 22.4578ZM4.23795 25.5385C3.08695 25.5385 2.1505 24.6021 2.1505 23.451C2.1505 22.3 3.08695 21.3635 4.23795 21.3635C5.38907 21.3635 6.32552 22.3 6.32552 23.451C6.32552 24.6021 5.38907 25.5385 4.23795 25.5385Z" fill="#7E7E7E"/>
<path d="M27.5373 23.8401C27.2665 23.2284 26.6604 22.834 25.9915 22.834C25.3225 22.834 24.7165 23.2284 24.4456 23.8401L20.1601 33.5179C19.8571 34.2021 20.3581 34.9718 21.1063 34.9718C21.5183 34.9718 21.891 34.7274 22.0553 34.3497L22.8702 32.4761C22.9152 32.3725 23.0175 32.3055 23.1304 32.3055H28.8441C28.9571 32.3055 29.0593 32.3725 29.1044 32.4761L29.9182 34.3473C30.0831 34.7265 30.4571 34.9718 30.8707 34.9718C31.6217 34.9718 32.1246 34.1992 31.8204 33.5125L27.5373 23.8401ZM27.8357 30.5195H24.1642C23.9598 30.5195 23.8224 30.3101 23.9039 30.1227L25.7397 25.8964C25.8386 25.6688 26.1614 25.6688 26.2603 25.8964L28.096 30.1227C28.1774 30.3101 28.0401 30.5195 27.8357 30.5195Z" fill="#7E7E7E"/>
<path d="M34.989 22.834C34.3953 22.834 33.9141 23.3153 33.9141 23.9089V33.8968C33.9141 34.4905 34.3953 34.9717 34.989 34.9717C35.5827 34.9717 36.064 34.4905 36.064 33.8968V23.9089C36.064 23.3153 35.5827 22.834 34.989 22.834Z" fill="#7E7E7E"/>
</svg>
