<svg width="55" height="55" viewBox="0 0 55 55" fill="none" xmlns="http://www.w3.org/2000/svg">
<path d="M53.964 23.3553C53.8797 23.3228 50.1967 23.3852 48.76 19.5127C48.5767 19.0242 48.3765 18.5533 48.1647 18.0771C46.4506 14.2923 49.0866 11.744 49.1242 11.6594C49.4035 11.3241 49.3812 10.8314 49.0727 10.5229L44.5842 6.03434C44.2764 5.72616 43.7829 5.70402 43.4476 5.98287C43.3631 6.02042 40.8298 8.66389 37.0247 6.94021C36.5539 6.73054 36.083 6.53036 35.592 6.34621C31.7192 4.90931 31.7843 1.22739 31.7519 1.14302C31.7145 0.706379 31.3494 0.371094 30.9111 0.371094H24.5672C24.1288 0.371094 23.7639 0.706379 23.7264 1.14302C23.694 1.22739 23.7563 4.91047 19.8838 6.34706C19.3953 6.53036 18.9244 6.73054 18.4482 6.94232C14.6632 8.65556 12.115 6.02032 12.0305 5.98287C11.6956 5.70359 11.2025 5.72585 10.894 6.03434L6.40544 10.5229C6.09694 10.8314 6.07469 11.3241 6.35397 11.6594C6.39278 11.7468 9.03762 14.2692 7.31131 18.0824C7.10164 18.5532 6.90146 19.0241 6.71731 19.515C5.2804 23.3879 1.59849 23.3228 1.51411 23.3552C1.07747 23.3926 0.742188 23.7576 0.742188 24.196V30.5399C0.742188 30.9782 1.07747 31.3432 1.51411 31.3807L1.90382 31.4136C4.07637 31.6159 5.92113 33.0745 6.71815 35.2232C6.90146 35.7118 7.10164 36.1827 7.31342 36.6589C9.0276 40.4436 6.39152 42.992 6.35397 43.0766C6.07469 43.4118 6.09694 43.9046 6.40544 44.2131L10.894 48.7016C11.2037 49.011 11.6968 49.0332 12.0309 48.7527C12.1153 48.7152 14.6402 46.0698 18.4536 47.7957C18.9244 48.0054 19.3953 48.2056 19.8867 48.3897C23.7596 49.8262 23.694 53.5086 23.7264 53.5929C23.7638 54.0296 24.1288 54.3649 24.5672 54.3649H30.9111C31.3494 54.3649 31.7144 54.0296 31.7519 53.5929C31.7843 53.5086 31.7213 49.825 35.5944 48.3889C36.083 48.2056 36.5539 48.0054 37.0301 47.7936C40.814 46.078 43.3628 48.7152 43.4473 48.7527C43.7819 49.0328 44.2754 49.0105 44.5843 48.7016L49.0728 44.2131C49.3813 43.9046 49.4036 43.4118 49.1243 43.0766C49.0855 42.9891 46.4406 40.4666 48.167 36.6536C48.3766 36.1828 48.5768 35.7119 48.7609 35.2209C50.1979 31.3481 53.8798 31.4132 53.9641 31.3808C54.4008 31.3434 54.7361 30.9783 54.7361 30.54V24.1961C54.736 23.7577 54.4007 23.3928 53.964 23.3553ZM53.0487 29.7775C50.3863 30.1631 48.1581 31.9954 47.1798 34.6309C47.0088 35.0874 46.821 35.5277 46.6273 35.9628C45.4603 38.5403 45.7396 41.4148 47.3421 43.5578L43.9291 46.9708C41.7854 45.3687 38.9112 45.0894 36.3391 46.2544C35.8987 46.4501 35.4583 46.6379 35.0048 46.808C32.3679 47.7859 30.5365 50.0118 30.1488 52.6778H25.3295C24.9439 50.015 23.112 47.7868 20.476 46.8089C20.0196 46.6379 19.5792 46.4501 19.1442 46.2564C16.567 45.0903 13.6933 45.3687 11.5488 46.9708L8.13586 43.5578C9.73836 41.4149 10.0181 38.5403 8.85263 35.9682C8.65698 35.5278 8.46914 35.0874 8.29902 34.6335C7.3207 31.9971 5.09457 30.1659 2.42927 29.7779V24.9586C5.09161 24.573 7.31985 22.7407 8.29818 20.1051C8.46914 19.6487 8.65699 19.2083 8.85063 18.7733C10.0176 16.1957 9.73836 13.3213 8.13586 11.1783L11.5493 7.76488C13.6917 9.36779 16.5671 9.64707 19.1389 8.48164C19.5792 8.286 20.0197 8.09816 20.4736 7.92804C23.11 6.94971 24.9411 4.72358 25.3292 2.05828H30.1485C30.534 4.72062 32.3664 6.94886 35.0019 7.92719C35.4584 8.09816 35.8987 8.286 36.3338 8.47964C38.9109 9.64707 41.7862 9.36821 43.9288 7.76488L47.3422 11.1783C45.7397 13.3212 45.46 16.1957 46.6254 18.7679C46.8211 19.2082 47.0089 19.6487 47.179 20.1026C48.1582 22.7407 50.3864 24.573 53.0488 24.9586L53.0487 29.7775Z" fill="url(#paint0_linear_1024_4418)"/>
<path d="M27.7391 9.22953C17.7376 9.22953 9.60052 17.3667 9.60052 27.3681C9.60052 37.3696 17.7376 45.5068 27.7391 45.5068C37.7406 45.5068 45.8778 37.3696 45.8778 27.3681C45.8778 17.3667 37.7406 9.22953 27.7391 9.22953ZM27.7391 43.8195C18.6678 43.8195 11.2878 36.4395 11.2878 27.3681C11.2878 18.2968 18.6678 10.9168 27.7391 10.9168C36.8105 10.9168 44.1905 18.2968 44.1905 27.3681C44.1905 36.4395 36.8105 43.8195 27.7391 43.8195Z" fill="url(#paint1_linear_1024_4418)"/>
<path d="M36.7405 27.3476H27.7589V18.3718C27.7589 17.9059 27.3811 17.5281 26.9152 17.5281C21.0323 17.5281 16.2459 22.3091 16.2459 28.1854C16.2459 34.0684 21.0323 38.8548 26.9152 38.8548C32.7945 38.8548 37.5804 34.0713 37.5841 28.1916C37.5841 27.7222 37.2034 27.3476 36.7405 27.3476ZM26.9152 37.1675C21.9624 37.1675 17.9333 33.1382 17.9333 28.1855C17.9333 23.5236 21.5131 19.6806 26.0716 19.2546V28.1913C26.0716 28.6572 26.4494 29.035 26.9152 29.035H35.8569C35.4276 33.5905 31.5801 37.1675 26.9152 37.1675Z" fill="url(#paint2_linear_1024_4418)"/>
<path d="M29.6097 14.8336C29.1439 14.8336 28.7661 15.2114 28.7661 15.6773V25.4971C28.7661 25.963 29.1439 26.3408 29.6097 26.3408H39.4346C39.8976 26.3408 40.2791 25.967 40.2791 25.4909C40.2791 19.6146 35.4927 14.8336 29.6097 14.8336ZM30.4534 24.6535V16.56C34.7359 16.9604 38.1546 20.3759 38.553 24.6535H30.4534Z" fill="url(#paint3_linear_1024_4418)"/>
<defs>
<linearGradient id="paint0_linear_1024_4418" x1="26.0035" y1="0.371093" x2="27.7391" y2="54.3649" gradientUnits="userSpaceOnUse">
<stop stop-color="#B2F0FB"/>
<stop offset="1" stop-color="#1783F7"/>
</linearGradient>
<linearGradient id="paint1_linear_1024_4418" x1="26.0035" y1="0.371093" x2="27.7391" y2="54.3649" gradientUnits="userSpaceOnUse">
<stop stop-color="#B2F0FB"/>
<stop offset="1" stop-color="#1783F7"/>
</linearGradient>
<linearGradient id="paint2_linear_1024_4418" x1="26.0035" y1="0.371093" x2="27.7391" y2="54.3649" gradientUnits="userSpaceOnUse">
<stop stop-color="#B2F0FB"/>
<stop offset="1" stop-color="#1783F7"/>
</linearGradient>
<linearGradient id="paint3_linear_1024_4418" x1="26.0035" y1="0.371093" x2="27.7391" y2="54.3649" gradientUnits="userSpaceOnUse">
<stop stop-color="#B2F0FB"/>
<stop offset="1" stop-color="#1783F7"/>
</linearGradient>
</defs>
</svg>
