<svg width="57" height="57" viewBox="0 0 57 57" fill="none" xmlns="http://www.w3.org/2000/svg">
<path d="M13.3237 33.0775C13.4797 33.2879 13.547 33.5511 13.5109 33.8106C13.4749 34.07 13.3385 34.305 13.131 34.4648C12.9236 34.6247 12.6616 34.6968 12.4016 34.6656C12.1415 34.6343 11.9041 34.5023 11.7404 34.2978C8.91708 30.6471 7.39446 26.1578 7.41436 21.5428C7.15544 9.81545 17.8618 -0.316128 29.5681 0.582962C33.7737 0.810785 37.8088 2.32028 41.1314 4.90865C41.3349 5.07293 41.466 5.31044 41.4965 5.57024C41.527 5.83004 41.4544 6.09145 41.2944 6.29838C41.1344 6.50531 40.8997 6.6413 40.6405 6.67716C40.3814 6.71303 40.1186 6.64593 39.9084 6.49024C27.5798 -3.13796 9.31325 5.96534 9.4133 21.5426C9.39504 25.7159 10.7713 29.7757 13.3237 33.0775ZM44.182 7.78191C52.6608 17.1262 50.3989 32.6881 39.6775 39.2487C38.3374 40.1082 37.3244 41.3924 36.8006 42.8957C37.2048 43.1052 37.5553 43.405 37.8249 43.7718C38.0945 44.1387 38.2761 44.5627 38.3554 45.011C38.4347 45.4593 38.4097 45.9198 38.2822 46.3569C38.1548 46.7939 37.9285 47.1958 37.6207 47.5312C38.1493 48.1204 38.423 48.895 38.3819 49.6855C38.3407 50.476 37.9881 51.218 37.4011 51.7491V53.5286C37.4002 54.3237 37.084 55.0859 36.5219 55.6481C35.9597 56.2103 35.1975 56.5265 34.4024 56.5273H22.4076C21.6126 56.5265 20.8504 56.2103 20.2882 55.6481C19.726 55.0859 19.4098 54.3237 19.409 53.5287L19.409 51.7492C18.8221 51.218 18.4695 50.476 18.4283 49.6855C18.3872 48.8951 18.6609 48.1205 19.1894 47.5313C18.8867 47.1915 18.6653 46.7873 18.542 46.3492C18.4187 45.9112 18.3967 45.4508 18.4778 45.003C18.5588 44.5552 18.7407 44.1317 19.0097 43.7646C19.2787 43.3976 19.6277 43.0966 20.0303 42.8844C19.549 41.4225 18.5776 40.1717 17.2803 39.3435C16.3694 38.5845 13.4253 37.3229 14.5273 35.9279C14.7047 35.7312 14.9528 35.6128 15.2173 35.5985C15.4818 35.5842 15.7412 35.6753 15.9387 35.8518C16.684 36.519 17.4866 37.1194 18.3371 37.6459C20.1154 38.7762 21.4239 40.5125 22.0204 42.5334H34.8128C35.4509 40.4825 36.7924 38.7226 38.601 37.5639C48.3075 31.6197 50.3513 17.5594 42.6742 9.09486C42.5001 8.89491 42.4125 8.63399 42.4308 8.36948C42.4491 8.10498 42.5717 7.85857 42.7716 7.68445C42.9716 7.51034 43.2325 7.42278 43.497 7.44105C43.7615 7.45932 44.0079 7.58196 44.182 7.78191ZM21.4081 46.5317H35.402C35.6636 46.5264 35.9127 46.4188 36.0959 46.2319C36.279 46.045 36.3816 45.7938 36.3816 45.5321C36.3816 45.2705 36.279 45.0193 36.0959 44.8324C35.9127 44.6455 35.6636 44.5379 35.402 44.5326H21.4081C21.1465 44.5379 20.8974 44.6455 20.7143 44.8324C20.5312 45.0192 20.4286 45.2705 20.4286 45.5321C20.4286 45.7938 20.5311 46.045 20.7143 46.2319C20.8974 46.4187 21.1465 46.5264 21.4081 46.5317ZM35.402 52.5291H21.4081V53.5287C21.4083 53.7937 21.5137 54.0478 21.7011 54.2352C21.8885 54.4226 22.1426 54.528 22.4076 54.5282H34.4024C34.6674 54.528 34.9215 54.4226 35.1089 54.2352C35.2963 54.0478 35.4017 53.7937 35.402 53.5287L35.402 52.5291ZM36.4016 49.5304C36.4013 49.2654 36.2959 49.0113 36.1085 48.8239C35.9211 48.6365 35.6671 48.5311 35.402 48.5308H21.4081C21.2766 48.5304 21.1462 48.556 21.0246 48.606C20.903 48.656 20.7924 48.7296 20.6992 48.8225C20.6061 48.9153 20.5322 49.0257 20.4817 49.1471C20.4313 49.2686 20.4054 49.3989 20.4054 49.5304C20.4054 49.6619 20.4313 49.7922 20.4817 49.9136C20.5322 50.0351 20.6061 50.1454 20.6992 50.2383C20.7924 50.3312 20.903 50.4047 21.0246 50.4548C21.1462 50.5048 21.2766 50.5304 21.4081 50.53H35.402C35.667 50.5297 35.9211 50.4243 36.1085 50.2369C36.2959 50.0495 36.4013 49.7954 36.4016 49.5304ZM4.41548 19.5435H1.41679C1.28526 19.543 1.15494 19.5686 1.03331 19.6186C0.911667 19.6687 0.801102 19.7422 0.707948 19.8351C0.614794 19.928 0.540884 20.0383 0.490453 20.1598C0.440022 20.2812 0.414063 20.4115 0.414062 20.543C0.414063 20.6745 0.440022 20.8048 0.490453 20.9263C0.540884 21.0477 0.614794 21.1581 0.707948 21.2509C0.801102 21.3438 0.911667 21.4174 1.03331 21.4674C1.15494 21.5175 1.28526 21.543 1.41679 21.5426H4.41548C4.68004 21.5417 4.93347 21.4361 5.12024 21.2487C5.30701 21.0613 5.41189 20.8076 5.41189 20.543C5.41189 20.2785 5.30701 20.0247 5.12024 19.8373C4.93347 19.65 4.68004 19.5443 4.41548 19.5435ZM10.735 36.7996L8.61486 38.9198C8.52206 39.0126 8.44844 39.1228 8.39821 39.244C8.34798 39.3653 8.32213 39.4952 8.32213 39.6265C8.32213 39.7578 8.34798 39.8877 8.39821 40.009C8.44844 40.1302 8.52206 40.2404 8.61486 40.3332C8.70767 40.426 8.81785 40.4997 8.93911 40.5499C9.06037 40.6001 9.19034 40.626 9.32159 40.626C9.45284 40.626 9.58281 40.6001 9.70407 40.5499C9.82533 40.4997 9.9355 40.426 10.0283 40.3332L12.1485 38.2131C12.3359 38.0256 12.4412 37.7714 12.4412 37.5063C12.4412 37.2413 12.3359 36.987 12.1485 36.7996C11.961 36.6122 11.7068 36.5069 11.4418 36.5069C11.1767 36.5069 10.9225 36.6122 10.735 36.7996ZM46.0751 36.7996C45.8877 36.6122 45.6335 36.5069 45.3684 36.5069C45.1033 36.5069 44.8491 36.6122 44.6617 36.7996C44.4742 36.987 44.3689 37.2413 44.3689 37.5063C44.3689 37.7714 44.4742 38.0256 44.6617 38.2131L46.7818 40.3332C46.9693 40.5207 47.2235 40.626 47.4886 40.626C47.7536 40.626 48.0078 40.5207 48.1953 40.3332C48.3827 40.1458 48.488 39.8916 48.488 39.6265C48.488 39.3614 48.3827 39.1072 48.1953 38.9198L46.0751 36.7996ZM55.3933 19.5435H52.3946C52.13 19.5443 51.8766 19.65 51.6898 19.8373C51.5031 20.0247 51.3982 20.2785 51.3982 20.543C51.3982 20.8076 51.5031 21.0613 51.6898 21.2487C51.8766 21.4361 52.13 21.5417 52.3946 21.5426H55.3933C55.5248 21.543 55.6551 21.5175 55.7768 21.4674C55.8984 21.4174 56.009 21.3438 56.1021 21.2509C56.1953 21.1581 56.2692 21.0477 56.3196 20.9263C56.37 20.8048 56.396 20.6745 56.396 20.543C56.396 20.4115 56.37 20.2812 56.3196 20.1598C56.2692 20.0383 56.1953 19.928 56.1021 19.8351C56.009 19.7422 55.8984 19.6687 55.7768 19.6186C55.6551 19.5686 55.5248 19.543 55.3933 19.5435ZM45.3683 4.67102C45.4996 4.67117 45.6296 4.64538 45.7509 4.59513C45.8722 4.54487 45.9823 4.47114 46.075 4.37818L48.1952 2.25801C48.3826 2.07058 48.4879 1.81636 48.4879 1.55129C48.4879 1.28621 48.3826 1.032 48.1952 0.844562C48.0078 0.657127 47.7536 0.551827 47.4885 0.551827C47.2234 0.551827 46.9692 0.657127 46.7818 0.844562L44.6616 2.96473C44.5219 3.10452 44.4267 3.28262 44.3881 3.47649C44.3496 3.67037 44.3694 3.87132 44.445 4.05395C44.5207 4.23658 44.6488 4.39267 44.8131 4.50251C44.9774 4.61235 45.1707 4.67099 45.3683 4.67102ZM10.735 4.37818C10.9225 4.56562 11.1767 4.67092 11.4418 4.67092C11.7068 4.67092 11.961 4.56562 12.1485 4.37818C12.3359 4.19075 12.4412 3.93653 12.4412 3.67146C12.4412 3.40638 12.3359 3.15217 12.1485 2.96473L10.0283 0.844562C9.84084 0.657127 9.58662 0.551827 9.32155 0.551827C9.05648 0.551827 8.80226 0.657127 8.61482 0.844562C8.42739 1.032 8.32209 1.28621 8.32209 1.55129C8.32209 1.81636 8.42739 2.07058 8.61482 2.25801L10.735 4.37818ZM43.3985 21.5426C43.3985 24.508 42.5192 27.4068 40.8717 29.8725C39.2242 32.3382 36.8825 34.2599 34.1428 35.3947C31.4031 36.5296 28.3885 36.8265 25.48 36.248C22.5716 35.6694 19.9 34.2414 17.8031 32.1446C15.7062 30.0477 14.2782 27.3761 13.6997 24.4677C13.1212 21.5592 13.4181 18.5446 14.5529 15.8049C15.6877 13.0652 17.6095 10.7235 20.0751 9.07599C22.5408 7.42848 25.4396 6.54912 28.405 6.54911C32.3802 6.55353 36.1913 8.13462 39.0021 10.9455C41.813 13.7563 43.3941 17.5674 43.3985 21.5426ZM41.3994 21.5426C41.3994 18.9725 40.6373 16.4602 39.2095 14.3233C37.7816 12.1864 35.7522 10.5209 33.3778 9.53738C31.0034 8.55387 28.3907 8.29654 25.87 8.79792C23.3494 9.29931 21.034 10.5369 19.2167 12.3542C17.3994 14.1715 16.1618 16.4868 15.6604 19.0075C15.159 21.5281 15.4164 24.1409 16.3999 26.5153C17.3834 28.8897 19.0489 30.9191 21.1858 32.347C23.3227 33.7748 25.835 34.5369 28.405 34.5369C31.8502 34.5331 35.1531 33.1628 37.5892 30.7268C40.0253 28.2907 41.3956 24.9877 41.3994 21.5426ZM30.7566 18.2823V27.722C30.7566 27.9871 30.6513 28.2414 30.4638 28.4288C30.2764 28.6163 30.0221 28.7216 29.757 28.7216C29.4919 28.7216 29.2377 28.6163 29.0502 28.4288C28.8628 28.2414 28.7575 27.9871 28.7575 27.722V22.6022H23.1075V27.722C23.1067 27.9866 23.001 28.24 22.8137 28.4268C22.6263 28.6136 22.3725 28.7184 22.108 28.7184C21.8434 28.7184 21.5897 28.6136 21.4023 28.4268C21.2149 28.24 21.1092 27.9866 21.1084 27.722V18.2823C21.1095 17.2753 21.5101 16.3099 22.2221 15.5978C22.9342 14.8858 23.8996 14.4853 24.9066 14.4841H26.9579C27.965 14.4852 28.9305 14.8857 29.6426 15.5977C30.3548 16.3098 30.7554 17.2752 30.7566 18.2823ZM28.7575 18.2823C28.7568 17.8053 28.567 17.348 28.2297 17.0107C27.8923 16.6735 27.435 16.4838 26.958 16.4833H24.9066C24.4296 16.4839 23.9724 16.6736 23.6352 17.0109C23.2979 17.3481 23.1082 17.8053 23.1076 18.2823V20.6031H28.7574L28.7575 18.2823ZM34.7021 14.4275C34.437 14.4275 34.1828 14.5328 33.9953 14.7203C33.8079 14.9077 33.7026 15.162 33.7026 15.4271V27.6654C33.7034 27.93 33.8091 28.1834 33.9965 28.3702C34.1838 28.5569 34.4376 28.6618 34.7021 28.6618C34.9667 28.6618 35.2205 28.5569 35.4078 28.3702C35.5952 28.1834 35.7009 27.93 35.7017 27.6654V15.4271C35.7017 15.162 35.5964 14.9077 35.4089 14.7203C35.2214 14.5328 34.9672 14.4275 34.7021 14.4275Z" fill="url(#paint0_linear_1449_12894)"/>
<defs>
<linearGradient id="paint0_linear_1449_12894" x1="0.417034" y1="28.5273" x2="56.393" y2="28.5273" gradientUnits="userSpaceOnUse">
<stop stop-color="#00C0FF"/>
<stop offset="1" stop-color="#5558FF"/>
</linearGradient>
</defs>
</svg>
