<svg width="61" height="61" viewBox="0 0 61 61" fill="none" xmlns="http://www.w3.org/2000/svg">
<path d="M29.4219 6.14062C29.4219 5.87541 29.5272 5.62105 29.7148 5.43352C29.9023 5.24598 30.1567 5.14062 30.4219 5.14062H45.4219C45.6871 5.14062 45.9414 5.24598 46.129 5.43352C46.3165 5.62105 46.4219 5.87541 46.4219 6.14062C46.4219 6.40584 46.3165 6.6602 46.129 6.84773C45.9414 7.03527 45.6871 7.14062 45.4219 7.14062H30.4219C30.1567 7.14062 29.9023 7.03527 29.7148 6.84773C29.5272 6.6602 29.4219 6.40584 29.4219 6.14062ZM7.42188 7.14062C7.61966 7.14062 7.813 7.08198 7.97745 6.97209C8.14189 6.86221 8.27007 6.70603 8.34575 6.52331C8.42144 6.34058 8.44125 6.13952 8.40266 5.94553C8.36408 5.75155 8.26883 5.57337 8.12898 5.43352C7.98913 5.29367 7.81095 5.19842 7.61697 5.15984C7.42298 5.12125 7.22192 5.14106 7.03919 5.21675C6.85647 5.29243 6.70029 5.42061 6.59041 5.58505C6.48052 5.7495 6.42188 5.94284 6.42188 6.14062C6.42188 6.40584 6.52723 6.6602 6.71477 6.84773C6.9023 7.03527 7.15666 7.14062 7.42188 7.14062ZM12.4219 7.14062C12.6197 7.14062 12.813 7.08198 12.9774 6.97209C13.1419 6.86221 13.2701 6.70603 13.3458 6.52331C13.4214 6.34058 13.4412 6.13952 13.4027 5.94553C13.3641 5.75155 13.2688 5.57337 13.129 5.43352C12.9891 5.29367 12.8109 5.19842 12.617 5.15984C12.423 5.12125 12.2219 5.14106 12.0392 5.21675C11.8565 5.29243 11.7003 5.42061 11.5904 5.58505C11.4805 5.7495 11.4219 5.94284 11.4219 6.14062C11.4219 6.40584 11.5272 6.6602 11.7148 6.84773C11.9023 7.03527 12.1567 7.14062 12.4219 7.14062ZM17.4219 7.14062C17.6197 7.14062 17.813 7.08198 17.9774 6.97209C18.1419 6.86221 18.2701 6.70603 18.3458 6.52331C18.4214 6.34058 18.4412 6.13952 18.4027 5.94553C18.3641 5.75155 18.2688 5.57337 18.129 5.43352C17.9891 5.29367 17.8109 5.19842 17.617 5.15984C17.423 5.12125 17.2219 5.14106 17.0392 5.21675C16.8565 5.29243 16.7003 5.42061 16.5904 5.58505C16.4805 5.7495 16.4219 5.94284 16.4219 6.14062C16.4219 6.40584 16.5272 6.6602 16.7148 6.84773C16.9023 7.03527 17.1567 7.14062 17.4219 7.14062ZM6.48538 24.7895L9.48538 16.7895C9.55679 16.5988 9.68473 16.4344 9.85208 16.3184C10.0194 16.2024 10.2182 16.1402 10.4219 16.1402C10.6255 16.1402 10.8243 16.2024 10.9917 16.3184C11.159 16.4344 11.287 16.5988 11.3584 16.7895L14.3584 24.7895C14.4515 25.0379 14.4421 25.3131 14.3323 25.5546C14.2226 25.796 14.0213 25.984 13.773 26.0771C13.5246 26.1702 13.2494 26.1609 13.0079 26.0511C12.7665 25.9413 12.5785 25.7401 12.4854 25.4917L11.9787 24.1406H8.86508L8.35837 25.4917C8.31227 25.6147 8.24239 25.7274 8.15273 25.8234C8.06307 25.9194 7.95538 25.9967 7.83582 26.0511C7.71625 26.1055 7.58715 26.1357 7.45588 26.1402C7.32462 26.1447 7.19376 26.1232 7.07078 26.0771C6.94779 26.031 6.83509 25.9611 6.73912 25.8715C6.64314 25.7818 6.56576 25.6741 6.5114 25.5546C6.45704 25.435 6.42677 25.3059 6.4223 25.1746C6.41784 25.0434 6.43927 24.9125 6.48538 24.7895ZM9.61497 22.1406H11.2288L10.4219 19.9887L9.61497 22.1406ZM17.4219 26.1406C17.1567 26.1406 16.9023 26.0353 16.7148 25.8477C16.5272 25.6602 16.4219 25.4058 16.4219 25.1406V17.1406C16.4219 16.8754 16.5272 16.6211 16.7148 16.4335C16.9023 16.246 17.1567 16.1406 17.4219 16.1406H19.9219C20.8501 16.1406 21.7404 16.5094 22.3967 17.1658C23.0531 17.8221 23.4219 18.7124 23.4219 19.6406C23.4219 20.5689 23.0531 21.4591 22.3967 22.1155C21.7404 22.7719 20.8501 23.1406 19.9219 23.1406H18.4219V25.1406C18.4219 25.4058 18.3165 25.6602 18.129 25.8477C17.9414 26.0353 17.6871 26.1406 17.4219 26.1406ZM18.4219 21.1406H19.9219C20.3197 21.1406 20.7012 20.9826 20.9825 20.7013C21.2638 20.42 21.4219 20.0385 21.4219 19.6406C21.4219 19.2428 21.2638 18.8613 20.9825 18.58C20.7012 18.2987 20.3197 18.1406 19.9219 18.1406H18.4219V21.1406ZM27.4219 25.1406V17.1406C27.4219 16.8754 27.3165 16.6211 27.129 16.4335C26.9414 16.246 26.6871 16.1406 26.4219 16.1406C26.1567 16.1406 25.9023 16.246 25.7148 16.4335C25.5272 16.6211 25.4219 16.8754 25.4219 17.1406V25.1406C25.4219 25.4058 25.5272 25.6602 25.7148 25.8477C25.9023 26.0353 26.1567 26.1406 26.4219 26.1406C26.6871 26.1406 26.9414 26.0353 27.129 25.8477C27.3165 25.6602 27.4219 25.4058 27.4219 25.1406ZM28.4209 49.1406C28.4209 49.4058 28.3155 49.6602 28.128 49.8477C27.9404 50.0353 27.6861 50.1406 27.4209 50.1406H5.42188C4.09627 50.1391 2.82541 49.6118 1.88807 48.6744C0.950722 47.7371 0.423436 46.4662 0.421875 45.1406V5.14062C0.423436 3.81502 0.950722 2.54416 1.88807 1.60682C2.82541 0.669472 4.09627 0.142186 5.42188 0.140625H47.4219C48.7475 0.142186 50.0183 0.669472 50.9557 1.60682C51.893 2.54416 52.4203 3.81502 52.4219 5.14062V29.1406C52.4219 29.4058 52.3165 29.6602 52.129 29.8477C51.9414 30.0353 51.6871 30.1406 51.4219 30.1406C51.1567 30.1406 50.9023 30.0353 50.7148 29.8477C50.5272 29.6602 50.4219 29.4058 50.4219 29.1406V12.1406H2.42188V45.1406C2.42275 45.936 2.7391 46.6986 3.30152 47.261C3.86394 47.8234 4.62649 48.1398 5.42188 48.1406H27.4209C27.6861 48.1406 27.9404 48.246 28.128 48.4335C28.3155 48.6211 28.4209 48.8754 28.4209 49.1406ZM2.42188 5.14062V10.1406H50.4219V5.14062C50.421 4.34524 50.1047 3.58269 49.5422 3.02027C48.9798 2.45785 48.2173 2.1415 47.4219 2.14062H5.42188C4.62649 2.1415 3.86394 2.45785 3.30152 3.02027C2.7391 3.58269 2.42275 4.34524 2.42188 5.14062ZM60.4219 42.8174V45.4634C60.423 45.8635 60.3036 46.2547 60.0793 46.5859C59.8549 46.9172 59.536 47.1732 59.1641 47.3206L56.7373 48.2913C56.5514 48.8486 56.3279 49.3927 56.0684 49.9197L57.0948 52.3172C57.2537 52.6842 57.2982 53.0905 57.2226 53.4832C57.147 53.8759 56.9547 54.2366 56.6709 54.5183L54.7998 56.3896C54.5177 56.6728 54.157 56.8647 53.7645 56.9403C53.3719 57.0159 52.9658 56.9717 52.5987 56.8135L50.2012 55.7866C49.674 56.0465 49.1297 56.2703 48.5723 56.4566L47.6019 58.8838C47.4547 59.2557 47.1987 59.5746 46.8675 59.7988C46.5362 60.023 46.1451 60.1422 45.7451 60.1406H43.0987C42.6986 60.1421 42.3073 60.0229 41.976 59.7985C41.6447 59.5741 41.3889 59.255 41.2419 58.8828L40.2719 56.4565C39.7144 56.2702 39.1702 56.0464 38.643 55.7865L36.2455 56.8134C35.8784 56.9717 35.4722 57.016 35.0797 56.9404C34.6871 56.8648 34.3264 56.6729 34.0444 56.3895L32.1729 54.5185C31.889 54.2366 31.6967 53.8757 31.6211 53.4829C31.5455 53.0901 31.59 52.6835 31.749 52.3164L32.7754 49.9199C32.5159 49.3929 32.2924 48.8488 32.1065 48.2915L29.6797 47.3206C29.3076 47.1733 28.9886 46.9174 28.7643 46.5861C28.5399 46.2548 28.4206 45.8635 28.4219 45.4634V42.8178C28.4207 42.4177 28.5401 42.0266 28.7645 41.6953C28.9888 41.3641 29.3077 41.108 29.6797 40.9606L32.1065 39.9899C32.2926 39.4325 32.5164 38.8885 32.7765 38.3615L31.7491 35.9645C31.5903 35.5975 31.5457 35.1912 31.6211 34.7985C31.6965 34.4058 31.8885 34.045 32.172 33.7629L34.0441 31.8918C34.3258 31.608 34.6865 31.4157 35.0792 31.3401C35.4719 31.2644 35.8782 31.309 36.2452 31.4679L38.6427 32.4948C39.1699 32.235 39.7141 32.0111 40.2716 31.8248L41.2423 29.3975C41.3895 29.0257 41.6453 28.7068 41.9765 28.4826C42.3077 28.2584 42.6987 28.1392 43.0987 28.1406H45.7451C46.1452 28.1391 46.5365 28.2583 46.8677 28.4827C47.199 28.7072 47.4549 29.0263 47.6019 29.3984L48.5726 31.8247C49.13 32.011 49.6743 32.2349 50.2015 32.4947L52.599 31.4678C52.966 31.309 53.3723 31.2645 53.7649 31.3402C54.1576 31.4158 54.5183 31.608 54.8001 31.8917L56.6712 33.7628C56.9551 34.0447 57.1474 34.4056 57.223 34.7985C57.2986 35.1913 57.254 35.5978 57.0951 35.9649L56.0677 38.3614C56.3277 38.8884 56.5516 39.4324 56.7377 39.9898L59.1645 40.961C59.5363 41.1083 59.8552 41.3641 60.0795 41.6953C60.3038 42.0264 60.4231 42.4175 60.4219 42.8174ZM58.4219 42.8174L55.5547 41.6706C55.4141 41.6145 55.2882 41.5272 55.1864 41.4153C55.0845 41.3034 55.0094 41.1698 54.9668 41.0246C54.7497 40.2812 54.4541 39.5629 54.085 38.882C54.0122 38.7491 53.9706 38.6013 53.9633 38.4499C53.956 38.2985 53.9833 38.1474 54.043 38.008L55.2569 35.1759L53.3858 33.3056L50.5537 34.519C50.4147 34.5786 50.264 34.6058 50.113 34.5987C49.9619 34.5916 49.8145 34.5503 49.6817 34.478C48.9999 34.109 48.281 33.8131 47.5371 33.5952C47.3921 33.5525 47.2587 33.4774 47.1469 33.3757C47.0351 33.2739 46.9478 33.1482 46.8916 33.0078L45.7442 30.1406H43.0987L41.9519 33.0078C41.8957 33.1482 41.8084 33.2739 41.6966 33.3757C41.5848 33.4774 41.4514 33.5525 41.3064 33.5952C40.5624 33.8131 39.8435 34.109 39.1618 34.478C39.029 34.5503 38.8815 34.5916 38.7305 34.5987C38.5794 34.6058 38.4288 34.5786 38.2898 34.519L35.458 33.3056L33.5869 35.1762L34.8008 38.0083C34.8605 38.1477 34.8877 38.2987 34.8804 38.4502C34.8732 38.6016 34.8316 38.7494 34.7588 38.8823C34.3897 39.5632 34.0941 40.2815 33.877 41.0249C33.8343 41.1701 33.7592 41.3037 33.6574 41.4156C33.5555 41.5275 33.4296 41.6148 33.2891 41.6709L30.4219 42.8174V45.4634L33.2891 46.6106C33.4296 46.6667 33.5555 46.754 33.6574 46.8659C33.7592 46.9779 33.8343 47.1114 33.877 47.2566C34.094 48.0004 34.3896 48.719 34.7588 49.4002C34.8312 49.5331 34.8725 49.6806 34.8796 49.8318C34.8867 49.9829 34.8594 50.1337 34.7998 50.2727L33.5869 53.1045L35.458 54.9756L38.2901 53.7622C38.429 53.7025 38.5797 53.6751 38.7308 53.6822C38.8819 53.6893 39.0294 53.7307 39.1621 53.8032C39.8438 54.1722 40.5627 54.4681 41.3067 54.686C41.4517 54.7288 41.5851 54.8038 41.6969 54.9056C41.8087 55.0073 41.896 55.1331 41.9522 55.2734L43.0996 58.1406H45.7451L46.8919 55.2734C46.9481 55.1331 47.0354 55.0073 47.1472 54.9056C47.259 54.8038 47.3924 54.7288 47.5374 54.686C48.2813 54.4681 49.0002 54.1722 49.682 53.8032C49.8147 53.7307 49.9622 53.6893 50.1132 53.6822C50.2643 53.6751 50.415 53.7025 50.554 53.7622L53.3861 54.9756L55.2572 53.1045L54.0443 50.2724C53.9847 50.1334 53.9574 49.9826 53.9645 49.8315C53.9716 49.6803 54.0129 49.5328 54.0853 49.3999C54.4545 48.7187 54.7501 48.0001 54.9671 47.2563C55.0097 47.1111 55.0848 46.9776 55.1867 46.8656C55.2885 46.7537 55.4144 46.6664 55.555 46.6103L58.4219 45.4634V42.8174ZM52.4219 44.1406C52.4219 45.7229 51.9527 47.2696 51.0736 48.5852C50.1946 49.9008 48.9451 50.9262 47.4833 51.5317C46.0215 52.1372 44.413 52.2956 42.8612 51.9869C41.3093 51.6782 39.8838 50.9163 38.765 49.7975C37.6462 48.6787 36.8843 47.2532 36.5756 45.7013C36.2669 44.1495 36.4253 42.541 37.0308 41.0792C37.6363 39.6174 38.6617 38.3679 39.9773 37.4889C41.2929 36.6098 42.8396 36.1406 44.4219 36.1406C46.5429 36.1431 48.5763 36.9867 50.076 38.4865C51.5758 39.9862 52.4194 42.0196 52.4219 44.1406ZM50.4219 44.1406C50.4219 42.9539 50.07 41.7939 49.4107 40.8072C48.7514 39.8205 47.8143 39.0515 46.718 38.5973C45.6216 38.1432 44.4152 38.0244 43.2513 38.2559C42.0874 38.4874 41.0183 39.0589 40.1792 39.898C39.3401 40.7371 38.7687 41.8062 38.5372 42.9701C38.3057 44.134 38.4245 45.3404 38.8786 46.4367C39.3327 47.5331 40.1018 48.4702 41.0885 49.1294C42.0751 49.7887 43.2352 50.1406 44.4219 50.1406C46.0126 50.1389 47.5377 49.5062 48.6626 48.3813C49.7874 47.2565 50.4201 45.7314 50.4219 44.1406ZM7.42188 32.1406H19.4219C19.6871 32.1406 19.9414 32.0353 20.129 31.8477C20.3165 31.6602 20.4219 31.4058 20.4219 31.1406C20.4219 30.8754 20.3165 30.6211 20.129 30.4335C19.9414 30.246 19.6871 30.1406 19.4219 30.1406H7.42188C7.15666 30.1406 6.9023 30.246 6.71477 30.4335C6.52723 30.6211 6.42188 30.8754 6.42188 31.1406C6.42188 31.4058 6.52723 31.6602 6.71477 31.8477C6.9023 32.0353 7.15666 32.1406 7.42188 32.1406ZM27.4219 37.1406C27.4219 36.8754 27.3165 36.6211 27.129 36.4335C26.9414 36.246 26.6871 36.1406 26.4219 36.1406H7.42188C7.15666 36.1406 6.9023 36.246 6.71477 36.4335C6.52723 36.6211 6.42188 36.8754 6.42188 37.1406C6.42188 37.4058 6.52723 37.6602 6.71477 37.8477C6.9023 38.0353 7.15666 38.1406 7.42188 38.1406H26.4219C26.6871 38.1406 26.9414 38.0353 27.129 37.8477C27.3165 37.6602 27.4219 37.4058 27.4219 37.1406ZM7.42188 42.1406C7.15666 42.1406 6.9023 42.246 6.71477 42.4335C6.52723 42.6211 6.42188 42.8754 6.42188 43.1406C6.42188 43.4058 6.52723 43.6602 6.71477 43.8477C6.9023 44.0353 7.15666 44.1406 7.42188 44.1406H19.4219C19.6871 44.1406 19.9414 44.0353 20.129 43.8477C20.3165 43.6602 20.4219 43.4058 20.4219 43.1406C20.4219 42.8754 20.3165 42.6211 20.129 42.4335C19.9414 42.246 19.6871 42.1406 19.4219 42.1406H7.42188ZM30.4219 31.1406C30.4219 30.8754 30.3165 30.6211 30.129 30.4335C29.9414 30.246 29.6871 30.1406 29.4219 30.1406H23.4219C23.1567 30.1406 22.9023 30.246 22.7148 30.4335C22.5272 30.6211 22.4219 30.8754 22.4219 31.1406C22.4219 31.4058 22.5272 31.6602 22.7148 31.8477C22.9023 32.0353 23.1567 32.1406 23.4219 32.1406H29.4219C29.6871 32.1406 29.9414 32.0353 30.129 31.8477C30.3165 31.6602 30.4219 31.4058 30.4219 31.1406Z" fill="url(#paint0_linear_1449_13758)"/>
<defs>
<linearGradient id="paint0_linear_1449_13758" x1="0.421875" y1="30.1273" x2="60.4219" y2="30.1273" gradientUnits="userSpaceOnUse">
<stop stop-color="#00C0FF"/>
<stop offset="1" stop-color="#5558FF"/>
</linearGradient>
</defs>
</svg>
