<svg width="64" height="57" viewBox="0 0 64 57" fill="none" xmlns="http://www.w3.org/2000/svg">
<path d="M36.3565 29.218H34.2505V31.324H36.3565V29.218Z" fill="url(#paint0_linear_1449_13760)"/>
<path d="M48.9925 29.218H38.4625V31.324H48.9925V29.218Z" fill="url(#paint1_linear_1449_13760)"/>
<path d="M35.3035 39.7479H41.6215C41.9008 39.7479 42.1686 39.637 42.3661 39.4395C42.5635 39.242 42.6745 38.9742 42.6745 38.6949V34.4829C42.6745 34.2037 42.5635 33.9358 42.3661 33.7384C42.1686 33.5409 41.9008 33.4299 41.6215 33.4299H35.3035C35.0242 33.4299 34.7564 33.5409 34.5589 33.7384C34.3615 33.9358 34.2505 34.2037 34.2505 34.4829V38.6949C34.2505 38.9742 34.3615 39.242 34.5589 39.4395C34.7564 39.637 35.0242 39.7479 35.3035 39.7479ZM36.3565 35.5359H40.5685V37.6419H36.3565V35.5359Z" fill="url(#paint2_linear_1449_13760)"/>
<path d="M35.3035 48.1719H41.6215C41.9008 48.1719 42.1686 48.0609 42.3661 47.8635C42.5635 47.666 42.6745 47.3982 42.6745 47.1189V42.9069C42.6745 42.6276 42.5635 42.3598 42.3661 42.1623C42.1686 41.9648 41.9008 41.8539 41.6215 41.8539H35.3035C35.0242 41.8539 34.7564 41.9648 34.5589 42.1623C34.3615 42.3598 34.2505 42.6276 34.2505 42.9069V47.1189C34.2505 47.3982 34.3615 47.666 34.5589 47.8635C34.7564 48.0609 35.0242 48.1719 35.3035 48.1719ZM36.3565 43.9599H40.5685V46.0659H36.3565V43.9599Z" fill="url(#paint3_linear_1449_13760)"/>
<path d="M55.3104 37.6419H53.2044V39.7479H55.3104V37.6419Z" fill="url(#paint4_linear_1449_13760)"/>
<path d="M51.0984 37.6419H48.9924V39.7479H51.0984V37.6419Z" fill="url(#paint5_linear_1449_13760)"/>
<path d="M50.0454 48.1719H54.2574C54.5367 48.1719 54.8045 48.0609 55.002 47.8635C55.1995 47.666 55.3104 47.3982 55.3104 47.1189V42.9069C55.3104 42.6276 55.1995 42.3598 55.002 42.1623C54.8045 41.9648 54.5367 41.8539 54.2574 41.8539H50.0454C49.7662 41.8539 49.4983 41.9648 49.3009 42.1623C49.1034 42.3598 48.9924 42.6276 48.9924 42.9069V47.1189C48.9924 47.3982 49.1034 47.666 49.3009 47.8635C49.4983 48.0609 49.7662 48.1719 50.0454 48.1719ZM51.0984 43.9599H53.2044V46.0659H51.0984V43.9599Z" fill="url(#paint6_linear_1449_13760)"/>
<path d="M27.9326 36.5889H25.8266V38.6949H27.9326V36.5889Z" fill="url(#paint7_linear_1449_13760)"/>
<path d="M8.97865 42.9069H19.1L16.6434 50.2779H10.0316C9.19383 50.2779 8.39033 50.6107 7.7979 51.2031C7.20548 51.7955 6.87266 52.599 6.87266 53.4368C6.87266 54.2747 7.20548 55.0782 7.7979 55.6706C8.39033 56.263 9.19383 56.5958 10.0316 56.5958H56.3634C57.2012 56.5958 58.0047 56.263 58.5972 55.6706C59.1896 55.0782 59.5224 54.2747 59.5224 53.4368V36.5889C59.5224 35.7511 59.1896 34.9476 58.5972 34.3552C58.0047 33.7628 57.2012 33.4299 56.3634 33.4299H53.2044V28.165C53.2044 27.3272 52.8716 26.5237 52.2792 25.9312C51.6868 25.3388 50.8833 25.006 50.0454 25.006H48.9925V9.21107C48.9925 8.09398 48.5487 7.02265 47.7588 6.23275C46.9689 5.44285 45.8976 4.99909 44.7805 4.99909H8.97865C7.86156 4.99909 6.79023 5.44285 6.00033 6.23275C5.21043 7.02265 4.76667 8.09398 4.76667 9.21107V38.6949C4.76667 39.812 5.21043 40.8833 6.00033 41.6732C6.79023 42.4631 7.86156 42.9069 8.97865 42.9069ZM8.97865 53.4368C8.97865 53.1576 9.08959 52.8897 9.28706 52.6923C9.48454 52.4948 9.75237 52.3839 10.0316 52.3839H27.9326V50.2779H18.8642L21.3208 42.9069H30.0385V53.4368C30.042 53.7964 30.1076 54.1526 30.2323 54.4898H10.0316C9.75237 54.4898 9.48454 54.3789 9.28706 54.1814C9.08959 53.984 8.97865 53.7161 8.97865 53.4368ZM56.3634 54.4898H47.9395C47.6602 54.4898 47.3923 54.3789 47.1949 54.1814C46.9974 53.984 46.8865 53.7161 46.8865 53.4368V52.3839H57.4164V53.4368C57.4164 53.7161 57.3055 53.984 57.108 54.1814C56.9105 54.3789 56.6427 54.4898 56.3634 54.4898ZM57.4164 36.5889V50.2779H46.8865V36.5889C46.8865 36.3097 46.9974 36.0418 47.1949 35.8443C47.3923 35.6469 47.6602 35.5359 47.9395 35.5359H56.3634C56.6427 35.5359 56.9105 35.6469 57.108 35.8443C57.3055 36.0418 57.4164 36.3097 57.4164 36.5889ZM51.0984 28.165V33.4299H47.9395C47.1016 33.4299 46.2981 33.7628 45.7057 34.3552C45.1133 34.9476 44.7805 35.7511 44.7805 36.5889V53.4368C44.784 53.7964 44.8495 54.1526 44.9742 54.4898H33.1975C32.9183 54.4898 32.6504 54.3789 32.4529 54.1814C32.2555 53.984 32.1445 53.7161 32.1445 53.4368V52.3839H42.6745V50.2779H32.1445V28.165C32.1445 27.8857 32.2555 27.6179 32.4529 27.4204C32.6504 27.2229 32.9183 27.112 33.1975 27.112H50.0454C50.3247 27.112 50.5926 27.2229 50.79 27.4204C50.9875 27.6179 51.0984 27.8857 51.0984 28.165ZM8.97865 7.10508H44.7805C45.339 7.10508 45.8747 7.32696 46.2696 7.72191C46.6646 8.11686 46.8865 8.65252 46.8865 9.21107V25.006H33.1975C32.3597 25.006 31.5562 25.3388 30.9638 25.9312C30.3714 26.5237 30.0385 27.3272 30.0385 28.165V40.8009H8.97865C8.4201 40.8009 7.88444 40.579 7.48949 40.1841C7.09454 39.7891 6.87266 39.2535 6.87266 38.6949V34.4829H27.9326V32.377H6.87266V9.21107C6.87266 8.65252 7.09454 8.11686 7.48949 7.72191C7.88444 7.32696 8.4201 7.10508 8.97865 7.10508Z" fill="url(#paint8_linear_1449_13760)"/>
<path d="M11.0846 9.21107H8.97865V11.3171H11.0846V9.21107Z" fill="url(#paint9_linear_1449_13760)"/>
<path d="M44.7805 9.21107H13.1906V11.3171H44.7805V9.21107Z" fill="url(#paint10_linear_1449_13760)"/>
<path d="M10.0316 20.794H18.4556C18.7349 20.794 19.0027 20.6831 19.2002 20.4856C19.3977 20.2881 19.5086 20.0203 19.5086 19.741V14.476C19.5086 14.1968 19.3977 13.9289 19.2002 13.7315C19.0027 13.534 18.7349 13.423 18.4556 13.423H10.0316C9.75237 13.423 9.48454 13.534 9.28706 13.7315C9.08959 13.9289 8.97865 14.1968 8.97865 14.476V19.741C8.97865 20.0203 9.08959 20.2881 9.28706 20.4856C9.48454 20.6831 9.75237 20.794 10.0316 20.794ZM11.0846 15.529H17.4026V18.688H11.0846V15.529Z" fill="url(#paint11_linear_1449_13760)"/>
<path d="M10.0316 30.271H18.4556C18.7349 30.271 19.0027 30.16 19.2002 29.9625C19.3977 29.7651 19.5086 29.4972 19.5086 29.218V23.953C19.5086 23.6737 19.3977 23.4059 19.2002 23.2084C19.0027 23.0109 18.7349 22.9 18.4556 22.9H10.0316C9.75237 22.9 9.48454 23.0109 9.28706 23.2084C9.08959 23.4059 8.97865 23.6737 8.97865 23.953V29.218C8.97865 29.4972 9.08959 29.7651 9.28706 29.9625C9.48454 30.16 9.75237 30.271 10.0316 30.271ZM11.0846 25.006H17.4026V28.165H11.0846V25.006Z" fill="url(#paint12_linear_1449_13760)"/>
<path d="M31.0915 13.423H22.6676C22.3883 13.423 22.1205 13.534 21.923 13.7315C21.7255 13.9289 21.6146 14.1968 21.6146 14.476V19.741C21.6146 20.0203 21.7255 20.2881 21.923 20.4856C22.1205 20.6831 22.3883 20.794 22.6676 20.794H31.0915C31.3708 20.794 31.6386 20.6831 31.8361 20.4856C32.0336 20.2881 32.1445 20.0203 32.1445 19.741V14.476C32.1445 14.1968 32.0336 13.9289 31.8361 13.7315C31.6386 13.534 31.3708 13.423 31.0915 13.423ZM30.0385 18.688H23.7206V15.529H30.0385V18.688Z" fill="url(#paint13_linear_1449_13760)"/>
<path d="M43.7275 13.423H35.3035C35.0242 13.423 34.7564 13.534 34.5589 13.7315C34.3615 13.9289 34.2505 14.1968 34.2505 14.476V19.741C34.2505 20.0203 34.3615 20.2881 34.5589 20.4856C34.7564 20.6831 35.0242 20.794 35.3035 20.794H43.7275C44.0067 20.794 44.2746 20.6831 44.4721 20.4856C44.6695 20.2881 44.7805 20.0203 44.7805 19.741V14.476C44.7805 14.1968 44.6695 13.9289 44.4721 13.7315C44.2746 13.534 44.0067 13.423 43.7275 13.423ZM42.6745 18.688H36.3565V15.529H42.6745V18.688Z" fill="url(#paint14_linear_1449_13760)"/>
<path d="M21.6146 23.953V29.218C21.6146 29.4972 21.7255 29.7651 21.923 29.9625C22.1205 30.16 22.3883 30.271 22.6676 30.271H27.9326V28.165H23.7206V25.006H30.0385V22.9H22.6676C22.3883 22.9 22.1205 23.0109 21.923 23.2084C21.7255 23.4059 21.6146 23.6737 21.6146 23.953Z" fill="url(#paint15_linear_1449_13760)"/>
<path d="M63.7344 37.6419H61.6284V52.3839H63.7344V37.6419Z" fill="url(#paint16_linear_1449_13760)"/>
<path d="M51.0984 8.15807V15.529H53.2044V8.15807C53.2022 6.20386 52.4249 4.33032 51.0431 2.94848C49.6612 1.56664 47.7877 0.789339 45.8335 0.787109H27.9326V2.8931H45.8335C47.2293 2.89477 48.5675 3.45001 49.5545 4.43702C50.5415 5.42403 51.0968 6.76223 51.0984 8.15807Z" fill="url(#paint17_linear_1449_13760)"/>
<path d="M25.8266 0.787109H23.7206V2.8931H25.8266V0.787109Z" fill="url(#paint18_linear_1449_13760)"/>
<path d="M2.66068 13.423H0.554688V36.5889H2.66068V13.423Z" fill="url(#paint19_linear_1449_13760)"/>
<path d="M36.3565 29.218H34.2505V31.324H36.3565V29.218Z" stroke="white" stroke-width="0.5"/>
<path d="M48.9925 29.218H38.4625V31.324H48.9925V29.218Z" stroke="white" stroke-width="0.5"/>
<path d="M35.3035 39.7479H41.6215C41.9008 39.7479 42.1686 39.637 42.3661 39.4395C42.5635 39.242 42.6745 38.9742 42.6745 38.6949V34.4829C42.6745 34.2037 42.5635 33.9358 42.3661 33.7384C42.1686 33.5409 41.9008 33.4299 41.6215 33.4299H35.3035C35.0242 33.4299 34.7564 33.5409 34.5589 33.7384C34.3615 33.9358 34.2505 34.2037 34.2505 34.4829V38.6949C34.2505 38.9742 34.3615 39.242 34.5589 39.4395C34.7564 39.637 35.0242 39.7479 35.3035 39.7479ZM36.3565 35.5359H40.5685V37.6419H36.3565V35.5359Z" stroke="white" stroke-width="0.5"/>
<path d="M35.3035 48.1719H41.6215C41.9008 48.1719 42.1686 48.0609 42.3661 47.8635C42.5635 47.666 42.6745 47.3982 42.6745 47.1189V42.9069C42.6745 42.6276 42.5635 42.3598 42.3661 42.1623C42.1686 41.9648 41.9008 41.8539 41.6215 41.8539H35.3035C35.0242 41.8539 34.7564 41.9648 34.5589 42.1623C34.3615 42.3598 34.2505 42.6276 34.2505 42.9069V47.1189C34.2505 47.3982 34.3615 47.666 34.5589 47.8635C34.7564 48.0609 35.0242 48.1719 35.3035 48.1719ZM36.3565 43.9599H40.5685V46.0659H36.3565V43.9599Z" stroke="white" stroke-width="0.5"/>
<path d="M55.3104 37.6419H53.2044V39.7479H55.3104V37.6419Z" stroke="white" stroke-width="0.5"/>
<path d="M51.0984 37.6419H48.9924V39.7479H51.0984V37.6419Z" stroke="white" stroke-width="0.5"/>
<path d="M50.0454 48.1719H54.2574C54.5367 48.1719 54.8045 48.0609 55.002 47.8635C55.1995 47.666 55.3104 47.3982 55.3104 47.1189V42.9069C55.3104 42.6276 55.1995 42.3598 55.002 42.1623C54.8045 41.9648 54.5367 41.8539 54.2574 41.8539H50.0454C49.7662 41.8539 49.4983 41.9648 49.3009 42.1623C49.1034 42.3598 48.9924 42.6276 48.9924 42.9069V47.1189C48.9924 47.3982 49.1034 47.666 49.3009 47.8635C49.4983 48.0609 49.7662 48.1719 50.0454 48.1719ZM51.0984 43.9599H53.2044V46.0659H51.0984V43.9599Z" stroke="white" stroke-width="0.5"/>
<path d="M27.9326 36.5889H25.8266V38.6949H27.9326V36.5889Z" stroke="white" stroke-width="0.5"/>
<path d="M8.97865 42.9069H19.1L16.6434 50.2779H10.0316C9.19383 50.2779 8.39033 50.6107 7.7979 51.2031C7.20548 51.7955 6.87266 52.599 6.87266 53.4368C6.87266 54.2747 7.20548 55.0782 7.7979 55.6706C8.39033 56.263 9.19383 56.5958 10.0316 56.5958H56.3634C57.2012 56.5958 58.0047 56.263 58.5972 55.6706C59.1896 55.0782 59.5224 54.2747 59.5224 53.4368V36.5889C59.5224 35.7511 59.1896 34.9476 58.5972 34.3552C58.0047 33.7628 57.2012 33.4299 56.3634 33.4299H53.2044V28.165C53.2044 27.3272 52.8716 26.5237 52.2792 25.9312C51.6868 25.3388 50.8833 25.006 50.0454 25.006H48.9925V9.21107C48.9925 8.09398 48.5487 7.02265 47.7588 6.23275C46.9689 5.44285 45.8976 4.99909 44.7805 4.99909H8.97865C7.86156 4.99909 6.79023 5.44285 6.00033 6.23275C5.21043 7.02265 4.76667 8.09398 4.76667 9.21107V38.6949C4.76667 39.812 5.21043 40.8833 6.00033 41.6732C6.79023 42.4631 7.86156 42.9069 8.97865 42.9069ZM8.97865 53.4368C8.97865 53.1576 9.08959 52.8897 9.28706 52.6923C9.48454 52.4948 9.75237 52.3839 10.0316 52.3839H27.9326V50.2779H18.8642L21.3208 42.9069H30.0385V53.4368C30.042 53.7964 30.1076 54.1526 30.2323 54.4898H10.0316C9.75237 54.4898 9.48454 54.3789 9.28706 54.1814C9.08959 53.984 8.97865 53.7161 8.97865 53.4368ZM56.3634 54.4898H47.9395C47.6602 54.4898 47.3923 54.3789 47.1949 54.1814C46.9974 53.984 46.8865 53.7161 46.8865 53.4368V52.3839H57.4164V53.4368C57.4164 53.7161 57.3055 53.984 57.108 54.1814C56.9105 54.3789 56.6427 54.4898 56.3634 54.4898ZM57.4164 36.5889V50.2779H46.8865V36.5889C46.8865 36.3097 46.9974 36.0418 47.1949 35.8443C47.3923 35.6469 47.6602 35.5359 47.9395 35.5359H56.3634C56.6427 35.5359 56.9105 35.6469 57.108 35.8443C57.3055 36.0418 57.4164 36.3097 57.4164 36.5889ZM51.0984 28.165V33.4299H47.9395C47.1016 33.4299 46.2981 33.7628 45.7057 34.3552C45.1133 34.9476 44.7805 35.7511 44.7805 36.5889V53.4368C44.784 53.7964 44.8495 54.1526 44.9742 54.4898H33.1975C32.9183 54.4898 32.6504 54.3789 32.4529 54.1814C32.2555 53.984 32.1445 53.7161 32.1445 53.4368V52.3839H42.6745V50.2779H32.1445V28.165C32.1445 27.8857 32.2555 27.6179 32.4529 27.4204C32.6504 27.2229 32.9183 27.112 33.1975 27.112H50.0454C50.3247 27.112 50.5926 27.2229 50.79 27.4204C50.9875 27.6179 51.0984 27.8857 51.0984 28.165ZM8.97865 7.10508H44.7805C45.339 7.10508 45.8747 7.32696 46.2696 7.72191C46.6646 8.11686 46.8865 8.65252 46.8865 9.21107V25.006H33.1975C32.3597 25.006 31.5562 25.3388 30.9638 25.9312C30.3714 26.5237 30.0385 27.3272 30.0385 28.165V40.8009H8.97865C8.4201 40.8009 7.88444 40.579 7.48949 40.1841C7.09454 39.7891 6.87266 39.2535 6.87266 38.6949V34.4829H27.9326V32.377H6.87266V9.21107C6.87266 8.65252 7.09454 8.11686 7.48949 7.72191C7.88444 7.32696 8.4201 7.10508 8.97865 7.10508Z" stroke="white" stroke-width="0.5"/>
<path d="M11.0846 9.21107H8.97865V11.3171H11.0846V9.21107Z" stroke="white" stroke-width="0.5"/>
<path d="M44.7805 9.21107H13.1906V11.3171H44.7805V9.21107Z" stroke="white" stroke-width="0.5"/>
<path d="M10.0316 20.794H18.4556C18.7349 20.794 19.0027 20.6831 19.2002 20.4856C19.3977 20.2881 19.5086 20.0203 19.5086 19.741V14.476C19.5086 14.1968 19.3977 13.9289 19.2002 13.7315C19.0027 13.534 18.7349 13.423 18.4556 13.423H10.0316C9.75237 13.423 9.48454 13.534 9.28706 13.7315C9.08959 13.9289 8.97865 14.1968 8.97865 14.476V19.741C8.97865 20.0203 9.08959 20.2881 9.28706 20.4856C9.48454 20.6831 9.75237 20.794 10.0316 20.794ZM11.0846 15.529H17.4026V18.688H11.0846V15.529Z" stroke="white" stroke-width="0.5"/>
<path d="M10.0316 30.271H18.4556C18.7349 30.271 19.0027 30.16 19.2002 29.9625C19.3977 29.7651 19.5086 29.4972 19.5086 29.218V23.953C19.5086 23.6737 19.3977 23.4059 19.2002 23.2084C19.0027 23.0109 18.7349 22.9 18.4556 22.9H10.0316C9.75237 22.9 9.48454 23.0109 9.28706 23.2084C9.08959 23.4059 8.97865 23.6737 8.97865 23.953V29.218C8.97865 29.4972 9.08959 29.7651 9.28706 29.9625C9.48454 30.16 9.75237 30.271 10.0316 30.271ZM11.0846 25.006H17.4026V28.165H11.0846V25.006Z" stroke="white" stroke-width="0.5"/>
<path d="M31.0915 13.423H22.6676C22.3883 13.423 22.1205 13.534 21.923 13.7315C21.7255 13.9289 21.6146 14.1968 21.6146 14.476V19.741C21.6146 20.0203 21.7255 20.2881 21.923 20.4856C22.1205 20.6831 22.3883 20.794 22.6676 20.794H31.0915C31.3708 20.794 31.6386 20.6831 31.8361 20.4856C32.0336 20.2881 32.1445 20.0203 32.1445 19.741V14.476C32.1445 14.1968 32.0336 13.9289 31.8361 13.7315C31.6386 13.534 31.3708 13.423 31.0915 13.423ZM30.0385 18.688H23.7206V15.529H30.0385V18.688Z" stroke="white" stroke-width="0.5"/>
<path d="M43.7275 13.423H35.3035C35.0242 13.423 34.7564 13.534 34.5589 13.7315C34.3615 13.9289 34.2505 14.1968 34.2505 14.476V19.741C34.2505 20.0203 34.3615 20.2881 34.5589 20.4856C34.7564 20.6831 35.0242 20.794 35.3035 20.794H43.7275C44.0067 20.794 44.2746 20.6831 44.4721 20.4856C44.6695 20.2881 44.7805 20.0203 44.7805 19.741V14.476C44.7805 14.1968 44.6695 13.9289 44.4721 13.7315C44.2746 13.534 44.0067 13.423 43.7275 13.423ZM42.6745 18.688H36.3565V15.529H42.6745V18.688Z" stroke="white" stroke-width="0.5"/>
<path d="M21.6146 23.953V29.218C21.6146 29.4972 21.7255 29.7651 21.923 29.9625C22.1205 30.16 22.3883 30.271 22.6676 30.271H27.9326V28.165H23.7206V25.006H30.0385V22.9H22.6676C22.3883 22.9 22.1205 23.0109 21.923 23.2084C21.7255 23.4059 21.6146 23.6737 21.6146 23.953Z" stroke="white" stroke-width="0.5"/>
<path d="M63.7344 37.6419H61.6284V52.3839H63.7344V37.6419Z" stroke="white" stroke-width="0.5"/>
<path d="M51.0984 8.15807V15.529H53.2044V8.15807C53.2022 6.20386 52.4249 4.33032 51.0431 2.94848C49.6612 1.56664 47.7877 0.789339 45.8335 0.787109H27.9326V2.8931H45.8335C47.2293 2.89477 48.5675 3.45001 49.5545 4.43702C50.5415 5.42403 51.0968 6.76223 51.0984 8.15807Z" stroke="white" stroke-width="0.5"/>
<path d="M25.8266 0.787109H23.7206V2.8931H25.8266V0.787109Z" stroke="white" stroke-width="0.5"/>
<path d="M2.66068 13.423H0.554688V36.5889H2.66068V13.423Z" stroke="white" stroke-width="0.5"/>
<defs>
<linearGradient id="paint0_linear_1449_13760" x1="0.554688" y1="28.679" x2="63.7344" y2="28.679" gradientUnits="userSpaceOnUse">
<stop stop-color="#00C0FF"/>
<stop offset="1" stop-color="#5558FF"/>
</linearGradient>
<linearGradient id="paint1_linear_1449_13760" x1="0.554688" y1="28.679" x2="63.7344" y2="28.679" gradientUnits="userSpaceOnUse">
<stop stop-color="#00C0FF"/>
<stop offset="1" stop-color="#5558FF"/>
</linearGradient>
<linearGradient id="paint2_linear_1449_13760" x1="0.554688" y1="28.679" x2="63.7344" y2="28.679" gradientUnits="userSpaceOnUse">
<stop stop-color="#00C0FF"/>
<stop offset="1" stop-color="#5558FF"/>
</linearGradient>
<linearGradient id="paint3_linear_1449_13760" x1="0.554688" y1="28.679" x2="63.7344" y2="28.679" gradientUnits="userSpaceOnUse">
<stop stop-color="#00C0FF"/>
<stop offset="1" stop-color="#5558FF"/>
</linearGradient>
<linearGradient id="paint4_linear_1449_13760" x1="0.554688" y1="28.679" x2="63.7344" y2="28.679" gradientUnits="userSpaceOnUse">
<stop stop-color="#00C0FF"/>
<stop offset="1" stop-color="#5558FF"/>
</linearGradient>
<linearGradient id="paint5_linear_1449_13760" x1="0.554688" y1="28.679" x2="63.7344" y2="28.679" gradientUnits="userSpaceOnUse">
<stop stop-color="#00C0FF"/>
<stop offset="1" stop-color="#5558FF"/>
</linearGradient>
<linearGradient id="paint6_linear_1449_13760" x1="0.554688" y1="28.679" x2="63.7344" y2="28.679" gradientUnits="userSpaceOnUse">
<stop stop-color="#00C0FF"/>
<stop offset="1" stop-color="#5558FF"/>
</linearGradient>
<linearGradient id="paint7_linear_1449_13760" x1="0.554688" y1="28.679" x2="63.7344" y2="28.679" gradientUnits="userSpaceOnUse">
<stop stop-color="#00C0FF"/>
<stop offset="1" stop-color="#5558FF"/>
</linearGradient>
<linearGradient id="paint8_linear_1449_13760" x1="0.554688" y1="28.679" x2="63.7344" y2="28.679" gradientUnits="userSpaceOnUse">
<stop stop-color="#00C0FF"/>
<stop offset="1" stop-color="#5558FF"/>
</linearGradient>
<linearGradient id="paint9_linear_1449_13760" x1="0.554688" y1="28.679" x2="63.7344" y2="28.679" gradientUnits="userSpaceOnUse">
<stop stop-color="#00C0FF"/>
<stop offset="1" stop-color="#5558FF"/>
</linearGradient>
<linearGradient id="paint10_linear_1449_13760" x1="0.554688" y1="28.679" x2="63.7344" y2="28.679" gradientUnits="userSpaceOnUse">
<stop stop-color="#00C0FF"/>
<stop offset="1" stop-color="#5558FF"/>
</linearGradient>
<linearGradient id="paint11_linear_1449_13760" x1="0.554688" y1="28.679" x2="63.7344" y2="28.679" gradientUnits="userSpaceOnUse">
<stop stop-color="#00C0FF"/>
<stop offset="1" stop-color="#5558FF"/>
</linearGradient>
<linearGradient id="paint12_linear_1449_13760" x1="0.554688" y1="28.679" x2="63.7344" y2="28.679" gradientUnits="userSpaceOnUse">
<stop stop-color="#00C0FF"/>
<stop offset="1" stop-color="#5558FF"/>
</linearGradient>
<linearGradient id="paint13_linear_1449_13760" x1="0.554688" y1="28.679" x2="63.7344" y2="28.679" gradientUnits="userSpaceOnUse">
<stop stop-color="#00C0FF"/>
<stop offset="1" stop-color="#5558FF"/>
</linearGradient>
<linearGradient id="paint14_linear_1449_13760" x1="0.554688" y1="28.679" x2="63.7344" y2="28.679" gradientUnits="userSpaceOnUse">
<stop stop-color="#00C0FF"/>
<stop offset="1" stop-color="#5558FF"/>
</linearGradient>
<linearGradient id="paint15_linear_1449_13760" x1="0.554688" y1="28.679" x2="63.7344" y2="28.679" gradientUnits="userSpaceOnUse">
<stop stop-color="#00C0FF"/>
<stop offset="1" stop-color="#5558FF"/>
</linearGradient>
<linearGradient id="paint16_linear_1449_13760" x1="0.554688" y1="28.679" x2="63.7344" y2="28.679" gradientUnits="userSpaceOnUse">
<stop stop-color="#00C0FF"/>
<stop offset="1" stop-color="#5558FF"/>
</linearGradient>
<linearGradient id="paint17_linear_1449_13760" x1="0.554688" y1="28.679" x2="63.7344" y2="28.679" gradientUnits="userSpaceOnUse">
<stop stop-color="#00C0FF"/>
<stop offset="1" stop-color="#5558FF"/>
</linearGradient>
<linearGradient id="paint18_linear_1449_13760" x1="0.554688" y1="28.679" x2="63.7344" y2="28.679" gradientUnits="userSpaceOnUse">
<stop stop-color="#00C0FF"/>
<stop offset="1" stop-color="#5558FF"/>
</linearGradient>
<linearGradient id="paint19_linear_1449_13760" x1="0.554688" y1="28.679" x2="63.7344" y2="28.679" gradientUnits="userSpaceOnUse">
<stop stop-color="#00C0FF"/>
<stop offset="1" stop-color="#5558FF"/>
</linearGradient>
</defs>
</svg>
