<svg width="63" height="54" viewBox="0 0 63 54" fill="none" xmlns="http://www.w3.org/2000/svg">
<path d="M36.142 47.044C36.2743 47.1204 36.422 47.1586 36.5696 47.1586C36.7171 47.1586 36.8648 47.1204 36.9971 47.044L53.3564 37.5989C53.6211 37.4462 53.784 37.1639 53.784 36.8583V17.9683C53.784 17.6628 53.6211 17.3805 53.3564 17.2278L36.9969 7.78287C36.7323 7.63004 36.4064 7.63016 36.1417 7.78287L19.7827 17.2278C19.5181 17.3805 19.3551 17.6628 19.3551 17.9683V22.9733H11.1557C10.6834 22.9733 10.3005 23.3562 10.3005 23.8285C10.3005 24.3007 10.6834 24.6836 11.1557 24.6836H19.3551V36.0033H14.7728C14.3005 36.0033 13.9176 36.3862 13.9176 36.8585C13.9176 37.3308 14.3005 37.7136 14.7728 37.7136H19.9813L36.142 47.044ZM21.0654 19.4497L25.1431 21.8039V28.8329C25.1431 29.1384 25.306 29.4207 25.5706 29.5734L30.3538 32.335C30.4861 32.4114 30.6338 32.4496 30.7814 32.4496C30.9289 32.4496 31.0766 32.4114 31.2089 32.335C31.4735 32.1823 31.6365 31.9 31.6365 31.5945V25.5528L35.7143 27.9071V44.8224L21.0653 36.3647L21.0654 19.4497ZM36.5696 26.4261L32.4918 24.0718L47.1408 15.6141L51.2187 17.9684L36.5696 26.4261ZM30.7815 23.0844L27.7086 21.3103L42.3576 12.8526L45.4305 14.6267L30.7815 23.0844ZM29.9263 24.5655V30.1135L26.8535 28.3393V22.7914L29.9263 24.5655ZM37.4247 44.8224V27.9071L52.0737 19.4495V36.3646L37.4247 44.8224ZM36.5694 9.51086L40.6475 11.8653L25.9984 20.3229L21.9205 17.9684L36.5696 9.51086H36.5694ZM15.9325 12.1802C18.2687 9.02037 21.345 6.40047 24.8291 4.60358C28.4305 2.74634 32.4902 1.76464 36.5696 1.76464C39.1584 1.76464 41.6942 2.14505 44.1333 2.89782L43.5343 1.95533C43.2809 1.55671 43.3987 1.02836 43.7973 0.774995C44.1962 0.521874 44.7244 0.639639 44.9778 1.03801L46.9275 4.10576C47.0675 4.32602 47.0993 4.5982 47.0136 4.84485C46.9281 5.09137 46.7346 5.28537 46.4882 5.37162L42.9241 6.6189C42.4783 6.77466 41.9905 6.53998 41.8345 6.09421C41.6785 5.64844 41.9135 5.16064 42.3592 5.00464L43.6717 4.54531C41.3828 3.83444 39.0016 3.47492 36.5697 3.47492C29.0093 3.47492 21.8085 7.10926 17.3077 13.1969C17.1399 13.4237 16.8814 13.5437 16.6194 13.5437C16.4427 13.5437 16.2646 13.4892 16.1117 13.3761C15.7319 13.0954 15.6516 12.56 15.9325 12.1802ZM57.7182 45.1505C57.7808 45.6186 57.4522 46.0489 56.9842 46.1117L53.3815 46.5945C53.3436 46.5996 53.3056 46.6021 53.2679 46.6021C53.048 46.6021 52.8349 46.5173 52.6745 46.3626C52.4865 46.1816 52.3917 45.9245 52.4168 45.6647L52.7798 41.9061C52.8253 41.4359 53.2428 41.0913 53.7132 41.1372C54.1832 41.1827 54.5275 41.6005 54.4821 42.0705L54.3494 43.445C58.3324 39.0419 60.5084 33.4064 60.5084 27.4137C60.5084 19.6573 56.7234 12.3476 50.3836 7.86032C49.9982 7.58753 49.9068 7.0538 50.1797 6.66837C50.4525 6.28283 50.9862 6.19157 51.3717 6.46448C58.1637 11.272 62.2188 19.1033 62.2188 27.4138C62.2188 33.8237 59.8952 39.8521 55.6417 44.5662L56.7572 44.4167C57.2255 44.354 57.6556 44.6825 57.7184 45.1506L57.7182 45.1505ZM49.9211 48.3266C50.1618 48.7329 50.0274 49.2575 49.6211 49.4982C45.6835 51.83 41.1703 53.0626 36.5696 53.0626C29.4847 53.0626 22.8044 50.1726 17.9684 45.0744L18.0296 46.1993C18.0553 46.6708 17.6938 47.074 17.2223 47.0996C16.7517 47.1256 16.3476 46.7638 16.3219 46.2923L16.1244 42.6628C16.1102 42.4022 16.2159 42.1493 16.4112 41.9762C16.6066 41.8031 16.8702 41.7289 17.1273 41.7743L20.8457 42.4322C21.3108 42.5145 21.6211 42.9582 21.5388 43.4233C21.4566 43.8883 21.0125 44.1986 20.5478 44.1163L19.1891 43.8759C23.7045 48.6476 29.9476 51.3524 36.5698 51.3524C40.8642 51.3524 45.0759 50.2023 48.7498 48.0266C49.1562 47.7861 49.6807 47.9202 49.9214 48.3266H49.9211ZM7.06321 17.9686C7.06321 17.4963 7.44607 17.1134 7.91835 17.1134H16.653C17.1253 17.1134 17.5081 17.4963 17.5081 17.9686C17.5081 18.4408 17.1253 18.8237 16.653 18.8237H7.91835C7.44607 18.8237 7.06321 18.4408 7.06321 17.9686ZM11.6138 36.8585C11.6138 37.3308 11.2309 37.7136 10.7586 37.7136H2.02399C1.55171 37.7136 1.16885 37.3308 1.16885 36.8585C1.16885 36.3862 1.55171 36.0033 2.02399 36.0033H10.7586C11.2309 36.0033 11.6138 36.3862 11.6138 36.8585ZM6.02482 29.0205H16.653C17.1253 29.0205 17.5081 29.4034 17.5081 29.8756C17.5081 30.3479 17.1253 30.7308 16.653 30.7308H6.02482C5.55254 30.7308 5.16968 30.3479 5.16968 29.8756C5.16968 29.4034 5.55254 29.0205 6.02482 29.0205ZM1.50358 24.6837C1.0313 24.6837 0.648438 24.3009 0.648438 23.8286C0.648438 23.3563 1.0313 22.9734 1.50358 22.9734H6.94104C7.41333 22.9734 7.79618 23.3563 7.79618 23.8286C7.79618 24.3009 7.41333 24.6837 6.94104 24.6837H1.50358Z" fill="url(#paint0_linear_1449_13687)"/>
<defs>
<linearGradient id="paint0_linear_1449_13687" x1="31.4335" y1="53.0625" x2="31.4335" y2="0.64147" gradientUnits="userSpaceOnUse">
<stop stop-color="#9345FF"/>
<stop offset="1" stop-color="#00C1FF"/>
</linearGradient>
</defs>
</svg>
