<svg width="57" height="57" viewBox="0 0 57 57" fill="none" xmlns="http://www.w3.org/2000/svg">
<path d="M31.2749 6.50266H25.6888C25.1749 6.50266 24.7578 6.08556 24.7578 5.57164C24.7578 5.05772 25.1749 4.64062 25.6888 4.64062H31.2749C31.7888 4.64062 32.2059 5.05772 32.2059 5.57164C32.2059 6.08556 31.7888 6.50266 31.2749 6.50266Z" fill="url(#paint0_linear_1449_13689)"/>
<path d="M38.7156 56.7777H18.2332C15.6655 56.7777 13.5781 54.6885 13.5781 52.1227V20.4681C13.5781 19.9542 13.9952 19.5371 14.5091 19.5371C15.0231 19.5371 15.4402 19.9542 15.4402 20.4681V52.1227C15.4402 53.6626 16.6933 54.9157 18.2332 54.9157H38.7156C40.2555 54.9157 41.5086 53.6626 41.5086 52.1227V20.4681C41.5086 19.9542 41.9257 19.5371 42.4396 19.5371C42.9535 19.5371 43.3706 19.9542 43.3706 20.4681V52.1227C43.3706 54.6885 41.2833 56.7777 38.7156 56.7777Z" fill="url(#paint1_linear_1449_13689)"/>
<path d="M42.4396 26.9845C41.9257 26.9845 41.5086 26.5674 41.5086 26.0534V5.5711C41.5086 4.03119 40.2555 2.77805 38.7156 2.77805H18.2332C16.6933 2.77805 15.4402 4.03119 15.4402 5.5711V26.0534C15.4402 26.5674 15.0231 26.9845 14.5091 26.9845C13.9952 26.9845 13.5781 26.5674 13.5781 26.0534V5.5711C13.5781 3.00522 15.6655 0.916016 18.2332 0.916016H38.7156C41.2833 0.916016 43.3706 3.00522 43.3706 5.5711V26.0534C43.3706 26.5674 42.9535 26.9845 42.4396 26.9845Z" fill="url(#paint2_linear_1449_13689)"/>
<path d="M48.0404 10.3204C47.5265 10.3204 47.1094 9.99637 47.1094 9.48245V9.29625C47.1094 8.78233 47.5265 8.36523 48.0404 8.36523C48.5543 8.36523 48.9714 8.78233 48.9714 9.29625C48.9714 9.81017 48.5543 10.3204 48.0404 10.3204Z" fill="url(#paint3_linear_1449_13689)"/>
<path d="M48.0404 14.043C47.5265 14.043 47.1094 13.719 47.1094 13.2051V13.0189C47.1094 12.505 47.5265 12.0879 48.0404 12.0879C48.5543 12.0879 48.9714 12.505 48.9714 13.0189C48.9714 13.5328 48.5543 14.043 48.0404 14.043Z" fill="url(#paint4_linear_1449_13689)"/>
<path d="M48.0404 17.7676C47.5265 17.7676 47.1094 17.4436 47.1094 16.9297V16.7435C47.1094 16.2296 47.5265 15.8125 48.0404 15.8125C48.5543 15.8125 48.9714 16.2296 48.9714 16.7435C48.9714 17.2574 48.5543 17.7676 48.0404 17.7676Z" fill="url(#paint5_linear_1449_13689)"/>
<path d="M8.93102 41.7842C8.4171 41.7842 8 41.4602 8 40.9463V40.7601C8 40.2462 8.4171 39.8291 8.93102 39.8291C9.44494 39.8291 9.86203 40.2462 9.86203 40.7601C9.86203 41.274 9.44494 41.7842 8.93102 41.7842Z" fill="url(#paint6_linear_1449_13689)"/>
<path d="M8.93102 45.5147C8.4171 45.5147 8 45.1907 8 44.6768V44.4906C8 43.9767 8.4171 43.5596 8.93102 43.5596C9.44494 43.5596 9.86203 43.9767 9.86203 44.4906C9.86203 45.0045 9.44494 45.5147 8.93102 45.5147Z" fill="url(#paint7_linear_1449_13689)"/>
<path d="M8.93102 49.2315C8.4171 49.2315 8 48.9075 8 48.3936V48.2074C8 47.6935 8.4171 47.2764 8.93102 47.2764C9.44494 47.2764 9.86203 47.6935 9.86203 48.2074C9.86203 48.7213 9.44494 49.2315 8.93102 49.2315Z" fill="url(#paint8_linear_1449_13689)"/>
<path d="M44.9579 49.3263C44.8928 49.3263 44.8257 49.3207 44.7605 49.3058C44.2578 49.1978 43.9394 48.7025 44.0474 48.1997L44.6619 45.3508C44.7363 45.0008 45.0063 44.727 45.3527 44.6432C46.2316 44.431 47.0881 44.0735 47.8981 43.58C48.1979 43.3938 48.5833 43.3994 48.8831 43.5893L50.7265 44.768L51.8679 43.6173L50.6893 41.7888C50.4956 41.489 50.4919 41.1035 50.6762 40.8C51.1697 39.99 51.5272 39.1335 51.7376 38.2546C51.8214 37.9083 52.0932 37.6401 52.4414 37.5619L54.5641 37.0908V35.4951L52.4433 35.024C52.0951 34.9458 51.8232 34.6777 51.7394 34.3313C51.529 33.4524 51.1697 32.5959 50.6781 31.7859C50.4919 31.4824 50.4956 31.0988 50.6893 30.799L51.8698 28.9538L50.7302 27.8142L48.8849 28.9947C48.5852 29.1865 48.2016 29.1902 47.8999 29.004C47.0881 28.5106 46.2316 28.1531 45.3545 27.9408C45.0063 27.857 44.7382 27.5815 44.6637 27.2333L44.2057 25.1198H43.392C42.878 25.1198 42.4609 24.7027 42.4609 24.1888C42.4609 23.6749 42.878 23.2578 43.392 23.2578H44.9561C45.3936 23.2578 45.7735 23.565 45.8647 23.9933L46.3619 26.2892C47.0434 26.4959 47.7119 26.7752 48.3561 27.1234L50.356 25.8442C50.7246 25.6096 51.205 25.6617 51.516 25.9708L53.7151 28.168C54.0242 28.4771 54.0763 28.9594 53.8398 29.328L52.5606 31.3279C52.9088 31.974 53.1881 32.6425 53.3948 33.3258L55.6944 33.836C56.1227 33.931 56.4262 34.3108 56.4262 34.7465V37.8375C56.4262 38.2732 56.1227 38.6531 55.6963 38.7462L53.3966 39.2564C53.19 39.9398 52.9107 40.6082 52.5625 41.2525L53.8398 43.2337C54.0782 43.6005 54.0279 44.0846 53.7188 44.3937L51.5197 46.6096C51.2088 46.9205 50.7265 46.9727 50.3578 46.738L48.358 45.4588C47.7119 45.807 47.0453 46.0863 46.3638 46.293L45.8666 48.5889C45.7716 49.0283 45.3843 49.3263 44.9579 49.3263Z" fill="url(#paint9_linear_1449_13689)"/>
<path d="M45.9855 41.0915C45.6876 41.0915 45.3934 40.9463 45.2128 40.68C44.926 40.2536 45.0396 39.6745 45.4679 39.3877C46.5013 38.6913 47.1195 37.5331 47.1195 36.2912C47.1195 34.2374 45.4492 32.5671 43.3954 32.5671C43.1422 32.5671 42.8908 32.5932 42.6506 32.6416C42.1516 32.7421 41.6544 32.4219 41.5501 31.9154C41.4477 31.4108 41.7717 30.9192 42.2763 30.8168C42.6413 30.7442 43.0174 30.7051 43.3954 30.7051C46.4752 30.7051 48.9815 33.2114 48.9815 36.2912C48.9815 38.1551 48.0561 39.8905 46.5032 40.9332C46.3449 41.0394 46.1643 41.0915 45.9855 41.0915Z" fill="url(#paint10_linear_1449_13689)"/>
<path d="M13.5861 26.9813C10.5063 26.9813 8 24.475 8 21.3952C8 19.5238 8.93102 17.7865 10.4914 16.7438C10.9141 16.4608 11.495 16.5725 11.7818 17.0026C12.0667 17.429 11.9512 18.0081 11.523 18.293C10.484 18.9894 9.86203 20.1476 9.86203 21.3952C9.86203 23.449 11.5323 25.1192 13.5861 25.1192C13.8356 25.1192 14.0814 25.095 14.316 25.0466C14.8095 24.9442 15.3103 25.27 15.4127 25.7765C15.5152 26.2811 15.1874 26.7708 14.6828 26.8714C14.3272 26.944 13.9622 26.9813 13.5861 26.9813Z" fill="url(#paint11_linear_1449_13689)"/>
<path d="M13.5889 34.4336H12.0248C11.5872 34.4336 11.2074 34.1263 11.1161 33.6981L10.619 31.4022C9.93747 31.1955 9.269 30.9162 8.62473 30.568L6.62491 31.8472C6.25437 32.0818 5.77583 32.0316 5.46487 31.7206L3.26581 29.5234C2.95671 29.2143 2.90457 28.732 3.14105 28.3634L4.42027 26.3635C4.07207 25.7174 3.79276 25.0489 3.58608 24.3656L1.28647 23.8554C0.858199 23.7604 0.554688 23.3806 0.554688 22.9448V19.8539C0.554688 19.4181 0.858199 19.0383 1.2846 18.9452L3.58421 18.435C3.7909 17.7516 4.0702 17.0832 4.4184 16.4389L3.14291 14.4558C2.90457 14.089 2.95485 13.6049 3.26394 13.2958L5.463 11.08C5.77024 10.7671 6.25437 10.715 6.62491 10.9515L8.62473 12.2307C9.27086 11.8825 9.93747 11.6032 10.619 11.3965L11.1161 9.10063C11.2241 8.59602 11.7287 8.27575 12.2222 8.38747C12.7249 8.49547 13.0433 8.99077 12.9353 9.49352L12.3209 12.3424C12.2464 12.6925 11.9764 12.9662 11.6301 13.05C10.7512 13.2623 9.89464 13.6198 9.08279 14.1132C8.78114 14.2994 8.39757 14.2938 8.09778 14.1039L6.25437 12.9252L5.11108 14.076L6.28975 15.9045C6.48526 16.2043 6.48898 16.5897 6.30278 16.8932C5.80934 17.7032 5.45183 18.5598 5.24142 19.4386C5.15763 19.785 4.88577 20.0531 4.53757 20.1313L2.41672 20.6005V22.1963L4.53757 22.6674C4.88577 22.7456 5.15763 23.0137 5.24142 23.3601C5.45183 24.239 5.8112 25.0955 6.30278 25.9055C6.48898 26.209 6.48526 26.5926 6.29161 26.8923L5.11108 28.7358L6.25064 29.8753L8.09592 28.6948C8.3957 28.5049 8.78114 28.5011 9.08093 28.6855C9.89278 29.1789 10.7493 29.5364 11.6263 29.7487C11.9745 29.8325 12.2427 30.1081 12.3171 30.4563L12.7752 32.5715H13.5889C14.1028 32.5715 14.5199 32.9886 14.5199 33.5026C14.5199 34.0165 14.1028 34.4336 13.5889 34.4336Z" fill="url(#paint12_linear_1449_13689)"/>
<path d="M27.5679 33.5018C27.4935 33.5018 27.419 33.4925 27.3426 33.4738C26.8417 33.3491 26.5401 32.8445 26.6649 32.3454L28.5269 24.8973C28.6498 24.3964 29.1469 24.0948 29.6553 24.2195C30.1562 24.3443 30.4578 24.8489 30.3331 25.3479L28.471 32.7961C28.3667 33.2206 27.9869 33.5018 27.5679 33.5018Z" fill="url(#paint13_linear_1449_13689)"/>
<path d="M33.1463 33.5021C32.908 33.5021 32.6696 33.4109 32.4872 33.2303C32.1241 32.8672 32.1241 32.2769 32.4872 31.9138L35.5539 28.847L32.489 25.7821C32.1259 25.419 32.1259 24.8288 32.489 24.4657C32.8521 24.1026 33.4424 24.1026 33.8055 24.4657L37.5295 28.1897C37.8926 28.5528 37.8926 29.1431 37.5295 29.5062L33.8055 33.2303C33.623 33.4109 33.3847 33.5021 33.1463 33.5021Z" fill="url(#paint14_linear_1449_13689)"/>
<path d="M23.847 33.5021C23.6086 33.5021 23.3703 33.4109 23.1878 33.2303L19.4637 29.5062C19.1006 29.1431 19.1006 28.5528 19.4637 28.1897L23.1878 24.4657C23.5509 24.1026 24.1412 24.1026 24.5042 24.4657C24.8673 24.8288 24.8673 25.419 24.5042 25.7821L21.4393 28.847L24.5042 31.9119C24.8673 32.275 24.8673 32.8653 24.5042 33.2284C24.3236 33.4109 24.0853 33.5021 23.847 33.5021Z" fill="url(#paint15_linear_1449_13689)"/>
<defs>
<linearGradient id="paint0_linear_1449_13689" x1="24.7578" y1="5.57123" x2="32.2059" y2="5.57123" gradientUnits="userSpaceOnUse">
<stop stop-color="#00C0FF"/>
<stop offset="1" stop-color="#5558FF"/>
</linearGradient>
<linearGradient id="paint1_linear_1449_13689" x1="13.5781" y1="38.1491" x2="43.3706" y2="38.1491" gradientUnits="userSpaceOnUse">
<stop stop-color="#00C0FF"/>
<stop offset="1" stop-color="#5558FF"/>
</linearGradient>
<linearGradient id="paint2_linear_1449_13689" x1="13.5781" y1="13.9444" x2="43.3706" y2="13.9444" gradientUnits="userSpaceOnUse">
<stop stop-color="#00C0FF"/>
<stop offset="1" stop-color="#5558FF"/>
</linearGradient>
<linearGradient id="paint3_linear_1449_13689" x1="47.1094" y1="9.34237" x2="48.9714" y2="9.34237" gradientUnits="userSpaceOnUse">
<stop stop-color="#00C0FF"/>
<stop offset="1" stop-color="#5558FF"/>
</linearGradient>
<linearGradient id="paint4_linear_1449_13689" x1="47.1094" y1="13.065" x2="48.9714" y2="13.065" gradientUnits="userSpaceOnUse">
<stop stop-color="#00C0FF"/>
<stop offset="1" stop-color="#5558FF"/>
</linearGradient>
<linearGradient id="paint5_linear_1449_13689" x1="47.1094" y1="16.7896" x2="48.9714" y2="16.7896" gradientUnits="userSpaceOnUse">
<stop stop-color="#00C0FF"/>
<stop offset="1" stop-color="#5558FF"/>
</linearGradient>
<linearGradient id="paint6_linear_1449_13689" x1="8" y1="40.8062" x2="9.86203" y2="40.8062" gradientUnits="userSpaceOnUse">
<stop stop-color="#00C0FF"/>
<stop offset="1" stop-color="#5558FF"/>
</linearGradient>
<linearGradient id="paint7_linear_1449_13689" x1="8" y1="44.5367" x2="9.86203" y2="44.5367" gradientUnits="userSpaceOnUse">
<stop stop-color="#00C0FF"/>
<stop offset="1" stop-color="#5558FF"/>
</linearGradient>
<linearGradient id="paint8_linear_1449_13689" x1="8" y1="48.2535" x2="9.86203" y2="48.2535" gradientUnits="userSpaceOnUse">
<stop stop-color="#00C0FF"/>
<stop offset="1" stop-color="#5558FF"/>
</linearGradient>
<linearGradient id="paint9_linear_1449_13689" x1="42.4609" y1="36.2862" x2="56.4262" y2="36.2862" gradientUnits="userSpaceOnUse">
<stop stop-color="#00C0FF"/>
<stop offset="1" stop-color="#5558FF"/>
</linearGradient>
<linearGradient id="paint10_linear_1449_13689" x1="41.5312" y1="35.896" x2="48.9815" y2="35.896" gradientUnits="userSpaceOnUse">
<stop stop-color="#00C0FF"/>
<stop offset="1" stop-color="#5558FF"/>
</linearGradient>
<linearGradient id="paint11_linear_1449_13689" x1="8" y1="21.7823" x2="15.4315" y2="21.7823" gradientUnits="userSpaceOnUse">
<stop stop-color="#00C0FF"/>
<stop offset="1" stop-color="#5558FF"/>
</linearGradient>
<linearGradient id="paint12_linear_1449_13689" x1="0.554688" y1="21.3936" x2="14.5199" y2="21.3936" gradientUnits="userSpaceOnUse">
<stop stop-color="#00C0FF"/>
<stop offset="1" stop-color="#5558FF"/>
</linearGradient>
<linearGradient id="paint13_linear_1449_13689" x1="26.6367" y1="28.8445" x2="30.3612" y2="28.8445" gradientUnits="userSpaceOnUse">
<stop stop-color="#00C0FF"/>
<stop offset="1" stop-color="#5558FF"/>
</linearGradient>
<linearGradient id="paint14_linear_1449_13689" x1="32.2148" y1="28.8457" x2="37.8019" y2="28.8457" gradientUnits="userSpaceOnUse">
<stop stop-color="#00C0FF"/>
<stop offset="1" stop-color="#5558FF"/>
</linearGradient>
<linearGradient id="paint15_linear_1449_13689" x1="19.1914" y1="28.8457" x2="24.7766" y2="28.8457" gradientUnits="userSpaceOnUse">
<stop stop-color="#00C0FF"/>
<stop offset="1" stop-color="#5558FF"/>
</linearGradient>
</defs>
</svg>
