<svg width="39" height="54" viewBox="0 0 39 54" fill="none" xmlns="http://www.w3.org/2000/svg">
<path d="M23.4813 49.334H16.9618C16.8137 49.334 16.6716 49.3929 16.5668 49.4977C16.4621 49.6024 16.4032 49.7445 16.4032 49.8927C16.4032 50.0409 16.4621 50.183 16.5668 50.2877C16.6716 50.3925 16.8137 50.4514 16.9618 50.4514H23.4813C23.6295 50.4514 23.7716 50.3925 23.8764 50.2877C23.9811 50.183 24.04 50.0409 24.04 49.8927C24.04 49.7445 23.9811 49.6024 23.8764 49.4977C23.7716 49.3929 23.6295 49.334 23.4813 49.334Z" fill="url(#paint0_linear_1449_13688)"/>
<path d="M37.6171 23.6075H36.3769V2.64114C36.3769 2.29854 36.3094 1.95928 36.1783 1.64275C36.0472 1.32623 35.855 1.03862 35.6128 0.796361C35.3705 0.554101 35.0829 0.361929 34.7664 0.230819C34.4498 0.0997082 34.1106 0.0322266 33.768 0.0322266H6.58384C5.89191 0.0322266 5.22832 0.307094 4.73905 0.796361C4.24979 1.28563 3.97492 1.94922 3.97492 2.64114V7.29474H1.06991C0.92175 7.29474 0.779654 7.3536 0.674886 7.45836C0.570118 7.56313 0.51126 7.70523 0.51126 7.85339V26.8477C0.51126 26.9958 0.570118 27.1379 0.674886 27.2427C0.779654 27.3475 0.92175 27.4063 1.06991 27.4063H3.97492V32.3951H0.98053C0.832365 32.3951 0.690269 32.454 0.585501 32.5587C0.480733 32.6635 0.421875 32.8056 0.421875 32.9538V41.7917C0.421875 41.9398 0.480733 42.0819 0.585501 42.1867C0.690269 42.2915 0.832365 42.3503 0.98053 42.3503H3.97492V51.0542C3.97492 51.7461 4.24979 52.4097 4.73905 52.899C5.22832 53.3882 5.89191 53.6631 6.58384 53.6631H33.768C34.1106 53.6631 34.4498 53.5956 34.7664 53.4645C35.0829 53.3334 35.3705 53.1412 35.6128 52.899C35.855 52.6567 36.0472 52.3691 36.1783 52.0526C36.3094 51.736 36.3769 51.3968 36.3769 51.0542V33.5906H37.6171C37.7653 33.5906 37.9074 33.5318 38.0121 33.427C38.1169 33.3222 38.1758 33.1801 38.1758 33.032V24.1661C38.1758 24.0179 38.1169 23.8759 38.0121 23.7711C37.9074 23.6663 37.7653 23.6075 37.6171 23.6075ZM5.09223 2.64114C5.0937 2.246 5.25132 1.86746 5.53074 1.58804C5.81015 1.30863 6.18869 1.15101 6.58384 1.14954H33.768C34.1631 1.15101 34.5417 1.30863 34.8211 1.58804C35.1005 1.86746 35.2581 2.246 35.2596 2.64114V3.67466C34.8245 3.36375 34.3027 3.19762 33.768 3.1998H6.58384C6.04912 3.19762 5.52727 3.36375 5.09223 3.67466V2.64114ZM1.62857 8.41205H16.405V16.9204L14.5894 15.1159C14.5374 15.0635 14.4756 15.022 14.4076 14.9936C14.3395 14.9653 14.2665 14.9507 14.1927 14.9507C14.119 14.9507 14.0459 14.9653 13.9779 14.9936C13.9098 15.022 13.848 15.0635 13.7961 15.1159L12.1201 16.7919L9.00281 13.6355C8.89814 13.5314 8.75655 13.473 8.60896 13.473C8.46137 13.473 8.31978 13.5314 8.21511 13.6355L1.62857 20.2276V8.41205ZM16.405 21.0209L12.9134 17.5516L14.176 16.2891L16.4106 18.5237L16.405 21.0209ZM1.62857 26.289V21.8198L8.61734 14.8366L16.405 22.6019V26.289H1.62857ZM1.53918 41.2554V33.4901H16.5V41.233L1.53918 41.2554ZM35.2596 51.0542C35.2581 51.4493 35.1005 51.8279 34.8211 52.1073C34.5417 52.3867 34.1631 52.5443 33.768 52.5458H6.58384C6.18869 52.5443 5.81015 52.3867 5.53074 52.1073C5.25132 51.8279 5.0937 51.4493 5.09223 51.0542V46.9592C5.52911 47.2658 6.05013 47.4297 6.58384 47.4285H33.768C34.3017 47.4297 34.8227 47.2658 35.2596 46.9592V51.0542ZM35.2596 44.8196C35.2581 45.2142 35.1003 45.5922 34.8207 45.8707C34.5412 46.1492 34.1626 46.3056 33.768 46.3056H6.58384C6.1892 46.3056 5.81065 46.1492 5.53108 45.8707C5.25151 45.5922 5.09371 45.2142 5.09223 44.8196V42.3503H17.0586C17.2068 42.3503 17.3489 42.2915 17.4536 42.1867C17.5584 42.0819 17.6173 41.9398 17.6173 41.7917V32.9314C17.6173 32.7832 17.5584 32.6411 17.4536 32.5364C17.3489 32.4316 17.2068 32.3728 17.0586 32.3728H5.09223V27.4063H16.9636C17.1118 27.4063 17.2539 27.3475 17.3587 27.2427C17.4634 27.1379 17.5223 26.9958 17.5223 26.8477V7.85339C17.5223 7.70523 17.4634 7.56313 17.3587 7.45836C17.2539 7.3536 17.1118 7.29474 16.9636 7.29474H5.09223V5.80313C5.09371 5.4085 5.25151 5.03054 5.53108 4.75201C5.81065 4.47349 6.1892 4.31711 6.58384 4.31711H33.768C34.1626 4.31711 34.5412 4.47349 34.8207 4.75201C35.1003 5.03054 35.2581 5.4085 35.2596 5.80313V23.6075H21.539C21.3909 23.6075 21.2488 23.6663 21.144 23.7711C21.0392 23.8759 20.9804 24.0179 20.9804 24.1661V33.032C20.9804 33.1801 21.0392 33.3222 21.144 33.427C21.2488 33.5318 21.3909 33.5906 21.539 33.5906H35.2596V44.8196ZM37.0585 32.4733H22.0977V24.7248H37.0585V32.4733Z" fill="url(#paint1_linear_1449_13688)"/>
<path d="M26.9723 16.6066C27.5987 16.6066 28.2112 16.4208 28.7321 16.0727C29.253 15.7247 29.659 15.23 29.8987 14.6512C30.1385 14.0724 30.2012 13.4355 30.079 12.821C29.9567 12.2066 29.6551 11.6422 29.2121 11.1992C28.7691 10.7562 28.2047 10.4545 27.5902 10.3323C26.9758 10.2101 26.3389 10.2728 25.7601 10.5125C25.1813 10.7523 24.6866 11.1583 24.3385 11.6792C23.9905 12.2001 23.8047 12.8125 23.8047 13.439C23.8062 14.2786 24.1404 15.0834 24.7341 15.6772C25.3278 16.2709 26.1326 16.6051 26.9723 16.6066ZM26.9723 11.3887C27.3778 11.3887 27.7742 11.509 28.1113 11.7343C28.4485 11.9595 28.7113 12.2797 28.8665 12.6544C29.0216 13.029 29.0622 13.4413 28.9831 13.839C28.904 14.2367 28.7087 14.602 28.422 14.8887C28.1353 15.1755 27.77 15.3707 27.3722 15.4499C26.9745 15.529 26.5623 15.4884 26.1877 15.3332C25.813 15.178 25.4928 14.9152 25.2675 14.578C25.0422 14.2409 24.922 13.8445 24.922 13.439C24.922 12.8952 25.138 12.3737 25.5225 11.9892C25.907 11.6047 26.4285 11.3887 26.9723 11.3887Z" fill="url(#paint2_linear_1449_13688)"/>
<path d="M23.6242 19.4898V18.9815H30.3281V19.4898C30.3281 19.638 30.387 19.7801 30.4917 19.8849C30.5965 19.9896 30.7386 20.0485 30.8868 20.0485H33.0264C33.1746 20.0485 33.3167 19.9896 33.4214 19.8849C33.5262 19.7801 33.5851 19.638 33.5851 19.4898V17.3502C33.5851 17.202 33.5262 17.0599 33.4214 16.9552C33.3167 16.8504 33.1746 16.7915 33.0264 16.7915H32.5124V10.0877H33.0264C33.1746 10.0877 33.3167 10.0288 33.4214 9.92406C33.5262 9.81929 33.5851 9.6772 33.5851 9.52903V7.38939C33.5851 7.24122 33.5262 7.09913 33.4214 6.99436C33.3167 6.88959 33.1746 6.83073 33.0264 6.83073H30.8868C30.7386 6.83073 30.5965 6.88959 30.4917 6.99436C30.387 7.09913 30.3281 7.24122 30.3281 7.38939V7.89776H23.6242V7.38939C23.6242 7.24122 23.5654 7.09913 23.4606 6.99436C23.3559 6.88959 23.2138 6.83073 23.0656 6.83073H20.9204C20.7722 6.83073 20.6301 6.88959 20.5253 6.99436C20.4206 7.09913 20.3617 7.24122 20.3617 7.38939V9.52903C20.3617 9.6772 20.4206 9.81929 20.5253 9.92406C20.6301 10.0288 20.7722 10.0877 20.9204 10.0877H21.4343V16.7915H20.9204C20.7722 16.7915 20.6301 16.8504 20.5253 16.9552C20.4206 17.0599 20.3617 17.202 20.3617 17.3502V19.4898C20.3617 19.638 20.4206 19.7801 20.5253 19.8849C20.6301 19.9896 20.7722 20.0485 20.9204 20.0485H23.0656C23.2138 20.0485 23.3559 19.9896 23.4606 19.8849C23.5654 19.7801 23.6242 19.638 23.6242 19.4898ZM32.4678 18.9312H31.4454V17.9089H32.4678V18.9312ZM32.4678 7.94804V8.97038H31.4454V7.94804H32.4678ZM21.479 7.94804H22.5069V8.97038H21.479V7.94804ZM22.5516 10.0877H23.0656C23.2138 10.0877 23.3559 10.0288 23.4606 9.92406C23.5654 9.81929 23.6242 9.6772 23.6242 9.52903V9.01507H30.3281V9.52903C30.3281 9.6772 30.387 9.81929 30.4917 9.92406C30.5965 10.0288 30.7386 10.0877 30.8868 10.0877H31.3951V16.7915H30.8868C30.7386 16.7915 30.5965 16.8504 30.4917 16.9552C30.387 17.0599 30.3281 17.202 30.3281 17.3502V17.8642H23.6242V17.3502C23.6242 17.202 23.5654 17.0599 23.4606 16.9552C23.3559 16.8504 23.2138 16.7915 23.0656 16.7915H22.5516V10.0877ZM21.479 18.9312V17.9089H22.5069V18.9312H21.479Z" fill="url(#paint3_linear_1449_13688)"/>
<path d="M6.771 24.1434H11.2402C11.3884 24.1434 11.5305 24.0845 11.6353 23.9798C11.74 23.875 11.7989 23.7329 11.7989 23.5847C11.7989 23.4366 11.74 23.2945 11.6353 23.1897C11.5305 23.0849 11.3884 23.0261 11.2402 23.0261H6.771C6.62283 23.0261 6.48074 23.0849 6.37597 23.1897C6.2712 23.2945 6.21234 23.4366 6.21234 23.5847C6.21234 23.7329 6.2712 23.875 6.37597 23.9798C6.48074 24.0845 6.62283 24.1434 6.771 24.1434Z" fill="url(#paint4_linear_1449_13688)"/>
<path d="M34.8066 26.3678H24.3541C24.206 26.3678 24.0639 26.4267 23.9591 26.5314C23.8543 26.6362 23.7955 26.7783 23.7955 26.9265C23.7955 27.0746 23.8543 27.2167 23.9591 27.3215C24.0639 27.4263 24.206 27.4851 24.3541 27.4851H34.8066C34.9547 27.4851 35.0968 27.4263 35.2016 27.3215C35.3064 27.2167 35.3652 27.0746 35.3652 26.9265C35.3652 26.7783 35.3064 26.6362 35.2016 26.5314C35.0968 26.4267 34.9547 26.3678 34.8066 26.3678Z" fill="url(#paint5_linear_1449_13688)"/>
<path d="M28.5552 29.5806H24.3541C24.206 29.5806 24.0639 29.6395 23.9591 29.7443C23.8543 29.849 23.7955 29.9911 23.7955 30.1393C23.7955 30.2875 23.8543 30.4296 23.9591 30.5343C24.0639 30.6391 24.206 30.6979 24.3541 30.6979H28.5552C28.7034 30.6979 28.8455 30.6391 28.9502 30.5343C29.055 30.4296 29.1139 30.2875 29.1139 30.1393C29.1139 29.9911 29.055 29.849 28.9502 29.7443C28.8455 29.6395 28.7034 29.5806 28.5552 29.5806Z" fill="url(#paint6_linear_1449_13688)"/>
<path d="M34.8092 29.5806H31.1388C30.9907 29.5806 30.8486 29.6395 30.7438 29.7443C30.639 29.849 30.5802 29.9911 30.5802 30.1393C30.5802 30.2875 30.639 30.4296 30.7438 30.5343C30.8486 30.6391 30.9907 30.6979 31.1388 30.6979H34.8092C34.9574 30.6979 35.0994 30.6391 35.2042 30.5343C35.309 30.4296 35.3678 30.2875 35.3678 30.1393C35.3678 29.9911 35.309 29.849 35.2042 29.7443C35.0994 29.6395 34.9574 29.5806 34.8092 29.5806Z" fill="url(#paint7_linear_1449_13688)"/>
<path d="M3.78831 36.2445H14.2407C14.3889 36.2445 14.531 36.1856 14.6358 36.0808C14.7405 35.9761 14.7994 35.834 14.7994 35.6858C14.7994 35.5376 14.7405 35.3955 14.6358 35.2908C14.531 35.186 14.3889 35.1271 14.2407 35.1271H3.78831C3.64014 35.1271 3.49805 35.186 3.39328 35.2908C3.28851 35.3955 3.22965 35.5376 3.22965 35.6858C3.22965 35.834 3.28851 35.9761 3.39328 36.0808C3.49805 36.1856 3.64014 36.2445 3.78831 36.2445Z" fill="url(#paint8_linear_1449_13688)"/>
<path d="M7.98939 39.4573C8.13756 39.4573 8.27965 39.3984 8.38442 39.2937C8.48919 39.1889 8.54805 39.0468 8.54805 38.8986C8.54805 38.7505 8.48919 38.6084 8.38442 38.5036C8.27965 38.3988 8.13756 38.34 7.98939 38.34H3.78831C3.64014 38.34 3.49805 38.3988 3.39328 38.5036C3.28851 38.6084 3.22965 38.7505 3.22965 38.8986C3.22965 39.0468 3.28851 39.1889 3.39328 39.2937C3.49805 39.3984 3.64014 39.4573 3.78831 39.4573H7.98939Z" fill="url(#paint9_linear_1449_13688)"/>
<path d="M14.247 38.34H10.5822C10.434 38.34 10.2919 38.3988 10.1872 38.5036C10.0824 38.6084 10.0236 38.7505 10.0236 38.8986C10.0236 39.0468 10.0824 39.1889 10.1872 39.2937C10.2919 39.3984 10.434 39.4573 10.5822 39.4573H14.247C14.3952 39.4573 14.5372 39.3984 14.642 39.2937C14.7468 39.1889 14.8056 39.0468 14.8056 38.8986C14.8056 38.7505 14.7468 38.6084 14.642 38.5036C14.5372 38.3988 14.3952 38.34 14.247 38.34Z" fill="url(#paint10_linear_1449_13688)"/>
<path d="M20.9785 39.4464V41.7927C20.9785 41.9409 21.0373 42.083 21.1421 42.1878C21.2469 42.2925 21.389 42.3514 21.5371 42.3514C21.6853 42.3514 21.8274 42.2925 21.9322 42.1878C22.0369 42.083 22.0958 41.9409 22.0958 41.7927V41.1782H33.0231V41.7927C33.0231 41.9409 33.0819 42.083 33.1867 42.1878C33.2915 42.2925 33.4336 42.3514 33.5817 42.3514C33.7299 42.3514 33.872 42.2925 33.9768 42.1878C34.0815 42.083 34.1404 41.9409 34.1404 41.7927V39.4464C34.1404 39.2982 34.0815 39.1561 33.9768 39.0514C33.872 38.9466 33.7299 38.8877 33.5817 38.8877C33.4336 38.8877 33.2915 38.9466 33.1867 39.0514C33.0819 39.1561 33.0231 39.2982 33.0231 39.4464V40.0609H22.0958V39.4464C22.0958 39.2982 22.0369 39.1561 21.9322 39.0514C21.8274 38.9466 21.6853 38.8877 21.5371 38.8877C21.389 38.8877 21.2469 38.9466 21.1421 39.0514C21.0373 39.1561 20.9785 39.2982 20.9785 39.4464Z" fill="url(#paint11_linear_1449_13688)"/>
<defs>
<linearGradient id="paint0_linear_1449_13688" x1="0.421875" y1="26.8357" x2="38.1758" y2="26.8357" gradientUnits="userSpaceOnUse">
<stop stop-color="#00C0FF"/>
<stop offset="1" stop-color="#5558FF"/>
</linearGradient>
<linearGradient id="paint1_linear_1449_13688" x1="0.421875" y1="26.8357" x2="38.1758" y2="26.8357" gradientUnits="userSpaceOnUse">
<stop stop-color="#00C0FF"/>
<stop offset="1" stop-color="#5558FF"/>
</linearGradient>
<linearGradient id="paint2_linear_1449_13688" x1="0.421875" y1="26.8357" x2="38.1758" y2="26.8357" gradientUnits="userSpaceOnUse">
<stop stop-color="#00C0FF"/>
<stop offset="1" stop-color="#5558FF"/>
</linearGradient>
<linearGradient id="paint3_linear_1449_13688" x1="0.421875" y1="26.8357" x2="38.1758" y2="26.8357" gradientUnits="userSpaceOnUse">
<stop stop-color="#00C0FF"/>
<stop offset="1" stop-color="#5558FF"/>
</linearGradient>
<linearGradient id="paint4_linear_1449_13688" x1="0.421875" y1="26.8357" x2="38.1758" y2="26.8357" gradientUnits="userSpaceOnUse">
<stop stop-color="#00C0FF"/>
<stop offset="1" stop-color="#5558FF"/>
</linearGradient>
<linearGradient id="paint5_linear_1449_13688" x1="0.421875" y1="26.8357" x2="38.1758" y2="26.8357" gradientUnits="userSpaceOnUse">
<stop stop-color="#00C0FF"/>
<stop offset="1" stop-color="#5558FF"/>
</linearGradient>
<linearGradient id="paint6_linear_1449_13688" x1="0.421875" y1="26.8357" x2="38.1758" y2="26.8357" gradientUnits="userSpaceOnUse">
<stop stop-color="#00C0FF"/>
<stop offset="1" stop-color="#5558FF"/>
</linearGradient>
<linearGradient id="paint7_linear_1449_13688" x1="0.421875" y1="26.8357" x2="38.1758" y2="26.8357" gradientUnits="userSpaceOnUse">
<stop stop-color="#00C0FF"/>
<stop offset="1" stop-color="#5558FF"/>
</linearGradient>
<linearGradient id="paint8_linear_1449_13688" x1="0.421875" y1="26.8357" x2="38.1758" y2="26.8357" gradientUnits="userSpaceOnUse">
<stop stop-color="#00C0FF"/>
<stop offset="1" stop-color="#5558FF"/>
</linearGradient>
<linearGradient id="paint9_linear_1449_13688" x1="0.421875" y1="26.8357" x2="38.1758" y2="26.8357" gradientUnits="userSpaceOnUse">
<stop stop-color="#00C0FF"/>
<stop offset="1" stop-color="#5558FF"/>
</linearGradient>
<linearGradient id="paint10_linear_1449_13688" x1="0.421875" y1="26.8357" x2="38.1758" y2="26.8357" gradientUnits="userSpaceOnUse">
<stop stop-color="#00C0FF"/>
<stop offset="1" stop-color="#5558FF"/>
</linearGradient>
<linearGradient id="paint11_linear_1449_13688" x1="0.421875" y1="26.8357" x2="38.1758" y2="26.8357" gradientUnits="userSpaceOnUse">
<stop stop-color="#00C0FF"/>
<stop offset="1" stop-color="#5558FF"/>
</linearGradient>
</defs>
</svg>
