<svg width="63" height="62" viewBox="0 0 63 62" fill="none" xmlns="http://www.w3.org/2000/svg">
<path fill-rule="evenodd" clip-rule="evenodd" d="M23.7721 24.8822H20.9843C20.5817 24.8822 20.2496 25.2142 20.2496 25.6169V27.1018H20.2469C20.2472 27.428 20.0214 27.7222 19.6895 27.7956C18.98 27.9523 18.291 28.1707 17.6288 28.4452C16.9774 28.715 16.355 29.0382 15.7674 29.4089C15.4877 29.6246 15.0846 29.6044 14.8282 29.3479L13.7778 28.2975C13.4933 28.0131 13.0231 28.0131 12.7387 28.2975L10.7672 30.2688C10.4828 30.5533 10.4828 31.0236 10.7672 31.3081L11.8176 32.3585L11.8157 32.3605C12.0464 32.5908 12.0948 32.9582 11.9124 33.2445C11.5275 33.848 11.1929 34.4884 10.9147 35.1598C10.6481 35.8031 10.4344 36.4717 10.2786 37.1597C10.2331 37.5098 9.9338 37.7801 9.57146 37.7801H8.08655C7.68373 37.7801 7.35176 38.112 7.35176 38.5147V41.3025C7.35176 41.7053 7.68386 42.0373 8.08655 42.0373H9.57146V42.04C9.89772 42.0397 10.1919 42.2656 10.2653 42.5974C10.422 43.307 10.6406 43.996 10.9149 44.6584C11.1849 45.3097 11.5079 45.932 11.8785 46.5197C12.0942 46.7993 12.074 47.2024 11.8175 47.4588L10.7671 48.5093C10.4826 48.7937 10.4825 49.2639 10.7671 49.5484L12.7384 51.5198C13.0229 51.8043 13.4932 51.8043 13.7777 51.5198L14.8281 50.4694L14.83 50.4714C15.0604 50.2406 15.4278 50.1922 15.7141 50.3747C16.3312 50.768 16.9468 51.0882 17.6322 51.3724C18.2774 51.6397 18.945 51.8535 19.6293 52.0084C19.9793 52.054 20.2496 52.3533 20.2496 52.7156V54.2005C20.2496 54.6033 20.5817 54.9352 20.9843 54.9352H23.7721C24.1747 54.9352 24.5068 54.6032 24.5068 54.2005V52.7156H24.5096C24.5093 52.3893 24.7351 52.0951 25.067 52.0218C25.7766 51.865 26.4656 51.6466 27.1278 51.3721C27.7792 51.1022 28.4016 50.7791 28.9893 50.4083C29.269 50.1926 29.6721 50.2128 29.9285 50.4693L30.979 51.5197C31.2634 51.8042 31.7337 51.8042 32.0182 51.5197L33.9895 49.5484C34.2741 49.2638 34.274 48.7937 33.9895 48.5093L32.939 47.4588L32.9409 47.4569C32.7102 47.2265 32.6618 46.8591 32.8442 46.5729C33.2292 45.9695 33.5637 45.3292 33.8418 44.658C34.1084 44.0146 34.3223 43.346 34.478 42.6577C34.5236 42.3077 34.8228 42.0374 35.1852 42.0374H36.6701C37.0726 42.0374 37.4049 41.7054 37.4049 41.3026V38.5149C37.4049 38.1123 37.0729 37.7802 36.6701 37.7802H35.1852V37.7775C34.8589 37.7777 34.5647 37.5519 34.4914 37.2201C34.3346 36.5106 34.1161 35.8215 33.8417 35.1592C33.5718 34.5079 33.2488 33.8855 32.878 33.2978C32.6623 33.0182 32.6825 32.6151 32.939 32.3586L33.9894 31.3082C34.2739 31.0238 34.2739 30.5534 33.9894 30.269L32.0181 28.2978C31.7335 28.0132 31.2634 28.0133 30.979 28.2978L29.9285 29.3482L29.9266 29.3463C29.6962 29.577 29.3288 29.6254 29.0426 29.4429C28.4392 29.058 27.7988 28.7235 27.1276 28.4454C26.4841 28.1788 25.8155 27.965 25.1273 27.8093C24.7773 27.7638 24.507 27.4645 24.507 27.1022V25.6173C24.507 25.2146 24.1749 24.8826 23.7722 24.8826L23.7721 24.8822ZM20.9843 23.4557H23.7721C24.9621 23.4557 25.9334 24.4268 25.9334 25.6169V26.5441C27.1234 26.8596 28.2552 27.3299 29.314 27.9452C29.9871 27.2722 30.4523 26.6577 31.4983 26.6577C32.0517 26.6577 32.6054 26.868 33.0263 27.2889L34.9978 29.2602C35.8395 30.102 35.8395 31.4747 34.9978 32.3165L34.3417 32.9725C34.957 34.0312 35.4273 35.1633 35.7427 36.3533C36.6943 36.3533 37.4572 36.2479 38.1969 36.9877C38.5883 37.3791 38.8312 37.9195 38.8312 38.5145V41.3022C38.8312 42.4923 37.86 43.4635 36.6701 43.4635H35.7428C35.4275 44.6535 34.957 45.7855 34.3419 46.8442C35.0149 47.5173 35.6294 47.9825 35.6294 49.0285C35.6294 49.5819 35.4189 50.1356 34.9981 50.5565L33.0268 52.5279C32.1851 53.3697 30.8122 53.3695 29.9706 52.5279L29.3144 51.8718C28.2556 52.4872 27.1238 52.9574 25.9336 53.2729C25.9336 54.2245 26.039 54.9872 25.2993 55.7269C24.9079 56.1183 24.3673 56.3613 23.7723 56.3613H20.9846C19.7945 56.3613 18.8234 55.3902 18.8234 54.2001V53.273C17.6307 52.9575 16.5049 52.489 15.4427 51.8718C14.7697 52.5448 14.3046 53.1592 13.2584 53.1592C12.7051 53.1592 12.1512 52.9488 11.7303 52.5279L9.75899 50.5566C8.91726 49.7149 8.91739 48.3421 9.75899 47.5005L10.4151 46.8444C9.79987 45.7858 9.32956 44.6536 9.01407 43.4637C8.06242 43.4637 7.29972 43.569 6.55999 42.8293C6.16858 42.4379 5.92564 41.8975 5.92564 41.3024V38.5146C5.92564 37.3246 6.89676 36.3534 8.08681 36.3534H9.01394C9.32943 35.1631 9.79974 34.0317 10.415 32.9727C9.74199 32.2997 9.12763 31.8346 9.12763 30.7885C9.12763 30.2351 9.33812 29.6812 9.75899 29.2604L11.7303 27.2892C12.572 26.4474 13.9448 26.4476 14.7864 27.2892L15.4426 27.9453C16.501 27.3302 17.6335 26.8596 18.8233 26.5442C18.8233 25.5926 18.7179 24.8299 19.4576 24.0902C19.849 23.6988 20.3894 23.4558 20.9844 23.4558L20.9843 23.4557ZM27.5591 34.7277C30.4203 37.5888 30.4203 42.2283 27.5591 45.0894C24.698 47.9504 20.0585 47.9504 17.1974 45.0894C14.3362 42.2282 14.3362 37.5888 17.1974 34.7277C20.0586 31.8667 24.698 31.8665 27.5591 34.7277ZM22.3782 31.1554C27.2123 31.1554 31.1314 35.0745 31.1314 39.9086C31.1314 44.7426 27.2123 48.6618 22.3782 48.6618C17.5442 48.6618 13.625 44.7426 13.625 39.9086C13.625 35.0745 17.5442 31.1554 22.3782 31.1554ZM19.7996 41.2982C20.1165 41.5305 20.1851 41.9759 19.9528 42.2928C19.7205 42.6097 19.2751 42.6784 18.9582 42.4461L16.2851 40.4824C15.8868 40.1902 15.9085 39.6045 16.2974 39.3255L18.9582 37.3709C19.2751 37.1386 19.7205 37.2071 19.9528 37.5242C20.1851 37.8411 20.1166 38.2865 19.7996 38.5188L17.9077 39.9086L19.7996 41.2983V41.2982ZM25.7985 42.4461C25.4816 42.6784 25.0362 42.6099 24.8039 42.2928C24.5716 41.9759 24.6401 41.5305 24.9572 41.2982L26.8492 39.9084L24.9573 38.5186C24.6404 38.2863 24.5717 37.8409 24.804 37.524C25.0363 37.2071 25.4817 37.1385 25.7986 37.3708L28.4595 39.3253C28.8484 39.6044 28.8701 40.19 28.4718 40.4823L25.7985 42.4459V42.4461ZM21.6371 43.4507C21.4832 43.8122 21.0653 43.9807 20.7037 43.8268C20.3422 43.6729 20.1737 43.255 20.3276 42.8934L23.1197 36.3662C23.2736 36.0046 23.6915 35.8361 24.053 35.9901C24.4146 36.144 24.583 36.5619 24.4291 36.9234L21.6371 43.4507ZM46.1482 5.80057C46.426 5.80057 46.6558 6.03027 46.6558 6.30812V7.56008C46.6558 7.92242 46.9259 8.22156 47.2757 8.26724C47.8461 8.39688 48.4005 8.57442 48.9345 8.79569C49.4945 9.02773 50.0285 9.30662 50.5315 9.62756C50.8178 9.8099 51.1852 9.76162 51.4156 9.53087L51.4175 9.53282L52.3033 8.64722C52.4994 8.45126 52.8248 8.45113 53.0211 8.64722L54.6831 10.3093C54.8792 10.5054 54.8792 10.831 54.6831 11.0271L53.7975 11.9127C53.5412 12.169 53.5208 12.5718 53.7363 12.8515C54.043 13.3388 54.3106 13.8549 54.5345 14.3953C54.7636 14.9482 54.9459 15.5229 55.0766 16.1145C55.1499 16.4462 55.444 16.6721 55.7704 16.6719V16.6746H57.0223C57.3001 16.6746 57.5299 16.9043 57.5299 17.182V19.5324C57.5299 19.8102 57.3001 20.04 57.0223 20.04H55.7704C55.408 20.04 55.1089 20.3102 55.0632 20.6599C54.9336 21.2303 54.7559 21.7848 54.5346 22.3188C54.3026 22.8788 54.0237 23.4129 53.7028 23.9157C53.5204 24.202 53.5687 24.5694 53.7995 24.7998L53.7975 24.8017L54.6831 25.6873C54.8792 25.8834 54.8792 26.209 54.6831 26.4051L53.0211 28.0672C52.825 28.2633 52.4994 28.2633 52.3033 28.0672L51.4177 27.1816C51.1614 26.9253 50.7585 26.9049 50.4787 27.1203C50.1129 27.3756 49.3642 27.7372 48.9324 27.9196L48.932 27.9186C48.3771 28.1486 47.8032 28.3308 47.2157 28.4605C46.884 28.5339 46.6581 28.8279 46.6583 29.1543H46.6556V30.4063C46.6556 30.6841 46.4258 30.9138 46.1481 30.9138H43.7977C43.52 30.9138 43.2902 30.6841 43.2902 30.4063V29.1543C43.2902 28.792 43.0201 28.4929 42.6703 28.4472C42.1038 28.3184 41.5502 28.1408 41.0145 27.9187C40.4419 27.6814 39.9298 27.4153 39.4145 27.0867C39.1282 26.9044 38.7608 26.9527 38.5304 27.1834L38.5285 27.1815L37.6429 28.0671C37.4467 28.2633 37.1212 28.2631 36.9249 28.0671L35.263 26.4051C35.0668 26.2089 35.0669 25.8834 35.263 25.6873L36.1486 24.8017C36.4049 24.5454 36.4253 24.1426 36.2099 23.8629C35.905 23.3787 35.6376 22.8617 35.4116 22.3164C35.1906 21.8021 34.9919 21.1541 34.8695 20.5999C34.7962 20.2682 34.5021 20.0423 34.1758 20.0426V20.0398H32.9238C32.6461 20.0398 32.4162 19.8101 32.4162 19.5323V17.1819C32.4162 16.9042 32.6461 16.6744 32.9238 16.6744H34.1758C34.5381 16.6744 34.8372 16.4043 34.8829 16.0544C35.0124 15.4841 35.1901 14.9297 35.4114 14.3958C35.6434 13.8358 35.9224 13.3017 36.2434 12.7987C36.4257 12.5124 36.3774 12.145 36.1467 11.9146L36.1486 11.9127L35.263 11.0269C35.0669 10.8309 35.0669 10.5052 35.263 10.3091L36.9251 8.64709C37.1212 8.451 37.4468 8.451 37.6429 8.64709L38.5285 9.53269C38.7848 9.789 39.1877 9.80938 39.4673 9.59395C39.9546 9.28715 40.4707 9.01955 41.0111 8.79569C41.564 8.56663 42.1386 8.38443 42.7301 8.25374C43.0618 8.18055 43.2878 7.88634 43.2875 7.55995H43.2902V6.30799C43.2902 6.03014 43.52 5.80044 43.7977 5.80044H46.1481L46.1482 5.80057ZM43.7978 4.37406H46.1482C47.2133 4.37406 48.0823 5.24291 48.0823 6.30812V7.00451C49.0373 7.2651 49.9466 7.64301 50.8017 8.13162C51.3642 7.56917 51.76 7.07368 52.6621 7.07368C53.1571 7.07368 53.6528 7.26198 54.0294 7.63873L55.6915 9.30078C56.4448 10.0541 56.4448 11.2823 55.6915 12.0357L55.1986 12.5286C55.6872 13.3837 56.0651 14.2932 56.3257 15.2482C57.1208 15.2482 57.7505 15.1779 58.3885 15.8157C58.7386 16.1659 58.956 16.6495 58.956 17.1821V19.5325C58.956 20.5976 58.0872 21.4666 57.0219 21.4666H56.3256C56.0648 22.4219 55.6872 23.3308 55.1985 24.1861C55.7608 24.7484 56.2564 25.1443 56.2564 26.0464C56.2564 26.5415 56.0681 27.0373 55.6913 27.4139L54.0294 29.0758C53.2761 29.8292 52.0479 29.8292 51.2945 29.0758L50.8016 28.5829C50.3755 28.8264 49.9334 29.0438 49.4775 29.2328L49.4779 29.2339C49.0289 29.42 48.5628 29.5795 48.082 29.7103C48.082 30.5053 48.1523 31.135 47.5145 31.773C47.1642 32.1231 46.6805 32.3405 46.1481 32.3405H43.7977C42.7326 32.3405 41.8637 31.4716 41.8637 30.4064V29.7103C40.9061 29.4496 40.0023 29.0732 39.1441 28.5829C38.5817 29.1452 38.1859 29.6409 37.2838 29.6409C36.7888 29.6409 36.2931 29.4524 35.9163 29.0758L34.2544 27.4138C33.501 26.6604 33.501 25.4322 34.2544 24.6788L34.747 24.1862C34.2556 23.3276 33.881 22.4224 33.6202 21.4665C32.825 21.4665 32.1954 21.5369 31.5574 20.8989C31.2072 20.5488 30.9899 20.065 30.9899 19.5325V17.1821C30.9899 16.1172 31.8587 15.2482 32.9238 15.2482H33.6202C33.8808 14.2933 34.2588 13.3837 34.7473 12.5286C34.1848 11.9661 33.6895 11.5703 33.6895 10.6682C33.6895 10.1733 33.8778 9.67752 34.2544 9.30091L35.9164 7.63886C36.6698 6.8855 37.898 6.8855 38.6512 7.63886L39.1441 8.13175C39.9994 7.64301 40.9085 7.26536 41.8636 7.00464C41.8636 6.20962 41.7933 5.57969 42.4311 4.94183C42.7813 4.59169 43.2651 4.37432 43.7975 4.37432L43.7978 4.37406ZM49.2618 14.0684C46.8934 11.7 43.0526 11.7 40.6842 14.0684C38.3158 16.437 38.3158 20.2774 40.6842 22.646C43.0526 25.0144 46.8932 25.0144 49.2618 22.646C51.6302 20.2776 51.6302 16.437 49.2618 14.0684ZM44.9731 10.8655C40.8356 10.8655 37.4814 14.2198 37.4814 18.3571C37.4814 22.4944 40.8358 25.8488 44.9731 25.8488C49.1104 25.8488 52.4647 22.4944 52.4647 18.3571C52.4647 14.2198 49.1105 10.8655 44.9731 10.8655ZM31.1103 11.5738C31.4672 11.4091 31.8901 11.5651 32.0548 11.922C32.2195 12.2789 32.0635 12.7018 31.7066 12.8665L28.7923 14.2101C28.4355 14.3748 28.0125 14.2188 27.8478 13.8619L26.5042 10.9477C26.3396 10.5908 26.4956 10.1678 26.8524 10.0031C27.2093 9.83845 27.6323 9.99444 27.797 10.3513L28.4016 11.6629C31.1076 4.9709 37.6255 0.486328 44.9731 0.486328C54.8426 0.486328 62.8437 8.48747 62.8437 18.357C62.8437 29.0338 53.5491 37.3225 42.9256 36.1106C42.5348 36.066 42.2541 35.713 42.2988 35.3222C42.3434 34.9315 42.6964 34.6508 43.0871 34.6954C52.8525 35.8095 61.4172 28.191 61.4172 18.357C61.4172 9.27496 54.0551 1.91284 44.9731 1.91284C38.186 1.91284 32.1917 6.05207 29.7096 12.2196L31.1103 11.5738ZM46.2447 41.1554C46.5356 41.4201 46.5567 41.8704 46.2921 42.1612C46.0275 42.452 45.5772 42.4732 45.2863 42.2086L44.1642 41.1874C43.5001 52.6763 33.9703 61.7318 22.3781 61.7318C10.3256 61.7318 0.554688 51.9609 0.554688 39.9086C0.554688 26.7398 12.1326 16.5571 25.2379 18.2734C26.1995 18.3993 27.1341 18.5854 28.0378 18.8274C28.4178 18.9289 28.6436 19.3194 28.5421 19.6994C28.4406 20.0794 28.0501 20.3052 27.6702 20.2037C20.5641 18.3029 13.0714 20.3696 7.95522 25.4857C-0.0101016 33.451 -0.0101016 46.366 7.95522 54.3313C15.9205 62.2966 28.8356 62.2966 36.8009 54.3313C40.183 50.9492 42.3826 46.3846 42.727 41.3108L41.7588 42.3748C41.4941 42.6657 41.0438 42.6868 40.753 42.4222C40.4621 42.1576 40.441 41.7073 40.7056 41.4164L42.8655 39.0431C43.1301 38.7522 43.5804 38.7311 43.8713 38.9957L46.2446 41.1556L46.2447 41.1554Z" fill="url(#paint0_linear_1512_6249)"/>
<defs>
<linearGradient id="paint0_linear_1512_6249" x1="0.554688" y1="31.0954" x2="62.8438" y2="31.0954" gradientUnits="userSpaceOnUse">
<stop stop-color="#00C0FF"/>
<stop offset="1" stop-color="#5558FF"/>
</linearGradient>
</defs>
</svg>
