<svg width="64" height="63" viewBox="0 0 64 63" fill="none" xmlns="http://www.w3.org/2000/svg">
<path d="M41.0861 24.7953C42.7842 24.7953 44.1656 23.4127 44.1656 21.7134C44.1656 20.0141 42.7842 18.6339 41.0861 18.6339C39.3881 18.6339 38.0067 20.0153 38.0067 21.7134C38.0067 23.4114 39.3881 24.7953 41.0861 24.7953ZM41.0861 20.6511C41.6715 20.6511 42.1484 21.128 42.1484 21.7134C42.1484 22.2987 41.6715 22.7794 41.0861 22.7794C40.5008 22.7794 40.0239 22.3012 40.0239 21.7134C40.0239 21.1255 40.5008 20.6511 41.0861 20.6511ZM19.6978 21.7134C19.6978 21.1558 20.1495 20.7054 20.7058 20.7054H34.8629C35.4205 20.7054 35.8709 21.157 35.8709 21.7134C35.8709 22.2697 35.4193 22.7213 34.8629 22.7213H20.7058C20.1482 22.7213 19.6978 22.2697 19.6978 21.7134ZM41.0861 28.2936C39.3881 28.2936 38.0067 29.675 38.0067 31.373C38.0067 33.0711 39.3881 34.4525 41.0861 34.4525C42.7842 34.4525 44.1656 33.0711 44.1656 31.373C44.1656 29.675 42.7842 28.2936 41.0861 28.2936ZM41.0861 32.4353C40.5008 32.4353 40.0239 31.9584 40.0239 31.373C40.0239 30.7877 40.5008 30.3108 41.0861 30.3108C41.6715 30.3108 42.1484 30.7877 42.1484 31.373C42.1484 31.9584 41.6715 32.4353 41.0861 32.4353ZM35.8722 31.373C35.8722 31.9307 35.4205 32.381 34.8642 32.381H20.7071C20.1495 32.381 19.6991 31.9294 19.6991 31.373C19.6991 30.8167 20.1507 30.3651 20.7071 30.3651H34.8642C35.4218 30.3651 35.8722 30.8167 35.8722 31.373ZM41.0861 44.1109C42.7842 44.1109 44.1656 42.7295 44.1656 41.0315C44.1656 39.3334 42.7842 37.9495 41.0861 37.9495C39.3881 37.9495 38.0067 39.3322 38.0067 41.0315C38.0067 42.7308 39.3881 44.1109 41.0861 44.1109ZM41.0861 39.9667C41.6715 39.9667 42.1484 40.4448 42.1484 41.0327C42.1484 41.6206 41.6715 42.095 41.0861 42.095C40.5008 42.095 40.0239 41.6181 40.0239 41.0327C40.0239 40.4474 40.5008 39.9667 41.0861 39.9667ZM34.8642 42.0407H20.7071C20.1495 42.0407 19.6991 41.5891 19.6991 41.0327C19.6991 40.4764 20.1507 40.0248 20.7071 40.0248H34.8642C35.4218 40.0248 35.8722 40.4764 35.8722 41.0327C35.8722 41.5891 35.4205 42.0407 34.8642 42.0407ZM54.2857 47.4515C53.3711 47.4515 45.3489 47.5398 45.3489 50.6016V54.0494H32.9403V46.8687H48.0095C48.5671 46.8687 49.0175 46.417 49.0175 45.8607V41.9385H53.202C58.7251 41.9385 63.2188 37.4449 63.2188 31.9218C63.2188 26.3988 58.7251 21.9089 53.202 21.9089H52.8879C53.144 20.8341 53.2727 19.7315 53.2727 18.615C53.2727 10.8022 46.917 4.44654 39.1042 4.44654C36.8335 4.44654 34.6056 4.98901 32.6047 6.02474C30.1485 2.33849 25.993 0.0878906 21.5321 0.0878906C14.2013 0.0878906 8.23666 6.0525 8.23666 13.3834C8.23666 14.5907 8.39813 15.7816 8.71857 16.9371C6.54492 17.8379 4.61096 19.3404 3.20055 21.2428C1.53152 23.4934 0.648438 26.1603 0.648438 28.9534C0.648438 36.1127 6.47301 41.9385 13.6336 41.9385H14.8459V45.8607C14.8459 46.4183 15.2975 46.8687 15.8539 46.8687H30.9231V54.0494H18.5145V50.6016C18.5145 47.5398 10.4961 47.4515 9.58147 47.4515C8.66684 47.4515 0.648438 47.5398 0.648438 50.6016V59.5094C0.648438 62.5712 8.66684 62.6595 9.58147 62.6595C10.4961 62.6595 18.5145 62.5712 18.5145 59.5094V56.0653H45.3489V59.5094C45.3489 62.5712 53.3711 62.6595 54.2857 62.6595C55.2003 62.6595 63.2188 62.5712 63.2188 59.5094V50.6016C63.2188 47.5398 55.2003 47.4515 54.2857 47.4515ZM16.8619 27.5531H47.0003V35.1918H16.8619V27.5531ZM47.0003 25.5359H16.8619V17.8934H47.0003V25.5359ZM13.6323 39.9188C7.58443 39.9188 2.66439 34.9987 2.66439 28.9509C2.66439 24.181 5.72491 19.9825 10.2816 18.5065C10.5415 18.422 10.756 18.2365 10.8758 17.9918C10.9957 17.7471 11.0121 17.4632 10.9187 17.2059C10.4772 15.9771 10.2526 14.6903 10.2526 13.3808C10.2526 7.1614 15.3127 2.10258 21.5309 2.10258C25.6019 2.10258 29.3727 4.31282 31.3722 7.87165C31.5059 8.11008 31.7317 8.28418 31.9967 8.35356C32.2616 8.42295 32.5429 8.38132 32.7763 8.2375C34.6775 7.07561 36.865 6.46124 39.1017 6.46124C45.8018 6.46124 51.253 11.9124 51.253 18.6125C51.253 19.9712 51.0297 21.3084 50.5894 22.5864C50.4834 22.8942 50.5326 23.2348 50.7218 23.501C50.9111 23.7659 51.2164 23.9236 51.5431 23.9236H53.1983C57.6086 23.9236 61.1978 27.5102 61.1978 31.9193C61.1978 36.3284 57.6086 39.9188 53.1983 39.9188H49.0137V16.8854C49.0137 16.3278 48.5621 15.8774 48.0057 15.8774H15.8501C15.2925 15.8774 14.8421 16.3291 14.8421 16.8854V39.9188H13.6298H13.6323ZM16.8619 37.2077H47.0003V44.8502H16.8619V37.2077ZM61.2015 54.9274C60.7449 55.3816 58.334 56.1852 54.2857 56.1852C50.2374 56.1852 47.8241 55.3816 47.3661 54.9274V52.7374C49.8072 53.7063 53.6676 53.7466 54.2857 53.7466C54.9039 53.7466 58.7617 53.7063 61.2015 52.7374V54.9274ZM54.2857 49.4662C57.9808 49.4662 60.3109 50.1361 61.0363 50.5991C60.3096 51.062 57.9783 51.7307 54.2857 51.7307C50.5932 51.7307 48.2593 51.062 47.5314 50.5991C48.258 50.1361 50.5894 49.4662 54.2857 49.4662ZM2.66565 52.7374C5.10549 53.7063 8.96457 53.7466 9.58147 53.7466C10.1984 53.7466 14.0574 53.7063 16.4973 52.7374V54.9274C16.0406 55.3816 13.6298 56.1852 9.58147 56.1852C5.53316 56.1852 3.12234 55.3816 2.66565 54.9274V52.7374ZM9.58147 49.4662C13.2765 49.4662 15.6066 50.1361 16.332 50.5991C15.6054 51.062 13.274 51.7307 9.58147 51.7307C5.88891 51.7307 3.55757 51.062 2.83092 50.5991C3.55631 50.1361 5.88639 49.4662 9.58147 49.4662ZM9.58147 60.641C5.52937 60.641 3.11981 59.8361 2.66565 59.3807V57.1919C5.10549 58.1608 8.96457 58.2012 9.58147 58.2012C10.1984 58.2012 14.0574 58.1608 16.4973 57.1919V59.3807C16.0431 59.8361 13.6323 60.641 9.58147 60.641ZM54.2857 60.641C50.2324 60.641 47.8215 59.8361 47.3661 59.3807V57.1919C49.8072 58.1608 53.6676 58.2012 54.2857 58.2012C54.9039 58.2012 58.7617 58.1608 61.2015 57.1919V59.3807C60.7474 59.8361 58.3366 60.641 54.2857 60.641Z" fill="url(#paint0_linear_1512_6251)"/>
<defs>
<linearGradient id="paint0_linear_1512_6251" x1="0.648438" y1="31.3597" x2="63.2188" y2="31.3597" gradientUnits="userSpaceOnUse">
<stop stop-color="#00C0FF"/>
<stop offset="1" stop-color="#5558FF"/>
</linearGradient>
</defs>
</svg>
