<svg width="62" height="62" viewBox="0 0 62 62" fill="none" xmlns="http://www.w3.org/2000/svg">
<path d="M18.1598 47.9648V48.9576C18.1598 49.5057 18.6046 49.9504 19.1526 49.9504H21.1382C22.7803 49.9504 24.1167 51.2868 24.1167 52.9289V55.9074H21.1382V57.893H19.1526V55.9074C17.5105 55.9074 16.1741 54.571 16.1741 52.9289H18.1598C18.1598 53.4769 18.6046 53.9217 19.1526 53.9217H22.131V52.9289C22.131 52.3809 21.6863 51.9361 21.1382 51.9361H19.1526C17.5105 51.9361 16.1741 50.5998 16.1741 48.9576V45.9792H19.1526V43.9935H21.1382V45.9792C22.7803 45.9792 24.1167 47.3155 24.1167 48.9576H22.131C22.131 48.4096 21.6863 47.9648 21.1382 47.9648H18.1598ZM25.1095 28.1085H23.1239V30.0941H25.1095V28.1085ZM21.1382 28.1085H19.1526V30.0941H21.1382V28.1085ZM15.1813 30.0941H17.167V28.1085H15.1813V30.0941ZM61.8438 35.0582V47.9648C61.8438 49.46 61.3503 50.9403 60.4538 52.1346L58.8653 54.2523V55.9074H60.8509V61.8643H39.0089V55.9074H40.9946V54.1501L37.7143 47.4059C37.2864 46.6642 36.9965 45.7935 36.8833 44.8771L36.4078 41.0796L31.5142 45.7905L28.5139 43.9697L29.1393 44.8732C30.4002 46.692 31.0664 48.8236 31.0664 51.0376C31.0664 57.0064 26.2085 61.8643 20.2397 61.8643H20.0521C14.0823 61.8643 9.22442 57.0064 9.22442 51.0376C9.22442 48.8246 9.8906 46.692 11.1495 44.8742L11.775 43.9707L8.76177 45.7995L3.44722 40.4849L5.39612 37.2751C4.7756 36.1592 4.28714 34.9788 3.93469 33.7516L0.289062 32.8591V25.3435L3.93568 24.4509C4.28714 23.2248 4.7766 22.0433 5.39711 20.9284L3.44821 17.7176L8.76276 12.4031L11.9725 14.351C13.0885 13.7315 14.2679 13.242 15.496 12.8915L16.3876 9.24493H23.9032L24.7948 12.8925C26.0219 13.244 27.2024 13.7335 28.3183 14.352L31.5281 12.4041L36.8426 17.7186L34.8937 20.9294C35.5142 22.0453 36.0027 23.2258 36.3551 24.4519L40.0018 25.3435V33.0696C41.4245 33.984 42.4868 35.4345 42.8363 37.1818L43.6692 41.3457C43.8678 40.9406 43.973 40.4879 43.973 40.0362V21.7346C39.3257 20.4181 36.0305 16.1281 36.0305 11.2306C36.0305 5.20912 40.93 0.30957 46.9515 0.30957C52.9729 0.30957 57.8725 5.20912 57.8725 11.2306C57.8725 16.1261 54.5763 20.4181 49.9299 21.7336V30.2768C50.2417 30.1656 50.5733 30.0941 50.9228 30.0941C51.6882 30.0941 52.3802 30.3929 52.9084 30.8685C53.4366 30.3919 54.1286 30.0941 54.894 30.0941C56.2671 30.0941 57.4148 31.0323 57.7573 32.2982C58.1008 32.1602 58.4731 32.0797 58.8653 32.0797C60.5074 32.0797 61.8438 33.4161 61.8438 35.0582ZM44.0237 19.6665C44.2063 18.5963 44.9579 17.7276 45.9587 17.3711V16.1947C44.3165 16.1947 42.9802 14.8583 42.9802 13.2162H44.9659C44.9659 13.7632 45.4106 14.209 45.9587 14.209H48.9371V13.2162C48.9371 12.6692 48.4923 12.2234 47.9443 12.2234H45.9587C44.3165 12.2234 42.9802 10.887 42.9802 9.24493V6.26648H45.9587V4.28084H47.9443V6.26648C49.5864 6.26648 50.9228 7.60281 50.9228 9.24493H48.9371C48.9371 8.69789 48.4923 8.25211 47.9443 8.25211H44.9659V9.24493C44.9659 9.79197 45.4106 10.2377 45.9587 10.2377H47.9443C49.5864 10.2377 50.9228 11.5741 50.9228 13.2162V16.1947H47.9443V17.3701C48.9451 17.7266 49.6976 18.5963 49.8793 19.6665C53.4187 18.4364 55.8868 15.0609 55.8868 11.2306C55.8868 6.3042 51.8788 2.29521 46.9515 2.29521C42.0241 2.29521 38.0161 6.3042 38.0161 11.2306C38.0161 15.0628 40.4833 18.4364 44.0237 19.6665ZM29.0808 51.0376C29.0808 49.2297 28.5367 47.4902 27.5081 46.005L20.887 36.4402C20.5495 35.9537 19.7413 35.9537 19.4038 36.4402L12.7827 46.005C11.7541 47.4893 11.2101 49.2287 11.2101 51.0376C11.2101 55.9123 15.1764 59.8786 20.0511 59.8786H20.2387C25.1145 59.8786 29.0808 55.9123 29.0808 51.0376ZM24.9933 38.8825C28.7065 37.0478 31.0664 33.289 31.0664 29.1013C31.0664 23.0798 26.1669 18.1803 20.1454 18.1803C14.124 18.1803 9.22442 23.0798 9.22442 29.1013C9.22442 33.289 11.5843 37.0478 15.2975 38.8825L16.4452 37.2235C13.3079 35.7919 11.2101 32.6228 11.2101 29.1013C11.2101 24.1749 15.2181 20.1659 20.1454 20.1659C25.0728 20.1659 29.0808 24.1749 29.0808 29.1013C29.0808 32.6228 26.9829 35.7919 23.8456 37.2235L24.9933 38.8825ZM20.1454 34.0654C21.0926 34.0654 21.9801 34.531 22.5202 35.3094L22.6811 35.5417C25.3051 34.5072 27.0951 31.9626 27.0951 29.1013C27.0951 25.269 23.9767 22.1516 20.1454 22.1516C16.3141 22.1516 13.1957 25.269 13.1957 29.1013C13.1957 31.9626 14.9857 34.5072 17.6108 35.5407L17.7716 35.3084C18.3107 34.531 19.1983 34.0654 20.1454 34.0654ZM36.0404 38.678C35.9153 38.2561 35.7336 37.85 35.4894 37.4836L34.4678 35.9507C34.1908 35.5357 34.0449 35.0532 34.0449 34.5548C34.0449 33.1679 35.1747 32.038 36.5616 32.038C37.062 32.038 37.5445 32.1165 38.0161 32.2277V26.9022L34.7279 26.098L34.583 25.5152C34.2265 24.0756 33.6557 22.7006 32.8892 21.4298L32.5795 20.9155L34.3377 18.0204L31.2262 14.9099L28.3312 16.6672L27.8169 16.3565C26.5471 15.59 25.172 15.0201 23.7315 14.6637L23.1477 14.5188L22.3445 11.2306H17.9463L17.1421 14.5188L16.5584 14.6637C15.1178 15.0201 13.7427 15.59 12.4729 16.3565L11.9586 16.6672L9.06358 14.9099L5.95209 18.0204L7.71037 20.9155L7.40061 21.4298C6.63416 22.7006 6.06329 24.0756 5.70687 25.5152L5.56192 26.098L2.2747 26.9022V31.3004L5.56291 32.1046L5.70786 32.6883C6.06428 34.1279 6.63515 35.503 7.40161 36.7738L7.71137 37.289L5.95309 40.1831L9.06458 43.2946L11.9596 41.5363L12.4749 41.8471C12.6477 41.9513 12.8323 42.0546 13.0299 42.1598L14.1607 40.5256C9.92039 38.3116 7.23879 33.9532 7.23879 29.1013C7.23879 21.9848 13.0289 16.1947 20.1454 16.1947C27.2619 16.1947 33.052 21.9848 33.052 29.1013C33.052 33.9532 30.3704 38.3116 26.1311 40.5256L27.2619 42.1598C27.4585 42.0546 27.6442 41.9513 27.8169 41.8471L28.3322 41.5363L31.2411 43.3015L36.0404 38.678ZM58.8653 57.893H40.9946V59.8786H58.8653V57.893ZM59.8581 35.0582C59.8581 34.5101 59.4133 34.0654 58.8653 34.0654C58.3173 34.0654 57.8725 34.5101 57.8725 35.0582V37.0438H55.8868V35.0582V33.0725C55.8868 32.5245 55.4421 32.0797 54.894 32.0797C54.346 32.0797 53.9012 32.5245 53.9012 33.0725V37.0438H51.9156V33.0725C51.9156 32.5245 51.4708 32.0797 50.9228 32.0797C50.3747 32.0797 49.9299 32.5245 49.9299 33.0725V37.0438H47.9443V33.0725V20.1659C47.9443 19.6189 47.4995 19.1731 46.9515 19.1731C46.4035 19.1731 45.9587 19.6189 45.9587 20.1659V40.0362C45.9587 40.8016 45.777 41.5701 45.4355 42.2551L44.5876 43.9518H42.1671L40.8903 37.571C40.4783 35.5159 38.6585 34.0237 36.5626 34.0237C36.2698 34.0237 36.0315 34.261 36.0315 34.5538C36.0315 34.6591 36.0623 34.7623 36.1208 34.8497L37.1424 36.3826C37.6915 37.2047 38.0449 38.1578 38.167 39.1377L38.8541 44.6319C38.9355 45.2862 39.142 45.9067 39.4696 46.4776L42.9802 53.6934V55.9074H56.8797V53.5911L58.8653 50.9433C59.5057 50.0904 59.8581 49.0321 59.8581 47.9648V35.0582Z" fill="url(#paint0_linear_1512_6247)"/>
<defs>
<linearGradient id="paint0_linear_1512_6247" x1="0.289063" y1="31.0732" x2="61.8438" y2="31.0732" gradientUnits="userSpaceOnUse">
<stop stop-color="#00C0FF"/>
<stop offset="1" stop-color="#5558FF"/>
</linearGradient>
</defs>
</svg>
