<svg width="49" height="43" viewBox="0 0 49 43" fill="none" xmlns="http://www.w3.org/2000/svg">
<path d="M41.2755 30.7376H39.6101C39.174 30.7376 38.8171 30.3807 38.8171 29.9445C38.8171 29.5083 39.174 29.1515 39.6101 29.1515H41.2755C44.4556 29.1515 47.0409 26.5662 47.0409 23.3861C47.0409 20.8325 45.4072 18.612 42.9726 17.8666C42.5761 17.7397 42.3382 17.3353 42.4333 16.9229C42.5206 16.566 42.5602 16.1695 42.5602 15.7175C42.5602 12.5691 40.0066 9.97589 36.8742 9.93624C36.5807 9.92831 36.319 9.7697 36.1842 9.508C33.8606 5.05115 29.2927 2.27552 24.2649 2.27552C17.8255 2.27552 12.2742 6.85927 11.0609 13.1798C10.9816 13.5921 10.6009 13.8697 10.1806 13.8142C10.0934 13.8063 9.9982 13.8063 9.91097 13.8063C5.68409 13.8063 2.24232 17.248 2.24232 21.4828C2.24232 25.7097 5.68409 29.1515 9.91097 29.1515H10.7357C11.1719 29.1515 11.5288 29.5083 11.5288 29.9445C11.5288 30.3807 11.1719 30.7376 10.7357 30.7376H9.91097C4.80382 30.7376 0.65625 26.582 0.65625 21.4828C0.65625 16.4629 4.66901 12.3629 9.64927 12.2202C11.2512 5.49524 17.2941 0.689453 24.2649 0.689453C29.7289 0.689453 34.7092 3.62368 37.3658 8.37396C41.1407 8.66739 44.1463 11.8712 44.1463 15.7175C44.1463 16.0188 44.1304 16.3122 44.0987 16.5819C46.8347 17.7159 48.619 20.3647 48.619 23.3861C48.6349 27.4385 45.3358 30.7376 41.2755 30.7376Z" fill="#625B71"/>
<path d="M37.0513 42.8314H13.3078C11.4521 42.8314 9.94531 41.3246 9.94531 39.4689V22.4504C9.94531 20.5947 11.4521 19.0879 13.3078 19.0879H37.0513C38.907 19.0879 40.4137 20.5947 40.4137 22.4504V39.4689C40.4137 41.3246 38.907 42.8314 37.0513 42.8314ZM13.3078 20.674C12.3323 20.674 11.5314 21.467 11.5314 22.4504V39.4689C11.5314 40.4443 12.3244 41.2453 13.3078 41.2453H37.0513C38.0267 41.2453 38.8277 40.4523 38.8277 39.4689V22.4504C38.8277 21.4749 38.0346 20.674 37.0513 20.674H13.3078Z" fill="#625B71"/>
<path d="M39.6207 25.8517H10.7383C10.3022 25.8517 9.94531 25.4948 9.94531 25.0587C9.94531 24.6225 10.3022 24.2656 10.7383 24.2656H39.6128C40.0489 24.2656 40.4058 24.6225 40.4058 25.0587C40.4058 25.4948 40.0569 25.8517 39.6207 25.8517Z" fill="#625B71"/>
<path d="M33.0135 23.2833H32.3712C31.935 23.2833 31.5781 22.9265 31.5781 22.4903C31.5781 22.0541 31.935 21.6973 32.3712 21.6973H33.0135C33.4497 21.6973 33.8066 22.0541 33.8066 22.4903C33.8066 22.9265 33.4497 23.2833 33.0135 23.2833Z" fill="#625B71"/>
<path d="M36.0213 23.2833H35.379C34.9428 23.2833 34.5859 22.9265 34.5859 22.4903C34.5859 22.0541 34.9428 21.6973 35.379 21.6973H36.0213C36.4575 21.6973 36.8144 22.0541 36.8144 22.4903C36.8144 22.9265 36.4575 23.2833 36.0213 23.2833Z" fill="#625B71"/>
<path d="M20.1636 37.4553C19.997 37.4553 19.8226 37.3998 19.6798 37.2888L15.8019 34.2832C15.6115 34.1325 15.5005 33.9104 15.4926 33.6725C15.4847 33.4346 15.5957 33.2046 15.7781 33.046L19.656 29.8105C19.9891 29.5329 20.4966 29.5725 20.7742 29.9135C21.0518 30.2466 21.0121 30.7462 20.6711 31.0317L17.5545 33.6329L20.6473 36.0279C20.9962 36.2975 21.0597 36.7971 20.7901 37.1381C20.6315 37.3522 20.3935 37.4553 20.1636 37.4553Z" fill="#625B71"/>
<path d="M22.4239 39.6503C22.3287 39.6503 22.2336 39.6344 22.1384 39.5947C21.734 39.4361 21.5278 38.9762 21.6864 38.5717L25.8181 27.9451C25.9767 27.5406 26.4367 27.3344 26.8411 27.493C27.2456 27.6516 27.4517 28.1116 27.2931 28.516L23.1614 39.1427C23.0425 39.452 22.7411 39.6503 22.4239 39.6503Z" fill="#625B71"/>
<path d="M28.8169 37.4546C28.579 37.4546 28.3491 37.3515 28.1904 37.1453C27.9208 36.7963 27.9843 36.3047 28.3332 36.035L31.426 33.6401L28.3094 31.0389C27.9763 30.7613 27.9287 30.2617 28.2063 29.9207C28.4839 29.5877 28.9835 29.5401 29.3245 29.8176L33.1945 33.0532C33.3769 33.2039 33.48 33.4339 33.48 33.6797C33.4721 33.9176 33.361 34.1476 33.1707 34.2904L29.3007 37.296C29.1579 37.3991 28.9835 37.4546 28.8169 37.4546Z" fill="#625B71"/>
</svg>
