<svg width="73" height="66" viewBox="0 0 73 66" fill="none" xmlns="http://www.w3.org/2000/svg">
<path d="M51.6105 8.7918C45.9826 8.8067 41.4161 13.397 41.431 19.0249C41.4459 24.6439 46.0213 29.2044 51.6373 29.2044H51.6642C54.3909 29.1969 56.9507 28.128 58.8724 26.1959C60.7955 24.2637 61.8496 21.698 61.8421 18.9712C61.8347 16.2445 60.7657 13.6847 58.8336 11.763C56.9074 9.84731 54.3521 8.79329 51.6373 8.79329C51.6284 8.79179 51.6194 8.7918 51.6105 8.7918ZM60.0546 18.9742C60.0606 21.2224 59.1914 23.3379 57.6051 24.9331C56.0189 26.5268 53.9079 27.4079 51.6597 27.4139C51.6522 27.4139 51.6448 27.4139 51.6373 27.4139C47.0068 27.4139 43.2334 23.6525 43.22 19.019C43.2081 14.378 46.974 10.5912 51.6149 10.5793H51.6373C53.8766 10.5793 55.9846 11.4485 57.5723 13.0288C59.1675 14.615 60.0486 16.726 60.0546 18.9742ZM72.0484 45.2547L63.5402 32.9195C63.8786 32.6467 63.9785 32.1622 63.7534 31.7746L61.8794 28.5499C64.2245 26.0363 65.6587 22.6626 65.6497 18.9608C65.6393 15.2173 64.1723 11.7034 61.5186 9.06313C60.0024 7.5544 58.2015 6.43627 56.238 5.75645V3.45012C56.238 1.81616 54.9082 0.486328 53.2743 0.486328H8.57441C6.94045 0.486328 5.61062 1.81616 5.61062 3.45012V11.0295H4.44479C2.48582 11.0295 0.890625 12.6233 0.890625 14.5837V51.5699C0.890625 53.5289 2.48433 55.1241 4.44479 55.1241H21.9398L20.285 58.9228H15.1922C14.6988 58.9228 14.2977 59.3238 14.2977 59.8173V64.4583C14.2977 64.9517 14.6988 65.3528 15.1922 65.3528H46.6579C47.1514 65.3528 47.5524 64.9517 47.5524 64.4583V59.8173C47.5524 59.3238 47.1514 58.9228 46.6579 58.9228H41.5652L39.9104 55.1241H57.4054C59.3643 55.1241 60.9595 53.5304 60.9595 51.5699V42.8202L64.3422 49.7481C64.8268 50.7559 65.7079 51.4984 66.823 51.8398C67.2613 51.974 67.713 52.0396 68.1648 52.0396C68.9713 52.0396 69.7734 51.8279 70.48 51.4149C71.5818 50.7709 72.3719 49.6855 72.6477 48.4377C72.8982 47.3002 72.685 46.1671 72.0484 45.2547ZM57.8318 34.1793L56.6197 32.0936C58.0539 31.5465 59.3763 30.7698 60.5421 29.8082L61.7571 31.8983L57.8318 34.1793ZM63.8607 18.9653C63.8786 25.7054 58.4102 31.2021 51.6701 31.2215C51.6582 31.2215 51.6478 31.2215 51.6373 31.2215C44.9121 31.2215 39.4333 25.759 39.4154 19.0309C39.4065 15.7659 40.6707 12.6933 42.9726 10.378C45.2744 8.06278 48.3411 6.78363 51.606 6.77469H51.6403C54.8918 6.77469 57.9525 8.03743 60.2588 10.3318C62.5726 12.6337 63.8518 15.7003 63.8607 18.9653ZM7.39963 3.45012C7.39963 2.8016 7.92739 2.27534 8.57441 2.27534H53.2743C53.9228 2.27534 54.449 2.80309 54.449 3.45012V5.26596C53.5337 5.0811 52.5929 4.98419 51.6373 4.98419C51.6239 4.98419 51.612 4.98419 51.5986 4.98419C47.8551 4.99463 44.3411 6.46161 41.7009 9.11531C39.0621 11.769 37.613 15.2919 37.6234 19.0339C37.6443 26.7475 43.9252 33.009 51.6343 33.009H51.6716C52.6213 33.006 53.5501 32.9091 54.4475 32.7242V40.095C54.4475 40.7435 53.9198 41.2697 53.2728 41.2697H8.57441C7.9259 41.2697 7.39963 40.742 7.39963 40.095V3.45012ZM45.7634 63.5637H16.0868V60.7118H45.7634V63.5637ZM39.6137 58.9243H22.235L23.8898 55.1256H37.9589L39.6137 58.9243ZM57.4054 53.3351H4.44479C3.47127 53.3351 2.67963 52.5435 2.67963 51.5699V47.5357H59.169V51.5699C59.169 52.5435 58.3774 53.3351 57.4054 53.3351ZM59.169 45.7467H2.67963V14.5837C2.67963 13.6102 3.47127 12.8186 4.44479 12.8186H5.61062V40.095C5.61062 41.7289 6.94045 43.0587 8.57441 43.0587H53.2743C54.9082 43.0587 56.238 41.7289 56.238 40.095V34.9978L56.733 35.8505C56.8523 36.0563 57.0476 36.2054 57.2772 36.2665C57.3532 36.2859 57.4292 36.2963 57.5067 36.2963C57.5902 36.2963 57.6737 36.2844 57.7542 36.2605L59.169 39.1572V45.7467ZM70.9005 48.0545C70.735 48.8044 70.2415 49.4843 69.5781 49.8704C68.9161 50.258 68.0813 50.3534 67.3463 50.1283C66.7142 49.9345 66.2192 49.5245 65.9524 48.9669L59.3181 35.3824L61.9957 33.8275L70.5784 46.2715C70.9273 46.7754 71.0421 47.409 70.9005 48.0545ZM30.9251 47.8995C29.5267 47.8995 28.3892 49.037 28.3892 50.4354C28.3892 51.8338 29.5267 52.9713 30.9251 52.9713C32.3235 52.9713 33.461 51.8338 33.461 50.4354C33.461 49.037 32.3235 47.8995 30.9251 47.8995ZM30.9251 51.1823C30.5136 51.1823 30.1782 50.8469 30.1782 50.4354C30.1782 50.0239 30.5136 49.6885 30.9251 49.6885C31.3366 49.6885 31.672 50.0239 31.672 50.4354C31.672 50.8469 31.3366 51.1823 30.9251 51.1823ZM14.7122 27.3691H17.3346V32.0504H15.9884C15.6022 30.9099 14.5244 30.0855 13.2542 30.0855C11.6619 30.0855 10.3664 31.381 10.3664 32.9732C10.3664 34.5654 11.6619 35.861 13.2542 35.861C14.5452 35.861 15.6395 35.0097 16.0092 33.8394H18.2291C18.7226 33.8394 19.1236 33.4384 19.1236 32.9449V27.3691H22.1917V30.2286C21.0363 30.6058 20.1985 31.6926 20.1985 32.9732C20.1985 34.5654 21.494 35.861 23.0862 35.861C24.6785 35.861 25.974 34.5654 25.974 32.9732C25.974 31.6941 25.1362 30.6073 23.9807 30.2286V27.3691H27.0489V32.9449C27.0489 33.4384 27.4499 33.8394 27.9434 33.8394H30.1633C30.5315 35.0097 31.6273 35.861 32.9168 35.861C34.5091 35.861 35.8046 34.5654 35.8046 32.9732C35.8046 31.381 34.5091 30.0855 32.9168 30.0855C31.6481 30.0855 30.5688 30.9099 30.1826 32.0504H28.8364V27.3691H31.4588C34.512 27.3691 36.9958 24.8854 36.9958 21.8322C36.9958 19.6362 35.6659 17.6429 33.6861 16.7663C33.6861 16.7588 33.6861 16.7514 33.6861 16.7454C33.6861 11.7496 29.6221 7.68559 24.6263 7.68559C21.1526 7.68559 17.9563 9.72208 16.461 12.8186C16.4103 12.8171 16.3596 12.8156 16.3089 12.8156C14.2128 12.8156 12.5087 14.5211 12.5087 16.6157C12.5087 16.6619 12.5102 16.7082 12.5117 16.7544C10.514 17.6235 9.17522 19.6123 9.17522 21.8322C9.17671 24.8854 11.6604 27.3691 14.7122 27.3691ZM13.2556 34.072C12.6504 34.072 12.1569 33.5785 12.1569 32.9732C12.1569 32.3679 12.6504 31.8745 13.2556 31.8745C13.8609 31.8745 14.3544 32.3679 14.3544 32.9732C14.3544 33.5785 13.8624 34.072 13.2556 34.072ZM23.0877 34.072C22.4825 34.072 21.989 33.5785 21.989 32.9732C21.989 32.3679 22.4825 31.8745 23.0877 31.8745C23.693 31.8745 24.1865 32.3679 24.1865 32.9732C24.185 33.5785 23.693 34.072 23.0877 34.072ZM32.9183 31.8745C33.5236 31.8745 34.0171 32.3679 34.0171 32.9732C34.0171 33.5785 33.5236 34.072 32.9183 34.072C32.3131 34.072 31.8196 33.5785 31.8196 32.9732C31.8196 32.3679 32.3116 31.8745 32.9183 31.8745ZM13.7342 18.2169C14.2068 18.0872 14.4886 17.6027 14.3648 17.1286C14.3216 16.9616 14.2992 16.7901 14.2992 16.6172C14.2992 15.508 15.2012 14.6061 16.3104 14.6061C16.4744 14.6061 16.6384 14.6255 16.7979 14.6657C17.2347 14.7745 17.6849 14.5405 17.8474 14.1201C18.9238 11.3426 21.6491 9.47609 24.6293 9.47609C28.6381 9.47609 31.9001 12.738 31.9001 16.7469C31.9001 16.9348 31.8926 17.1256 31.8777 17.3134C31.8449 17.7339 32.1118 18.12 32.5158 18.2392C34.1021 18.7089 35.2083 20.1863 35.2083 21.8337C35.2083 23.9 33.5266 25.5816 31.4603 25.5816H14.7122C12.6459 25.5816 10.9642 23.9 10.9642 21.8337C10.9657 20.1475 12.1032 18.6612 13.7342 18.2169ZM15.3339 20.0447C16.9977 17.2911 19.9093 15.6482 23.1235 15.6482C26.3378 15.6482 29.2479 17.2926 30.9132 20.0447C31.1681 20.4681 31.0324 21.0167 30.6105 21.2731C30.4659 21.3611 30.3064 21.4028 30.1484 21.4028C29.8457 21.4028 29.5505 21.2493 29.3821 20.9705C28.0448 18.7581 25.7057 17.4372 23.1235 17.4372C20.5414 17.4372 18.2023 18.7581 16.865 20.9705C16.61 21.3939 16.0599 21.5295 15.6365 21.2731C15.2131 21.0182 15.0775 20.4681 15.3339 20.0447ZM28.1804 21.692C28.4354 22.1154 28.2997 22.6641 27.8778 22.9205C27.4544 23.1754 26.9043 23.0397 26.6494 22.6178C25.8965 21.3715 24.5771 20.6261 23.1235 20.6261C21.6685 20.6261 20.3506 21.37 19.5977 22.6178C19.4292 22.8966 19.134 23.0502 18.8314 23.0502C18.6734 23.0502 18.5138 23.0084 18.3692 22.9205C17.9458 22.6655 17.8102 22.1154 18.0666 21.692C19.1474 19.9045 21.0378 18.8371 23.1235 18.8371C25.2092 18.8371 27.0996 19.9045 28.1804 21.692ZM25.4477 23.3394C25.7027 23.7628 25.567 24.3114 25.1451 24.5679C24.7217 24.8228 24.1716 24.6871 23.9166 24.2652C23.7467 23.9834 23.45 23.8165 23.122 23.8165C22.794 23.8165 22.4974 23.9849 22.3274 24.2652C22.1589 24.544 21.8638 24.6976 21.5611 24.6976C21.4031 24.6976 21.2436 24.6558 21.099 24.5679C20.6756 24.3129 20.5399 23.7628 20.7963 23.3394C21.2853 22.5299 22.1768 22.026 23.122 22.026C24.0672 22.026 24.9587 22.5299 25.4477 23.3394Z" fill="url(#paint0_linear_1512_6248)"/>
<defs>
<linearGradient id="paint0_linear_1512_6248" x1="0.890625" y1="32.9051" x2="72.75" y2="32.9051" gradientUnits="userSpaceOnUse">
<stop stop-color="#00C0FF"/>
<stop offset="1" stop-color="#5558FF"/>
</linearGradient>
</defs>
</svg>
