<svg width="59" height="58" viewBox="0 0 59 58" fill="none" xmlns="http://www.w3.org/2000/svg">
<path d="M48.5536 14.9548C47.1598 6.40634 39.8193 0.0878906 31.0849 0.0878906C25.8815 0.0878906 21.0497 2.31793 17.7047 6.2205C16.6826 5.84883 15.4746 5.66299 14.3596 5.66299C9.52787 5.66299 5.34654 9.10097 4.32444 13.8398C4.23152 14.3044 4.6032 14.8619 5.06779 14.9548C5.53238 15.0477 6.08989 14.769 6.18281 14.2115C6.92616 10.3089 10.3641 7.52136 14.3596 7.52136C15.4746 7.52136 16.5897 7.7072 17.6118 8.17179C17.9834 8.35762 18.448 8.26471 18.7268 7.89303C21.7002 4.08338 26.2532 1.94626 31.0849 1.94626C39.1688 1.94626 45.9519 7.98595 46.7881 15.9769C46.8811 16.8132 47.8102 16.8132 47.8102 16.8132C52.4562 16.8132 56.1729 20.5299 56.1729 25.1758C56.1729 28.5209 54.2216 31.4943 51.1553 32.7952C50.6907 32.981 50.5049 33.5385 50.6907 34.0031C50.8765 34.6535 51.8057 34.5606 51.8986 34.4677C55.6154 32.7952 58.0312 29.1713 58.0312 25.0829C58.0312 19.7866 53.8499 15.3265 48.5536 14.9548Z" fill="url(#paint0_linear_1512_6250)"/>
<path d="M7.29783 32.7953C4.23153 31.4944 2.28024 28.521 2.28024 25.176C2.28024 22.4813 3.5811 19.9725 5.81114 18.3929C6.18281 18.1142 6.36865 17.5566 5.99698 17.0921C5.71822 16.7204 5.16071 16.5345 4.69612 16.9062C2.00149 18.7646 0.421875 21.9238 0.421875 25.176C0.421875 29.2644 2.83775 32.8882 6.55449 34.5607C6.6474 34.6536 7.39075 34.8395 7.76242 34.0961C7.94826 33.6315 7.76242 33.074 7.29783 32.7953Z" fill="url(#paint1_linear_1512_6250)"/>
<path d="M49.6686 50.2638H48.7394V32.4235C48.7394 31.0297 47.5315 29.8218 46.1377 29.8218H40.3768C39.8193 29.8218 39.4476 30.1934 39.4476 30.7509C39.4476 31.3085 39.8193 31.6801 40.3768 31.6801H46.1377C46.5094 31.6801 46.8811 32.0518 46.8811 32.4235V50.2638H33.8725C32.8504 50.2638 32.0141 51.1001 32.0141 52.1222H26.439C26.439 51.1001 25.6027 50.2638 24.5806 50.2638H11.5721V32.4235C11.5721 32.0518 11.9438 31.6801 12.3154 31.6801H18.0764C18.6339 31.6801 19.0055 31.3085 19.0055 30.7509C19.0055 30.1934 18.6339 29.8218 18.0764 29.8218H12.3154C10.9216 29.8218 9.71371 31.0297 9.71371 32.4235V50.2638H8.78453C8.22702 50.2638 7.85534 50.6355 7.85534 51.193C7.85534 54.8168 10.7358 57.6973 14.3596 57.6973H34.7087C35.2663 57.6973 35.6379 57.3256 35.6379 56.7681C35.6379 56.2106 35.2663 55.8389 34.7087 55.8389H14.3596C12.1296 55.8389 10.2712 54.2593 9.80663 52.1222H24.5806C24.5806 53.1443 25.4169 53.9805 26.439 53.9805H32.0141C33.0362 53.9805 33.8725 53.1443 33.8725 52.1222H48.6465C48.1819 54.2593 46.3235 55.8389 44.0935 55.8389C43.536 55.8389 43.1643 56.2106 43.1643 56.7681C43.1643 57.3256 43.536 57.6973 44.0935 57.6973C47.7173 57.6973 50.5978 54.8168 50.5978 51.193C50.5978 50.6355 50.2261 50.2638 49.6686 50.2638Z" fill="url(#paint2_linear_1512_6250)"/>
<path d="M40.3766 55.8389H38.3324C37.7749 55.8389 37.4032 56.2106 37.4032 56.7681C37.4032 57.3256 37.7749 57.6973 38.3324 57.6973H40.3766C40.9341 57.6973 41.3058 57.3256 41.3058 56.7681C41.3058 56.2106 40.9341 55.8389 40.3766 55.8389Z" fill="url(#paint3_linear_1512_6250)"/>
<path d="M24.5806 30.7509C24.5806 31.3085 24.9523 31.6801 25.5098 31.6801H32.9433C33.5008 31.6801 33.8725 31.3085 33.8725 30.7509C33.8725 30.1934 33.5008 29.8218 32.9433 29.8218H25.5098C24.9523 29.8218 24.5806 30.1934 24.5806 30.7509Z" fill="url(#paint4_linear_1512_6250)"/>
<path d="M21.7931 18.6716C21.2356 18.6716 20.8639 19.0432 20.8639 19.6007V39.6711L18.7268 37.534C18.3551 37.1623 17.7976 37.1623 17.4259 37.534C17.0543 37.9057 17.0543 38.4632 17.4259 38.8348L21.1427 42.5516C21.7931 43.0162 22.3506 42.6445 22.4435 42.5516L26.1603 38.8348C26.5319 38.4632 26.5319 37.9057 26.1603 37.534C25.7886 37.1623 25.2311 37.1623 24.8594 37.534L22.7223 39.6711V19.6007C22.7223 19.0432 22.3506 18.6716 21.7931 18.6716Z" fill="url(#paint5_linear_1512_6250)"/>
<path d="M32.2929 23.968C32.6645 24.3397 33.2221 24.3397 33.5937 23.968L35.7309 21.8309V41.9013C35.7309 42.4588 36.1025 42.8304 36.66 42.8304C37.2175 42.8304 37.5892 42.4588 37.5892 41.9013V21.8309L39.7263 23.968C39.9122 24.1539 40.1909 24.2468 40.3768 24.2468C40.5626 24.2468 40.8414 24.1539 41.0272 23.968C41.3989 23.5963 41.3989 23.0388 41.0272 22.6672L37.3105 18.9504C36.753 18.4858 36.1025 18.8575 36.0096 18.9504L32.2929 22.6672C31.9212 23.0388 31.9212 23.5963 32.2929 23.968Z" fill="url(#paint6_linear_1512_6250)"/>
<path d="M14.3596 44.6887C13.8021 44.6887 13.4304 45.0604 13.4304 45.6179V47.4762C13.4304 48.0338 13.8021 48.4054 14.3596 48.4054H16.218C16.7755 48.4054 17.1472 48.0338 17.1472 47.4762C17.1472 46.9187 16.7755 46.5471 16.218 46.5471H15.2888V45.6179C15.2888 45.0604 14.9171 44.6887 14.3596 44.6887Z" fill="url(#paint7_linear_1512_6250)"/>
<path d="M21.7931 46.5471H19.9347C19.3772 46.5471 19.0055 46.9187 19.0055 47.4762C19.0055 48.0338 19.3772 48.4054 19.9347 48.4054H21.7931C22.3506 48.4054 22.7223 48.0338 22.7223 47.4762C22.7223 46.9187 22.3506 46.5471 21.7931 46.5471Z" fill="url(#paint8_linear_1512_6250)"/>
<path d="M42.6994 14.3044C42.7924 14.6761 43.2569 15.1406 43.8145 14.9548C44.279 14.769 44.5578 14.3044 44.4649 13.8398C43.3499 10.0301 40.6552 6.96383 37.1243 5.19838C36.6597 5.01255 36.1022 5.19838 35.9164 5.66297C35.7306 6.12757 35.9164 6.68508 36.381 6.87091C39.3544 8.26469 41.6773 11.0522 42.6994 14.3044Z" fill="url(#paint9_linear_1512_6250)"/>
<path d="M33.0362 3.89754C32.3858 3.89754 31.7354 3.80462 31.0849 3.80462C30.5274 3.80462 30.1557 4.1763 30.1557 4.73381C30.1557 5.29132 30.5274 5.66299 31.0849 5.66299C31.6424 5.66299 32.9433 5.75591 32.9433 5.75591C33.4079 5.75591 33.7796 5.38424 33.8725 4.91964C33.9654 4.45505 33.5937 3.99046 33.0362 3.89754Z" fill="url(#paint10_linear_1512_6250)"/>
<defs>
<linearGradient id="paint0_linear_1512_6250" x1="0.421875" y1="28.8797" x2="58.0313" y2="28.8797" gradientUnits="userSpaceOnUse">
<stop stop-color="#00C0FF"/>
<stop offset="1" stop-color="#5558FF"/>
</linearGradient>
<linearGradient id="paint1_linear_1512_6250" x1="0.421875" y1="28.8797" x2="58.0313" y2="28.8797" gradientUnits="userSpaceOnUse">
<stop stop-color="#00C0FF"/>
<stop offset="1" stop-color="#5558FF"/>
</linearGradient>
<linearGradient id="paint2_linear_1512_6250" x1="0.421875" y1="28.8797" x2="58.0313" y2="28.8797" gradientUnits="userSpaceOnUse">
<stop stop-color="#00C0FF"/>
<stop offset="1" stop-color="#5558FF"/>
</linearGradient>
<linearGradient id="paint3_linear_1512_6250" x1="0.421875" y1="28.8797" x2="58.0313" y2="28.8797" gradientUnits="userSpaceOnUse">
<stop stop-color="#00C0FF"/>
<stop offset="1" stop-color="#5558FF"/>
</linearGradient>
<linearGradient id="paint4_linear_1512_6250" x1="0.421875" y1="28.8797" x2="58.0313" y2="28.8797" gradientUnits="userSpaceOnUse">
<stop stop-color="#00C0FF"/>
<stop offset="1" stop-color="#5558FF"/>
</linearGradient>
<linearGradient id="paint5_linear_1512_6250" x1="0.421875" y1="28.8797" x2="58.0313" y2="28.8797" gradientUnits="userSpaceOnUse">
<stop stop-color="#00C0FF"/>
<stop offset="1" stop-color="#5558FF"/>
</linearGradient>
<linearGradient id="paint6_linear_1512_6250" x1="0.421875" y1="28.8797" x2="58.0313" y2="28.8797" gradientUnits="userSpaceOnUse">
<stop stop-color="#00C0FF"/>
<stop offset="1" stop-color="#5558FF"/>
</linearGradient>
<linearGradient id="paint7_linear_1512_6250" x1="0.421875" y1="28.8797" x2="58.0313" y2="28.8797" gradientUnits="userSpaceOnUse">
<stop stop-color="#00C0FF"/>
<stop offset="1" stop-color="#5558FF"/>
</linearGradient>
<linearGradient id="paint8_linear_1512_6250" x1="0.421875" y1="28.8797" x2="58.0313" y2="28.8797" gradientUnits="userSpaceOnUse">
<stop stop-color="#00C0FF"/>
<stop offset="1" stop-color="#5558FF"/>
</linearGradient>
<linearGradient id="paint9_linear_1512_6250" x1="0.421875" y1="28.8797" x2="58.0313" y2="28.8797" gradientUnits="userSpaceOnUse">
<stop stop-color="#00C0FF"/>
<stop offset="1" stop-color="#5558FF"/>
</linearGradient>
<linearGradient id="paint10_linear_1512_6250" x1="0.421875" y1="28.8797" x2="58.0313" y2="28.8797" gradientUnits="userSpaceOnUse">
<stop stop-color="#00C0FF"/>
<stop offset="1" stop-color="#5558FF"/>
</linearGradient>
</defs>
</svg>
