<svg width="47" height="48" viewBox="0 0 47 48" fill="none" xmlns="http://www.w3.org/2000/svg">
<path fill-rule="evenodd" clip-rule="evenodd" d="M14.9844 22.9881C14.459 22.9979 14.0385 23.4265 14.0391 23.9519C14.0391 24.4767 14.4596 24.9052 14.9851 24.9144C18.1743 24.9714 20.7665 27.5059 20.783 30.7001C20.7855 31.2304 21.2159 31.6584 21.7456 31.6584C22.2759 31.659 22.7063 31.2311 22.7093 30.7007C22.7283 27.5115 25.3045 24.9432 28.4987 24.9144C29.0272 24.9101 29.4533 24.4804 29.4533 23.9519C29.4539 23.4234 29.0284 22.9936 28.5006 22.9881C25.3027 22.9544 22.7326 20.3978 22.7093 17.2006C22.7057 16.6708 22.2753 16.2441 21.7462 16.2441C21.2171 16.2441 20.7867 16.6708 20.783 17.2006C20.7591 20.4027 18.17 22.9286 14.9844 22.9881ZM18.6722 23.9506C19.9621 23.245 21.0301 22.1905 21.7431 20.9085C22.45 22.1886 23.5082 23.245 24.7908 23.9513C23.51 24.6575 22.4512 25.7139 21.7443 26.9922C21.0319 25.7114 19.9633 24.6557 18.6722 23.9506Z" fill="url(#paint0_linear_1449_12895)"/>
<path fill-rule="evenodd" clip-rule="evenodd" d="M29.4577 17.2018H28.4945C27.9647 17.2018 27.5312 17.6333 27.5312 18.165C27.5312 18.6967 27.9647 19.1283 28.4945 19.1283H29.4577V20.0915C29.4577 20.6232 29.8911 21.0547 30.4209 21.0547C30.9507 21.0547 31.3841 20.6232 31.3841 20.0915V19.1283H32.3473C32.8771 19.1283 33.3105 18.6967 33.3105 18.165C33.3105 17.6333 32.8771 17.2018 32.3473 17.2018H31.3841V16.2386C31.3841 15.7069 30.9507 15.2754 30.4209 15.2754C29.8911 15.2754 29.4577 15.7069 29.4577 16.2386V17.2018Z" fill="url(#paint1_linear_1449_12895)"/>
<path fill-rule="evenodd" clip-rule="evenodd" d="M27.0436 28.2799H26.0804C25.5506 28.2799 25.1172 28.7115 25.1172 29.2432C25.1172 29.7749 25.5506 30.2064 26.0804 30.2064H27.0436V31.1696C27.0436 31.7013 27.4771 32.1328 28.0068 32.1328C28.5366 32.1328 28.9701 31.7013 28.9701 31.1696V30.2064H29.9333C30.463 30.2064 30.8965 29.7749 30.8965 29.2432C30.8965 28.7115 30.463 28.2799 29.9333 28.2799H28.9701V27.3167C28.9701 26.785 28.5366 26.3535 28.0068 26.3535C27.4771 26.3535 27.0436 26.785 27.0436 27.3167V28.2799Z" fill="url(#paint2_linear_1449_12895)"/>
<path fill-rule="evenodd" clip-rule="evenodd" d="M36.6753 31.1694V24.9085H41.1736C41.5733 26.0302 42.6424 26.835 43.8994 26.835C45.4935 26.835 46.7891 25.5399 46.7891 23.9453C46.7891 22.3507 45.4935 21.0557 43.8994 21.0557C42.6424 21.0557 41.5733 21.8604 41.1736 22.9821H36.6753V16.7212H38.1201C38.3754 16.7212 38.6209 16.6196 38.7991 16.439L40.4463 14.7952L41.1736 14.7948C41.5733 15.9164 42.6424 16.7212 43.8994 16.7212C45.4935 16.7212 46.7891 15.4261 46.7891 13.8315C46.7891 12.2369 45.4935 10.9419 43.8994 10.9419C42.6424 10.9419 41.5733 11.7462 41.1736 12.8683L40.0465 12.8688C39.7913 12.8693 39.5457 12.9704 39.3675 13.151L37.7203 14.7948H36.6753V14.3132C36.6753 12.4513 35.1679 10.9419 33.304 10.9419H32.8224V9.89584L34.4647 8.25163C34.6477 8.07103 34.7489 7.82636 34.7489 7.57111V6.44272C35.871 6.04539 36.6753 4.97477 36.6753 3.71777C36.6753 2.12317 35.3798 0.828125 33.7856 0.828125C32.1915 0.828125 30.896 2.12317 30.896 3.71777C30.896 4.97477 31.7003 6.04588 32.8224 6.44272V7.17139L31.1802 8.81608C30.9972 8.99668 30.896 9.24182 30.896 9.49707V10.9419H24.6351V6.44272C25.7572 6.04588 26.5615 4.97477 26.5615 3.71777C26.5615 2.12317 25.266 0.828125 23.6719 0.828125C22.0778 0.828125 20.7822 2.12317 20.7822 3.71777C20.7822 4.97477 21.5865 6.04588 22.7087 6.44272V10.9419H16.4478V9.49707C16.4478 9.24182 16.3466 8.99668 16.1636 8.81608L14.5213 7.17139V6.44272C15.6435 6.04588 16.4478 4.97477 16.4478 3.71777C16.4478 2.12317 15.1522 0.828125 13.5581 0.828125C11.964 0.828125 10.6685 2.12317 10.6685 3.71777C10.6685 4.97477 11.4727 6.04539 12.5949 6.44272V7.57111C12.5949 7.82636 12.6961 8.07103 12.8791 8.25163L14.5213 9.89584V10.9419H14.0397C12.1759 10.9419 10.6685 12.4513 10.6685 14.3132V14.7948H9.6234L7.97623 13.151C7.79803 12.9704 7.55245 12.8693 7.2972 12.8688L6.1702 12.8683C5.77046 11.7462 4.70133 10.9419 3.44434 10.9419C1.85021 10.9419 0.554688 12.2369 0.554688 13.8315C0.554688 15.4261 1.85021 16.7212 3.44434 16.7212C4.70133 16.7212 5.77046 15.9164 6.1702 14.7948L6.89743 14.7952L8.54461 16.439C8.7228 16.6196 8.96838 16.7212 9.22363 16.7212H10.6685V22.9821H6.1702C5.77046 21.8604 4.70133 21.0557 3.44434 21.0557C1.85021 21.0557 0.554688 22.3507 0.554688 23.9453C0.554688 25.5399 1.85021 26.835 3.44434 26.835C4.70133 26.835 5.77046 26.0302 6.1702 24.9085H10.6685V31.1694H9.22363C8.96838 31.1694 8.7228 31.2711 8.54461 31.4517L6.89743 33.0954L6.1702 33.0959C5.77046 31.9742 4.70133 31.1694 3.44434 31.1694C1.85021 31.1694 0.554688 32.4645 0.554688 34.0591C0.554688 35.6537 1.85021 36.9487 3.44434 36.9487C4.70133 36.9487 5.77046 36.1444 6.1702 35.0223L7.2972 35.0218C7.55245 35.0213 7.79803 34.9202 7.97623 34.7396L9.6234 33.0959H10.6685V33.5775C10.6685 35.4394 12.1759 36.9487 14.0397 36.9487H14.5213V37.9948L12.8791 39.639C12.6961 39.8196 12.5949 40.0643 12.5949 40.3195V41.4479C11.4727 41.8452 10.6685 42.9159 10.6685 44.1729C10.6685 45.7675 11.964 47.0625 13.5581 47.0625C15.1522 47.0625 16.4478 45.7675 16.4478 44.1729C16.4478 42.9159 15.6435 41.8447 14.5213 41.4479V40.7192L16.1636 39.0745C16.3466 38.8939 16.4478 38.6488 16.4478 38.3936V36.9487H22.7087V41.4479C21.5865 41.8447 20.7822 42.9159 20.7822 44.1729C20.7822 45.7675 22.0778 47.0625 23.6719 47.0625C25.266 47.0625 26.5615 45.7675 26.5615 44.1729C26.5615 42.9159 25.7572 41.8447 24.6351 41.4479V36.9487H30.896V38.3936C30.896 38.6488 30.9972 38.8939 31.1802 39.0745L32.8224 40.7192V41.4479C31.7003 41.8447 30.896 42.9159 30.896 44.1729C30.896 45.7675 32.1915 47.0625 33.7856 47.0625C35.3798 47.0625 36.6753 45.7675 36.6753 44.1729C36.6753 42.9159 35.871 41.8452 34.7489 41.4479V40.3195C34.7489 40.0643 34.6477 39.8196 34.4647 39.639L32.8224 37.9948V36.9487H33.304C35.1679 36.9487 36.6753 35.4394 36.6753 33.5775V33.0959H37.7203L39.3675 34.7396C39.5457 34.9202 39.7913 35.0213 40.0465 35.0218L41.1736 35.0223C41.5733 36.1444 42.6424 36.9487 43.8994 36.9487C45.4935 36.9487 46.7891 35.6537 46.7891 34.0591C46.7891 32.4645 45.4935 31.1694 43.8994 31.1694C42.6424 31.1694 41.5733 31.9742 41.1736 33.0959L40.4463 33.0954L38.7991 31.4517C38.6209 31.2711 38.3754 31.1694 38.1201 31.1694H36.6753ZM13.5581 45.1361C13.0283 45.1361 12.5949 44.7045 12.5949 44.1729C12.5949 43.6412 13.0283 43.2096 13.5581 43.2096C14.0879 43.2096 14.5213 43.6412 14.5213 44.1729C14.5213 44.7045 14.0879 45.1361 13.5581 45.1361ZM23.6719 45.1361C23.1421 45.1361 22.7087 44.7045 22.7087 44.1729C22.7087 43.6412 23.1421 43.2096 23.6719 43.2096C24.2016 43.2096 24.6351 43.6412 24.6351 44.1729C24.6351 44.7045 24.2016 45.1361 23.6719 45.1361ZM33.7856 45.1361C33.2559 45.1361 32.8224 44.7045 32.8224 44.1729C32.8224 43.6412 33.2559 43.2096 33.7856 43.2096C34.3154 43.2096 34.7489 43.6412 34.7489 44.1729C34.7489 44.7045 34.3154 45.1361 33.7856 45.1361ZM44.8626 34.0591C44.8626 34.5908 44.4292 35.0223 43.8994 35.0223C43.3696 35.0223 42.9362 34.5908 42.9362 34.0591C42.9362 33.5274 43.3696 33.0959 43.8994 33.0959C44.4292 33.0959 44.8626 33.5274 44.8626 34.0591ZM2.48112 34.0591C2.48112 33.5274 2.91457 33.0959 3.44434 33.0959C3.9741 33.0959 4.40755 33.5274 4.40755 34.0591C4.40755 34.5908 3.9741 35.0223 3.44434 35.0223C2.91457 35.0223 2.48112 34.5908 2.48112 34.0591ZM14.0397 12.8683H33.304C34.1035 12.8683 34.7489 13.5151 34.7489 14.3132V33.5775C34.7489 34.3755 34.1035 35.0223 33.304 35.0223H14.0397C13.2402 35.0223 12.5949 34.3755 12.5949 33.5775V14.3132C12.5949 13.5151 13.2402 12.8683 14.0397 12.8683ZM2.48112 23.9453C2.48112 23.4136 2.91457 22.9821 3.44434 22.9821C3.9741 22.9821 4.40755 23.4136 4.40755 23.9453C4.40755 24.477 3.9741 24.9085 3.44434 24.9085C2.91457 24.9085 2.48112 24.477 2.48112 23.9453ZM44.8626 23.9453C44.8626 24.477 44.4292 24.9085 43.8994 24.9085C43.3696 24.9085 42.9362 24.477 42.9362 23.9453C42.9362 23.4136 43.3696 22.9821 43.8994 22.9821C44.4292 22.9821 44.8626 23.4136 44.8626 23.9453ZM2.48112 13.8315C2.48112 13.2998 2.91457 12.8683 3.44434 12.8683C3.9741 12.8683 4.40755 13.2998 4.40755 13.8315C4.40755 14.3632 3.9741 14.7948 3.44434 14.7948C2.91457 14.7948 2.48112 14.3632 2.48112 13.8315ZM44.8626 13.8315C44.8626 14.3632 44.4292 14.7948 43.8994 14.7948C43.3696 14.7948 42.9362 14.3632 42.9362 13.8315C42.9362 13.2998 43.3696 12.8683 43.8994 12.8683C44.4292 12.8683 44.8626 13.2998 44.8626 13.8315ZM13.5581 2.75456C14.0879 2.75456 14.5213 3.18608 14.5213 3.71777C14.5213 4.24947 14.0879 4.68099 13.5581 4.68099C13.0283 4.68099 12.5949 4.24947 12.5949 3.71777C12.5949 3.18608 13.0283 2.75456 13.5581 2.75456ZM23.6719 2.75456C24.2016 2.75456 24.6351 3.18608 24.6351 3.71777C24.6351 4.24947 24.2016 4.68099 23.6719 4.68099C23.1421 4.68099 22.7087 4.24947 22.7087 3.71777C22.7087 3.18608 23.1421 2.75456 23.6719 2.75456ZM33.7856 2.75456C34.3154 2.75456 34.7489 3.18608 34.7489 3.71777C34.7489 4.24947 34.3154 4.68099 33.7856 4.68099C33.2559 4.68099 32.8224 4.24947 32.8224 3.71777C32.8224 3.18608 33.2559 2.75456 33.7856 2.75456Z" fill="url(#paint3_linear_1449_12895)"/>
<defs>
<linearGradient id="paint0_linear_1449_12895" x1="14.0391" y1="23.9478" x2="29.4533" y2="23.9478" gradientUnits="userSpaceOnUse">
<stop stop-color="#00C0FF"/>
<stop offset="1" stop-color="#5558FF"/>
</linearGradient>
<linearGradient id="paint1_linear_1449_12895" x1="27.5312" y1="18.1638" x2="33.3105" y2="18.1638" gradientUnits="userSpaceOnUse">
<stop stop-color="#00C0FF"/>
<stop offset="1" stop-color="#5558FF"/>
</linearGradient>
<linearGradient id="paint2_linear_1449_12895" x1="25.1172" y1="29.2419" x2="30.8965" y2="29.2419" gradientUnits="userSpaceOnUse">
<stop stop-color="#00C0FF"/>
<stop offset="1" stop-color="#5558FF"/>
</linearGradient>
<linearGradient id="paint3_linear_1449_12895" x1="0.554688" y1="23.935" x2="46.7891" y2="23.935" gradientUnits="userSpaceOnUse">
<stop stop-color="#00C0FF"/>
<stop offset="1" stop-color="#5558FF"/>
</linearGradient>
</defs>
</svg>
