<svg width="55" height="56" viewBox="0 0 55 56" fill="none" xmlns="http://www.w3.org/2000/svg">
<path d="M44.2506 28.378C43.6656 28.3307 43.1539 28.7741 43.1073 29.3681C42.4755 37.4351 35.7304 43.7543 27.7519 43.7543C19.2578 43.7543 12.3474 36.7358 12.3474 28.1091C12.3474 21.0697 17.0117 14.8621 23.6903 13.0132C24.2563 12.8565 24.5902 12.2633 24.4359 11.6885C24.2817 11.1136 23.6976 10.775 23.1316 10.9311C15.5309 13.0353 10.2227 20.0991 10.2227 28.1091C10.2227 37.9257 18.0864 45.9123 27.752 45.9123C32.1886 45.9123 36.4219 44.2254 39.6723 41.1624C42.9048 38.1161 44.877 33.9882 45.2255 29.5392C45.2719 28.9451 44.8356 28.4254 44.2506 28.378Z" fill="url(#paint0_linear_1538_9039)"/>
<path d="M27.7519 10.306C27.6954 10.306 27.6387 10.3062 27.5821 10.3067C26.9955 10.3127 26.5244 10.8004 26.5301 11.3963C26.5359 11.9885 27.0104 12.4647 27.5923 12.4647C27.5958 12.4647 27.5993 12.4647 27.6029 12.4647C27.6526 12.4642 27.7023 12.4639 27.7519 12.4639C28.3385 12.4639 28.8143 11.9808 28.8143 11.385C28.8143 10.7891 28.3385 10.306 27.7519 10.306Z" fill="url(#paint1_linear_1538_9039)"/>
<path d="M54.4418 33.8216L51.4612 31.9647C51.6607 30.691 51.7615 29.3975 51.7615 28.1094C51.7615 26.8213 51.6607 25.5277 51.4612 24.2541L54.4418 22.3973C54.8872 22.1197 55.0679 21.5546 54.8678 21.0643L51.8289 13.6173C51.6287 13.1273 51.1076 12.8579 50.5999 12.9812L47.2007 13.8084C45.7023 11.7076 43.901 9.87832 41.8327 8.35652L42.6472 4.90419C42.7689 4.38833 42.5033 3.85909 42.0208 3.65602L34.6884 0.569583C34.2056 0.366626 33.6492 0.54973 33.376 1.00226L31.5477 4.02946C29.0395 3.62419 26.4638 3.62419 23.9556 4.02946L22.1275 1.00226C21.8542 0.549838 21.2976 0.366626 20.8151 0.569583L13.4829 3.65613C13.0004 3.8593 12.7349 4.38844 12.8565 4.9043L13.671 8.35652C11.6027 9.87832 9.80151 11.7077 8.30301 13.8084L4.9038 12.9812C4.3963 12.8576 3.87488 13.1273 3.67484 13.6173L0.635775 21.0642C0.435728 21.5545 0.616333 22.1195 1.06179 22.3971L4.04242 24.254C3.84291 25.5277 3.74209 26.8212 3.74209 28.1093C3.74209 29.3974 3.84291 30.691 4.04242 31.9646L1.06179 33.8216C0.616439 34.0991 0.435728 34.6642 0.635775 35.1545L3.67473 42.6015C3.87478 43.0916 4.39609 43.361 4.9037 43.2377L8.30291 42.4104C9.8013 44.5112 11.6026 46.3405 13.6709 47.8623L12.8564 51.3146C12.7347 51.8305 13.0002 52.3597 13.4828 52.5628L20.8152 55.6492C21.2977 55.8521 21.8544 55.669 22.1276 55.2166L23.9559 52.1894C26.4641 52.5946 29.0398 52.5946 31.548 52.1894L33.3763 55.2166C33.5746 55.5449 33.9221 55.7314 34.2823 55.7314C34.4184 55.7314 34.5563 55.7048 34.6886 55.6491L42.021 52.5627C42.5036 52.3595 42.7691 51.8304 42.6474 51.3145L41.8329 47.8622C43.9013 46.3403 45.7025 44.5108 47.201 42.4103L50.6001 43.2375C51.1079 43.361 51.6291 43.0914 51.8291 42.6014L54.868 35.1544C55.0678 34.6641 54.8872 34.0991 54.4418 33.8216ZM50.2132 40.9242L46.9935 40.1406C46.564 40.0361 46.1155 40.2124 45.8672 40.5836C44.3014 42.9242 42.3389 44.9174 40.034 46.5077C39.6687 46.7599 39.4951 47.2153 39.598 47.6517L40.3695 50.9216L34.713 53.3026L32.9816 50.4361C32.786 50.1123 32.4408 49.9213 32.0762 49.9213C32.0103 49.9213 31.9435 49.9276 31.8769 49.9404C29.1646 50.466 26.339 50.466 23.6267 49.9404C23.1928 49.8568 22.753 50.0537 22.522 50.4362L20.7906 53.3028L15.1341 50.9218L15.9056 47.6518C16.0085 47.2154 15.8349 46.76 15.4696 46.5078C13.1648 44.9175 11.2023 42.9243 9.63642 40.5836C9.38814 40.2125 8.9396 40.0364 8.51007 40.1407L5.29041 40.9243L2.94604 35.1794L5.76848 33.4209C6.14499 33.1864 6.3393 32.7397 6.25665 32.299C5.99785 30.9216 5.86675 29.5121 5.86675 28.1094C5.86675 26.7067 5.99785 25.2972 6.25665 23.9198C6.3393 23.4792 6.14499 23.0323 5.76848 22.7979L2.94604 21.0395L5.29041 15.2945L8.51007 16.0781C8.93949 16.1824 9.38803 16.0063 9.63642 15.6352C11.2024 13.2944 13.1649 11.3012 15.4696 9.71097C15.8349 9.45881 16.0085 9.00326 15.9056 8.56703L15.1341 5.29716L20.7906 2.91605L22.522 5.7826C22.7531 6.16499 23.1922 6.36233 23.6267 6.27839C26.339 5.75282 29.1646 5.75282 31.8769 6.27839C32.311 6.36212 32.7506 6.1651 32.9816 5.7826L34.713 2.91605L40.3695 5.29705L39.598 8.56703C39.4951 9.00337 39.6687 9.45881 40.034 9.71097C42.3388 11.3013 44.3013 13.2945 45.8672 15.6352C46.1155 16.0063 46.5642 16.1825 46.9935 16.0781L50.2132 15.2945L52.5576 21.0395L49.7351 22.7979C49.3586 23.0325 49.1643 23.4792 49.2469 23.9198C49.5057 25.2972 49.6368 26.7067 49.6368 28.1094C49.6368 29.5121 49.5057 30.9216 49.2469 32.299C49.1643 32.7397 49.3586 33.1865 49.7351 33.4209L52.5576 35.1794L50.2132 40.9242Z" fill="url(#paint2_linear_1538_9039)"/>
<path d="M40.0806 27.0436H28.8276V15.6147C28.8276 15.0189 28.3519 14.5357 27.7652 14.5357C20.3885 14.5357 14.3873 20.6308 14.3873 28.1226C14.3873 35.6144 20.3886 41.7094 27.7652 41.7094C35.1417 41.7094 41.1429 35.6144 41.1429 28.1226C41.1429 27.5268 40.6672 27.0436 40.0806 27.0436ZM26.7028 16.7443V25.5178L20.5984 19.3181C22.2898 17.8954 24.396 16.9646 26.7028 16.7443ZM27.7652 39.5514C21.5602 39.5514 16.5121 34.4244 16.5121 28.1226C16.5121 25.3593 17.483 22.8223 19.0961 20.844L27.0007 28.8721C27.003 28.8745 27.0056 28.8764 27.0079 28.8787C27.2006 29.0778 27.4687 29.2016 27.7653 29.2016H38.9686C38.4313 34.9993 33.6118 39.5514 27.7652 39.5514Z" fill="url(#paint3_linear_1538_9039)"/>
<path d="M31.0979 10.6299C30.5112 10.6299 30.0355 11.113 30.0355 11.7089V24.7378C30.0355 25.3338 30.5111 25.8168 31.0979 25.8168H43.9265C44.5131 25.8168 44.9889 25.3336 44.9889 24.7378C44.9889 16.9587 38.7574 10.6299 31.0979 10.6299ZM32.1603 23.6588V12.8361C37.8025 13.3512 42.3093 17.9286 42.8166 23.6588H32.1603Z" fill="url(#paint4_linear_1538_9039)"/>
<path d="M35.779 30.8903C35.244 30.6455 34.615 30.8875 34.374 31.4309C33.6871 32.9792 32.4836 34.2485 30.9851 35.0052C30.4598 35.2704 30.2456 35.9181 30.5068 36.4517C30.6925 36.8311 31.0684 37.0505 31.459 37.0505C31.6179 37.0505 31.7792 37.0142 31.9312 36.9375C33.8678 35.9596 35.4234 34.3188 36.3113 32.3172C36.5523 31.774 36.314 31.1351 35.779 30.8903Z" fill="url(#paint5_linear_1538_9039)"/>
<path d="M27.7957 35.7698C27.7921 35.7698 27.7884 35.7698 27.7847 35.7699H27.765C27.1785 35.7699 26.7028 36.2531 26.7028 36.8489C26.7028 37.4447 27.1785 37.9279 27.7652 37.9279L27.8064 37.9277C28.3931 37.9216 28.8639 37.4337 28.8578 36.8378C28.8519 36.2457 28.3775 35.7698 27.7957 35.7698Z" fill="url(#paint6_linear_1538_9039)"/>
<defs>
<linearGradient id="paint0_linear_1538_9039" x1="0.554688" y1="28.0971" x2="54.9489" y2="28.0971" gradientUnits="userSpaceOnUse">
<stop stop-color="#00C0FF"/>
<stop offset="1" stop-color="#5558FF"/>
</linearGradient>
<linearGradient id="paint1_linear_1538_9039" x1="0.554688" y1="28.0971" x2="54.9489" y2="28.0971" gradientUnits="userSpaceOnUse">
<stop stop-color="#00C0FF"/>
<stop offset="1" stop-color="#5558FF"/>
</linearGradient>
<linearGradient id="paint2_linear_1538_9039" x1="0.554688" y1="28.0971" x2="54.9489" y2="28.0971" gradientUnits="userSpaceOnUse">
<stop stop-color="#00C0FF"/>
<stop offset="1" stop-color="#5558FF"/>
</linearGradient>
<linearGradient id="paint3_linear_1538_9039" x1="0.554688" y1="28.0971" x2="54.9489" y2="28.0971" gradientUnits="userSpaceOnUse">
<stop stop-color="#00C0FF"/>
<stop offset="1" stop-color="#5558FF"/>
</linearGradient>
<linearGradient id="paint4_linear_1538_9039" x1="0.554688" y1="28.0971" x2="54.9489" y2="28.0971" gradientUnits="userSpaceOnUse">
<stop stop-color="#00C0FF"/>
<stop offset="1" stop-color="#5558FF"/>
</linearGradient>
<linearGradient id="paint5_linear_1538_9039" x1="0.554688" y1="28.0971" x2="54.9489" y2="28.0971" gradientUnits="userSpaceOnUse">
<stop stop-color="#00C0FF"/>
<stop offset="1" stop-color="#5558FF"/>
</linearGradient>
<linearGradient id="paint6_linear_1538_9039" x1="0.554688" y1="28.0971" x2="54.9489" y2="28.0971" gradientUnits="userSpaceOnUse">
<stop stop-color="#00C0FF"/>
<stop offset="1" stop-color="#5558FF"/>
</linearGradient>
</defs>
</svg>
