<svg width="72" height="58" viewBox="0 0 72 58" fill="none" xmlns="http://www.w3.org/2000/svg">
<path d="M23.881 18.8281H19.3622C18.8872 18.8281 18.5012 19.2141 18.5012 19.6891V34.3104C18.5012 34.7854 18.8872 35.1714 19.3622 35.1714H23.881C24.356 35.1714 24.742 34.7854 24.742 34.3104V19.6891C24.742 19.2141 24.356 18.8281 23.881 18.8281ZM23.02 33.4494H20.2232V20.5501H23.02V33.4494ZM71.2276 13.1283C71.1688 12.7523 70.8703 12.4596 70.4929 12.4079L68.8297 12.1826C68.5441 11.1049 68.1179 10.0775 67.5597 9.11457L68.5771 7.77858C68.8082 7.47579 68.8125 7.05677 68.5872 6.74968C67.6788 5.50553 66.5882 4.41493 65.3441 3.50657C65.037 3.28271 64.618 3.28701 64.3152 3.51661L62.9792 4.53403C62.0177 3.97582 60.9888 3.54962 59.9111 3.26405L59.6858 1.60088C59.6342 1.22347 59.3414 0.924993 58.9655 0.866158C57.4429 0.627947 55.8989 0.627947 54.3778 0.866158C54.0018 0.924993 53.709 1.22347 53.6574 1.60088L53.4321 3.26405C52.3544 3.54962 51.3269 3.97438 50.364 4.53403L49.028 3.51805C48.7253 3.28701 48.3062 3.28271 47.9992 3.508C47.3218 4.00308 46.6904 4.55412 46.1078 5.15252H2.74482C1.67574 5.15252 0.804688 6.02213 0.804688 7.09121V37.9037C0.804688 38.9727 1.6743 39.8438 2.74482 39.8438H27.5604C29.2049 42.9233 31.6473 45.4518 34.6737 47.2011V57.0337C34.6737 57.5087 35.0597 57.8947 35.5347 57.8947H54.2041C54.6791 57.8947 55.0651 57.5087 55.0651 57.0337V51.463H55.9606C58.9382 51.463 61.3591 49.0407 61.3591 46.0645V41.7839H67.1249C67.432 41.7839 67.7161 41.6203 67.8697 41.3548C68.0232 41.0894 68.0247 40.7607 67.8711 40.4953L62.619 31.3442C62.6405 29.793 62.4726 28.2575 62.1196 26.7651C62.4109 26.6245 62.6979 26.4753 62.9792 26.3117L64.3152 27.3291C64.618 27.5601 65.037 27.5644 65.3441 27.3391C66.5882 26.4308 67.6788 25.3402 68.5872 24.096C68.811 23.7889 68.8067 23.3699 68.5771 23.0671L67.5611 21.7311C68.1194 20.7683 68.5441 19.7408 68.8297 18.6631L70.4929 18.4378C70.8703 18.3861 71.1688 18.0934 71.2276 17.7174C71.4658 16.1949 71.4658 14.6523 71.2276 13.1297V13.1283ZM2.74482 38.1203C2.62714 38.1203 2.52669 38.0213 2.52669 37.9022V7.09121C2.52669 6.97354 2.62571 6.87453 2.74482 6.87453H44.6857C44.5408 7.1644 44.5695 7.51597 44.7704 7.78002L45.7864 9.11457C45.2282 10.0775 44.802 11.1049 44.5164 12.1826L42.8532 12.4079C42.4758 12.4596 42.1773 12.7523 42.1185 13.1283C41.8803 14.6508 41.8803 16.1949 42.1185 17.716C42.1773 18.092 42.4758 18.3847 42.8532 18.4364L44.5164 18.6617C44.802 19.7394 45.2267 20.7668 45.7864 21.7297L44.7704 23.0657C44.5394 23.3685 44.535 23.7875 44.7603 24.0946C45.6687 25.3387 46.7593 26.4293 48.0035 27.3377C48.1269 27.4267 48.2675 27.4783 48.411 27.4956V37.9051C48.411 38.0228 48.312 38.1232 48.1929 38.1232H2.74482V38.1203ZM65.6397 40.059H60.4995C60.0245 40.059 59.6385 40.4451 59.6385 40.92V46.0617C59.6385 48.0893 57.9897 49.7381 55.962 49.7381H54.2056C53.7306 49.7381 53.3446 50.1242 53.3446 50.5992V56.1698H36.3971V46.6945C36.3971 46.3788 36.2235 46.0889 35.9465 45.9383C33.2875 44.4961 31.0962 42.4038 29.5435 39.8424H48.1958C49.2648 39.8424 50.1359 38.9727 50.1359 37.9022V26.4853L50.3712 26.3059C51.3341 26.8642 52.3616 27.2904 53.4393 27.5759L53.6646 29.2391C53.7162 29.6165 54.009 29.915 54.3849 29.9738C55.1469 30.0929 55.9132 30.1532 56.6795 30.1532C57.4458 30.1532 58.2121 30.0929 58.9726 29.9738C59.3486 29.915 59.6414 29.6165 59.693 29.2391L59.9183 27.5759C60.1163 27.5243 60.3115 27.4654 60.5052 27.4037C60.8037 28.7526 60.9372 30.1388 60.8999 31.538C60.8955 31.6958 60.9357 31.8522 61.0132 31.99L65.644 40.059H65.6397ZM69.6118 16.8162L68.016 17.0329C67.6559 17.0817 67.366 17.3515 67.2899 17.706C67.0144 18.996 66.5122 20.2086 65.7975 21.3136C65.6009 21.6178 65.6153 22.0138 65.8348 22.3023L66.8092 23.5837C66.2237 24.3098 65.5622 24.9714 64.8361 25.5569L63.5546 24.5811C63.2662 24.3615 62.8701 24.3457 62.5645 24.5438C61.4609 25.2584 60.2469 25.7606 58.9583 26.0362C58.6038 26.1122 58.3341 26.4021 58.2853 26.7623L58.0686 28.358C57.1401 28.457 56.206 28.457 55.2775 28.358L55.0608 26.7623C55.012 26.4021 54.7422 26.1122 54.3878 26.0362C53.0977 25.7606 51.8852 25.2584 50.7802 24.5438C50.476 24.3457 50.0799 24.3615 49.7915 24.5811L48.5115 25.5554C47.7853 24.9699 47.1238 24.3084 46.5383 23.5823L47.5141 22.3008C47.7337 22.0124 47.7495 21.6163 47.5514 21.3121C46.8368 20.2086 46.3345 18.9946 46.059 17.706C45.983 17.3515 45.6931 17.0817 45.3329 17.0329L43.7372 16.8162C43.6382 15.8878 43.6382 14.9536 43.7372 14.0252L45.3329 13.8085C45.6931 13.7597 45.983 13.4913 46.059 13.1355C46.3345 11.8454 46.8368 10.6314 47.5514 9.52785C47.748 9.22363 47.7337 8.82757 47.5141 8.53913L46.5398 7.25911C47.1252 6.533 47.7868 5.87146 48.5129 5.28598L49.7943 6.26178C50.0828 6.48134 50.4788 6.49712 50.7845 6.29909C51.888 5.58446 53.102 5.0822 54.3907 4.80668C54.7451 4.73063 55.0149 4.44076 55.0637 4.08057L55.2804 2.48484C56.2074 2.38583 57.143 2.38583 58.0715 2.48484L58.2881 4.08057C58.3369 4.44076 58.6053 4.73063 58.9612 4.80668C60.2512 5.0822 61.4652 5.58446 62.5673 6.29909C62.8716 6.49712 63.2676 6.48134 63.5575 6.26178L64.8389 5.28598C65.5651 5.87146 66.2266 6.533 66.8121 7.25911L65.8363 8.54057C65.6167 8.82901 65.6009 9.22507 65.799 9.52929C66.5136 10.6328 67.0158 11.8468 67.2914 13.1355C67.3674 13.4899 67.6573 13.7597 68.0175 13.8085L69.6132 14.0252C69.7122 14.9536 69.7122 15.8878 69.6132 16.8162H69.6118ZM16.1865 24.7317H11.6677C11.1927 24.7317 10.8067 25.1178 10.8067 25.5927V34.3118C10.8067 34.7868 11.1927 35.1728 11.6677 35.1728H16.1865C16.6615 35.1728 17.0475 34.7868 17.0475 34.3118V25.5927C17.0475 25.1178 16.6615 24.7317 16.1865 24.7317ZM15.3255 33.4508H12.5287V26.4537H15.3255V33.4508ZM61.5054 10.5912C58.8421 7.92782 54.5083 7.92782 51.8435 10.5912C50.5535 11.8813 49.8431 13.5975 49.8431 15.4214C49.8431 17.2453 50.5535 18.9616 51.8435 20.2516C53.1336 21.5417 54.8499 22.252 56.6738 22.252C58.4977 22.252 60.2139 21.5417 61.504 20.2516C64.1674 17.5883 64.1674 13.2546 61.504 10.5898L61.5054 10.5912ZM60.2885 19.0348C59.3228 19.9991 58.0399 20.5315 56.6752 20.5315C55.3105 20.5315 54.0276 20.0005 53.0619 19.0348C52.0961 18.0704 51.5651 16.7861 51.5651 15.4214C51.5651 14.0567 52.0961 12.7738 53.0619 11.8081C54.0276 10.8423 55.3665 10.3142 56.6752 10.3142C57.9839 10.3142 59.2926 10.8122 60.2885 11.8081C62.2803 13.7999 62.2803 17.0415 60.2885 19.0348ZM37.0113 11.0949C35.252 11.0949 33.8199 12.527 33.8199 14.2863C33.8199 14.4758 33.8371 14.6594 33.8687 14.8402L31.7133 15.8749C31.1278 15.209 30.2711 14.7886 29.3168 14.7886C28.5075 14.7886 27.767 15.0928 27.2031 15.5908L24.6717 13.9563C24.7635 13.6578 24.8138 13.3407 24.8138 13.012C24.8138 11.2527 23.3816 9.82059 21.6223 9.82059C19.863 9.82059 18.4309 11.2527 18.4309 13.012C18.4309 13.4339 18.5141 13.8372 18.6633 14.206L15.8349 16.3872C15.3025 15.9897 14.6424 15.7529 13.9278 15.7529C12.1685 15.7529 10.7364 17.185 10.7364 18.9444C10.7364 20.7037 12.1685 22.1358 13.9278 22.1358C15.6871 22.1358 17.1193 20.7037 17.1193 18.9444C17.1193 18.5225 17.036 18.1192 16.8868 17.7504L19.7152 15.5692C20.2476 15.9667 20.9077 16.2035 21.6223 16.2035C22.4317 16.2035 23.1721 15.8993 23.7361 15.4013L26.2674 17.0358C26.1756 17.3343 26.1254 17.6514 26.1254 17.9786C26.1254 19.7379 27.5575 21.1701 29.3168 21.1701C31.0761 21.1701 32.5083 19.7379 32.5083 17.9786C32.5083 17.7892 32.491 17.6055 32.4595 17.4247L34.6149 16.3901C35.2003 17.0559 36.057 17.4763 37.0099 17.4763C38.7692 17.4763 40.2013 16.0442 40.2013 14.2849C40.2013 12.5256 38.7692 11.0934 37.0099 11.0934L37.0113 11.0949ZM13.9278 20.4167C13.117 20.4167 12.4584 19.758 12.4584 18.9472C12.4584 18.1365 13.117 17.4778 13.9278 17.4778C14.7386 17.4778 15.3973 18.1365 15.3973 18.9472C15.3973 19.758 14.7386 20.4167 13.9278 20.4167ZM21.6223 14.4829C20.8115 14.4829 20.1529 13.8243 20.1529 13.0135C20.1529 12.2027 20.8115 11.544 21.6223 11.544C22.4331 11.544 23.0918 12.2027 23.0918 13.0135C23.0918 13.8243 22.4331 14.4829 21.6223 14.4829ZM29.3168 19.4495C28.506 19.4495 27.8474 18.7908 27.8474 17.98C27.8474 17.1693 28.506 16.5106 29.3168 16.5106C30.1276 16.5106 30.7863 17.1693 30.7863 17.98C30.7863 18.7908 30.1276 19.4495 29.3168 19.4495ZM37.0113 15.7558C36.2005 15.7558 35.5419 15.0971 35.5419 14.2863C35.5419 13.4756 36.2005 12.8169 37.0113 12.8169C37.8221 12.8169 38.4808 13.4756 38.4808 14.2863C38.4808 15.0971 37.8221 15.7558 37.0113 15.7558ZM39.27 20.1268H34.7512C34.2762 20.1268 33.8902 20.5128 33.8902 20.9878V34.3118C33.8902 34.7868 34.2762 35.1728 34.7512 35.1728H39.27C39.745 35.1728 40.131 34.7868 40.131 34.3118V20.9878C40.131 20.5128 39.745 20.1268 39.27 20.1268ZM38.409 33.4508H35.6122V21.8488H38.409V33.4508ZM31.5755 23.7961H27.0567C26.5817 23.7961 26.1957 24.1821 26.1957 24.6571V34.3118C26.1957 34.7868 26.5817 35.1728 27.0567 35.1728H31.5755C32.0505 35.1728 32.4365 34.7868 32.4365 34.3118V24.6571C32.4365 24.1821 32.0505 23.7961 31.5755 23.7961ZM30.7145 33.4508H27.9177V25.5181H30.7145V33.4508Z" fill="url(#paint0_linear_1538_9040)"/>
<defs>
<linearGradient id="paint0_linear_1538_9040" x1="0.804688" y1="29.2784" x2="71.4063" y2="29.2784" gradientUnits="userSpaceOnUse">
<stop stop-color="#00C0FF"/>
<stop offset="1" stop-color="#5558FF"/>
</linearGradient>
</defs>
</svg>
