<svg width="61" height="60" viewBox="0 0 61 60" fill="none" xmlns="http://www.w3.org/2000/svg">
<path d="M53.8203 32.8625C53.9542 31.8481 54.0232 30.8133 54.0232 29.7623C54.0232 28.7113 53.9542 27.6765 53.8203 26.6621M44.8125 48.4123C46.4599 47.1502 47.9354 45.6749 49.1974 44.0273M27.4453 53.0391C28.4598 53.1729 29.4945 53.242 30.5455 53.242C31.5965 53.242 32.6313 53.1728 33.6457 53.0391M33.6457 6.48612C32.6313 6.35228 31.5965 6.2832 30.5455 6.2832C29.4945 6.2832 28.4597 6.35228 27.4453 6.48612M49.1974 15.4962C47.9354 13.8488 46.46 12.3734 44.8125 11.1113M19.3275 20.6524C17.3057 23.1382 16.0938 26.309 16.0938 29.763C16.0938 37.7426 22.5626 44.2115 30.5423 44.2115C38.5219 44.2115 44.9908 37.7426 44.9908 29.763C44.9908 21.7833 38.5219 15.3145 30.5423 15.3145C27.5196 15.3145 24.7138 16.2426 22.3941 17.8295M30.5469 15.3145V44.2115M44.9908 29.7617H16.0938M43.5386 23.4414H17.5469M43.5386 36.084H17.5469M5.25781 37.2464V38.2112C5.25781 38.5322 5.51818 38.7926 5.83924 38.7926H11.9006C12.2217 38.7926 12.4821 38.5322 12.4821 38.2112V32.1498C12.4821 31.8287 12.2217 31.5684 11.9006 31.5684H5.83924C5.51818 31.5684 5.25781 31.8287 5.25781 32.1498V33.1764M16.0938 16.3376V51.7077C16.0938 52.1596 16.5868 52.4388 16.9743 52.2062L19.1308 50.9123C19.4687 50.7095 19.8859 50.6926 20.2399 50.8658C21.1002 51.2865 21.9901 51.6563 22.9055 51.971C23.2779 52.099 23.5606 52.4058 23.656 52.7878L24.7936 57.3379C24.9876 58.1145 25.6853 58.6591 26.4857 58.6591H34.5983C35.3987 58.6591 36.0964 58.1145 36.2905 57.3379L37.428 52.7878C37.5235 52.4058 37.8062 52.0989 38.1785 51.971C39.0939 51.6563 39.9838 51.2865 40.8441 50.8658C41.1982 50.6926 41.6153 50.7095 41.9533 50.9123L45.9761 53.326C46.6624 53.7378 47.5409 53.6297 48.1069 53.0637L53.8434 47.3272C54.4093 46.7613 54.5175 45.8827 54.1057 45.1964L51.692 41.1735C51.4892 40.8356 51.4723 40.4183 51.6455 40.0642C52.0663 39.204 52.436 38.314 52.7506 37.3986C52.8787 37.0263 53.1854 36.7436 53.5674 36.6481L58.1176 35.5106C58.8941 35.3165 59.4388 34.6188 59.4388 33.8184V25.7059C59.4388 24.9055 58.8941 24.2077 58.1176 24.0137L53.5674 22.8762C53.1854 22.7807 52.8787 22.498 52.7506 22.1256C52.436 21.2102 52.0662 20.3203 51.6455 19.46C51.4723 19.1059 51.4892 18.6888 51.692 18.3508L54.1057 14.328C54.5175 13.6417 54.4093 12.7631 53.8434 12.1972L48.1069 6.46067C47.5409 5.89471 46.6624 5.78656 45.9761 6.19833L41.9531 8.61208C41.6152 8.81488 41.198 8.83174 40.844 8.65859C39.9837 8.23787 39.0938 7.86808 38.1784 7.55341C37.8061 7.42538 37.5234 7.11862 37.4279 6.73662L36.2904 2.18647C36.0967 1.40992 35.3989 0.865234 34.5985 0.865234H26.486C25.6856 0.865234 24.9879 1.40992 24.7938 2.18647L23.6563 6.73662C23.5608 7.11862 23.2781 7.4255 22.9058 7.55341C21.9904 7.86808 21.1004 8.23787 20.2402 8.65859C19.8861 8.83174 19.4689 8.81488 19.131 8.61208L16.9745 7.31816C16.5869 7.08559 16.094 7.3648 16.094 7.81668V12.2676M38.6765 29.763C38.6765 37.7427 35.0378 44.2115 30.5492 44.2115C26.0606 44.2115 22.4219 37.7427 22.4219 29.763C22.4219 21.7833 26.0606 15.3145 30.5492 15.3145C35.0378 15.3145 38.6765 21.7833 38.6765 29.763ZM12.0525 26.1506H7.50638C7.26556 26.1506 7.07031 25.9554 7.07031 25.7146V21.1685C7.07031 20.9277 7.26556 20.7324 7.50638 20.7324H12.0525C12.2933 20.7324 12.4885 20.9277 12.4885 21.1685V25.7146C12.4885 25.9554 12.2933 26.1506 12.0525 26.1506ZM6.63059 17.1194H2.08451C1.84368 17.1194 1.64844 16.9241 1.64844 16.6833V12.1372C1.64844 11.8964 1.84368 11.7012 2.08451 11.7012H6.63059C6.87141 11.7012 7.06666 11.8964 7.06666 12.1372V16.6833C7.06666 16.9241 6.87141 17.1194 6.63059 17.1194ZM12.1965 8.08875H9.16571C9.00512 8.08875 8.875 7.95862 8.875 7.79803V4.76728C8.875 4.60669 9.00512 4.47656 9.16571 4.47656H12.1964C12.3569 4.47656 12.4871 4.60669 12.4871 4.76728V7.79792C12.4872 7.95862 12.3569 8.08875 12.1965 8.08875ZM12.0525 47.8223H7.50638C7.26556 47.8223 7.07031 48.0175 7.07031 48.2583V52.8044C7.07031 53.0452 7.26556 53.2405 7.50638 53.2405H12.0525C12.2933 53.2405 12.4885 53.0452 12.4885 52.8044V48.2583C12.4885 48.0175 12.2933 47.8223 12.0525 47.8223ZM4.96979 42.4043H1.93915C1.77856 42.4043 1.64844 42.5344 1.64844 42.695V45.7258C1.64844 45.8864 1.77856 46.0165 1.93915 46.0165H4.96979C5.13038 46.0165 5.26051 45.8864 5.26051 45.7258V42.695C5.26051 42.5344 5.13038 42.4043 4.96979 42.4043Z" stroke="url(#paint0_linear_1538_9037)" stroke-width="1.75" stroke-miterlimit="10" stroke-linecap="round" stroke-linejoin="round"/>
<defs>
<linearGradient id="paint0_linear_1538_9037" x1="59.4388" y1="31.6036" x2="5.2465" y2="32.1294" gradientUnits="userSpaceOnUse">
<stop stop-color="#535AFF"/>
<stop offset="1" stop-color="#02BFFF"/>
</linearGradient>
</defs>
</svg>
