<svg width="76" height="76" viewBox="0 0 76 76" fill="none" xmlns="http://www.w3.org/2000/svg">
<path d="M68.1495 34.2788C68.1495 32.6441 66.8214 31.3144 65.1891 31.3144H62.9901C62.4188 29.2163 61.5856 27.2044 60.5063 25.317L62.0597 23.7636C63.2112 22.6121 63.2121 20.734 62.0597 19.5752L56.6352 14.1552C56.0789 13.5959 55.3364 13.2873 54.545 13.2862H54.5409C53.7489 13.2862 53.0047 13.5941 52.4455 14.1534L50.8964 15.7025C49.0149 14.6274 47.0015 13.7955 44.8948 13.2226V11.0239C44.8948 9.39166 43.5668 8.06373 41.9346 8.06373H34.2616C32.6294 8.06373 31.3014 9.39166 31.3014 11.0239V13.2184C29.1998 13.7905 27.1867 14.6238 25.3 15.7025L23.7508 14.1535C23.1916 13.5941 22.4475 13.2864 21.6553 13.2864H21.6514C20.8598 13.2874 20.1173 13.5959 19.5628 14.1532L14.1362 19.5755C13.5761 20.1358 13.2682 20.8814 13.2692 21.6751C13.2704 22.4667 13.5788 23.209 14.1356 23.7631L15.6858 25.3164C14.6098 27.1989 13.7778 29.2109 13.2056 31.3144H11.0068C9.37453 31.3144 8.0466 32.6443 8.0466 34.2788V41.9515C8.0466 43.5838 9.37453 44.9117 11.0068 44.9117H13.2056C13.7771 47.0099 14.6104 49.0217 15.6897 50.9092L14.1362 52.4625C12.9817 53.6172 12.9817 55.496 14.1362 56.6507L19.5625 62.0769C20.7139 63.2285 22.592 63.2294 23.7514 62.0763L25.3004 60.5241C27.1478 61.5801 29.1165 62.3999 31.1703 62.9706V64.8097C31.1703 66.4978 32.5439 67.8712 34.232 67.8712H41.9639C43.652 67.8712 45.0256 66.4978 45.0256 64.8097V62.9706C47.0796 62.3999 49.0482 61.5803 50.8956 60.5241L52.447 62.0787C53.6038 63.2294 55.4817 63.2288 56.6335 62.0771L62.0618 56.649C63.2094 55.4953 63.2094 53.6179 62.06 52.4623L60.5066 50.909C61.5859 49.0216 62.4191 47.0097 62.9904 44.9116H65.1894C66.8217 44.9116 68.1498 43.5837 68.1498 41.9514V34.2786L68.1495 34.2788ZM32.0654 60.0675C31.3646 60.0675 30.7945 59.4972 30.7945 58.7965V55.8447H45.4011V58.7965C45.4011 59.4974 44.831 60.0675 44.1301 60.0675H32.0654ZM38.0956 36.0018C37.1757 36.0018 36.4275 35.2516 36.4275 34.3294C36.4275 33.4073 37.1757 32.6614 38.0956 32.6614C39.0155 32.6614 39.7678 33.4097 39.7678 34.3294C39.7678 35.2492 39.0177 36.0018 38.0956 36.0018ZM45.6946 54.0543H42.7956V47.0097L45.4087 42.4835C45.6946 42.5602 45.9949 42.6018 46.3046 42.6018C48.2116 42.6018 49.7631 41.0503 49.7631 39.1433C49.7631 37.2363 48.2116 35.6849 46.3046 35.6849C44.3976 35.6849 42.846 37.2363 42.846 39.1433C42.846 40.0962 43.2334 40.9603 43.859 41.5866L41.1249 46.3221C41.0464 46.4582 41.0048 46.6125 41.0048 46.7697V54.0541H38.9906V37.674C40.4672 37.2783 41.558 35.9291 41.558 34.3293C41.558 32.4223 40.0045 30.8709 38.0953 30.8709C36.1861 30.8709 34.6366 32.4223 34.6366 34.3293C34.6366 35.9286 35.7256 37.2777 37.2 37.6737V54.0541H35.19V46.7697C35.19 46.6125 35.1486 46.4582 35.07 46.3221L32.3357 41.5864C32.9613 40.9603 33.3488 40.0961 33.3488 39.1433C33.3488 37.2363 31.7972 35.6849 29.8902 35.6849C27.9833 35.6849 26.4316 37.2363 26.4316 39.1433C26.4316 41.0503 27.9831 42.6018 29.8902 42.6018C30.2001 42.6018 30.5003 42.5602 30.7861 42.4834L33.3993 47.0096V54.0541H30.5003C29.4527 51.5667 28.1516 49.54 26.5344 47.0203C26.1645 46.4439 25.7788 45.8431 25.3772 45.2069C23.8679 42.8136 23.0703 40.0452 23.0703 37.2008C23.0703 28.9161 29.8104 22.1761 38.095 22.1761C46.3796 22.1761 53.1239 28.9161 53.1239 37.2008C53.1239 40.045 52.3263 42.8135 50.8171 45.2067C50.4156 45.843 50.0301 46.4435 49.6604 47.0194C48.043 49.5394 46.7416 51.5664 45.694 54.0541L45.6946 54.0543ZM44.6366 39.1434C44.6366 38.2237 45.3847 37.4754 46.3046 37.4754C47.2245 37.4754 47.9725 38.2237 47.9725 39.1434C47.9725 40.0632 47.2244 40.8115 46.3046 40.8115C45.3849 40.8115 44.6366 40.0632 44.6366 39.1434ZM29.8907 40.8115C28.9708 40.8115 28.2227 40.0632 28.2227 39.1434C28.2227 38.2237 28.9708 37.4754 29.8907 37.4754C30.8106 37.4754 31.5586 38.2237 31.5586 39.1434C31.5586 40.0632 30.8104 40.8115 29.8907 40.8115ZM41.9636 66.0807H34.2317C33.5308 66.0807 32.9607 65.5104 32.9607 64.8097V61.858H43.2348V64.8097C43.2348 65.5106 42.6647 66.0807 41.9638 66.0807H41.9636ZM66.3588 41.9515C66.3588 42.5966 65.8341 43.1213 65.1889 43.1213H62.2964C61.8834 43.1213 61.524 43.4037 61.4265 43.805C60.8444 46.1997 59.8993 48.4812 58.618 50.5862C58.4033 50.939 58.4577 51.3927 58.7497 51.6849L60.7918 53.727C61.2469 54.1846 61.247 54.929 60.7936 55.3847L55.3671 60.811C54.9117 61.2665 54.1679 61.2656 53.7118 60.8116L51.6722 58.7677C51.3802 58.4751 50.926 58.4206 50.5729 58.6354C49.3168 59.4002 47.996 60.0442 46.6252 60.564C46.9805 60.064 47.1916 59.4549 47.1916 58.7963V55.1242C48.2048 52.6052 49.5157 50.5603 51.1676 47.9865C51.5398 47.4069 51.9278 46.8023 52.3318 46.1619C54.0218 43.4821 54.915 40.3835 54.915 37.2008C54.915 27.9289 47.3699 20.3857 38.0956 20.3857C28.8212 20.3857 21.2803 27.929 21.2803 37.2008C21.2803 40.3836 22.1735 43.4824 23.8635 46.1622C24.2678 46.8028 24.6558 47.4075 25.0281 47.9874C26.6799 50.5607 27.9907 52.6055 29.0039 55.1242V58.7963C29.0039 59.4549 29.2149 60.064 29.5702 60.564C28.1994 60.0442 26.8786 59.4001 25.6225 58.6354C25.2694 58.4207 24.8151 58.4751 24.5233 58.7677L22.4859 60.8093C22.0271 61.2658 21.2834 61.2664 20.828 60.811L15.4017 55.3847C14.9453 54.9283 14.9453 54.1852 15.4017 53.7286L17.4456 51.6847C17.7376 51.3927 17.792 50.9388 17.5773 50.5861C16.2959 48.4812 15.3511 46.1997 14.7688 43.8049C14.6712 43.4036 14.3119 43.1211 13.8988 43.1211H11.0062C10.3613 43.1211 9.83648 42.5964 9.83648 41.9514V34.2786C9.83648 33.6313 10.3612 33.1046 11.0062 33.1046H13.8988C14.3117 33.1046 14.6712 32.8221 14.7688 32.4208C15.3527 30.0184 16.2963 27.7369 17.573 25.6396C17.7875 25.2872 17.7334 24.8339 17.4421 24.5417L15.4001 22.4956C15.1805 22.2772 15.0596 21.9849 15.0591 21.6724C15.0587 21.3578 15.1802 21.0627 15.4016 20.8414L20.8298 15.4174C21.0482 15.1978 21.3406 15.0767 21.653 15.0764H21.6547C21.9685 15.0764 22.2632 15.1981 22.4843 15.4192L24.5238 17.4587C24.816 17.7507 25.2696 17.8051 25.6224 17.5904C27.7252 16.3102 30.0082 15.3653 32.4077 14.7819C32.8089 14.6843 33.0915 14.325 33.0915 13.912V11.0236C33.0915 10.3786 33.6162 9.85391 34.2612 9.85391H41.9341C42.579 9.85391 43.1038 10.3786 43.1038 11.0236V13.9162C43.1038 14.3292 43.3863 14.6886 43.7876 14.7861C46.1948 15.3712 48.4777 16.3148 50.5731 17.5904C50.9256 17.805 51.3798 17.7507 51.6716 17.4587L53.7113 15.4192C53.9322 15.1981 54.2268 15.0765 54.5406 15.0765H54.5424C54.855 15.0768 55.1473 15.198 55.3674 15.4195L60.7919 20.8395C61.2482 21.2983 61.249 22.042 60.7937 22.4972L58.7498 24.5411C58.4578 24.8331 58.4035 25.2869 58.6181 25.6398C59.8994 27.7446 60.8444 30.0262 61.4267 32.421C61.5241 32.8223 61.8834 33.1047 62.2965 33.1047H65.1891C65.8341 33.1047 66.359 33.6315 66.359 34.2788L66.3588 41.9515ZM3.39244 23.7946C3.58089 23.3374 4.10407 23.1198 4.56127 23.3078L8.03661 24.7393C8.49366 24.9276 8.7116 25.4509 8.52345 25.9079C8.38104 26.2536 8.04734 26.4626 7.69532 26.4626C7.58166 26.4626 7.4662 26.4408 7.35462 26.3948L3.87928 24.9633C3.42223 24.775 3.20429 24.2518 3.39244 23.7946ZM23.2025 4.61877C23.0131 4.16217 23.2297 3.63824 23.6863 3.44875C24.1428 3.25941 24.6667 3.47586 24.8564 3.93261L26.2965 7.40379C26.4858 7.86038 26.2692 8.38431 25.8126 8.5738C25.7004 8.62028 25.5842 8.64233 25.4698 8.64233C25.1188 8.64233 24.7856 8.43437 24.6426 8.08995L23.2025 4.61877ZM11.5514 12.835C11.2018 12.4853 11.2017 11.9185 11.5514 11.5689C11.9009 11.2191 12.4679 11.2192 12.8174 11.5689L15.4736 14.225C15.8232 14.5747 15.8232 15.1415 15.4736 15.4911C15.2988 15.666 15.0697 15.7533 14.8406 15.7533C14.6115 15.7533 14.3823 15.666 14.2076 15.4911L11.5514 12.835ZM37.2004 5.22583V1.46743C37.2004 0.972998 37.6011 0.572266 38.0957 0.572266C38.5903 0.572266 38.991 0.972998 38.991 1.46743V5.22583C38.991 5.72026 38.5903 6.12099 38.0957 6.12099C37.6011 6.12099 37.2004 5.72026 37.2004 5.22583ZM60.7219 15.491C60.3723 15.1413 60.3723 14.5745 60.7219 14.2249L63.3781 11.5687C63.7275 11.2191 64.2945 11.2191 64.644 11.5687C64.9938 11.9184 64.9937 12.4852 64.644 12.8348L61.9879 15.491C61.8131 15.6657 61.584 15.7532 61.3549 15.7532C61.1258 15.7532 60.8966 15.6659 60.7219 15.491ZM49.8144 7.36669L51.2502 3.89551C51.4391 3.43862 51.963 3.22157 52.4196 3.41046C52.8765 3.59951 53.0935 4.12299 52.9046 4.57989L51.4689 8.05106C51.3263 8.39608 50.9929 8.60434 50.6413 8.60434C50.5272 8.60434 50.4113 8.58244 50.2994 8.53611C49.8425 8.34707 49.6255 7.82359 49.8144 7.36669ZM5.2084 39.0082H1.45C0.955569 39.0082 0.554688 38.6074 0.554688 38.113C0.554688 37.6186 0.95542 37.2178 1.45 37.2178H5.2084C5.70283 37.2178 6.10371 37.6186 6.10371 38.113C6.10371 38.6074 5.70298 39.0082 5.2084 39.0082ZM67.6394 25.8306C67.4496 25.3742 67.6656 24.8501 68.122 24.6602L71.5932 23.216C72.0503 23.0258 72.5736 23.2422 72.7637 23.6987C72.9535 24.1551 72.7375 24.6792 72.281 24.8692L68.8098 26.3133C68.6974 26.3601 68.5809 26.3823 68.4662 26.3823C68.1155 26.3823 67.7824 26.1747 67.6392 25.8306H67.6394ZM52.9928 71.6068C53.1825 72.0634 52.966 72.5873 52.5094 72.7769C52.3972 72.8236 52.2809 72.8456 52.1663 72.8456C51.8155 72.8456 51.4823 72.6378 51.3393 72.2935L49.8993 68.8267C49.7097 68.3701 49.9261 67.8461 50.3827 67.6565C50.8386 67.4669 51.3631 67.6832 51.5527 68.1399L52.9927 71.6068H52.9928ZM64.6446 63.3956C64.9939 63.7456 64.9935 64.3124 64.6436 64.6617C64.4688 64.8362 64.2399 64.9235 64.011 64.9235C63.7822 64.9235 63.5524 64.8359 63.3775 64.6609L60.7213 62.0005C60.372 61.6506 60.3724 61.0838 60.7224 60.7344C61.0724 60.3852 61.6393 60.3858 61.9885 60.7355L64.6446 63.3958V63.3956ZM72.803 52.4314C72.6606 52.777 72.3269 52.9858 71.9749 52.9858C71.8612 52.9858 71.7458 52.9641 71.6342 52.918L68.1588 51.4864C67.7018 51.2981 67.4839 50.7748 67.672 50.3176C67.8605 49.8606 68.3835 49.6428 68.8408 49.8308L72.3162 51.2624C72.7732 51.4507 72.9912 51.9742 72.803 52.4314ZM8.55608 50.3951C8.74587 50.8515 8.52986 51.3756 8.07341 51.5655L4.60223 53.0098C4.48976 53.0566 4.37327 53.0788 4.25856 53.0788C3.90788 53.0788 3.57493 52.8713 3.43177 52.5271C3.24183 52.0707 3.45784 51.5466 3.91428 51.3567L7.38546 49.9124C7.84191 49.7226 8.36614 49.9385 8.55608 50.3951ZM75.6406 38.1128C75.6406 38.6073 75.2399 39.008 74.7453 39.008H70.9869C70.4925 39.008 70.0916 38.6073 70.0916 38.1128C70.0916 37.6184 70.4923 37.2177 70.9869 37.2177H74.7453C75.2397 37.2177 75.6406 37.6184 75.6406 38.1128ZM15.4731 60.7344C15.823 61.0838 15.8235 61.6506 15.4741 62.0005L12.818 64.6609C12.6431 64.8359 12.4137 64.9235 12.1844 64.9235C11.9552 64.9235 11.7268 64.8363 11.5519 64.6617C11.202 64.3124 11.2015 63.7456 11.5508 63.3956L14.207 60.7353C14.5563 60.3854 15.1229 60.3851 15.4731 60.7343V60.7344ZM38.9909 71.0043V74.7584C38.9909 75.2528 38.5901 75.6536 38.0956 75.6536C37.601 75.6536 37.2002 75.2528 37.2002 74.7584V71.0043C37.2002 70.5099 37.601 70.1092 38.0956 70.1092C38.5901 70.1092 38.9909 70.5099 38.9909 71.0043ZM26.3811 68.8593L24.9453 72.3305C24.8027 72.6755 24.4693 72.8838 24.1178 72.8838C24.0036 72.8838 23.8877 72.8619 23.7759 72.8155C23.319 72.6265 23.1019 72.103 23.2908 71.6461L24.7266 68.1749C24.9155 67.7179 25.4394 67.501 25.896 67.6899C26.3529 67.8789 26.57 68.4024 26.3811 68.8593Z" fill="url(#paint0_linear_1538_9038)"/>
<defs>
<linearGradient id="paint0_linear_1538_9038" x1="0.554688" y1="38.0962" x2="75.6406" y2="38.0962" gradientUnits="userSpaceOnUse">
<stop stop-color="#00C0FF"/>
<stop offset="1" stop-color="#5558FF"/>
</linearGradient>
</defs>
</svg>
