<svg width="55" height="62" viewBox="0 0 55 62" fill="none" xmlns="http://www.w3.org/2000/svg">
<path d="M53.4828 15.9828H51.7544C51.7532 15.9799 51.752 15.9769 51.7509 15.974L51.4193 15.1647C51.4172 15.1594 51.415 15.1542 51.4127 15.1489C51.4128 15.1481 51.413 15.1471 51.4131 15.1464L52.6411 13.909C53.2214 13.3242 53.2214 12.3726 52.6411 11.7877L50.3345 9.46349C50.0516 9.17838 49.6743 9.02129 49.272 9.02129C48.8698 9.02129 48.4926 9.17838 48.2098 9.46337L46.9868 10.6955C46.9839 10.6942 46.9809 10.693 46.9779 10.6918L46.1807 10.36C46.1768 10.3584 46.1729 10.3569 46.1689 10.3552C46.1687 10.3549 46.1684 10.3545 46.1682 10.3542V8.60069C46.1682 7.77296 45.4948 7.09944 44.6669 7.09944H41.4096C40.5817 7.09944 39.9083 7.77296 39.9083 8.60069V10.3542C39.9081 10.3545 39.9078 10.3549 39.9076 10.3552C39.9036 10.3569 39.8998 10.3584 39.8958 10.36L39.0987 10.6918C39.0957 10.6931 39.0928 10.6943 39.0898 10.6955L37.8671 9.46325C37.5841 9.17826 37.2069 9.02129 36.8048 9.02129C36.4115 9.02129 36.0426 9.17237 35.762 9.44548C33.5312 8.59817 31.116 8.1329 28.5946 8.1329C17.3597 8.1329 8.21937 17.3402 8.21937 28.6574C8.21937 32.8505 9.46637 36.883 11.8257 40.3192C14.014 43.506 17.0106 45.9811 20.5193 47.5065V50.8505C19.7162 51.1463 19.1408 51.9169 19.1408 52.8214V54.7755C19.1408 55.9344 20.0837 56.8773 21.2426 56.8773H22.5562V60.0407C22.5562 61.1267 23.4379 62.01 24.5215 62.01H32.6678C33.7515 62.01 34.6331 61.1267 34.6331 60.0407V56.8773H35.9468C37.1056 56.8773 38.0486 55.9344 38.0486 54.7755V52.8214C38.0486 51.9169 37.473 51.1462 36.6699 50.8505V47.5066C41.2328 45.5237 44.8968 41.9591 47.0288 37.4115C47.2399 36.9612 47.046 36.4248 46.5956 36.2136C46.1451 36.0023 45.6087 36.1964 45.3977 36.6468C43.5661 40.5535 40.496 43.6646 36.6699 45.5236V40.6383H36.8722C37.7 40.6383 38.3734 39.9649 38.3734 39.137V36.7898C38.3734 35.9619 37.7 35.2885 36.8722 35.2885H34.5813C33.7534 35.2885 33.08 35.9619 33.08 36.7898V39.137C33.08 39.9649 33.7534 40.6383 34.5813 40.6383H34.8685V50.7194H33.5568V43.8091C33.5568 43.2368 33.2753 42.5538 32.8725 42.1478L26.0779 35.3011L26.3671 35.0097C26.9474 34.4249 26.9474 33.4732 26.3671 32.8883L24.7438 31.2527C24.461 30.9676 24.0837 30.8105 23.6814 30.8105C23.2792 30.8105 22.902 30.9676 22.6192 31.2526L20.9751 32.9092C20.3948 33.494 20.3948 34.4457 20.9751 35.0306L22.5984 36.6662C22.8812 36.9513 23.2586 37.1084 23.6608 37.1084C24.063 37.1084 24.4402 36.9513 24.7231 36.6663L24.8088 36.5799L31.5936 43.4167C31.6601 43.4859 31.7537 43.7135 31.7554 43.8091V50.7194H29.8931V43.1543C29.8931 42.6567 29.4898 42.2535 28.9924 42.2535C28.4949 42.2535 28.0916 42.6567 28.0916 43.1543V50.7195H25.3667V44.2758H25.6115C26.4393 44.2758 27.1127 43.6024 27.1127 42.7745V40.4273C27.1127 39.5994 26.4393 38.926 25.6115 38.926H23.3205C22.4927 38.926 21.8193 39.5994 21.8193 40.4273V42.7745C21.8193 43.6024 22.4927 44.2758 23.3205 44.2758H23.5652V50.7195H22.3209V46.9062C22.3209 46.5377 22.0965 46.2065 21.7544 46.0697C18.3335 44.703 15.4139 42.3617 13.311 39.2993C11.1587 36.1647 10.021 32.4848 10.021 28.6574C10.021 18.3335 18.3531 9.93441 28.5947 9.93441C30.6058 9.93441 32.5426 10.26 34.3576 10.8588L33.436 11.7876C32.8557 12.3723 32.8557 13.324 33.436 13.9088L34.6638 15.1463C34.6639 15.1471 34.6641 15.1481 34.6641 15.1488C34.6618 15.154 34.6597 15.1593 34.6575 15.1644L34.3259 15.9737C34.3247 15.9767 34.3235 15.9797 34.3223 15.9825H32.594C31.7661 15.9825 31.0927 16.6559 31.0927 17.4838V20.7755C31.0927 21.6034 31.7661 22.2768 32.594 22.2768H34.3223C34.3235 22.2796 34.3247 22.2828 34.3259 22.2856L34.6574 23.0946C34.6596 23.0999 34.6617 23.1051 34.664 23.1104C34.664 23.1112 34.6638 23.1119 34.6637 23.1128L33.4359 24.3504C32.8557 24.9351 32.8555 25.8867 33.4359 26.4717L35.7425 28.7965C36.0253 29.0814 36.4027 29.2384 36.8048 29.2384C37.2069 29.2384 37.5841 29.0814 37.8672 28.7963L39.0898 27.564C39.0928 27.5652 39.0957 27.5666 39.0987 27.5678L39.8958 27.8995C39.8998 27.9012 39.9036 27.9026 39.9076 27.9043C39.9078 27.9047 39.9081 27.905 39.9083 27.9054V29.6588C39.9083 30.4867 40.5817 31.1601 41.4096 31.1601H44.667C45.4949 31.1601 46.1683 30.4867 46.1683 29.6588V27.9054C46.1685 27.905 46.1688 27.9047 46.169 27.9043C46.173 27.9026 46.1769 27.901 46.1809 27.8994L46.9781 27.5675C46.9811 27.5663 46.984 27.5651 46.987 27.5638L47.1445 27.7225C47.1598 28.0321 47.1685 28.3436 47.1685 28.6571C47.1685 29.49 47.1137 30.3274 47.0059 31.1464C46.9409 31.6397 47.288 32.0921 47.7812 32.157C48.2746 32.2226 48.7269 31.8749 48.7919 31.3817C48.8864 30.6647 48.9418 29.9349 48.961 29.2055C49.0622 29.2267 49.1662 29.2382 49.2723 29.2382C49.6744 29.2382 50.0516 29.0813 50.3347 28.7962L52.6415 26.4715C53.2217 25.8867 53.2217 24.9351 52.6413 24.3502L51.4134 23.113C51.4133 23.1122 51.4131 23.1112 51.4131 23.1104C51.4152 23.1052 51.4175 23.1 51.4196 23.0949L51.7512 22.2856C51.7524 22.2828 51.7536 22.2796 51.7548 22.2768H53.4831C54.311 22.2768 54.9844 21.6034 54.9844 20.7755V17.484C54.984 16.6562 54.3106 15.9828 53.4828 15.9828ZM23.6605 35.1794L22.4604 33.97L23.6813 32.7398L24.8815 33.9492L23.6605 35.1794ZM32.6677 60.2085H24.5214C24.4327 60.2085 24.3576 60.1316 24.3576 60.0407V59.3385H32.8315V60.0407C32.8315 60.1318 32.7565 60.2085 32.6677 60.2085ZM32.8315 57.537H24.3576V56.8773H32.8315V57.537ZM34.8813 37.0902H36.5717V38.8369H34.8813V37.0902ZM23.6205 40.7275H25.311V42.4743H23.6205V40.7275ZM20.9422 52.8213C20.9422 52.6585 21.0797 52.521 21.2424 52.521H35.9467C36.1094 52.521 36.2469 52.6585 36.2469 52.8213V54.7754C36.2469 54.9381 36.1094 55.0757 35.9467 55.0757H21.2424C21.0797 55.0757 20.9422 54.9381 20.9422 54.7754V52.8213ZM53.1825 20.4755H51.7124C51.0021 20.4755 50.3192 20.956 50.0759 21.6223L49.761 22.391C49.4661 23.0325 49.6088 23.8526 50.1067 24.3544L51.1557 25.4113L49.272 27.3097L48.2325 26.2618C47.9156 25.9428 47.459 25.7598 46.9793 25.7598C46.7272 25.7598 46.481 25.8127 46.2649 25.9134L45.5083 26.2282C44.8449 26.4743 44.3667 27.1573 44.3667 27.8656V29.3588H41.7098V27.8656C41.7098 27.1573 41.2316 26.4743 40.5681 26.2282L39.8114 25.9134C39.5953 25.8129 39.3492 25.7599 39.0973 25.7599C38.6176 25.7599 38.1609 25.9429 37.8439 26.2623L36.8048 27.3097L34.9211 25.4113L35.9702 24.3539C36.4682 23.8522 36.6107 23.0322 36.3158 22.3906L36.0008 21.6222C35.7574 20.9558 35.0746 20.4754 34.3644 20.4754H32.8941V17.7843H34.3644C35.0746 17.7843 35.7575 17.3039 36.0008 16.6373L36.3158 15.8687C36.6106 15.2272 36.4679 14.4071 35.9701 13.9054L34.9211 12.8482L36.8047 10.9502L37.844 11.9976C38.1609 12.3166 38.6176 12.4998 39.0973 12.4998C39.3492 12.4998 39.5953 12.4468 39.8114 12.3463L40.5681 12.0315C41.2316 11.7854 41.7098 11.1024 41.7098 10.394V8.90094H44.3668V10.3942C44.3668 11.1024 44.845 11.7856 45.5086 12.0316L46.265 12.3463C46.4812 12.4469 46.7274 12.4999 46.9795 12.4999C47.4593 12.4999 47.916 12.3168 48.2326 11.9976L49.272 10.9503L51.1557 12.8483L50.1066 13.9054C49.6088 14.4071 49.4661 15.2271 49.761 15.8686L50.0759 16.6374C50.3193 17.3038 51.0021 17.7843 51.7124 17.7843H53.1825V20.4755Z" fill="url(#paint0_linear_1538_9041)"/>
<path d="M48.9439 17.1724C48.7892 16.6996 48.2803 16.4416 47.8076 16.5964C47.3348 16.7511 47.0769 17.2597 47.2317 17.7326C47.3785 18.1813 47.4529 18.6513 47.4529 19.1298C47.4529 21.5867 45.4722 23.5855 43.0377 23.5855C40.6031 23.5855 38.6226 21.5867 38.6226 19.1298C38.6226 16.6729 40.6031 14.674 43.0377 14.674C43.5385 14.674 44.0295 14.7577 44.497 14.9228C44.9663 15.0882 45.4807 14.8423 45.6463 14.3734C45.8119 13.9044 45.566 13.3899 45.0969 13.2241C44.4361 12.9909 43.7433 12.8725 43.0377 12.8725C39.6098 12.8725 36.8211 15.6794 36.8211 19.1298C36.8211 22.5801 39.6098 25.387 43.0377 25.387C46.4656 25.387 49.2544 22.5801 49.2544 19.1298C49.2544 18.4609 49.15 17.8022 48.9439 17.1724Z" fill="url(#paint1_linear_1538_9041)"/>
<path d="M43.038 15.9646C41.3022 15.9646 39.8902 17.3844 39.8902 19.1297C39.8902 20.8749 41.3023 22.2948 43.038 22.2948C44.7738 22.2948 46.1858 20.875 46.1858 19.1297C46.186 17.3845 44.7738 15.9646 43.038 15.9646ZM43.038 20.4932C42.2956 20.4932 41.6917 19.8815 41.6917 19.1296C41.6917 18.3776 42.2957 17.766 43.038 17.766C43.7805 17.766 44.3843 18.3776 44.3843 19.1296C44.3845 19.8816 43.7805 20.4932 43.038 20.4932Z" fill="url(#paint2_linear_1538_9041)"/>
<path d="M30.1373 24.7755H27.8464C27.0185 24.7755 26.3451 25.4489 26.3451 26.2768V28.624C26.3451 29.4519 27.0185 30.1253 27.8464 30.1253H28.0911V35.7079C28.0911 36.2055 28.4944 36.6086 28.9919 36.6086C29.4894 36.6086 29.8926 36.2055 29.8926 35.7079V30.1253H30.1373C30.9651 30.1253 31.6385 29.4519 31.6385 28.624V26.2768C31.6385 25.4489 30.9651 24.7755 30.1373 24.7755ZM29.837 28.3238H28.1466V26.577H29.837V28.3238Z" fill="url(#paint3_linear_1538_9041)"/>
<path d="M28.992 0.518555C28.4946 0.518555 28.0913 0.921731 28.0913 1.41931V3.92916C28.0913 4.42674 28.4946 4.82991 28.992 4.82991C29.4895 4.82991 29.8928 4.42674 29.8928 3.92916V1.41931C29.8928 0.921731 29.4895 0.518555 28.992 0.518555Z" fill="url(#paint4_linear_1538_9041)"/>
<path d="M22.6177 4.80814L21.8997 2.40373C21.7573 1.92694 21.2555 1.65587 20.7788 1.79831C20.3021 1.94075 20.0311 2.44241 20.1735 2.91908L20.8913 5.32349C21.0081 5.7143 21.3662 5.96675 21.7541 5.96675C21.8394 5.96675 21.9263 5.9545 22.0122 5.92892C22.4889 5.78648 22.76 5.28482 22.6177 4.80814Z" fill="url(#paint5_linear_1538_9041)"/>
<path d="M15.8998 7.74574L14.5244 5.64951C14.2515 5.23348 13.6931 5.1177 13.2772 5.39057C12.8612 5.66356 12.7452 6.2219 13.0182 6.63781L14.3937 8.73392C14.5667 8.99754 14.8543 9.1407 15.1476 9.1407C15.3172 9.1407 15.4886 9.0929 15.6409 8.99298C16.0568 8.72011 16.1728 8.16164 15.8998 7.74574Z" fill="url(#paint6_linear_1538_9041)"/>
<path d="M10.3043 12.4955L8.38718 10.8836C8.00634 10.5633 7.43815 10.6126 7.11808 10.9933C6.79789 11.3741 6.84701 11.9423 7.22785 12.2624L9.14489 13.8742C9.31375 14.0163 9.51948 14.0856 9.72413 14.0856C9.98091 14.0856 10.2359 13.9764 10.4141 13.7646C10.7343 13.3837 10.6851 12.8155 10.3043 12.4955Z" fill="url(#paint7_linear_1538_9041)"/>
<path d="M6.30247 18.6571L4.0052 17.6656C3.54834 17.4684 3.01833 17.6788 2.82125 18.1357C2.62416 18.5923 2.83458 19.1223 3.29132 19.3195L5.5886 20.311C5.70498 20.3612 5.82604 20.385 5.94506 20.385C6.29371 20.385 6.62567 20.1814 6.77255 19.841C6.96963 19.3842 6.75922 18.8542 6.30247 18.6571Z" fill="url(#paint8_linear_1538_9041)"/>
<path d="M4.23081 25.712L1.74666 25.4244C1.25232 25.3668 0.805551 25.7215 0.748263 26.2156C0.690975 26.7097 1.04527 27.1567 1.53948 27.214L4.02364 27.5016C4.05883 27.5057 4.09366 27.5077 4.12837 27.5077C4.57946 27.5077 4.96895 27.1694 5.02203 26.7104C5.07932 26.2163 4.72502 25.7693 4.23081 25.712Z" fill="url(#paint9_linear_1538_9041)"/>
<path d="M5.30985 33.7957C5.2223 33.3059 4.75438 32.98 4.2645 33.0675L1.80256 33.5079C1.31291 33.5954 0.986839 34.0635 1.07451 34.5531C1.15246 34.9892 1.53221 35.2955 1.96013 35.2955C2.01274 35.2955 2.06618 35.2909 2.11987 35.2813L4.5818 34.8409C5.07145 34.7533 5.3974 34.2853 5.30985 33.7957Z" fill="url(#paint10_linear_1538_9041)"/>
<path d="M7.61102 40.4996C7.38619 40.056 6.84394 39.8787 6.40041 40.1033L4.16811 41.2345C3.72434 41.4595 3.54695 42.0015 3.77178 42.4451C3.93055 42.7584 4.24725 42.939 4.57597 42.939C4.71288 42.939 4.85196 42.9075 4.98239 42.8415L7.21469 41.7102C7.65846 41.4853 7.83585 40.9433 7.61102 40.4996Z" fill="url(#paint11_linear_1538_9041)"/>
<path d="M11.7329 46.2589C11.39 45.8985 10.8199 45.8844 10.4595 46.2272L8.64466 47.9541C8.28424 48.297 8.27007 48.8673 8.61307 49.2277C8.7901 49.4138 9.02766 49.5075 9.2657 49.5075C9.48873 49.5075 9.71223 49.4251 9.8865 49.2594L11.7013 47.5325C12.0618 47.1896 12.0759 46.6193 11.7329 46.2589Z" fill="url(#paint12_linear_1538_9041)"/>
<path d="M21.8626 22.7434H19.5717C18.7438 22.7434 18.0704 23.4168 18.0704 24.2447V26.5919C18.0704 27.4198 18.7438 28.0932 19.5717 28.0932H21.8626C22.6904 28.0932 23.3638 27.4198 23.3638 26.5919V24.2447C23.3638 23.4168 22.6904 22.7434 21.8626 22.7434ZM21.5623 26.2917H19.8719V24.5449H21.5623V26.2917Z" fill="url(#paint13_linear_1538_9041)"/>
<path d="M25.9713 15.8398H23.6804C22.8526 15.8398 22.1791 16.5132 22.1791 17.341V19.6883C22.1791 20.5161 22.8526 21.1895 23.6804 21.1895H25.9713C26.7992 21.1895 27.4726 20.5161 27.4726 19.6883V17.341C27.4726 16.5132 26.7992 15.8398 25.9713 15.8398ZM25.6711 19.388H23.9807V17.6413H25.6711V19.388Z" fill="url(#paint14_linear_1538_9041)"/>
<defs>
<linearGradient id="paint0_linear_1538_9041" x1="0.742188" y1="31.2506" x2="54.9844" y2="31.2506" gradientUnits="userSpaceOnUse">
<stop stop-color="#00C0FF"/>
<stop offset="1" stop-color="#5558FF"/>
</linearGradient>
<linearGradient id="paint1_linear_1538_9041" x1="0.742188" y1="31.2506" x2="54.9844" y2="31.2506" gradientUnits="userSpaceOnUse">
<stop stop-color="#00C0FF"/>
<stop offset="1" stop-color="#5558FF"/>
</linearGradient>
<linearGradient id="paint2_linear_1538_9041" x1="0.742188" y1="31.2506" x2="54.9844" y2="31.2506" gradientUnits="userSpaceOnUse">
<stop stop-color="#00C0FF"/>
<stop offset="1" stop-color="#5558FF"/>
</linearGradient>
<linearGradient id="paint3_linear_1538_9041" x1="0.742188" y1="31.2506" x2="54.9844" y2="31.2506" gradientUnits="userSpaceOnUse">
<stop stop-color="#00C0FF"/>
<stop offset="1" stop-color="#5558FF"/>
</linearGradient>
<linearGradient id="paint4_linear_1538_9041" x1="0.742188" y1="31.2506" x2="54.9844" y2="31.2506" gradientUnits="userSpaceOnUse">
<stop stop-color="#00C0FF"/>
<stop offset="1" stop-color="#5558FF"/>
</linearGradient>
<linearGradient id="paint5_linear_1538_9041" x1="0.742188" y1="31.2506" x2="54.9844" y2="31.2506" gradientUnits="userSpaceOnUse">
<stop stop-color="#00C0FF"/>
<stop offset="1" stop-color="#5558FF"/>
</linearGradient>
<linearGradient id="paint6_linear_1538_9041" x1="0.742188" y1="31.2506" x2="54.9844" y2="31.2506" gradientUnits="userSpaceOnUse">
<stop stop-color="#00C0FF"/>
<stop offset="1" stop-color="#5558FF"/>
</linearGradient>
<linearGradient id="paint7_linear_1538_9041" x1="0.742188" y1="31.2506" x2="54.9844" y2="31.2506" gradientUnits="userSpaceOnUse">
<stop stop-color="#00C0FF"/>
<stop offset="1" stop-color="#5558FF"/>
</linearGradient>
<linearGradient id="paint8_linear_1538_9041" x1="0.742188" y1="31.2506" x2="54.9844" y2="31.2506" gradientUnits="userSpaceOnUse">
<stop stop-color="#00C0FF"/>
<stop offset="1" stop-color="#5558FF"/>
</linearGradient>
<linearGradient id="paint9_linear_1538_9041" x1="0.742188" y1="31.2506" x2="54.9844" y2="31.2506" gradientUnits="userSpaceOnUse">
<stop stop-color="#00C0FF"/>
<stop offset="1" stop-color="#5558FF"/>
</linearGradient>
<linearGradient id="paint10_linear_1538_9041" x1="0.742188" y1="31.2506" x2="54.9844" y2="31.2506" gradientUnits="userSpaceOnUse">
<stop stop-color="#00C0FF"/>
<stop offset="1" stop-color="#5558FF"/>
</linearGradient>
<linearGradient id="paint11_linear_1538_9041" x1="0.742188" y1="31.2506" x2="54.9844" y2="31.2506" gradientUnits="userSpaceOnUse">
<stop stop-color="#00C0FF"/>
<stop offset="1" stop-color="#5558FF"/>
</linearGradient>
<linearGradient id="paint12_linear_1538_9041" x1="0.742188" y1="31.2506" x2="54.9844" y2="31.2506" gradientUnits="userSpaceOnUse">
<stop stop-color="#00C0FF"/>
<stop offset="1" stop-color="#5558FF"/>
</linearGradient>
<linearGradient id="paint13_linear_1538_9041" x1="0.742188" y1="31.2506" x2="54.9844" y2="31.2506" gradientUnits="userSpaceOnUse">
<stop stop-color="#00C0FF"/>
<stop offset="1" stop-color="#5558FF"/>
</linearGradient>
<linearGradient id="paint14_linear_1538_9041" x1="0.742188" y1="31.2506" x2="54.9844" y2="31.2506" gradientUnits="userSpaceOnUse">
<stop stop-color="#00C0FF"/>
<stop offset="1" stop-color="#5558FF"/>
</linearGradient>
</defs>
</svg>
