<svg width="43" height="49" viewBox="0 0 43 49" fill="none" xmlns="http://www.w3.org/2000/svg">
<path d="M39.6656 43.932C41.4006 43.932 42.8125 42.5201 42.8125 40.7851V11.7614C42.8125 10.0264 41.4006 8.6145 39.6656 8.6145H29.8204V4.40973C29.8204 2.30684 28.1092 0.595703 26.0063 0.595703H4.62652C2.52364 0.595703 0.8125 2.30684 0.8125 4.40973V15.6987C0.8125 17.1831 1.66558 18.4717 2.90743 19.1011V40.7851C2.90743 42.5201 4.31929 43.932 6.0543 43.932H6.27602V47.3265H3.50399C3.17489 47.3265 2.90743 47.5939 2.90743 47.923C2.90743 48.2521 3.17489 48.5196 3.50399 48.5196H42.2159C42.545 48.5196 42.8125 48.2521 42.8125 47.923C42.8125 47.5939 42.545 47.3265 42.2159 47.3265H39.4439V43.932H39.6656ZM39.6656 9.80762C40.7424 9.80762 41.6194 10.6836 41.6194 11.7614V15.2244H29.8204V9.80762H39.6656ZM2.00563 15.6987V4.40973C2.00563 2.96505 3.18085 1.78883 4.62652 1.78883H26.0073C27.452 1.78883 28.6282 2.96406 28.6282 4.40973V15.6987C28.6282 17.1434 27.453 18.3196 26.0073 18.3196H12.4087C12.2725 18.3196 12.1412 18.3663 12.0348 18.4508L6.31678 23.0473V18.9161C6.31678 18.587 6.04933 18.3196 5.72022 18.3196H4.62652C3.18085 18.3196 2.00563 17.1434 2.00563 15.6987ZM6.0543 42.7389C4.9775 42.7389 4.10055 41.8629 4.10055 40.7851V19.4749C4.27256 19.4988 4.44756 19.5117 4.62652 19.5117H5.12366V24.2912C5.12366 24.5209 5.2559 24.7296 5.46271 24.8291C5.54523 24.8688 5.63273 24.8877 5.72022 24.8877C5.85345 24.8877 5.98569 24.843 6.09407 24.7565L12.6185 19.5117H26.0073C27.8646 19.5117 29.4147 18.1774 29.7518 16.4165H41.6194V40.7851C41.6194 41.8619 40.7434 42.7389 39.6656 42.7389H39.4439V29.6483C39.4439 29.3192 39.1764 29.0517 38.8473 29.0517H33.3341C33.005 29.0517 32.7376 29.3192 32.7376 29.6483V42.7389H30.6227V36.64C30.6227 36.3109 30.3553 36.0435 30.0262 36.0435H24.5129C24.1838 36.0435 23.9164 36.3109 23.9164 36.64V42.7389H21.8026V32.7524C21.8026 32.4233 21.5351 32.1559 21.206 32.1559H15.6928C15.3637 32.1559 15.0962 32.4233 15.0962 32.7524V42.7389H12.9814V38.901C12.9814 38.5719 12.7139 38.3044 12.3848 38.3044H6.87159C6.54248 38.3044 6.27503 38.5719 6.27503 38.901V42.7399H6.0543V42.7389ZM12.9824 43.932H15.0972V47.3265H12.9824V43.932ZM20.6094 47.3265H16.2893V33.349H20.6094V47.3265ZM21.8026 43.932H23.9174V47.3265H21.8026V43.932ZM29.4306 47.3265H25.1105V37.2366H29.4306V47.3265ZM30.6237 43.932H32.7385V47.3265H30.6237V43.932ZM7.46914 39.4976H11.7893V47.3265H7.46914V39.4976ZM33.9317 47.3265V30.2449H38.2518V47.3265H33.9317ZM9.6287 35.5056C11.1639 35.5056 12.4127 34.2568 12.4127 32.7216C12.4127 32.2185 12.2774 31.7462 12.0438 31.3386L16.8372 26.9956C17.2925 27.3207 17.8493 27.5126 18.4509 27.5126C19.2463 27.5126 19.9642 27.1765 20.4722 26.6396L24.6342 29.1412C24.5398 29.4206 24.4881 29.7199 24.4881 30.0301C24.4881 31.5653 25.7369 32.8141 27.272 32.8141C28.8072 32.8141 30.056 31.5653 30.056 30.0301C30.056 29.5091 29.9118 29.0219 29.6623 28.6043L34.5203 24.0436C34.9677 24.3518 35.5096 24.5318 36.0932 24.5318C37.6284 24.5318 38.8772 23.283 38.8772 21.7478C38.8772 20.2127 37.6284 18.9639 36.0932 18.9639C34.5581 18.9639 33.3093 20.2127 33.3093 21.7478C33.3093 22.2688 33.4534 22.756 33.703 23.1736L28.845 27.7343C28.3976 27.4261 27.8557 27.2461 27.272 27.2461C26.4766 27.2461 25.7578 27.5822 25.2507 28.1191L21.0887 25.6175C21.1831 25.3381 21.2348 25.0389 21.2348 24.7287C21.2348 23.1935 19.986 21.9447 18.4509 21.9447C16.9157 21.9447 15.6669 23.1935 15.6669 24.7287C15.6669 25.2318 15.8021 25.704 16.0358 26.1117L11.2424 30.4547C10.787 30.1295 10.2302 29.9376 9.6287 29.9376C8.09355 29.9376 6.84474 31.1864 6.84474 32.7216C6.84474 34.2568 8.09355 35.5056 9.6287 35.5056ZM36.0912 20.158C36.9682 20.158 37.6821 20.8719 37.6821 21.7488C37.6821 22.6258 36.9682 23.3397 36.0912 23.3397C35.2143 23.3397 34.5004 22.6258 34.5004 21.7488C34.5004 20.8719 35.2143 20.158 36.0912 20.158ZM27.2701 28.4403C28.147 28.4403 28.8609 29.1542 28.8609 30.0311C28.8609 30.908 28.147 31.6219 27.2701 31.6219C26.3931 31.6219 25.6792 30.908 25.6792 30.0311C25.6792 29.1542 26.3931 28.4403 27.2701 28.4403ZM18.4499 23.1388C19.3268 23.1388 20.0407 23.8527 20.0407 24.7296C20.0407 25.6066 19.3268 26.3205 18.4499 26.3205C17.5729 26.3205 16.859 25.6066 16.859 24.7296C16.859 23.8527 17.5729 23.1388 18.4499 23.1388ZM9.6287 31.1308C10.5056 31.1308 11.2195 31.8447 11.2195 32.7216C11.2195 33.5985 10.5056 34.3124 9.6287 34.3124C8.75176 34.3124 8.03787 33.5985 8.03787 32.7216C8.03787 31.8447 8.75176 31.1308 9.6287 31.1308ZM12.7915 14.0621C13.1206 14.0621 13.388 13.7947 13.388 13.4655V10.6508H14.4847L16.0258 13.732C16.1302 13.9408 16.341 14.0621 16.5598 14.0621C16.6493 14.0621 16.7407 14.0422 16.8262 13.9995C17.1205 13.8523 17.2408 13.4934 17.0927 13.1991L15.7315 10.4768C16.5667 10.1308 17.1553 9.30751 17.1553 8.34903C17.1553 7.07935 16.1223 6.04729 14.8536 6.04729H12.7915C12.4624 6.04729 12.1949 6.31475 12.1949 6.64385V13.4665C12.1949 13.7947 12.4614 14.0621 12.7915 14.0621ZM15.9622 8.34804C15.9622 8.95951 15.4651 9.45665 14.8536 9.45665H13.388V7.23942H14.8526C15.4651 7.23942 15.9622 7.73656 15.9622 8.34804ZM4.1622 10.2511V9.85734C4.1622 7.75644 5.87135 6.0463 7.97324 6.0463H8.02793C8.81141 6.0463 9.56407 6.28393 10.2064 6.73235C10.4758 6.92126 10.5424 7.29311 10.3535 7.56356C10.1646 7.834 9.79276 7.89962 9.52232 7.71071C9.08185 7.40248 8.56483 7.23942 8.02793 7.23942H7.97324C6.52956 7.23942 5.35532 8.41366 5.35532 9.85734V10.2511C5.35532 11.6948 6.52956 12.869 7.97324 12.869H8.02793C8.56483 12.869 9.08185 12.7059 9.52232 12.3977C9.79276 12.2088 10.1646 12.2744 10.3535 12.5449C10.5424 12.8153 10.4768 13.1872 10.2064 13.3761C9.56407 13.8255 8.81042 14.0631 8.02793 14.0631H7.97324C5.87135 14.0621 4.1622 12.352 4.1622 10.2511ZM18.9202 13.4655V6.64286C18.9202 6.38137 19.0902 6.1507 19.3388 6.07314C19.5883 5.99559 19.8588 6.08905 20.0069 6.30381L22.6944 10.1984L25.3819 6.30381C25.5301 6.08905 25.8005 5.99559 26.0501 6.07314C26.2996 6.1507 26.4687 6.38137 26.4687 6.64286V13.4655C26.4687 13.7947 26.2012 14.0621 25.8721 14.0621C25.543 14.0621 25.2755 13.7947 25.2755 13.4655V8.55783L23.1866 11.5884C23.0752 11.7494 22.8913 11.8459 22.6954 11.8459C22.4995 11.8459 22.3156 11.7494 22.2042 11.5884L20.1133 8.55783V13.4655C20.1133 13.7947 19.8458 14.0621 19.5167 14.0621C19.1876 14.0621 18.9202 13.7947 18.9202 13.4655Z" fill="#7E7E7E"/>
</svg>
