<svg width="62" height="62" viewBox="0 0 62 62" fill="none" xmlns="http://www.w3.org/2000/svg">
<path d="M28.8859 26.2958C28.8859 25.7522 29.3266 25.3114 29.8702 25.3114H32.7392C33.2828 25.3114 33.7236 25.7522 33.7236 26.2958C33.7236 26.8394 33.2828 27.2802 32.7392 27.2802H29.8702C29.3266 27.2802 28.8859 26.8394 28.8859 26.2958ZM29.8702 36.5455H32.7392C33.2828 36.5455 33.7236 36.1047 33.7236 35.5611C33.7236 35.0175 33.2828 34.5767 32.7392 34.5767H29.8702C29.3266 34.5767 28.8859 35.0175 28.8859 35.5611C28.8859 36.1047 29.3266 36.5455 29.8702 36.5455ZM61.8204 44.4679V48.2978C61.8204 48.7051 61.5696 49.0702 61.1896 49.2165L59.3167 49.9374C59.0364 50.9352 58.6388 51.8943 58.13 52.7996L58.9451 54.6351C59.1104 55.0072 59.0296 55.4427 58.7416 55.7306L56.0335 58.4389C55.7456 58.7268 55.3098 58.8079 54.9379 58.6425L53.1031 57.8277C52.1977 58.3365 51.2383 58.7341 50.2399 59.0146L49.5194 60.8869C49.3732 61.267 49.008 61.5178 48.6007 61.5178H44.7706C44.3633 61.5178 43.9983 61.267 43.852 60.887L43.131 59.014C42.1334 58.7337 41.1743 58.3361 40.2689 57.8273L38.4335 58.6425C38.0612 58.8077 37.6259 58.7269 37.338 58.439L34.6296 55.7307C34.3415 55.4427 34.2607 55.0072 34.4259 54.6351L35.2409 52.8004C34.8031 52.0215 34.4481 51.2021 34.1787 50.3526C33.2356 50.4123 32.2727 50.4434 31.3047 50.4434C23.6973 50.4434 15.9962 48.5393 15.9962 44.8999V30.7559H14.0089C13.6016 30.7559 13.2365 30.5051 13.0902 30.1252L12.3694 28.2523C11.3716 27.972 10.4126 27.5744 9.50719 27.0656L7.6717 27.8808C7.29936 28.046 6.86414 27.9651 6.57609 27.6771L3.86782 24.969C3.57989 24.6811 3.49905 24.2456 3.6643 23.8734L4.47912 22.0385C3.97044 21.1332 3.57276 20.1738 3.29221 19.1754L1.4198 18.4548C1.03983 18.3086 0.789062 17.9434 0.789062 17.5361V13.7061C0.789062 13.2988 1.03983 12.9338 1.4198 12.7875L3.29258 12.0667C3.57276 11.0689 3.97057 10.1097 4.47937 9.20421L3.6643 7.36909C3.49905 6.99699 3.57989 6.56153 3.86782 6.27348L6.57609 3.56509C6.86389 3.27728 7.29936 3.19607 7.6717 3.36157L9.50719 4.17675C10.4126 3.66795 11.3716 3.27039 12.3693 2.99009L13.0902 1.11707C13.2364 0.737098 13.6016 0.486328 14.0089 0.486328H17.8388C18.2461 0.486328 18.6112 0.737098 18.7575 1.11707L19.4784 2.99009C20.4761 3.27039 21.4351 3.66795 22.3405 4.17675L24.176 3.36157C24.5482 3.19632 24.9837 3.27716 25.2715 3.56509L27.9799 6.27335C28.2679 6.56128 28.3488 6.99675 28.1835 7.36896L27.3686 9.20372C27.8064 9.98273 28.1614 10.802 28.4307 11.6514C29.3735 11.5917 30.3365 11.5606 31.3047 11.5606C38.9121 11.5606 46.6132 13.4647 46.6132 17.1039V31.2481H48.6006C49.0079 31.2481 49.3729 31.4989 49.5192 31.8788L50.2401 33.7518C51.2376 34.032 52.1966 34.4297 53.1023 34.9385L54.9377 34.1233C55.31 33.9582 55.7453 34.039 56.0334 34.3268L58.7416 37.0351C59.0296 37.3232 59.1104 37.7586 58.9451 38.1307L58.1303 39.9655C58.6392 40.871 59.0368 41.8302 59.3172 42.8285L61.1896 43.5492C61.5696 43.6954 61.8204 44.0606 61.8204 44.4679ZM27.9799 24.9689L25.2716 27.6771C24.9836 27.9651 24.5482 28.046 24.176 27.8808L22.3412 27.0658C21.592 27.4869 20.8052 27.8307 19.9903 28.0961C22.4962 29.2356 26.7373 29.944 31.3047 29.944C40.063 29.944 44.6445 27.6168 44.6445 26.3693V19.9703C41.8722 21.7363 36.5665 22.6475 31.3047 22.6475C30.0365 22.6475 28.7852 22.5955 27.5709 22.4938L28.1835 23.8731C28.3488 24.2454 28.2678 24.6809 27.9799 24.9689ZM31.3047 13.5293C31.2169 13.5293 31.1294 13.5314 31.0416 13.5319C31.0519 13.5889 31.0586 13.6467 31.0586 13.706V17.536C31.0586 17.9433 30.8079 18.3083 30.4279 18.4546L28.5549 19.1756C28.4227 19.6459 28.2636 20.1072 28.08 20.5587C29.1317 20.6377 30.2108 20.6786 31.3047 20.6786C40.063 20.6786 44.6445 18.3514 44.6445 17.1038C44.6445 15.8563 40.063 13.5293 31.3047 13.5293ZM14.6848 28.7871H17.1631L17.8226 27.0736C17.9391 26.7706 18.1976 26.5447 18.5134 26.4695C19.6618 26.1963 20.7549 25.7432 21.7622 25.1228C22.0388 24.9525 22.3815 24.9296 22.6779 25.0613L24.3574 25.8072L26.1097 24.0548L25.3635 22.3747C25.2319 22.078 25.2547 21.7354 25.4249 21.4591C26.0454 20.4513 26.4985 19.3584 26.7715 18.2111C26.8466 17.8954 27.0725 17.6369 27.3755 17.5203L29.0899 16.8602V14.3819L27.3762 13.7224C27.0734 13.6058 26.8473 13.3474 26.7723 13.0316C26.4989 11.8832 26.0458 10.79 25.4254 9.78278C25.2551 9.50629 25.2322 9.16373 25.3639 8.86694L26.1098 7.18759L24.3574 5.43516L22.6772 6.18131C22.3807 6.3131 22.0379 6.29021 21.7616 6.11991C20.7539 5.49951 19.6612 5.04633 18.5136 4.77329C18.198 4.6981 17.9395 4.47219 17.823 4.16925L17.1628 2.45508H14.6846L14.0247 4.16925C13.9082 4.47207 13.6497 4.6981 13.3341 4.77329C12.1868 5.04633 11.094 5.49939 10.0861 6.12004C9.80952 6.29021 9.46695 6.3131 9.17053 6.18144L7.4902 5.43516L5.73789 7.18759L6.48392 8.86743C6.61558 9.16409 6.5927 9.50666 6.42252 9.78302C5.80188 10.7909 5.34882 11.8838 5.07577 13.0313C5.00072 13.3471 4.7748 13.6056 4.47186 13.7221L2.75781 14.382V16.8603L4.47149 17.5198C4.77431 17.6364 5.00035 17.8948 5.07541 18.2106C5.34882 19.359 5.80187 20.4522 6.42215 21.4596C6.59245 21.7361 6.61534 22.0786 6.48368 22.3753L5.73777 24.0548L7.49008 25.8071L9.17029 25.0609C9.46671 24.9292 9.80952 24.9521 10.0859 25.1224C11.0935 25.7428 12.1863 26.196 13.334 26.4691C13.6496 26.5442 13.9081 26.7702 14.0246 27.0731L14.6848 28.7871ZM17.9649 35.6346C17.9649 36.8822 22.5465 39.2093 31.3047 39.2093C32.5084 39.2093 33.6923 39.1604 34.841 39.0651L34.4259 38.1307C34.2607 37.7586 34.3415 37.3232 34.6295 37.0352L37.3377 34.3268C37.6256 34.0388 38.0611 33.9577 38.4333 34.1232L40.2688 34.9384C41.1743 34.4296 42.1335 34.032 43.131 33.7517L43.852 31.8787C43.9829 31.5386 44.2895 31.3035 44.6444 31.2577V29.2355C41.8721 31.0015 36.5663 31.9127 31.3046 31.9127C26.2673 31.9127 21.679 31.1012 18.8992 29.7563L18.7574 30.1249C18.6264 30.4651 18.3197 30.7002 17.9648 30.746L17.9649 35.6346ZM31.3047 48.4747C31.3926 48.4747 31.4801 48.4726 31.5679 48.4721C31.5577 48.4151 31.5508 48.3573 31.5508 48.298V45.8108H29.8702C29.3266 45.8108 28.8859 45.3701 28.8859 44.8264C28.8859 44.2828 29.3266 43.8421 29.8702 43.8421H31.7787C31.8841 43.7146 32.0201 43.6114 32.1816 43.5492L34.0543 42.8284C34.2251 42.2206 34.44 41.6273 34.6964 41.0515C33.5902 41.1352 32.4556 41.1781 31.3047 41.1781C26.043 41.1781 20.7372 40.2669 17.9649 38.501V44.8999C17.9649 46.1475 22.5465 48.4747 31.3047 48.4747ZM59.8516 45.1438L58.138 44.4841C57.835 44.3676 57.6091 44.1091 57.5339 43.7933C57.2608 42.6453 56.8078 41.5522 56.1873 40.5445C56.017 40.2682 55.9941 39.9256 56.1258 39.6289L56.8717 37.9495L55.1194 36.1972L53.4392 36.9433C53.1427 37.0751 52.8002 37.0522 52.5236 36.8819C51.5157 36.2614 50.4228 35.8082 49.2756 35.5353C48.9599 35.4602 48.7014 35.2343 48.5848 34.9314L47.9247 33.2168H45.4465L44.7866 34.9311C44.6701 35.2341 44.4116 35.46 44.0958 35.535C42.9487 35.8081 41.8558 36.2611 40.8479 36.8817C40.5713 37.052 40.2287 37.0748 39.9323 36.9431L38.2522 36.1969L36.4998 37.9493L37.2458 39.6292C37.3775 39.9258 37.3546 40.2684 37.1844 40.5448C36.5638 41.5525 36.1107 42.6454 35.8377 43.793C35.7626 44.1087 35.5367 44.3672 35.2337 44.4838L33.69 45.0781C33.6563 45.2057 33.5978 45.3229 33.5197 45.4247V47.6219L35.2332 48.2815C35.5362 48.398 35.7622 48.6565 35.8373 48.9721C36.1107 50.1208 36.5638 51.2138 37.1842 52.2211C37.3545 52.4976 37.3773 52.8401 37.2457 53.1368L36.4998 54.8163L38.2522 56.5686L39.9324 55.8224C40.2288 55.6908 40.5716 55.7135 40.848 55.8838C41.8556 56.5043 42.9484 56.9574 44.096 57.2304C44.4117 57.3055 44.6702 57.5314 44.7867 57.8344L45.4466 59.5489H47.9249L48.5845 57.8353C48.701 57.5324 48.9595 57.3064 49.2751 57.2313C50.4234 56.9579 51.5167 56.5048 52.5242 55.8844C52.8005 55.7141 53.1434 55.6914 53.4398 55.823L55.1191 56.5689L56.8714 54.8166L56.1253 53.1364C55.9936 52.8398 56.0165 52.4972 56.1867 52.2208C56.8072 51.2133 57.2603 50.1204 57.5334 48.9728C57.6085 48.6571 57.8344 48.3986 58.1373 48.2821L59.8516 47.6219V45.1438ZM54.9333 46.3829C54.9333 50.9307 51.2334 54.6306 46.6856 54.6306C42.1378 54.6306 38.4379 50.9307 38.4379 46.3829C38.4379 41.835 42.1378 38.1351 46.6856 38.1351C51.2334 38.1351 54.9333 41.835 54.9333 46.3829ZM52.9646 46.3829C52.9646 42.9206 50.1478 40.1039 46.6856 40.1039C43.2234 40.1039 40.4066 42.9206 40.4066 46.3829C40.4066 49.8452 43.2234 52.6618 46.6856 52.6618C50.1478 52.6618 52.9646 49.8452 52.9646 46.3829ZM15.9238 23.8688C11.376 23.8688 7.67613 20.1689 7.67613 15.6211C7.67613 11.0733 11.376 7.37339 15.9238 7.37339C20.4717 7.37339 24.1716 11.0733 24.1716 15.6211C24.1716 20.1689 20.4717 23.8688 15.9238 23.8688ZM22.2028 15.6211C22.2028 12.1588 19.386 9.34214 15.9238 9.34214C12.4617 9.34214 9.64488 12.1588 9.64488 15.6211C9.64488 19.0834 12.4617 21.9001 15.9238 21.9001C19.386 21.9001 22.2028 19.0834 22.2028 15.6211ZM33.8129 7.78991H54.0239V25.0767L53.462 24.2486C53.1566 23.7986 52.5444 23.6816 52.0949 23.9867C51.645 24.292 51.5277 24.9041 51.8329 25.354L54.1938 28.8335C54.377 29.1035 54.6822 29.2652 55.0084 29.2652C55.3346 29.2652 55.6397 29.1036 55.8229 28.8335L58.1839 25.354C58.489 24.9041 58.3717 24.292 57.9219 23.9867C57.4723 23.6817 56.8599 23.7986 56.5547 24.2486L55.9929 25.0767V6.80553C55.9929 6.26191 55.5521 5.82115 55.0085 5.82115H33.8129C33.2693 5.82115 32.8285 6.26191 32.8285 6.80553C32.8285 7.34915 33.2693 7.78991 33.8129 7.78991ZM28.6735 54.2141H8.46252V36.9273L9.02435 37.7554C9.21483 38.036 9.52442 38.1872 9.83979 38.1872C10.0301 38.1872 10.2223 38.1322 10.3917 38.0173C10.8414 37.7121 10.9587 37.0998 10.6535 36.65L8.29259 33.1706C8.10938 32.9006 7.80422 32.7389 7.47802 32.7389C7.15182 32.7389 6.84667 32.9006 6.66345 33.1706L4.30255 36.65C3.99739 37.0998 4.11465 37.7121 4.56439 38.0173C5.014 38.3223 5.62641 38.2053 5.93169 37.7554L6.49352 36.9273V55.1983C6.49352 55.7419 6.93428 56.1827 7.4779 56.1827H28.6732C29.2169 56.1827 29.6576 55.7419 29.6576 55.1983C29.6576 54.6547 29.2171 54.2141 28.6735 54.2141Z" fill="url(#paint0_linear_1479_3979)"/>
<defs>
<linearGradient id="paint0_linear_1479_3979" x1="0.789063" y1="30.9884" x2="61.8204" y2="30.9884" gradientUnits="userSpaceOnUse">
<stop stop-color="#00C0FF"/>
<stop offset="1" stop-color="#5558FF"/>
</linearGradient>
</defs>
</svg>
