<svg width="50" height="54" viewBox="0 0 50 54" fill="none" xmlns="http://www.w3.org/2000/svg">
<path d="M45.5095 40.0138C43.8423 40.0138 42.4437 41.1812 42.0855 42.7411H25.1369V41.8433C25.1369 40.9867 24.5254 40.2406 23.6827 40.069C22.5909 39.8466 21.5234 39.4874 20.5101 39.0011C17.2402 37.4323 14.7771 34.6841 13.5742 31.2626C12.3714 27.8411 12.5731 24.1561 14.1419 20.8862C15.9965 17.0207 19.473 14.3117 23.6801 13.4536C24.5242 13.2813 25.1369 12.5347 25.1369 11.6782V10.6123H42.0855C42.4437 12.1722 43.8423 13.3395 45.5095 13.3395C47.4471 13.3395 49.0233 11.7633 49.0233 9.8257C49.0233 7.88815 47.4471 6.31188 45.5095 6.31188C43.8423 6.31188 42.4437 7.47924 42.0855 9.03915H25.1369V4.77411H32.6468C33.005 6.33412 34.4036 7.50137 36.0708 7.50137C38.0084 7.50137 39.5846 5.92511 39.5846 3.98755C39.5846 2.05 38.0084 0.473734 36.0708 0.473734C34.4036 0.473734 33.005 1.64109 32.6468 3.20099H25.1369V1.98749C25.1369 1.46406 24.9107 0.966329 24.5163 0.621817C24.1233 0.278668 23.6013 0.121985 23.086 0.192251C20.8442 0.496806 18.6469 1.0797 16.555 1.92457C15.9367 2.17427 15.444 2.67557 15.2035 3.29979C14.9615 3.92798 14.991 4.63557 15.2846 5.24112L16.7003 8.16114C16.895 8.56301 16.7491 9.05163 16.3676 9.27343C14.625 10.2876 13.049 11.5495 11.6834 13.0243C11.3863 13.3452 10.8799 13.3799 10.5307 13.1038L7.98858 11.0934C7.46201 10.6769 6.77906 10.4957 6.11521 10.5966C5.44852 10.6978 4.84717 11.0756 4.46553 11.633C2.87218 13.9602 1.65385 16.5096 0.844638 19.2104C0.650725 19.8575 0.734625 20.5626 1.07473 21.1449C1.41337 21.7248 1.98337 22.1423 2.63831 22.2903L5.79964 23.0051C6.23403 23.1032 6.52485 23.5192 6.46182 23.9518C6.17216 25.9415 6.18013 27.9606 6.48573 29.9528C6.55254 30.3889 6.26413 30.8094 5.82911 30.9103L2.6683 31.6429C2.01441 31.7945 1.44693 32.2148 1.11133 32.7961C0.774268 33.3801 0.693934 34.0856 0.890888 34.7317C1.71468 37.4335 2.94716 39.9781 4.55426 42.2947C4.93925 42.8498 5.5428 43.2239 6.21012 43.3211C6.87492 43.4178 7.55639 43.2326 8.08056 42.813L10.6274 40.7737C10.9748 40.4956 11.4835 40.5294 11.7859 40.8508C12.0767 41.16 12.4595 41.5096 12.9234 41.89C13.2593 42.1653 13.7549 42.1163 14.0304 41.7804C14.3058 41.4444 14.2567 40.9489 13.9208 40.6735C13.5091 40.336 13.1763 40.033 12.9318 39.7732C12.0716 38.8584 10.6273 38.7585 9.64423 39.5459L7.09736 41.5851C6.90963 41.7355 6.67503 41.7992 6.43686 41.7646C6.19586 41.7295 5.98632 41.5994 5.84673 41.3983C4.33287 39.2158 3.1718 36.8186 2.39563 34.2731C2.32421 34.0389 2.352 33.7937 2.47376 33.5828C2.59394 33.3745 2.78922 33.2299 3.02341 33.1756L6.18422 32.4429C7.41597 32.1575 8.23137 30.959 8.04049 29.7145C7.7587 27.8766 7.75125 26.0139 8.01847 24.1785C8.19896 22.9383 7.37664 21.7489 6.14636 21.4708L2.98513 20.756C2.75042 20.703 2.5543 20.5593 2.43286 20.3515C2.31005 20.1413 2.2811 19.8964 2.35137 19.662C3.11391 17.117 4.26197 14.7147 5.76335 12.5218C5.90158 12.3199 6.11038 12.1885 6.35107 12.152C6.58861 12.1158 6.82374 12.1781 7.01262 12.3275L9.55478 14.3378C10.5442 15.1201 11.986 15.0128 12.8376 14.0933C14.0972 12.7329 15.5511 11.5688 17.1588 10.6332C18.247 10 18.6673 8.61273 18.1158 7.47494L16.7002 4.55482C16.5944 4.33668 16.5843 4.0918 16.6716 3.86537C16.7572 3.64283 16.9251 3.47167 17.1442 3.38316C19.1151 2.58716 21.1855 2.03804 23.2979 1.751C23.3845 1.73957 23.4452 1.77481 23.4817 1.80669C23.5124 1.83354 23.5639 1.89269 23.5639 1.98739V11.6782C23.5639 11.7922 23.4824 11.8884 23.3657 11.9122C18.6719 12.8695 14.7931 15.8924 12.7237 20.2057C10.973 23.8543 10.748 27.9664 12.0902 31.7843C13.4324 35.6022 16.181 38.6689 19.8296 40.4195C20.9595 40.9616 22.1503 41.3623 23.3689 41.6104C23.4837 41.6338 23.5638 41.7296 23.5638 41.8433V51.819C23.5638 51.9136 23.5124 51.9727 23.4818 51.9996C23.4455 52.0314 23.3847 52.0671 23.2991 52.0555C21.2433 51.7815 19.2173 51.2483 17.2769 50.4707C17.0571 50.3826 16.8883 50.2117 16.8016 49.9894C16.7137 49.7638 16.7227 49.5195 16.8271 49.3014C16.8287 49.2981 16.8301 49.2949 16.8317 49.2916L18.4263 45.8374C18.841 44.9391 18.5241 43.861 17.6888 43.3295C17.1599 42.993 16.646 42.6549 16.1617 42.3245C15.8027 42.0796 15.3133 42.1722 15.0687 42.5312C14.8239 42.8901 14.9165 43.3794 15.2754 43.6242C15.7735 43.9639 16.3015 44.3113 16.8444 44.6567C17.0182 44.7674 17.0842 44.9914 16.9981 45.178L15.4056 48.6277C15.1182 49.2323 15.0927 49.9365 15.336 50.5607C15.5788 51.1836 16.0729 51.683 16.6918 51.931C18.7533 52.7571 20.9065 53.3236 23.0913 53.6149C23.1707 53.6255 23.2501 53.6307 23.3292 53.6307C23.7636 53.6307 24.1869 53.4734 24.5182 53.1833C24.9114 52.8389 25.137 52.3417 25.137 51.8191V50.1524H32.6469C33.0051 51.7123 34.4037 52.8797 36.0709 52.8797C38.0085 52.8797 39.5847 51.3034 39.5847 49.3659C39.5847 47.4283 38.0085 45.8521 36.0709 45.8521C34.4037 45.8521 33.0051 47.0194 32.6469 48.5793H25.137V44.3143H42.0856C42.4438 45.8743 43.8424 47.0415 45.5096 47.0415C47.4472 47.0415 49.0234 45.4653 49.0234 43.5277C49.0234 41.5902 47.447 40.0138 45.5095 40.0138ZM45.5095 7.8849C46.5797 7.8849 47.4502 8.75546 47.4502 9.8256C47.4502 10.8957 46.5797 11.7663 45.5095 11.7663C44.4394 11.7663 43.5687 10.8957 43.5687 9.8256C43.5687 8.75546 44.4394 7.8849 45.5095 7.8849ZM36.0708 2.04685C37.141 2.04685 38.0115 2.91741 38.0115 3.98755C38.0115 5.05769 37.141 5.92825 36.0708 5.92825C35.0007 5.92825 34.13 5.05769 34.13 3.98755C34.13 2.91741 35.0007 2.04685 36.0708 2.04685ZM36.0708 47.425C37.141 47.425 38.0115 48.2955 38.0115 49.3657C38.0115 50.4358 37.141 51.3064 36.0708 51.3064C35.0007 51.3064 34.13 50.4358 34.13 49.3657C34.13 48.2955 35.0007 47.425 36.0708 47.425ZM45.5095 45.4684C44.4394 45.4684 43.5687 44.5979 43.5687 43.5277C43.5687 42.4576 44.4394 41.587 45.5095 41.587C46.5797 41.587 47.4502 42.4576 47.4502 43.5277C47.4502 44.5979 46.5797 45.4684 45.5095 45.4684Z" fill="url(#paint0_linear_1479_3978)"/>
<path d="M25.7839 24.2033C26.2184 24.2033 26.5705 23.8511 26.5705 23.4167C26.5705 22.9823 26.2184 22.6302 25.7839 22.6302H22.9356C22.5011 22.6302 22.1491 22.9823 22.1491 23.4167V30.1764C22.1491 30.6108 22.5011 30.963 22.9356 30.963H25.7839C26.2184 30.963 26.5705 30.6108 26.5705 30.1764C26.5705 29.742 26.2184 29.3899 25.7839 29.3899H23.7222V27.5831H25.5739C26.0084 27.5831 26.3604 27.2309 26.3604 26.7965C26.3604 26.3621 26.0084 26.01 25.5739 26.01H23.7222V24.2032L25.7839 24.2033Z" fill="url(#paint1_linear_1479_3978)"/>
<path d="M34.5508 25.1587C34.5508 23.7473 33.3575 22.5992 31.8909 22.5992H30.078C30.0776 22.5992 30.0783 22.5992 30.078 22.5992C30.0777 22.5992 30.0762 22.5992 30.0759 22.5992C29.6414 22.5992 29.2893 22.9513 29.2893 23.3857V30.2077C29.2893 30.6421 29.6414 30.9943 30.0759 30.9943C30.5104 30.9943 30.8624 30.6421 30.8624 30.2077V28.1012L33.1738 30.7274C33.3292 30.904 33.5464 30.9943 33.7645 30.9943C33.9491 30.9943 34.1344 30.9297 34.2839 30.7982C34.6099 30.5112 34.6416 30.0141 34.3547 29.6881L32.5507 27.6384C33.6992 27.3553 34.5508 26.3511 34.5508 25.1587ZM31.8908 26.1452C31.6543 26.1452 31.2429 26.147 30.8727 26.1488C30.8707 25.7866 30.8691 25.3874 30.8691 25.1589C30.8691 24.965 30.868 24.5516 30.867 24.1724H31.8909C32.48 24.1724 32.9777 24.6241 32.9777 25.1589C32.9777 25.6935 32.48 26.1452 31.8908 26.1452Z" fill="url(#paint2_linear_1479_3978)"/>
<path d="M37.4834 30.2077C37.4834 30.6421 37.8355 30.9943 38.27 30.9943C38.7045 30.9943 39.0565 30.6421 39.0565 30.2077V28.0267C39.4554 28.0247 39.9119 28.0227 40.1695 28.0227C41.6854 28.0227 42.9188 26.8062 42.9188 25.3109C42.9188 23.8157 41.6854 22.5992 40.1695 22.5992H38.27C38.061 22.5992 37.8605 22.6823 37.7129 22.8304C37.5653 22.9785 37.4828 23.1792 37.4834 23.3883V30.2077ZM40.1695 24.1723C40.8071 24.1723 41.3457 24.6937 41.3457 25.3109C41.3457 25.9281 40.8071 26.4495 40.1695 26.4495C39.9138 26.4495 39.4627 26.4515 39.0653 26.4536C39.0632 26.0434 39.06 24.6015 39.0588 24.1724L40.1695 24.1723Z" fill="url(#paint3_linear_1479_3978)"/>
<path d="M30.8986 18.3663H25.089C20.3826 18.3663 16.5537 22.1952 16.5537 26.9015C16.5537 31.6079 20.3826 35.4369 25.089 35.4369H39.35C44.0564 35.4369 47.8853 31.608 47.8853 26.9015C47.8853 22.1952 44.0564 18.3663 39.35 18.3663H34.0447C33.6102 18.3663 33.2582 18.7185 33.2582 19.1529C33.2582 19.5873 33.6102 19.9394 34.0447 19.9394H39.35C43.189 19.9394 46.3122 23.0626 46.3122 26.9015C46.3122 30.7405 43.1891 33.8637 39.35 33.8637H25.089C21.2501 33.8637 18.1268 30.7405 18.1268 26.9015C18.1268 23.0626 21.25 19.9394 25.089 19.9394H30.8986C31.3331 19.9394 31.6852 19.5873 31.6852 19.1529C31.6852 18.7185 31.333 18.3663 30.8986 18.3663Z" fill="url(#paint4_linear_1479_3978)"/>
<defs>
<linearGradient id="paint0_linear_1479_3978" x1="0.742188" y1="26.8913" x2="49.0234" y2="26.8913" gradientUnits="userSpaceOnUse">
<stop stop-color="#00C0FF"/>
<stop offset="1" stop-color="#5558FF"/>
</linearGradient>
<linearGradient id="paint1_linear_1479_3978" x1="0.742188" y1="26.8913" x2="49.0234" y2="26.8913" gradientUnits="userSpaceOnUse">
<stop stop-color="#00C0FF"/>
<stop offset="1" stop-color="#5558FF"/>
</linearGradient>
<linearGradient id="paint2_linear_1479_3978" x1="0.742188" y1="26.8913" x2="49.0234" y2="26.8913" gradientUnits="userSpaceOnUse">
<stop stop-color="#00C0FF"/>
<stop offset="1" stop-color="#5558FF"/>
</linearGradient>
<linearGradient id="paint3_linear_1479_3978" x1="0.742188" y1="26.8913" x2="49.0234" y2="26.8913" gradientUnits="userSpaceOnUse">
<stop stop-color="#00C0FF"/>
<stop offset="1" stop-color="#5558FF"/>
</linearGradient>
<linearGradient id="paint4_linear_1479_3978" x1="0.742188" y1="26.8913" x2="49.0234" y2="26.8913" gradientUnits="userSpaceOnUse">
<stop stop-color="#00C0FF"/>
<stop offset="1" stop-color="#5558FF"/>
</linearGradient>
</defs>
</svg>
