<svg width="57" height="57" viewBox="0 0 57 57" fill="none" xmlns="http://www.w3.org/2000/svg">
<path d="M42.2124 9.50771C45.8264 11.3982 46.059 16.9279 42.6287 19.1195C41.554 19.8764 42.6602 21.4956 43.7549 20.7718C48.4092 17.7543 48.0933 10.3723 43.1917 7.76359C42.0352 7.14088 41.0764 8.84231 42.2124 9.50771Z" fill="url(#paint0_linear_1479_4000)"/>
<path d="M12.341 21.0089C13.4498 21.7013 14.5133 20.0305 13.4132 19.3204C11.9631 18.4 11.0974 16.8239 11.0974 15.1046C11.0351 11.7455 14.5649 9.22804 17.7131 10.3771C18.2775 10.5587 18.9282 10.1874 19.03 9.59824C20.6365 0.348695 33.6112 -0.549465 36.4836 8.37821C36.794 9.36455 36.9349 10.394 36.8986 11.4215C36.8642 11.9926 37.3255 12.4804 37.8981 12.4782C38.6292 12.4864 38.9947 11.7688 38.9039 11.1046C38.9743 5.13563 33.8941 0.0139048 27.9039 0.104705C22.8821 0.104625 18.5803 3.45459 17.293 8.20929C9.78802 6.97704 5.95278 16.8775 12.341 21.0089Z" fill="url(#paint1_linear_1479_4000)"/>
<path d="M37.6357 21.1055C37.46 20.5478 37.2354 20.0068 36.9634 19.4868C37.9589 18.7198 38.2391 17.2532 37.2939 16.3271L35.8799 14.9131C34.9532 13.9717 33.4888 14.2442 32.7202 15.2442C32.1997 14.9717 31.6587 14.7471 31.1016 14.5718C31.2576 13.3143 30.4342 12.101 29.1015 12.1055L27.1016 12.1055C25.7687 12.1053 24.9456 13.3094 25.1016 14.5718C24.5444 14.7471 24.0034 14.9717 23.4829 15.2441C22.7163 14.247 21.2476 13.9671 20.3232 14.9131L18.9092 16.3271C18.1294 17.1069 18.1294 18.376 18.9092 19.1558L19.2397 19.4868C18.9678 20.0068 18.7432 20.5478 18.5674 21.1055C17.3101 20.9495 16.0971 21.7731 16.1016 23.1055L16.1016 25.1055C16.1016 26.2085 16.9985 27.1055 18.1016 27.1055H18.5674C18.7432 27.6631 18.9678 28.2041 19.2397 28.7241C18.2442 29.4911 17.9641 30.9577 18.9092 31.8838L20.3232 33.2978C21.2515 34.2406 22.7138 33.9669 23.4829 32.9672C24.0029 33.2392 24.544 33.4639 25.1016 33.6396V34.1055C25.1016 35.2085 25.9985 36.1055 27.1016 36.1055H29.1016C30.2046 36.1055 31.1016 35.2085 31.1016 34.1055V33.6396C31.6592 33.4639 32.2002 33.2392 32.7202 32.9673C33.4869 33.9632 34.9541 34.2426 35.8799 33.2978L37.2939 31.8838C38.2357 30.9553 37.9622 29.4933 36.9633 28.7241C37.2354 28.2041 37.46 27.6631 37.6357 27.1055H38.1016C39.2046 27.1055 40.1016 26.2085 40.1016 25.1055V23.1055C40.1018 21.7728 38.898 20.9495 37.6357 21.1055ZM38.1016 25.1055C37.3331 25.1394 36.1228 24.8586 35.896 25.8838C35.6968 26.7588 35.3516 27.5908 34.8687 28.3569C34.6196 28.752 34.6777 29.2671 35.0078 29.5972L35.8799 30.4697L34.4653 31.8838C33.905 31.3679 33.2301 30.3059 32.353 30.8726C31.5869 31.3555 30.7549 31.7007 29.8799 31.8999C29.4248 32.0034 29.1016 32.4082 29.1016 32.875V34.1055H27.1016V32.875C27.1016 32.4082 26.7783 32.0034 26.3232 31.8999C25.4482 31.7007 24.6162 31.3555 23.8501 30.8726C22.9743 30.3023 22.2916 31.3755 21.7373 31.8838L20.3233 30.4692L21.1953 29.5972C21.5254 29.2671 21.5835 28.752 21.3345 28.3569C20.8516 27.5908 20.5064 26.7588 20.3071 25.8838C20.2036 25.4287 19.7988 25.1055 19.332 25.1055H18.1016V23.1055C18.8698 23.0716 20.0805 23.3522 20.3071 22.3271C20.5064 21.4522 20.8516 20.6201 21.3345 19.854C21.5835 19.459 21.5254 18.9438 21.1953 18.6138L20.3233 17.7412L21.7378 16.3272L22.6099 17.1992C22.94 17.5293 23.4551 17.5874 23.8496 17.3384C24.6172 16.8555 25.4492 16.5098 26.3228 16.3115C27.3516 16.087 27.0663 14.8635 27.1016 14.1055L29.1016 14.1055C29.1356 14.874 28.8544 16.0858 29.8804 16.3115C30.7539 16.5098 31.586 16.8555 32.3535 17.3384C32.749 17.5874 33.2642 17.5293 33.5933 17.1992L34.4658 16.3272L35.8799 17.7417L35.0078 18.6138C34.6778 18.9439 34.6197 19.459 34.8687 19.854C35.3516 20.6201 35.6968 21.4521 35.896 22.3271C36.1216 23.3552 37.3435 23.0703 38.1016 23.1054L38.1016 25.1055Z" fill="url(#paint2_linear_1479_4000)"/>
<path d="M32.6792 21.8381C31.5259 22.1868 32.1091 23.2682 32.1021 24.1052C31.9347 29.3905 24.2693 29.3908 24.102 24.1051C24.1016 21.548 26.5752 19.569 29.1489 20.2424C30.4244 20.5574 30.9212 18.6595 29.6547 18.3078C25.9211 17.2623 22.0489 20.2226 22.1021 24.1052C22.3837 32.046 33.8215 32.0446 34.1021 24.1051C34.0968 23.1997 33.9796 21.5519 32.6792 21.8381Z" fill="url(#paint3_linear_1479_4000)"/>
<path d="M2.10156 56.1055H19.1016C20.2046 56.1055 21.1016 55.2085 21.1016 54.1055V42.1055C21.1016 41.0024 20.2046 40.1055 19.1016 40.1055H2.10156C0.998533 40.1055 0.101562 41.0024 0.101562 42.1055V54.1055C0.101562 55.2085 0.998533 56.1055 2.10156 56.1055ZM2.10156 54.1055V46.1055H19.1021L19.103 54.1055H2.10156ZM19.1016 42.1055L19.1018 44.1055H2.10156V42.1055H19.1016Z" fill="url(#paint4_linear_1479_4000)"/>
<path d="M54.1016 40.1055H37.1016C35.9985 40.1055 35.1016 41.0024 35.1016 42.1055V54.1055C35.1016 55.2085 35.9985 56.1055 37.1016 56.1055H54.1016C55.2046 56.1055 56.1016 55.2085 56.1016 54.1055V42.1055C56.1016 41.0024 55.2046 40.1055 54.1016 40.1055ZM54.1016 42.1055L54.1018 44.1055H37.1016V42.1055H54.1016ZM37.1016 54.1055V46.1055H54.1021L54.103 54.1055H37.1016Z" fill="url(#paint5_linear_1479_4000)"/>
<path d="M6.10156 37.1063C6.65381 37.1063 7.10156 36.6585 7.10156 36.1063V28.1063C7.10156 27.555 7.55029 27.1063 8.10156 27.1063H9.6875C9.13537 27.5433 8.84472 28.2429 9.39457 28.8133C9.78516 29.2039 10.418 29.2039 10.8086 28.8133L12.8083 26.8136C13.0897 26.5363 13.1797 26.0886 13.0244 25.7242C13.0272 25.5158 10.9614 23.5893 10.8086 23.3992C9.87969 22.4801 8.47373 23.8835 9.39458 24.8134L9.6875 25.1063H8.10156C6.44726 25.1063 5.10156 26.452 5.10156 28.1063V36.1063C5.10156 36.6585 5.54931 37.1063 6.10156 37.1063Z" fill="url(#paint6_linear_1479_4000)"/>
<path d="M46.8045 24.8121C47.7254 23.8862 46.3188 22.4758 45.3904 23.3981L43.3908 25.3978C43.0054 25.7694 43.0049 26.4408 43.3908 26.8124L45.3905 28.8121C46.3195 29.7329 47.7251 28.3264 46.8045 27.398L46.5116 27.1051H48.0975C48.6488 27.1051 49.0975 27.5538 49.0975 28.1051V36.1051C49.1167 37.4138 51.0757 37.4236 51.0975 36.105V28.1051C51.0975 26.4508 49.7518 25.1051 48.0975 25.1051H46.5116L46.8045 24.8121Z" fill="url(#paint7_linear_1479_4000)"/>
<defs>
<linearGradient id="paint0_linear_1479_4000" x1="0.101563" y1="28.092" x2="56.1016" y2="28.092" gradientUnits="userSpaceOnUse">
<stop stop-color="#00C0FF"/>
<stop offset="1" stop-color="#5558FF"/>
</linearGradient>
<linearGradient id="paint1_linear_1479_4000" x1="0.101563" y1="28.092" x2="56.1016" y2="28.092" gradientUnits="userSpaceOnUse">
<stop stop-color="#00C0FF"/>
<stop offset="1" stop-color="#5558FF"/>
</linearGradient>
<linearGradient id="paint2_linear_1479_4000" x1="0.101563" y1="28.092" x2="56.1016" y2="28.092" gradientUnits="userSpaceOnUse">
<stop stop-color="#00C0FF"/>
<stop offset="1" stop-color="#5558FF"/>
</linearGradient>
<linearGradient id="paint3_linear_1479_4000" x1="0.101563" y1="28.092" x2="56.1016" y2="28.092" gradientUnits="userSpaceOnUse">
<stop stop-color="#00C0FF"/>
<stop offset="1" stop-color="#5558FF"/>
</linearGradient>
<linearGradient id="paint4_linear_1479_4000" x1="0.101563" y1="28.092" x2="56.1016" y2="28.092" gradientUnits="userSpaceOnUse">
<stop stop-color="#00C0FF"/>
<stop offset="1" stop-color="#5558FF"/>
</linearGradient>
<linearGradient id="paint5_linear_1479_4000" x1="0.101563" y1="28.092" x2="56.1016" y2="28.092" gradientUnits="userSpaceOnUse">
<stop stop-color="#00C0FF"/>
<stop offset="1" stop-color="#5558FF"/>
</linearGradient>
<linearGradient id="paint6_linear_1479_4000" x1="0.101563" y1="28.092" x2="56.1016" y2="28.092" gradientUnits="userSpaceOnUse">
<stop stop-color="#00C0FF"/>
<stop offset="1" stop-color="#5558FF"/>
</linearGradient>
<linearGradient id="paint7_linear_1479_4000" x1="0.101563" y1="28.092" x2="56.1016" y2="28.092" gradientUnits="userSpaceOnUse">
<stop stop-color="#00C0FF"/>
<stop offset="1" stop-color="#5558FF"/>
</linearGradient>
</defs>
</svg>
