<svg width="62" height="58" viewBox="0 0 62 58" fill="none" xmlns="http://www.w3.org/2000/svg">
<path d="M4.69999 4.26804C4.20473 4.26804 3.80342 4.66935 3.80342 5.16461C3.80342 5.65988 4.20473 6.06118 4.69999 6.06118H5.85716C6.35242 6.06118 6.75373 5.65988 6.75373 5.16461C6.75373 4.66935 6.35242 4.26804 5.85716 4.26804H4.69999Z" fill="url(#paint0_linear_1479_3977)"/>
<path d="M9.65493 4.26804C9.15967 4.26804 8.75837 4.66935 8.75837 5.16461C8.75837 5.65988 9.15967 6.06118 9.65493 6.06118H10.8121C11.3074 6.06118 11.7087 5.65988 11.7087 5.16461C11.7087 4.66935 11.3074 4.26804 10.8121 4.26804H9.65493Z" fill="url(#paint1_linear_1479_3977)"/>
<path d="M14.6166 4.26804C14.1214 4.26804 13.72 4.66935 13.72 5.16461C13.72 5.65988 14.1214 6.06118 14.6166 6.06118H15.7737C16.2689 6.06118 16.6702 5.65988 16.6702 5.16461C16.6702 4.66935 16.2689 4.26804 15.7737 4.26804H14.6166Z" fill="url(#paint2_linear_1479_3977)"/>
<path d="M41.2008 27.1956C41.6879 27.2833 42.1545 26.9599 42.2423 26.4725L43.4783 19.6245L45.5043 26.4918C45.5074 26.5027 45.5109 26.5133 45.5144 26.5241C45.6682 26.9812 46.0945 27.2872 46.5762 27.2872H46.5824C47.0667 27.2847 47.4925 26.9733 47.6419 26.5127C47.6453 26.5024 47.6485 26.4921 47.6514 26.4817L49.6077 19.6189L50.9193 26.4817C51.0122 26.9682 51.4825 27.2875 51.9682 27.194C52.4545 27.1011 52.7734 26.6315 52.6804 26.1451L50.8348 16.4873C50.7333 15.989 50.308 15.6211 49.8003 15.5924C49.2902 15.5609 48.8284 15.8814 48.6714 16.365C48.6682 16.3753 48.665 16.3855 48.662 16.3961L46.5653 23.7512L44.3925 16.3865C44.3894 16.3757 44.386 16.365 44.3824 16.3543C44.2204 15.8723 43.7526 15.5595 43.2454 15.5937C42.7382 15.6276 42.3166 16.0001 42.2184 16.5099L40.4776 26.1543C40.3898 26.6413 40.7135 27.1077 41.2008 27.1956Z" fill="url(#paint3_linear_1479_3977)"/>
<path d="M29.6015 24.3061C29.2221 23.9879 28.6566 24.0371 28.3384 24.4163C28.2412 24.5322 28.1364 24.6403 28.0269 24.7379C27.4635 25.2396 26.7497 25.494 25.9055 25.494C23.6693 25.494 21.8501 23.6748 21.8501 21.4388C21.8501 19.2026 23.6693 17.3834 25.9055 17.3834C26.7181 17.3834 27.502 17.6227 28.1722 18.0754C28.5826 18.3524 29.1399 18.2447 29.417 17.8343C29.6941 17.4239 29.5863 16.8666 29.1759 16.5895C28.2081 15.9357 27.0771 15.5903 25.9055 15.5903C22.6806 15.5903 20.057 18.2139 20.057 21.4388C20.057 24.6636 22.6806 27.2871 25.9055 27.2871C27.1845 27.2871 28.3304 26.8686 29.2197 26.0768C29.3936 25.9217 29.5593 25.7509 29.7118 25.5692C30.03 25.19 29.9807 24.6243 29.6015 24.3061Z" fill="url(#paint4_linear_1479_3977)"/>
<path d="M37.0484 26.9828C37.376 27.355 37.9426 27.3902 38.3138 27.0635C38.6854 26.7364 38.7215 26.1698 38.3945 25.7981L35.4904 22.4985C37.254 22.2689 38.618 20.8152 38.618 19.0607C38.618 17.1471 36.9959 15.5903 35.002 15.5903H32.3701L32.3685 15.5904L32.3668 15.5903C31.8715 15.5903 31.4702 15.9916 31.4702 16.4868V26.3906C31.4702 26.8858 31.8715 27.2871 32.3668 27.2871C32.862 27.2871 33.2633 26.8858 33.2633 26.3906V22.6824L37.0484 26.9828ZM35.002 17.3833C35.9901 17.3833 36.8249 18.1515 36.8249 19.0606C36.8249 19.9697 35.9901 20.7378 35.002 20.7378C34.6056 20.7378 33.8705 20.7411 33.2798 20.7442C33.2767 20.162 33.2733 19.4425 33.2733 19.0606C33.2733 18.7366 33.2712 17.99 33.2696 17.3833H35.002Z" fill="url(#paint5_linear_1479_3977)"/>
<path d="M60.7907 40.9389L59.6868 40.2753C59.6289 40.2404 59.5802 40.1909 59.5463 40.1323L57.6085 36.776V3.50673C57.6085 1.92854 56.3245 0.644531 54.7463 0.644531H40.8807C40.3854 0.644531 39.9841 1.04584 39.9841 1.5411C39.9841 2.03636 40.3854 2.43767 40.8807 2.43767H54.7463C55.3359 2.43767 55.8153 2.91727 55.8153 3.50673V7.88892H2.44157V3.50673C2.44157 2.91715 2.92118 2.43767 3.51064 2.43767H37.2958C37.7911 2.43767 38.1924 2.03636 38.1924 1.5411C38.1924 1.04584 37.7911 0.644531 37.2958 0.644531H3.51064C1.93244 0.644412 0.648438 1.92854 0.648438 3.50673V39.1062C0.648438 39.6015 1.04974 40.0028 1.54501 40.0028C2.04027 40.0028 2.44157 39.6015 2.44157 39.1062V9.68206H15.1455V47.5386H3.51064C2.92106 47.5386 2.44157 47.059 2.44157 46.4696V42.6911C2.44157 42.1958 2.04027 41.7945 1.54501 41.7945C1.04974 41.7945 0.648438 42.1958 0.648438 42.6911V46.4696C0.648438 48.0478 1.93244 49.3318 3.51064 49.3318H36.8752L38.5595 52.2491C38.5932 52.3075 38.6118 52.3742 38.6128 52.442L38.6355 53.73C38.6491 54.495 39.0692 55.2081 39.7319 55.5906L41.9037 56.8445C42.5663 57.2272 43.3938 57.2345 44.0632 56.8636L45.1903 56.2392C45.2495 56.2064 45.3165 56.1891 45.3841 56.1891H50.2755C50.3432 56.1891 50.4104 56.2065 50.4695 56.2393L51.5963 56.8636C51.9252 57.0457 52.2921 57.1367 52.6589 57.1367C53.039 57.1367 53.4188 57.0391 53.756 56.8445L55.9278 55.5906C56.5907 55.208 57.0108 54.4949 57.0242 53.73L57.0469 52.4419C57.0481 52.3743 57.0666 52.3076 57.1004 52.249L59.5463 48.0126C59.5801 47.9542 59.6286 47.9047 59.6865 47.8699L60.7903 47.2063C61.4463 46.8122 61.8538 46.0919 61.8538 45.3264V42.8186C61.854 42.0534 61.4466 41.3331 60.7907 40.9389ZM16.9386 9.68206H55.8153V32.4894L53.756 31.3005C53.093 30.9177 52.2654 30.9105 51.5965 31.2815L50.47 31.9056C50.4106 31.9385 50.3433 31.9559 50.2756 31.9559H45.3842C45.3165 31.9559 45.2493 31.9385 45.1903 31.9058L44.0636 31.2816C43.3943 30.9105 42.5667 30.9179 41.904 31.3005L39.7321 32.5543C39.0695 32.9369 38.6493 33.6499 38.6358 34.415L38.6131 35.7031C38.6119 35.7707 38.5935 35.8375 38.5596 35.896L36.114 40.132C36.0801 40.1907 36.0314 40.2402 35.9735 40.2751L34.8692 40.9388C34.2136 41.3332 33.806 42.0534 33.806 42.8186V45.3265C33.806 46.0918 34.2134 46.8122 34.8694 47.2063L35.4222 47.5386H16.9386V9.68206ZM60.0609 45.3265C60.0609 45.4661 59.9867 45.5976 59.8669 45.6695L58.7625 46.3333C58.4447 46.5245 58.1786 46.7954 57.9934 47.1164L55.5478 51.3524C55.3622 51.6737 55.2607 52.0396 55.2541 52.4104L55.2314 53.6986C55.2289 53.8381 55.1524 53.9682 55.0314 54.038L52.8595 55.2919C52.7387 55.3616 52.5878 55.3633 52.4655 55.2954L51.3387 54.671C51.0142 54.4912 50.6466 54.3962 50.2756 54.3962H45.3842C45.0131 54.3962 44.6455 54.4912 44.3212 54.671L43.1943 55.2954C43.0722 55.3631 42.9211 55.3616 42.8003 55.2919L40.6284 54.038C40.5075 53.9682 40.431 53.838 40.4284 53.6984L40.4057 52.4106C40.3992 52.0395 40.2978 51.6737 40.1123 51.3525L37.6664 47.1163C37.481 46.7952 37.2151 46.5245 36.897 46.3332L35.7928 45.6693C35.6733 45.5975 35.5989 45.4661 35.5989 45.3265V42.8186C35.5989 42.679 35.6733 42.5475 35.7929 42.4756L36.8973 41.8118C37.215 41.6206 37.481 41.3499 37.6665 41.0287L40.1121 36.7927C40.2978 36.4714 40.3992 36.1056 40.4057 35.7346L40.4284 34.4467C40.431 34.3071 40.5075 34.1769 40.6284 34.1071L42.8003 32.8532C42.9211 32.7835 43.072 32.7819 43.1943 32.8498L44.3215 33.4743C44.6459 33.654 45.0134 33.7489 45.3842 33.7489H50.2756C50.6463 33.7489 51.0138 33.654 51.3387 33.4742L52.4656 32.8497C52.5878 32.7822 52.7387 32.7835 52.8595 32.8532L55.0314 34.1071C55.1524 34.1769 55.2289 34.307 55.2314 34.4467L55.2541 35.7345C55.2607 36.1055 55.3622 36.4713 55.5477 36.7926L57.9933 41.0285C58.1786 41.3497 58.4446 41.6206 58.7628 41.8119L59.8669 42.4756C59.9865 42.5477 60.0609 42.679 60.0609 42.8186V45.3265Z" fill="url(#paint6_linear_1479_3977)"/>
<path d="M47.8324 35.7673C43.2523 35.7673 39.5262 39.4936 39.5262 44.0736C39.5262 48.6536 43.2523 52.3799 47.8324 52.3799C49.8508 52.3799 51.7976 51.6453 53.3141 50.3117C53.6859 49.9847 53.7222 49.4181 53.3953 49.0463C53.0682 48.6746 52.5017 48.6381 52.1299 48.9652C50.9409 50.0108 49.4146 50.5866 47.8324 50.5866C44.2411 50.5866 41.3193 47.6649 41.3193 44.0735C41.3193 40.4821 44.2411 37.5603 47.8324 37.5603C51.4238 37.5603 54.3455 40.4821 54.3455 44.0735C54.3455 44.8639 54.2043 45.6383 53.9259 46.3749C53.7508 46.8381 53.9844 47.3555 54.4476 47.5305C54.9106 47.7055 55.4283 47.4722 55.6032 47.0089C55.9585 46.0689 56.1387 45.0812 56.1387 44.0735C56.1387 39.4936 52.4124 35.7673 47.8324 35.7673Z" fill="url(#paint7_linear_1479_3977)"/>
<path d="M6.62129 15.1891H10.9647C11.46 15.1891 11.8613 14.7878 11.8613 14.2925C11.8613 13.7972 11.46 13.3959 10.9647 13.3959H6.62129C6.12603 13.3959 5.72473 13.7972 5.72473 14.2925C5.72473 14.7878 6.12603 15.1891 6.62129 15.1891Z" fill="url(#paint8_linear_1479_3977)"/>
<path d="M6.62129 20.6934H10.9647C11.46 20.6934 11.8613 20.2921 11.8613 19.7969C11.8613 19.3016 11.46 18.9003 10.9647 18.9003H6.62129C6.12603 18.9003 5.72473 19.3016 5.72473 19.7969C5.72473 20.2921 6.12603 20.6934 6.62129 20.6934Z" fill="url(#paint9_linear_1479_3977)"/>
<path d="M6.62129 26.1995H10.9647C11.46 26.1995 11.8613 25.7982 11.8613 25.3029C11.8613 24.8077 11.46 24.4063 10.9647 24.4063H6.62129C6.12603 24.4063 5.72473 24.8077 5.72473 25.3029C5.72473 25.7982 6.12603 26.1995 6.62129 26.1995Z" fill="url(#paint10_linear_1479_3977)"/>
<path d="M6.62129 31.7055H10.9647C11.46 31.7055 11.8613 31.3042 11.8613 30.809C11.8613 30.3137 11.46 29.9124 10.9647 29.9124H6.62129C6.12603 29.9124 5.72473 30.3137 5.72473 30.809C5.72473 31.3042 6.12603 31.7055 6.62129 31.7055Z" fill="url(#paint11_linear_1479_3977)"/>
<path d="M6.62129 37.2099H10.9647C11.46 37.2099 11.8613 36.8086 11.8613 36.3133C11.8613 35.8181 11.46 35.4168 10.9647 35.4168H6.62129C6.12603 35.4168 5.72473 35.8181 5.72473 36.3133C5.72473 36.8086 6.12603 37.2099 6.62129 37.2099Z" fill="url(#paint12_linear_1479_3977)"/>
<defs>
<linearGradient id="paint0_linear_1479_3977" x1="0.648438" y1="28.878" x2="61.8538" y2="28.878" gradientUnits="userSpaceOnUse">
<stop stop-color="#00C0FF"/>
<stop offset="1" stop-color="#5558FF"/>
</linearGradient>
<linearGradient id="paint1_linear_1479_3977" x1="0.648438" y1="28.878" x2="61.8538" y2="28.878" gradientUnits="userSpaceOnUse">
<stop stop-color="#00C0FF"/>
<stop offset="1" stop-color="#5558FF"/>
</linearGradient>
<linearGradient id="paint2_linear_1479_3977" x1="0.648438" y1="28.878" x2="61.8538" y2="28.878" gradientUnits="userSpaceOnUse">
<stop stop-color="#00C0FF"/>
<stop offset="1" stop-color="#5558FF"/>
</linearGradient>
<linearGradient id="paint3_linear_1479_3977" x1="0.648438" y1="28.878" x2="61.8538" y2="28.878" gradientUnits="userSpaceOnUse">
<stop stop-color="#00C0FF"/>
<stop offset="1" stop-color="#5558FF"/>
</linearGradient>
<linearGradient id="paint4_linear_1479_3977" x1="0.648438" y1="28.878" x2="61.8538" y2="28.878" gradientUnits="userSpaceOnUse">
<stop stop-color="#00C0FF"/>
<stop offset="1" stop-color="#5558FF"/>
</linearGradient>
<linearGradient id="paint5_linear_1479_3977" x1="0.648438" y1="28.878" x2="61.8538" y2="28.878" gradientUnits="userSpaceOnUse">
<stop stop-color="#00C0FF"/>
<stop offset="1" stop-color="#5558FF"/>
</linearGradient>
<linearGradient id="paint6_linear_1479_3977" x1="0.648438" y1="28.878" x2="61.8538" y2="28.878" gradientUnits="userSpaceOnUse">
<stop stop-color="#00C0FF"/>
<stop offset="1" stop-color="#5558FF"/>
</linearGradient>
<linearGradient id="paint7_linear_1479_3977" x1="0.648438" y1="28.878" x2="61.8538" y2="28.878" gradientUnits="userSpaceOnUse">
<stop stop-color="#00C0FF"/>
<stop offset="1" stop-color="#5558FF"/>
</linearGradient>
<linearGradient id="paint8_linear_1479_3977" x1="0.648438" y1="28.878" x2="61.8538" y2="28.878" gradientUnits="userSpaceOnUse">
<stop stop-color="#00C0FF"/>
<stop offset="1" stop-color="#5558FF"/>
</linearGradient>
<linearGradient id="paint9_linear_1479_3977" x1="0.648438" y1="28.878" x2="61.8538" y2="28.878" gradientUnits="userSpaceOnUse">
<stop stop-color="#00C0FF"/>
<stop offset="1" stop-color="#5558FF"/>
</linearGradient>
<linearGradient id="paint10_linear_1479_3977" x1="0.648438" y1="28.878" x2="61.8538" y2="28.878" gradientUnits="userSpaceOnUse">
<stop stop-color="#00C0FF"/>
<stop offset="1" stop-color="#5558FF"/>
</linearGradient>
<linearGradient id="paint11_linear_1479_3977" x1="0.648438" y1="28.878" x2="61.8538" y2="28.878" gradientUnits="userSpaceOnUse">
<stop stop-color="#00C0FF"/>
<stop offset="1" stop-color="#5558FF"/>
</linearGradient>
<linearGradient id="paint12_linear_1479_3977" x1="0.648438" y1="28.878" x2="61.8538" y2="28.878" gradientUnits="userSpaceOnUse">
<stop stop-color="#00C0FF"/>
<stop offset="1" stop-color="#5558FF"/>
</linearGradient>
</defs>
</svg>
