<svg width="60" height="60" viewBox="0 0 60 60" fill="none" xmlns="http://www.w3.org/2000/svg">
<path d="M58.6559 49.6973H56.6607C57.3125 48.85 57.6675 47.8119 57.6711 46.743V19.1695C57.6695 17.8641 57.1503 16.6126 56.2272 15.6896C55.3042 14.7665 54.0527 14.2473 52.7473 14.2457H45.8539V5.38281C45.8523 4.07741 45.3331 2.82593 44.41 1.90287C43.487 0.979809 42.2355 0.460548 40.9301 0.458984H19.2652C17.9598 0.460548 16.7083 0.979809 15.7853 1.90287C14.8622 2.82593 14.343 4.07741 14.3414 5.38281V14.2457H7.44805C6.14265 14.2473 4.89116 14.7665 3.9681 15.6896C3.04504 16.6126 2.52578 17.8641 2.52422 19.1695V46.743C2.52784 47.8119 2.88286 48.85 3.53459 49.6973H1.53945C1.27828 49.6973 1.0278 49.801 0.843119 49.9857C0.658439 50.1704 0.554688 50.4209 0.554688 50.682V54.6211C0.556251 55.9265 1.07551 57.178 1.99857 58.101C2.92163 59.0241 4.17312 59.5434 5.47852 59.5449H54.7168C56.0222 59.5434 57.2737 59.0241 58.1967 58.101C59.1198 57.178 59.6391 55.9265 59.6406 54.6211V50.682C59.6406 50.4209 59.5369 50.1704 59.3522 49.9857C59.1675 49.801 58.917 49.6973 58.6559 49.6973ZM16.3109 5.38281C16.3109 4.59928 16.6222 3.84785 17.1762 3.29381C17.7303 2.73977 18.4817 2.42852 19.2652 2.42852H40.9301C41.7136 2.42852 42.465 2.73977 43.0191 3.29381C43.5731 3.84785 43.8844 4.59928 43.8844 5.38281V16.2152C43.8844 16.9988 43.5731 17.7502 43.0191 18.3042C42.465 18.8583 41.7136 19.1695 40.9301 19.1695H28.1281C27.9861 19.1695 27.8458 19.2003 27.7168 19.2596C27.5878 19.3189 27.4731 19.4054 27.3807 19.5132L23.2043 24.3888V20.1543C23.2043 19.8931 23.1005 19.6426 22.9159 19.458C22.7312 19.2733 22.4807 19.1695 22.2195 19.1695H19.2652C18.4817 19.1695 17.7303 18.8583 17.1762 18.3042C16.6222 17.7502 16.3109 16.9988 16.3109 16.2152V5.38281ZM4.49375 46.743V19.1695C4.49375 18.386 4.80501 17.6346 5.35904 17.0805C5.91308 16.5265 6.66452 16.2152 7.44805 16.2152H14.3414C14.343 17.5206 14.8622 18.7721 15.7853 19.6952C16.7083 20.6182 17.9598 21.1375 19.2652 21.1391H21.2348V27.0477C21.2348 27.2488 21.2964 27.4452 21.4114 27.6103C21.5263 27.7754 21.6891 27.9013 21.8777 27.9711C22.0664 28.0409 22.2719 28.0513 22.4667 28.0008C22.6614 27.9503 22.836 27.8414 22.967 27.6887L28.5811 21.1391H40.9301C42.2355 21.1375 43.487 20.6182 44.41 19.6952C45.3331 18.7721 45.8523 17.5206 45.8539 16.2152H52.7473C53.5308 16.2152 54.2822 16.5265 54.8363 17.0805C55.3903 17.6346 55.7016 18.386 55.7016 19.1695V46.743C55.7016 47.5265 55.3903 48.2779 54.8363 48.832C54.2822 49.386 53.5308 49.6973 52.7473 49.6973H7.44805C6.66452 49.6973 5.91308 49.386 5.35904 48.832C4.80501 48.2779 4.49375 47.5265 4.49375 46.743ZM26.1586 51.6668H34.0367V52.6516C34.0367 52.9127 33.933 53.1632 33.7483 53.3479C33.5636 53.5326 33.3131 53.6363 33.052 53.6363H27.1434C26.8822 53.6363 26.6317 53.5326 26.447 53.3479C26.2623 53.1632 26.1586 52.9127 26.1586 52.6516V51.6668ZM57.6711 54.6211C57.6711 55.4046 57.3598 56.1561 56.8058 56.7101C56.2518 57.2641 55.5003 57.5754 54.7168 57.5754H5.47852C4.69499 57.5754 3.94355 57.2641 3.38951 56.7101C2.83547 56.1561 2.52422 55.4046 2.52422 54.6211V51.6668H24.1891V52.6516C24.1891 53.4351 24.5003 54.1865 25.0544 54.7406C25.6084 55.2946 26.3598 55.6059 27.1434 55.6059H33.052C33.8355 55.6059 34.5869 55.2946 35.141 54.7406C35.695 54.1865 36.0063 53.4351 36.0063 52.6516V51.6668H57.6711V54.6211Z" fill="url(#paint0_linear_1479_3980)"/>
<path d="M53.7336 46.7428V19.1693C53.7336 18.9082 53.6298 18.6577 53.4452 18.473C53.2605 18.2883 53.01 18.1846 52.7488 18.1846H47.825C47.5638 18.1846 47.3133 18.2883 47.1287 18.473C46.944 18.6577 46.8402 18.9082 46.8402 19.1693C46.8402 19.4305 46.944 19.681 47.1287 19.8657C47.3133 20.0504 47.5638 20.1541 47.825 20.1541H51.7641V45.758H8.43438V20.1541H12.3734C12.6346 20.1541 12.8851 20.0504 13.0698 19.8657C13.2545 19.681 13.3582 19.4305 13.3582 19.1693C13.3582 18.9082 13.2545 18.6577 13.0698 18.473C12.8851 18.2883 12.6346 18.1846 12.3734 18.1846H7.44961C7.18843 18.1846 6.93795 18.2883 6.75328 18.473C6.5686 18.6577 6.46484 18.9082 6.46484 19.1693V46.7428C6.46484 47.004 6.5686 47.2544 6.75328 47.4391C6.93795 47.6238 7.18843 47.7275 7.44961 47.7275H52.7488C53.01 47.7275 53.2605 47.6238 53.4452 47.4391C53.6298 47.2544 53.7336 47.004 53.7336 46.7428Z" fill="url(#paint1_linear_1479_3980)"/>
<path d="M12.3711 27.0473C12.3711 27.3084 12.4748 27.5589 12.6595 27.7436C12.8442 27.9283 13.0947 28.032 13.3559 28.032H15.3254C15.5866 28.032 15.837 27.9283 16.0217 27.7436C16.2064 27.5589 16.3102 27.3084 16.3102 27.0473C16.3102 26.7861 16.2064 26.5356 16.0217 26.3509C15.837 26.1663 15.5866 26.0625 15.3254 26.0625H13.3559C13.0947 26.0625 12.8442 26.1663 12.6595 26.3509C12.4748 26.5356 12.3711 26.7861 12.3711 27.0473Z" fill="url(#paint2_linear_1479_3980)"/>
<path d="M15.3254 30.001H13.3559C13.0947 30.001 12.8442 30.1047 12.6595 30.2894C12.4748 30.4741 12.3711 30.7246 12.3711 30.9857C12.3711 31.2469 12.4748 31.4974 12.6595 31.6821C12.8442 31.8668 13.0947 31.9705 13.3559 31.9705H15.3254C15.5866 31.9705 15.837 31.8668 16.0217 31.6821C16.2064 31.4974 16.3102 31.2469 16.3102 30.9857C16.3102 30.7246 16.2064 30.4741 16.0217 30.2894C15.837 30.1047 15.5866 30.001 15.3254 30.001Z" fill="url(#paint3_linear_1479_3980)"/>
<path d="M15.3254 33.9414H13.3559C13.0947 33.9414 12.8442 34.0452 12.6595 34.2298C12.4748 34.4145 12.3711 34.665 12.3711 34.9262C12.3711 35.1873 12.4748 35.4378 12.6595 35.6225C12.8442 35.8072 13.0947 35.9109 13.3559 35.9109H15.3254C15.5866 35.9109 15.837 35.8072 16.0217 35.6225C16.2064 35.4378 16.3102 35.1873 16.3102 34.9262C16.3102 34.665 16.2064 34.4145 16.0217 34.2298C15.837 34.0452 15.5866 33.9414 15.3254 33.9414Z" fill="url(#paint4_linear_1479_3980)"/>
<path d="M15.3254 37.8799H13.3559C13.0947 37.8799 12.8442 37.9836 12.6595 38.1683C12.4748 38.353 12.3711 38.6035 12.3711 38.8646C12.3711 39.1258 12.4748 39.3763 12.6595 39.561C12.8442 39.7457 13.0947 39.8494 13.3559 39.8494H15.3254C15.5866 39.8494 15.837 39.7457 16.0217 39.561C16.2064 39.3763 16.3102 39.1258 16.3102 38.8646C16.3102 38.6035 16.2064 38.353 16.0217 38.1683C15.837 37.9836 15.5866 37.8799 15.3254 37.8799Z" fill="url(#paint5_linear_1479_3980)"/>
<path d="M15.3254 41.8193H13.3559C13.0947 41.8193 12.8442 41.9231 12.6595 42.1078C12.4748 42.2924 12.3711 42.5429 12.3711 42.8041C12.3711 43.0653 12.4748 43.3158 12.6595 43.5004C12.8442 43.6851 13.0947 43.7889 13.3559 43.7889H15.3254C15.5866 43.7889 15.837 43.6851 16.0217 43.5004C16.2064 43.3158 16.3102 43.0653 16.3102 42.8041C16.3102 42.5429 16.2064 42.2924 16.0217 42.1078C15.837 41.9231 15.5866 41.8193 15.3254 41.8193Z" fill="url(#paint6_linear_1479_3980)"/>
<path d="M28.1293 28.032H46.8398C47.101 28.032 47.3515 27.9283 47.5362 27.7436C47.7209 27.5589 47.8246 27.3084 47.8246 27.0473C47.8246 26.7861 47.7209 26.5356 47.5362 26.3509C47.3515 26.1663 47.101 26.0625 46.8398 26.0625H28.1293C27.8681 26.0625 27.6176 26.1663 27.433 26.3509C27.2483 26.5356 27.1445 26.7861 27.1445 27.0473C27.1445 27.3084 27.2483 27.5589 27.433 27.7436C27.6176 27.9283 27.8681 28.032 28.1293 28.032Z" fill="url(#paint7_linear_1479_3980)"/>
<path d="M27.1449 31.9705H42.9012C43.1623 31.9705 43.4128 31.8668 43.5975 31.6821C43.7822 31.4974 43.8859 31.2469 43.8859 30.9857C43.8859 30.7246 43.7822 30.4741 43.5975 30.2894C43.4128 30.1047 43.1623 30.001 42.9012 30.001H27.1449C26.8837 30.001 26.6333 30.1047 26.4486 30.2894C26.2639 30.4741 26.1602 30.7246 26.1602 30.9857C26.1602 31.2469 26.2639 31.4974 26.4486 31.6821C26.6333 31.8668 26.8837 31.9705 27.1449 31.9705Z" fill="url(#paint8_linear_1479_3980)"/>
<path d="M19.266 35.9109H31.0832C31.3444 35.9109 31.5949 35.8072 31.7795 35.6225C31.9642 35.4378 32.068 35.1873 32.068 34.9262C32.068 34.665 31.9642 34.4145 31.7795 34.2298C31.5949 34.0452 31.3444 33.9414 31.0832 33.9414H19.266C19.0048 33.9414 18.7544 34.0452 18.5697 34.2298C18.385 34.4145 18.2812 34.665 18.2812 34.9262C18.2812 35.1873 18.385 35.4378 18.5697 35.6225C18.7544 35.8072 19.0048 35.9109 19.266 35.9109Z" fill="url(#paint9_linear_1479_3980)"/>
<path d="M19.266 39.8494H31.0832C31.3444 39.8494 31.5949 39.7457 31.7795 39.561C31.9642 39.3763 32.068 39.1258 32.068 38.8646C32.068 38.6035 31.9642 38.353 31.7795 38.1683C31.5949 37.9836 31.3444 37.8799 31.0832 37.8799H19.266C19.0048 37.8799 18.7544 37.9836 18.5697 38.1683C18.385 38.353 18.2812 38.6035 18.2812 38.8646C18.2812 39.1258 18.385 39.3763 18.5697 39.561C18.7544 39.7457 19.0048 39.8494 19.266 39.8494Z" fill="url(#paint10_linear_1479_3980)"/>
<path d="M19.266 43.7889H31.0832C31.3444 43.7889 31.5949 43.6851 31.7795 43.5004C31.9642 43.3158 32.068 43.0653 32.068 42.8041C32.068 42.5429 31.9642 42.2924 31.7795 42.1078C31.5949 41.9231 31.3444 41.8193 31.0832 41.8193H19.266C19.0048 41.8193 18.7544 41.9231 18.5697 42.1078C18.385 42.2924 18.2812 42.5429 18.2812 42.8041C18.2812 43.0653 18.385 43.3158 18.5697 43.5004C18.7544 43.6851 19.0048 43.7889 19.266 43.7889Z" fill="url(#paint11_linear_1479_3980)"/>
<path d="M18.72 11.1259L24.6286 15.065C24.7362 15.1368 24.8569 15.1867 24.9837 15.2118C25.1106 15.2369 25.2412 15.2368 25.368 15.2115C25.4948 15.1862 25.6154 15.1361 25.7229 15.0642C25.8304 14.9922 25.9227 14.8998 25.9945 14.7922C26.0662 14.6846 26.1161 14.564 26.1412 14.4371C26.1664 14.3102 26.1663 14.1796 26.1409 14.0528C26.1156 13.926 26.0656 13.8054 25.9936 13.6979C25.9217 13.5904 25.8293 13.4981 25.7217 13.4264L21.2243 10.4287L25.6153 8.23861C25.8491 8.12187 26.0269 7.91705 26.1096 7.66921C26.1923 7.42137 26.1732 7.15081 26.0565 6.91706C25.9397 6.6833 25.7349 6.5055 25.4871 6.42277C25.2392 6.34003 24.9687 6.35914 24.7349 6.47588L18.8263 9.43018C18.6719 9.50723 18.5405 9.62352 18.4451 9.76738C18.3498 9.91124 18.2939 10.0776 18.2832 10.2499C18.2724 10.4221 18.3071 10.5942 18.3837 10.7488C18.4604 10.9034 18.5764 11.0352 18.72 11.1309V11.1259Z" fill="url(#paint12_linear_1479_3980)"/>
<path d="M34.5801 8.23861L38.9712 10.4337L34.4738 13.4313C34.3662 13.5031 34.2738 13.5953 34.2018 13.7028C34.1299 13.8103 34.0798 13.9309 34.0545 14.0577C34.0292 14.1846 34.0291 14.3151 34.0542 14.442C34.0794 14.5689 34.1292 14.6896 34.201 14.7972C34.2728 14.9047 34.365 14.9972 34.4725 15.0691C34.58 15.141 34.7006 15.1911 34.8274 15.2164C34.9543 15.2418 35.0849 15.2419 35.2117 15.2167C35.3386 15.1916 35.4593 15.1417 35.5669 15.0699L41.4755 11.1309C41.6191 11.0352 41.7351 10.9034 41.8117 10.7488C41.8884 10.5942 41.9231 10.4221 41.9123 10.2499C41.9015 10.0776 41.8457 9.91124 41.7503 9.76738C41.655 9.62352 41.5235 9.50723 41.3691 9.43018L35.4605 6.47588C35.2268 6.35914 34.9562 6.34003 34.7084 6.42277C34.4605 6.5055 34.2557 6.6833 34.139 6.91706C34.0222 7.15081 34.0031 7.42137 34.0859 7.66921C34.1686 7.91705 34.3464 8.12187 34.5801 8.23861Z" fill="url(#paint13_linear_1479_3980)"/>
<path d="M27.7926 17.1407C27.9143 17.1848 28.0434 17.2044 28.1726 17.1986C28.3018 17.1927 28.4286 17.1615 28.5458 17.1066C28.6629 17.0517 28.7681 16.9743 28.8553 16.8788C28.9426 16.7833 29.0101 16.6715 29.0541 16.5498L32.9932 5.71741C33.0429 5.5948 33.0675 5.46342 33.0653 5.33111C33.0632 5.1988 33.0344 5.06828 32.9807 4.94734C32.927 4.8264 32.8494 4.71754 32.7527 4.62723C32.656 4.53693 32.542 4.46705 32.4177 4.42177C32.2934 4.37648 32.1612 4.35672 32.029 4.36366C31.8969 4.3706 31.7675 4.40411 31.6486 4.46217C31.5297 4.52023 31.4237 4.60167 31.337 4.7016C31.2502 4.80154 31.1845 4.91794 31.1438 5.04384L27.2047 15.8763C27.1601 15.9979 27.14 16.1271 27.1454 16.2565C27.1508 16.3859 27.1817 16.513 27.2363 16.6305C27.2909 16.7479 27.3682 16.8534 27.4637 16.941C27.5591 17.0285 27.6709 17.0964 27.7926 17.1407Z" fill="url(#paint14_linear_1479_3980)"/>
<path d="M19.266 31.9705H23.2051C23.4663 31.9705 23.7167 31.8668 23.9014 31.6821C24.0861 31.4974 24.1898 31.2469 24.1898 30.9857C24.1898 30.7246 24.0861 30.4741 23.9014 30.2894C23.7167 30.1047 23.4663 30.001 23.2051 30.001H19.266C19.0048 30.001 18.7544 30.1047 18.5697 30.2894C18.385 30.4741 18.2812 30.7246 18.2812 30.9857C18.2812 31.2469 18.385 31.4974 18.5697 31.6821C18.7544 31.8668 19.0048 31.9705 19.266 31.9705Z" fill="url(#paint15_linear_1479_3980)"/>
<path d="M43.8828 34.9262C43.8828 34.665 43.7791 34.4145 43.5944 34.2298C43.4097 34.0452 43.1592 33.9414 42.898 33.9414H35.0199C34.7587 33.9414 34.5083 34.0452 34.3236 34.2298C34.1389 34.4145 34.0352 34.665 34.0352 34.9262C34.0352 35.1873 34.1389 35.4378 34.3236 35.6225C34.5083 35.8072 34.7587 35.9109 35.0199 35.9109H42.898C43.1592 35.9109 43.4097 35.8072 43.5944 35.6225C43.7791 35.4378 43.8828 35.1873 43.8828 34.9262Z" fill="url(#paint16_linear_1479_3980)"/>
<path d="M36.9895 37.8799H35.0199C34.7587 37.8799 34.5083 37.9836 34.3236 38.1683C34.1389 38.353 34.0352 38.6035 34.0352 38.8646C34.0352 39.1258 34.1389 39.3763 34.3236 39.561C34.5083 39.7457 34.7587 39.8494 35.0199 39.8494H36.9895C37.2506 39.8494 37.5011 39.7457 37.6858 39.561C37.8705 39.3763 37.9742 39.1258 37.9742 38.8646C37.9742 38.6035 37.8705 38.353 37.6858 38.1683C37.5011 37.9836 37.2506 37.8799 36.9895 37.8799Z" fill="url(#paint17_linear_1479_3980)"/>
<path d="M36.9895 41.8193H35.0199C34.7587 41.8193 34.5083 41.9231 34.3236 42.1078C34.1389 42.2924 34.0352 42.5429 34.0352 42.8041C34.0352 43.0653 34.1389 43.3158 34.3236 43.5004C34.5083 43.6851 34.7587 43.7889 35.0199 43.7889H36.9895C37.2506 43.7889 37.5011 43.6851 37.6858 43.5004C37.8705 43.3158 37.9742 43.0653 37.9742 42.8041C37.9742 42.5429 37.8705 42.2924 37.6858 42.1078C37.5011 41.9231 37.2506 41.8193 36.9895 41.8193Z" fill="url(#paint18_linear_1479_3980)"/>
<defs>
<linearGradient id="paint0_linear_1479_3980" x1="30.2158" y1="61.8759" x2="29.3837" y2="-3.00542" gradientUnits="userSpaceOnUse">
<stop stop-color="#006DF0"/>
<stop offset="1" stop-color="#00E7F0"/>
</linearGradient>
<linearGradient id="paint1_linear_1479_3980" x1="30.4695" y1="61.8727" x2="29.6383" y2="-3.00857" gradientUnits="userSpaceOnUse">
<stop stop-color="#006DF0"/>
<stop offset="1" stop-color="#00E7F0"/>
</linearGradient>
<linearGradient id="paint2_linear_1479_3980" x1="14.7897" y1="62.0734" x2="13.9576" y2="-2.80787" gradientUnits="userSpaceOnUse">
<stop stop-color="#006DF0"/>
<stop offset="1" stop-color="#00E7F0"/>
</linearGradient>
<linearGradient id="paint3_linear_1479_3980" x1="14.7395" y1="62.0738" x2="13.9073" y2="-2.80747" gradientUnits="userSpaceOnUse">
<stop stop-color="#006DF0"/>
<stop offset="1" stop-color="#00E7F0"/>
</linearGradient>
<linearGradient id="paint4_linear_1479_3980" x1="14.6882" y1="62.0752" x2="13.8571" y2="-2.80611" gradientUnits="userSpaceOnUse">
<stop stop-color="#006DF0"/>
<stop offset="1" stop-color="#00E7F0"/>
</linearGradient>
<linearGradient id="paint5_linear_1479_3980" x1="14.638" y1="62.0756" x2="13.8059" y2="-2.80571" gradientUnits="userSpaceOnUse">
<stop stop-color="#006DF0"/>
<stop offset="1" stop-color="#00E7F0"/>
</linearGradient>
<linearGradient id="paint6_linear_1479_3980" x1="14.5878" y1="62.0769" x2="13.7557" y2="-2.80433" gradientUnits="userSpaceOnUse">
<stop stop-color="#006DF0"/>
<stop offset="1" stop-color="#00E7F0"/>
</linearGradient>
<linearGradient id="paint7_linear_1479_3980" x1="37.9297" y1="61.777" x2="37.0976" y2="-3.10429" gradientUnits="userSpaceOnUse">
<stop stop-color="#006DF0"/>
<stop offset="1" stop-color="#00E7F0"/>
</linearGradient>
<linearGradient id="paint8_linear_1479_3980" x1="35.4179" y1="61.8079" x2="34.5868" y2="-3.07336" gradientUnits="userSpaceOnUse">
<stop stop-color="#006DF0"/>
<stop offset="1" stop-color="#00E7F0"/>
</linearGradient>
<linearGradient id="paint9_linear_1479_3980" x1="25.5212" y1="61.9363" x2="24.6891" y2="-2.94496" gradientUnits="userSpaceOnUse">
<stop stop-color="#006DF0"/>
<stop offset="1" stop-color="#00E7F0"/>
</linearGradient>
<linearGradient id="paint10_linear_1479_3980" x1="25.47" y1="61.9367" x2="24.6389" y2="-2.94456" gradientUnits="userSpaceOnUse">
<stop stop-color="#006DF0"/>
<stop offset="1" stop-color="#00E7F0"/>
</linearGradient>
<linearGradient id="paint11_linear_1479_3980" x1="25.4198" y1="61.9381" x2="24.5877" y2="-2.94318" gradientUnits="userSpaceOnUse">
<stop stop-color="#006DF0"/>
<stop offset="1" stop-color="#00E7F0"/>
</linearGradient>
<linearGradient id="paint12_linear_1479_3980" x1="22.9023" y1="61.9694" x2="22.0702" y2="-2.91189" gradientUnits="userSpaceOnUse">
<stop stop-color="#006DF0"/>
<stop offset="1" stop-color="#00E7F0"/>
</linearGradient>
<linearGradient id="paint13_linear_1479_3980" x1="38.6088" y1="61.7685" x2="37.7767" y2="-3.11278" gradientUnits="userSpaceOnUse">
<stop stop-color="#006DF0"/>
<stop offset="1" stop-color="#00E7F0"/>
</linearGradient>
<linearGradient id="paint14_linear_1479_3980" x1="30.7538" y1="61.8688" x2="29.9217" y2="-3.01253" gradientUnits="userSpaceOnUse">
<stop stop-color="#006DF0"/>
<stop offset="1" stop-color="#00E7F0"/>
</linearGradient>
<linearGradient id="paint15_linear_1479_3980" x1="21.6334" y1="61.9852" x2="20.8013" y2="-2.8961" gradientUnits="userSpaceOnUse">
<stop stop-color="#006DF0"/>
<stop offset="1" stop-color="#00E7F0"/>
</linearGradient>
<linearGradient id="paint16_linear_1479_3980" x1="39.3027" y1="61.76" x2="38.4715" y2="-3.12123" gradientUnits="userSpaceOnUse">
<stop stop-color="#006DF0"/>
<stop offset="1" stop-color="#00E7F0"/>
</linearGradient>
<linearGradient id="paint17_linear_1479_3980" x1="36.2991" y1="61.7979" x2="35.467" y2="-3.08341" gradientUnits="userSpaceOnUse">
<stop stop-color="#006DF0"/>
<stop offset="1" stop-color="#00E7F0"/>
</linearGradient>
<linearGradient id="paint18_linear_1479_3980" x1="36.2479" y1="61.7992" x2="35.4168" y2="-3.08204" gradientUnits="userSpaceOnUse">
<stop stop-color="#006DF0"/>
<stop offset="1" stop-color="#00E7F0"/>
</linearGradient>
</defs>
</svg>
