<svg width="177" height="35" viewBox="0 0 177 35" fill="none" xmlns="http://www.w3.org/2000/svg">
<path d="M98.9732 25.8403H0V27.1869H98.9732V25.8403Z" fill="url(#paint0_linear_938_11910)"/>
<path fill-rule="evenodd" clip-rule="evenodd" d="M3.14593 18.2578C5.26399 20.225 7.91156 21.2085 11.0886 21.2085C14.9302 21.2085 17.8166 19.5282 19.7477 16.1677L15.9477 14.3542C15.4909 15.2148 14.816 15.932 13.9231 16.5058C13.051 17.059 12.1061 17.3357 11.0886 17.3357C9.199 17.3357 7.63122 16.7004 6.38531 15.43C5.16016 14.1595 4.54759 12.5509 4.54759 10.6043C4.54759 8.65759 5.16016 7.04902 6.38531 5.77856C7.63122 4.5081 9.199 3.87286 11.0886 3.87286C12.1061 3.87286 13.051 4.15974 13.9231 4.7335C14.816 5.28677 15.4909 5.99372 15.9477 6.85435L19.7477 5.01013C17.8581 1.67004 14.9717 0 11.0886 0C7.91156 0 5.26399 0.983585 3.14593 2.95075C1.04864 4.91792 0 7.46909 0 10.6043C0 13.719 1.04864 16.2701 3.14593 18.2578ZM30.8838 20.8397H34.8396V5.99372H30.8838V16.0447C29.9909 17.1717 28.8488 17.7353 27.4576 17.7353C25.6095 17.7353 24.6854 16.8234 24.6854 14.9997V5.99372H20.7296V16.5365C20.7296 18.0119 21.1345 19.1594 21.9444 19.9791C22.7542 20.7987 23.969 21.2085 25.5887 21.2085C27.7275 21.2085 29.4926 20.4606 30.8838 18.9647V20.8397ZM42.6297 21.2085C41.3215 21.2085 40.0652 21.0036 38.8608 20.5938C37.6772 20.184 36.6909 19.6205 35.9018 18.9033L37.6149 16.0755C38.2171 16.6287 39.0062 17.1103 39.9822 17.5201C40.9789 17.9299 41.9237 18.1348 42.8166 18.1348C44.4986 18.1348 45.3396 17.6123 45.3396 16.5673C45.3396 16.1984 45.1216 15.9013 44.6855 15.6759C44.2494 15.43 43.6991 15.2661 43.0347 15.1841C42.3702 15.0816 41.6538 14.9279 40.8855 14.723C40.1171 14.4976 39.4007 14.2517 38.7363 13.9853C38.0718 13.6985 37.5215 13.2477 37.0854 12.6329C36.6493 11.9977 36.4313 11.219 36.4313 10.2969C36.4313 8.98545 36.9816 7.87892 38.0821 6.9773C39.1827 6.07568 40.6882 5.62487 42.5986 5.62487C44.9035 5.62487 46.9178 6.30109 48.6413 7.65352L47.0527 10.4198C46.5751 9.92806 45.9314 9.51823 45.1216 9.19037C44.3117 8.86251 43.4707 8.69858 42.5986 8.69858C41.8926 8.69858 41.3215 8.83177 40.8855 9.09816C40.4494 9.36454 40.2313 9.7129 40.2313 10.1432C40.2313 10.5325 40.5324 10.8399 41.1346 11.0653C41.7576 11.2702 42.5051 11.4547 43.3773 11.6186C44.2702 11.7825 45.1527 12.0079 46.0248 12.2948C46.897 12.5612 47.6342 13.053 48.2363 13.7702C48.8593 14.4669 49.1708 15.3685 49.1708 16.475C49.1708 17.8685 48.5894 19.0057 47.4265 19.8868C46.2636 20.768 44.6647 21.2085 42.6297 21.2085ZM51.3064 17.1205C51.3064 19.8459 52.7184 21.2085 55.5425 21.2085C57.0168 21.2085 58.1174 20.8909 58.8441 20.2557L58.0031 17.2742C57.7332 17.5816 57.2764 17.7353 56.6326 17.7353C56.1966 17.7353 55.8539 17.5816 55.6048 17.2742C55.3763 16.9668 55.2621 16.5673 55.2621 16.0755V9.40553H58.3146V5.99372H55.2621V1.93643H51.3064V5.99372H48.8145V9.40553H51.3064V17.1205ZM72.2343 18.9647C70.7807 20.4606 68.8496 21.2085 66.4408 21.2085C64.032 21.2085 62.1009 20.4606 60.6473 18.9647C59.2145 17.4484 58.4981 15.5939 58.4981 13.4013C58.4981 11.2088 59.2145 9.36454 60.6473 7.86868C62.1009 6.37281 64.032 5.62487 66.4408 5.62487C68.8496 5.62487 70.7807 6.37281 72.2343 7.86868C73.6879 9.36454 74.4147 11.2088 74.4147 13.4013C74.4147 15.5939 73.6879 17.4484 72.2343 18.9647ZM66.4408 17.7353C67.6452 17.7353 68.59 17.3254 69.2753 16.5058C69.9605 15.6656 70.3031 14.6308 70.3031 13.4013C70.3031 12.1923 69.9605 11.178 69.2753 10.3584C68.59 9.51823 67.6452 9.09816 66.4408 9.09816C65.2572 9.09816 64.3228 9.51823 63.6375 10.3584C62.9522 11.178 62.6096 12.1923 62.6096 13.4013C62.6096 14.6308 62.9522 15.6656 63.6375 16.5058C64.3228 17.3254 65.2572 17.7353 66.4408 17.7353ZM94.48 20.8397H98.4669V10.1125C98.4669 8.61661 98.0827 7.49983 97.3144 6.76214C96.5461 6.00396 95.4559 5.62487 94.0439 5.62487C92.9641 5.62487 91.9466 5.89126 90.9914 6.42404C90.057 6.95681 89.3509 7.5818 88.8733 8.29899C88.3127 6.51625 86.9214 5.62487 84.6995 5.62487C83.6613 5.62487 82.6749 5.87077 81.7405 6.36256C80.8268 6.85435 80.1727 7.36664 79.7782 7.89941V5.99372H75.8224V20.8397H79.7782V10.8194C80.6295 9.67191 81.6678 9.09816 82.893 9.09816C84.3881 9.09816 85.1356 9.88707 85.1356 11.4649V20.8397H89.1225V10.8194C89.4548 10.3686 89.8908 9.96904 90.4307 9.62069C90.9914 9.27233 91.5936 9.09816 92.2373 9.09816C93.7324 9.09816 94.48 9.88707 94.48 11.4649V20.8397ZM105.789 17.4009C105.63 17.3078 105.479 17.2041 105.336 17.0898C104.589 16.4545 104.142 15.6554 103.997 14.6923H115.179V13.7702C115.179 11.3522 114.483 9.39528 113.092 7.89941C111.701 6.38305 109.884 5.62487 107.641 5.62487C105.398 5.62487 103.54 6.38305 102.066 7.89941C100.591 9.39528 99.8542 11.2293 99.8542 13.4013C99.8542 14.9268 100.177 16.2599 100.824 17.4009H105.789ZM111.379 11.9874C111.296 11.1473 110.943 10.4096 110.32 9.77437C109.718 9.13914 108.825 8.82152 107.641 8.82152C106.499 8.82152 105.617 9.13914 104.994 9.77437C104.391 10.3891 104.049 11.1268 103.966 11.9874H111.379ZM116.479 17.3731H120.435V11.0346C120.746 10.5633 121.276 10.1637 122.023 9.83584C122.771 9.50798 123.477 9.34405 124.141 9.34405C124.598 9.34405 124.961 9.37479 125.231 9.43626V5.62487C124.338 5.62487 123.456 5.85028 122.584 6.30109C121.732 6.7519 121.016 7.31541 120.435 7.99162V5.99372H116.479V17.3731Z" fill="url(#paint1_linear_938_11910)"/>
<path d="M165.364 33.6653C165.364 33.3201 165.681 33.0215 166.045 33.0215C166.409 33.0215 166.707 33.3201 166.707 33.6653C166.707 34.0292 166.409 34.3278 166.045 34.3278C165.681 34.3278 165.364 34.0292 165.364 33.6653Z" fill="#1E4397"/>
<path d="M173.201 34.5174V33.3605C172.688 34.1069 171.764 34.6947 170.682 34.6947C168.761 34.6947 167.455 33.2205 167.455 30.8972C167.455 28.6019 168.761 27.0811 170.682 27.0811C171.718 27.0811 172.622 27.6036 173.201 28.434V27.2583H173.993V34.5081H173.201V34.5174ZM173.201 32.7073V29.1244C172.781 28.434 171.839 27.7995 170.813 27.7995C169.209 27.7995 168.276 29.1524 168.276 30.9065C168.276 32.6607 169.209 33.9949 170.813 33.9949C171.839 33.9949 172.781 33.3978 173.201 32.7073Z" fill="#1E4397"/>
<path d="M175.329 25.5322C175.329 25.2056 175.618 24.9443 175.926 24.9443C176.252 24.9443 176.523 25.1963 176.523 25.5322C176.523 25.8587 176.252 26.1293 175.926 26.1293C175.618 26.1293 175.329 25.8587 175.329 25.5322ZM175.544 34.5174V27.2676H176.327V34.5174H175.544Z" fill="#1E4397"/>
<path d="M107.097 34.7072H100.656V18.4346H107.073C109.626 18.4346 111.7 19.1827 113.294 20.6791C114.904 22.1754 115.709 24.1353 115.709 26.5587C115.709 29.0146 114.912 30.9908 113.318 32.4871C111.724 33.9672 109.651 34.7072 107.097 34.7072ZM107.073 31.6576C108.634 31.6576 109.87 31.1697 110.781 30.1938C111.708 29.2179 112.172 28.0062 112.172 26.5587C112.172 25.0786 111.724 23.8669 110.83 22.9236C109.951 21.964 108.707 21.4842 107.097 21.4842H104.121V31.6576H107.073Z" fill="#EA4648"/>
<path d="M127.17 34.7072H116.801V18.4346H120.29V31.6576H127.17V34.7072Z" fill="#EA4648"/>
<path d="M133.486 35C131.665 35 130.16 34.4307 128.973 33.2922C127.786 32.1537 127.192 30.6573 127.192 28.8032C127.192 27.0792 127.769 25.6235 128.924 24.4362C130.079 23.2326 131.535 22.6308 133.291 22.6308C135.048 22.6308 136.471 23.2326 137.561 24.4362C138.65 25.6235 139.195 27.1767 139.195 29.096V29.8279H130.437C130.551 30.5923 130.9 31.2266 131.486 31.7308C132.088 32.2187 132.868 32.4627 133.828 32.4627C134.365 32.4627 134.926 32.3651 135.511 32.1699C136.113 31.9585 136.593 31.6739 136.951 31.3161L138.341 33.3654C137.154 34.4551 135.536 35 133.486 35ZM136.219 27.6809C136.154 27.0141 135.877 26.4286 135.389 25.9244C134.918 25.4202 134.218 25.1681 133.291 25.1681C132.397 25.1681 131.706 25.4202 131.218 25.9244C130.746 26.4123 130.478 26.9978 130.412 27.6809H136.219Z" fill="#EA4648"/>
<path d="M151.29 34.7072H148.167V27.5834C148.167 26.1195 147.443 25.3876 145.996 25.3876C144.922 25.3876 144.028 25.8431 143.312 26.7539V34.7072H140.213V22.9236H143.312V24.4362C143.735 23.932 144.304 23.5091 145.02 23.1675C145.752 22.8097 146.557 22.6308 147.435 22.6308C148.704 22.6308 149.663 22.9642 150.314 23.6311C150.964 24.2979 151.29 25.2169 151.29 26.3879V34.7072Z" fill="#EA4648"/>
<path d="M157.367 35C156.342 35 155.358 34.8373 154.415 34.512C153.488 34.1867 152.715 33.7395 152.097 33.1702L153.439 30.9257C153.911 31.3649 154.529 31.7471 155.293 32.0724C156.074 32.3976 156.814 32.5603 157.513 32.5603C158.831 32.5603 159.489 32.1455 159.489 31.3161C159.489 31.0233 159.319 30.7875 158.977 30.6086C158.636 30.4134 158.205 30.2833 157.684 30.2182C157.164 30.1369 156.602 30.0149 156.001 29.8523C155.399 29.6733 154.838 29.4782 154.317 29.2667C153.797 29.039 153.366 28.6812 153.024 28.1933C152.683 27.6891 152.512 27.071 152.512 26.3391C152.512 25.2982 152.943 24.4199 153.805 23.7043C154.667 22.9886 155.846 22.6308 157.342 22.6308C159.148 22.6308 160.726 23.1675 162.075 24.241L160.831 26.4367C160.457 26.0464 159.953 25.7211 159.319 25.4608C158.684 25.2006 158.026 25.0705 157.342 25.0705C156.789 25.0705 156.342 25.1762 156.001 25.3876C155.659 25.5991 155.488 25.8756 155.488 26.2171C155.488 26.5262 155.724 26.7701 156.196 26.949C156.684 27.1117 157.269 27.2581 157.952 27.3882C158.652 27.5183 159.343 27.6972 160.026 27.9249C160.709 28.1363 161.287 28.5267 161.758 29.096C162.246 29.6489 162.49 30.3646 162.49 31.2429C162.49 32.3489 162.035 33.2515 161.124 33.9509C160.213 34.6503 158.961 35 157.367 35Z" fill="#EA4648"/>
<defs>
<linearGradient id="paint0_linear_938_11910" x1="0.00593776" y1="26.5203" x2="98.9751" y2="26.5203" gradientUnits="userSpaceOnUse">
<stop stop-color="#204496"/>
<stop offset="1" stop-color="#449BD5"/>
</linearGradient>
<linearGradient id="paint1_linear_938_11910" x1="-1.05304" y1="11.155" x2="125.188" y2="11.155" gradientUnits="userSpaceOnUse">
<stop stop-color="#204496"/>
<stop offset="1" stop-color="#449BD5"/>
</linearGradient>
</defs>
</svg>
