<svg width="57" height="57" viewBox="0 0 57 57" fill="none" xmlns="http://www.w3.org/2000/svg">
<path d="M51.7401 23.7378C50.5883 23.7394 49.4723 24.1378 48.5801 24.8661C47.6878 25.5943 47.0738 26.6078 46.8414 27.7358H34.6496C34.3935 26.2321 33.5738 24.8826 32.3576 23.962L39.3685 10.5226C40.2034 10.7836 41.0953 10.8021 41.9403 10.5758L47.3876 21.9478C47.5053 22.1816 47.7101 22.36 47.9578 22.4446C48.2056 22.5292 48.4767 22.5133 48.7129 22.4003C48.9491 22.2873 49.1315 22.0862 49.2212 21.8402C49.3108 21.5942 49.3004 21.3229 49.1922 21.0844L43.7428 9.71019C44.5776 9.08546 45.1965 8.21557 45.5128 7.22204C45.8292 6.22852 45.8274 5.16098 45.5075 4.16855C45.1877 3.17613 44.5659 2.30839 43.7289 1.68655C42.8919 1.06472 41.8816 0.719847 40.8391 0.700115C39.7966 0.680384 38.774 0.986778 37.9141 1.5765C37.0542 2.16621 36.4 3.0098 36.0428 3.98941C35.6857 4.96902 35.6434 6.03573 35.922 7.04052C36.2006 8.04531 36.786 8.93799 37.5966 9.59386L30.5866 23.0315C29.3864 22.6431 28.0942 22.6431 26.894 23.0315L19.884 9.59386C20.7818 8.87269 21.4021 7.86286 21.6395 6.73604H32.7403C33.003 6.73214 33.2535 6.62506 33.4379 6.43794C33.6222 6.25083 33.7256 5.99869 33.7256 5.73601C33.7255 5.47334 33.6222 5.22121 33.4378 5.0341C33.2535 4.847 33.0029 4.73993 32.7402 4.73604H21.6391C21.4416 3.74989 20.9513 2.84623 20.2321 2.14319C19.513 1.44014 18.5984 0.970412 17.6081 0.795402C16.6177 0.620392 15.5976 0.748241 14.681 1.16224C13.7644 1.57623 12.9941 2.25712 12.4707 3.11589C11.9472 3.97467 11.6951 4.97138 11.7471 5.97575C11.7992 6.98012 12.153 7.94543 12.7624 8.74549C13.3718 9.54556 14.2084 10.1432 15.1629 10.4602C16.1173 10.7772 17.1452 10.7989 18.1122 10.5225L25.123 23.962C23.9068 24.8826 23.0872 26.2321 22.831 27.7358H10.6392C10.3891 26.5476 9.7146 25.4912 8.74186 24.7645L14.1926 13.3873C14.2497 13.2688 14.2829 13.1401 14.2902 13.0087C14.2975 12.8774 14.2788 12.7458 14.2352 12.6217C14.1916 12.4975 14.1239 12.3832 14.036 12.2853C13.9481 12.1873 13.8418 12.1077 13.7231 12.0509C13.6044 11.9941 13.4756 11.9613 13.3442 11.9543C13.2128 11.9474 13.0814 11.9664 12.9573 12.0104C12.8333 12.0544 12.7192 12.1224 12.6215 12.2105C12.5238 12.2986 12.4444 12.4052 12.3879 12.524L6.93902 23.8993C-0.251281 22.3638 -1.69047 33.4344 5.74079 33.7378C6.89312 33.7361 8.00963 33.3372 8.90203 32.6081C9.79443 31.8791 10.4081 30.8646 10.6396 29.7358H22.8304C23.0857 31.2403 23.905 32.5909 25.1216 33.5123L18.1103 46.9524C17.2765 46.692 16.3859 46.6735 15.5419 46.8991L10.093 35.5238C9.97595 35.2888 9.77119 35.1093 9.52292 35.0239C9.27465 34.9386 9.00278 34.9542 8.76595 35.0675C8.52911 35.1808 8.34631 35.3827 8.25696 35.6295C8.16762 35.8764 8.1789 36.1485 8.28837 36.3871L13.7391 47.7642C12.904 48.3888 12.2848 49.2586 11.9681 50.2522C11.6514 51.2458 11.653 52.3135 11.9727 53.3062C12.2924 54.2988 12.9143 55.1667 13.7513 55.7887C14.5884 56.4107 15.5988 56.7557 16.6415 56.7754C17.6842 56.7951 18.7069 56.4886 19.5669 55.8987C20.4269 55.3088 21.0811 54.465 21.4381 53.4852C21.7951 52.5054 21.8371 51.4385 21.5582 50.4336C21.2793 49.4287 20.6935 48.5361 19.8825 47.8804L26.8923 34.4434C28.0936 34.8326 29.387 34.8326 30.5883 34.4434L37.598 47.8805C36.7004 48.6008 36.0798 49.6097 35.8415 50.7356H24.7403C24.4778 50.7397 24.2274 50.8469 24.0432 51.034C23.8589 51.2211 23.7557 51.4731 23.7557 51.7357C23.7557 51.9982 23.859 52.2503 24.0432 52.4373C24.2274 52.6244 24.4778 52.7316 24.7404 52.7356H35.8411C36.0378 53.722 36.5275 54.626 37.2463 55.3296C37.965 56.0332 38.8793 56.5035 39.8696 56.6792C40.8599 56.8548 41.8802 56.7276 42.797 56.3141C43.7139 55.9006 44.4846 55.2201 45.0086 54.3616C45.5325 53.503 45.7852 52.5064 45.7336 51.5019C45.682 50.4975 45.3286 49.532 44.7195 48.7316C44.1104 47.9312 43.274 47.3332 42.3196 47.0158C41.3653 46.6984 40.3373 46.6763 39.3702 46.9525L32.359 33.5125C33.5756 32.5911 34.395 31.2404 34.6502 29.7358H46.841C47.0901 30.9249 47.7644 31.9824 48.7374 32.7099L43.288 44.0843C43.18 44.3227 43.1697 44.594 43.2593 44.8399C43.349 45.0858 43.5314 45.2868 43.7676 45.3997C44.0037 45.5127 44.2747 45.5286 44.5224 45.444C44.7701 45.3595 44.9749 45.1812 45.0927 44.9475L50.5399 33.5757C57.7315 35.1138 59.1717 24.0412 51.7401 23.7378ZM40.7402 2.73803C41.53 2.74693 42.2844 3.06692 42.8397 3.62856C43.3951 4.19021 43.7066 4.94819 43.7065 5.73803C43.7065 6.52788 43.3951 7.28586 42.8397 7.84749C42.2843 8.40912 41.5299 8.72909 40.7401 8.73797C39.9503 8.72908 39.1959 8.40909 38.6406 7.84745C38.0852 7.2858 37.7737 6.52782 37.7738 5.73798C37.7738 4.94813 38.0852 4.19015 38.6406 3.62852C39.196 3.06689 39.9504 2.74692 40.7402 2.73803ZM13.7405 5.73803C13.7494 4.94824 14.0693 4.19382 14.631 3.63847C15.1926 3.08312 15.9506 2.77166 16.7405 2.77167C17.5303 2.77168 18.2883 3.08315 18.8499 3.63851C19.4115 4.19387 19.7315 4.9483 19.7404 5.73809C19.7315 6.52789 19.4115 7.28231 18.8499 7.83765C18.2882 8.393 17.5302 8.70446 16.7404 8.70444C15.9505 8.70443 15.1926 8.39295 14.6309 7.83759C14.0693 7.28223 13.7493 6.52783 13.7405 5.73803ZM5.74054 31.7378C4.95026 31.7296 4.19512 31.4099 3.63917 30.8482C3.08323 30.2865 2.77139 29.5281 2.7714 28.7377C2.77141 27.9474 3.08326 27.189 3.63922 26.6273C4.19518 26.0656 4.95033 25.7459 5.74061 25.7378C6.53089 25.7459 7.28603 26.0656 7.84197 26.6273C8.39792 27.1891 8.70976 27.9475 8.70975 28.7378C8.70974 29.5281 8.39788 30.2865 7.84192 30.8482C7.28597 31.41 6.53082 31.7296 5.74054 31.7378ZM16.7404 54.7375C15.9506 54.7286 15.1962 54.4086 14.6409 53.847C14.0855 53.2853 13.7741 52.5273 13.7741 51.7375C13.7741 50.9476 14.0855 50.1897 14.6409 49.628C15.1963 49.0664 15.9507 48.7464 16.7405 48.7376C17.5303 48.7464 18.2847 49.0664 18.8401 49.6281C19.3954 50.1897 19.7069 50.9477 19.7069 51.7376C19.7068 52.5274 19.3954 53.2854 18.84 53.847C18.2847 54.4086 17.5302 54.7286 16.7404 54.7375ZM43.7401 51.7375C43.7312 52.5273 43.4112 53.2817 42.8496 53.837C42.2879 54.3924 41.53 54.7038 40.7401 54.7038C39.9503 54.7038 39.1923 54.3923 38.6307 53.837C38.069 53.2816 37.7491 52.5272 37.7402 51.7374C37.7491 50.9476 38.0691 50.1932 38.6308 49.6378C39.1924 49.0825 39.9504 48.771 40.7402 48.7711C41.5301 48.7711 42.2881 49.0826 42.8497 49.6379C43.4113 50.1933 43.7313 50.9477 43.7401 51.7375ZM28.7403 32.7378C27.6848 32.7296 26.6753 32.3045 25.9319 31.5553C25.1884 30.806 24.7712 29.7933 24.7712 28.7377C24.7712 27.6822 25.1884 26.6695 25.9319 25.9202C26.6754 25.171 27.6849 24.7459 28.7404 24.7378C29.7959 24.7459 30.8054 25.171 31.5488 25.9202C32.2923 26.6695 32.7095 27.6823 32.7095 28.7378C32.7095 29.7933 32.2923 30.8061 31.5488 31.5553C30.8053 32.3046 29.7958 32.7296 28.7403 32.7378ZM51.7401 31.7378C50.9498 31.7296 50.1946 31.4099 49.6387 30.8482C49.0828 30.2865 48.7709 29.5281 48.7709 28.7377C48.7709 27.9474 49.0828 27.189 49.6387 26.6273C50.1947 26.0656 50.9498 25.7459 51.7401 25.7378C52.5304 25.7459 53.2855 26.0656 53.8415 26.6273C54.3974 27.1891 54.7093 27.9475 54.7093 28.7378C54.7093 29.5281 54.3974 30.2865 53.8414 30.8482C53.2855 31.41 52.5303 31.7296 51.7401 31.7378Z" fill="url(#paint0_linear_1449_12890)"/>
<defs>
<linearGradient id="paint0_linear_1449_12890" x1="0.8125" y1="28.7253" x2="56.6681" y2="28.7253" gradientUnits="userSpaceOnUse">
<stop stop-color="#00C0FF"/>
<stop offset="1" stop-color="#5558FF"/>
</linearGradient>
</defs>
</svg>
