<svg width="100" height="101" viewBox="0 0 100 101" fill="none" xmlns="http://www.w3.org/2000/svg">
<path d="M2.77812 64.4761H13.8886C15.4226 64.4761 16.6667 65.7192 16.6667 67.2532V95.0313C16.6667 96.5653 15.4226 97.8094 13.8886 97.8094H2.77812C1.2441 97.8094 0 96.5653 0 95.0313V67.2532C0 65.7192 1.2441 64.4761 2.77812 64.4761Z" fill="#29256E"/>
<path d="M30.5554 42.2529H41.6669C43.2009 42.2529 44.445 43.497 44.445 45.031V95.0311C44.445 96.5651 43.2009 97.8092 41.6669 97.8092H30.5554C29.0214 97.8092 27.7783 96.5651 27.7783 95.0311V45.031C27.7783 43.497 29.0214 42.2529 30.5554 42.2529Z" fill="#29256E"/>
<path d="M58.3338 53.3647H69.4452C70.9792 53.3647 72.2223 54.6088 72.2223 56.1429V95.0314C72.2223 96.5654 70.9792 97.8095 69.4452 97.8095H58.3338C56.7998 97.8095 55.5557 96.5654 55.5557 95.0314V56.1429C55.5557 54.6088 56.7998 53.3647 58.3338 53.3647Z" fill="#29256E"/>
<path d="M86.1111 36.6978H97.2216C98.7556 36.6978 99.9997 37.9419 99.9997 39.4759V95.0311C99.9997 96.5651 98.7556 97.8092 97.2216 97.8092H86.1111C84.5771 97.8092 83.333 96.5651 83.333 95.0311V39.4759C83.333 37.9419 84.5771 36.6978 86.1111 36.6978Z" fill="#29256E"/>
<path d="M91.6667 3.36475C87.0667 3.36983 83.3384 7.09806 83.3333 11.6981C83.3445 12.6055 83.5052 13.5047 83.8094 14.3592L69.9036 22.6254C68.0786 20.6896 65.4327 19.7517 62.796 20.1047C60.1583 20.4576 57.8532 22.0588 56.6009 24.4066L44.3359 18.3316C44.396 17.9745 44.4316 17.6144 44.4448 17.2533C44.4509 13.8801 42.4235 10.8365 39.3087 9.5415C36.1938 8.24756 32.606 8.95862 30.2205 11.3431C27.8341 13.7275 27.121 17.3143 28.4139 20.4302L12.5041 32.3036C11.2427 31.5518 9.80225 31.151 8.33333 31.1429C3.73128 31.1429 0 34.8731 0 39.4762C0 44.0783 3.73128 47.8095 8.33333 47.8095C12.9354 47.8095 16.6667 44.0783 16.6667 39.4762C16.6595 38.4732 16.4703 37.4814 16.1082 36.5465L32.1767 24.5541C35.32 26.3068 39.2405 25.7931 41.8254 23.2887L55.7729 30.1968C56.7027 34.3381 60.5998 37.1172 64.8183 36.6472C69.0369 36.1772 72.227 32.6097 72.2219 28.3647C72.2219 28.1532 72.1751 27.9538 72.1598 27.7463L87.2843 18.7548C88.5956 19.5838 90.1143 20.0263 91.6667 20.0314C96.2687 20.0314 100 16.3001 100 11.6981C100 7.09603 96.2687 3.36475 91.6667 3.36475Z" fill="#29256E"/>
</svg>
