<svg width="54" height="55" viewBox="0 0 54 55" fill="none" xmlns="http://www.w3.org/2000/svg">
<path d="M47.4504 31.1197C47.4504 30.2602 47.9897 29.4767 48.7817 29.1734L51.9413 27.9432C52.1098 27.8758 52.2362 27.7494 52.2951 27.5809C52.3541 27.4124 52.3457 27.227 52.2614 27.0754L48.9081 20.8995C49.1018 19.8294 49.1945 18.7425 49.1861 17.664C49.1018 8.89302 42.2013 1.49538 33.4809 0.81291C28.8047 0.450611 24.3475 1.95036 20.8594 5.01727H12.5433C12.3327 5.01727 12.1389 5.1268 12.0209 5.30373L7.01617 13.1227H2.61802C2.281 13.1227 2.00296 13.4007 2.00296 13.7377C2.00296 14.0747 2.281 14.3528 2.61802 14.3528H7.36161C7.57225 14.3528 7.76604 14.2433 7.884 14.0663L12.8888 6.2474H28.0127L32.0317 7.99991C31.9643 8.2274 31.9137 8.4549 31.9137 8.70766C31.9137 10.0558 33.009 11.1595 34.3655 11.1595C35.7221 11.1595 36.8174 10.0642 36.8174 8.70766C36.8174 7.35115 35.7221 6.25582 34.3655 6.25582C33.7083 6.25582 33.1186 6.51702 32.6804 6.93829L28.3918 5.06782C28.316 5.03412 28.2317 5.01727 28.1475 5.01727H22.8646C25.8979 2.80977 29.563 1.74815 33.3797 2.04304C41.4683 2.67496 47.8633 9.54179 47.9475 17.6809C47.956 18.7594 47.8549 19.8547 47.6442 20.9332C47.6105 21.1269 47.6695 21.3207 47.8043 21.4555L50.8459 27.0417L48.3351 28.0191C47.046 28.5246 46.2119 29.7379 46.2119 31.1197V36.5794C46.2119 37.085 45.799 37.4978 45.2935 37.4978H39.7242C39.3872 37.4978 39.1091 37.7759 39.1091 38.1129V43.2356H24.4487V32.0549C24.4487 31.8358 24.3307 31.6336 24.1369 31.5241C23.0921 30.9259 22.1232 30.2013 21.2554 29.3671C21.2469 29.3587 21.2469 29.3587 21.2385 29.3503C21.1037 29.2323 20.9436 29.0638 20.7835 28.8869H25.5019L29.6135 35.046C29.7315 35.2145 29.9168 35.324 30.1275 35.324H33.2702C33.5483 36.3772 34.4919 37.1524 35.6294 37.1524C36.9775 37.1524 38.0812 36.057 38.0812 34.7005C38.0812 33.3524 36.9859 32.2487 35.6294 32.2487C34.4919 32.2487 33.5483 33.0323 33.2702 34.077H30.4561L26.9848 28.8785H32.2002C32.4782 29.9317 33.4219 30.7068 34.5593 30.7068C35.9074 30.7068 37.0112 29.6115 37.0112 28.255C37.0112 26.9069 35.9158 25.8031 34.5593 25.8031C33.4219 25.8031 32.4782 26.5867 32.2002 27.6315H12.5349L7.10042 19.9052C6.98246 19.7451 6.7971 19.644 6.59489 19.644H2.61802C2.281 19.644 2.00296 19.9221 2.00296 20.2591C2.00296 20.5961 2.281 20.8742 2.61802 20.8742H6.27472L11.7092 28.6004C11.8272 28.7605 12.0125 28.8616 12.2147 28.8616H19.149C19.5871 29.3924 20.0505 29.9232 20.4128 30.2434C21.2638 31.0523 22.2075 31.7684 23.2101 32.3751V43.2188C21.9126 43.2525 20.8762 44.3141 20.8762 45.6706C20.8762 46.0919 20.9942 46.4879 21.188 46.8333H14.0347L14.161 46.1003C14.6076 45.9571 15.0373 45.7801 15.4502 45.5526L16.4444 46.2688C16.6887 46.4458 17.0342 46.4205 17.2532 46.2014L18.9805 44.3983C19.1827 44.1877 19.208 43.8675 19.0479 43.6232L18.3401 42.5616C18.576 42.1066 18.753 41.6516 18.8878 41.1798L20.0842 40.9607C20.3791 40.9102 20.5897 40.649 20.5897 40.3541V37.8096C20.5897 37.5147 20.3791 37.2535 20.0842 37.2029L18.8962 36.9839C18.7614 36.512 18.576 36.0486 18.3485 35.6021L19.0563 34.5404C19.2164 34.2961 19.1911 33.9759 18.9889 33.7653L17.2617 31.9622C17.051 31.7432 16.7056 31.7094 16.4528 31.8864L15.4586 32.6026C15.0542 32.3751 14.6244 32.1897 14.1695 32.0549L13.9504 30.7826C13.8999 30.4877 13.6387 30.2687 13.3438 30.2687H10.9088C10.6055 30.2687 10.3527 30.4877 10.3021 30.7826L10.0831 32.0549C9.62809 32.1981 9.19839 32.3751 8.78553 32.611L7.79132 31.8948C7.54698 31.7179 7.1931 31.7432 6.98246 31.9706L5.26365 33.7737C5.06144 33.9843 5.03616 34.3045 5.19624 34.5404L5.90399 35.6021C5.66808 36.0486 5.48271 36.512 5.3479 36.9839L4.16833 37.2029C3.87343 37.2535 3.66279 37.5147 3.66279 37.8096V40.3541C3.66279 40.649 3.87343 40.9102 4.16833 40.9607L5.35633 41.1798C5.49114 41.6516 5.66808 42.115 5.90399 42.5616L5.19624 43.6232C5.03616 43.8675 5.06144 44.1877 5.26365 44.3899L6.98246 46.193C7.1931 46.4205 7.54698 46.4458 7.79132 46.2688L8.78553 45.5526C9.19839 45.7801 9.62809 45.9655 10.0831 46.1087L10.2095 46.8418H1.39632C1.05929 46.8418 0.78125 47.1198 0.78125 47.4568C0.78125 47.7938 1.05929 48.0719 1.39632 48.0719H42.5552C43.1197 48.0719 43.5831 48.5353 43.5831 49.0998C43.5831 49.6643 43.1197 50.1277 42.5552 50.1277H12.9225C12.9056 50.1277 12.8972 50.1362 12.8888 50.1362C12.8298 50.1362 12.7793 50.153 12.7287 50.1699C12.7118 50.1783 12.6866 50.1783 12.6697 50.1951C12.6023 50.2288 12.5433 50.2625 12.4928 50.3131C12.3832 50.4226 12.3074 50.5827 12.3074 50.7512C12.3074 51.0882 12.5855 51.3663 12.9225 51.3663H42.5636C43.8106 51.3663 44.8301 50.3468 44.8301 49.0998C44.8301 47.8528 43.8106 46.8333 42.5636 46.8333H42.3614C42.5552 46.4879 42.6731 46.0919 42.6731 45.6706V45.6032C42.6731 44.3057 41.6284 43.2525 40.3393 43.2188V38.7027H45.3019C46.4899 38.7027 47.4589 37.7337 47.4589 36.5457V31.1197H47.4504ZM34.3655 7.50281C35.0312 7.50281 35.5788 8.05047 35.5788 8.71609C35.5788 9.38171 35.0312 9.92937 34.3655 9.92937C33.6999 9.92937 33.1523 9.38171 33.1523 8.71609C33.1523 8.04204 33.6915 7.50281 34.3655 7.50281ZM35.6294 33.4957C36.295 33.4957 36.8427 34.0433 36.8427 34.709C36.8427 35.3746 36.295 35.9222 35.6294 35.9222C34.9638 35.9222 34.4161 35.3746 34.4161 34.709C34.4161 34.0433 34.9553 33.4957 35.6294 33.4957ZM34.5593 27.0585C35.2249 27.0585 35.7726 27.6062 35.7726 28.2718C35.7726 28.9374 35.2249 29.4851 34.5593 29.4851C33.8937 29.4851 33.346 28.9374 33.346 28.2718C33.346 27.6062 33.8853 27.0585 34.5593 27.0585ZM9.08043 44.3225C8.86979 44.1877 8.59175 44.1877 8.38111 44.3394L7.49642 44.9797L6.49378 43.9265L7.13412 42.966C7.26893 42.7722 7.26893 42.511 7.15097 42.3088C6.81395 41.7359 6.58646 41.1545 6.45165 40.5479C6.4011 40.3035 6.20731 40.1097 5.96297 40.0676L4.89292 39.8738V38.3572L5.96297 38.1634C6.20731 38.1213 6.4011 37.9359 6.45165 37.6916C6.58646 37.0765 6.8308 36.4783 7.1594 35.9222C7.27736 35.72 7.27736 35.4588 7.14255 35.265L6.49378 34.2961L7.49642 33.2429L8.38111 33.8832C8.58332 34.0349 8.86136 34.0433 9.08043 33.9001C9.59439 33.5715 10.1589 33.3272 10.7655 33.1839C11.0015 33.1249 11.1868 32.9312 11.2289 32.6868L11.4227 31.5409H12.813L13.0067 32.6868C13.0489 32.9312 13.2258 33.1249 13.4701 33.1839C14.0684 33.3272 14.6329 33.5715 15.1468 33.9001C15.3659 34.0349 15.6355 34.0265 15.8462 33.8832L16.7308 33.2429L17.7419 34.2961L17.1016 35.2566C16.9752 35.4504 16.9668 35.7032 17.0847 35.9054C17.4133 36.4699 17.6492 37.0681 17.784 37.6832C17.8346 37.9275 18.0284 38.1129 18.2727 38.155L19.3428 38.3488V39.8654L18.2643 40.0676C18.0199 40.1097 17.8262 40.3035 17.7756 40.5479C17.6492 41.1545 17.4217 41.7274 17.0847 42.3172C16.9668 42.5194 16.9752 42.7722 17.1016 42.966L17.7419 43.9265L16.7308 44.9797L15.8462 44.3394C15.6439 44.1877 15.3659 44.1793 15.1468 44.3225C14.6329 44.6511 14.0684 44.8955 13.4701 45.0387C13.2342 45.0977 13.0489 45.2915 13.0067 45.5358L12.813 46.6817H11.4143L11.2205 45.5358C11.1784 45.2915 11.0015 45.0977 10.7571 45.0387C10.1589 44.8955 9.59439 44.6511 9.08043 44.3225ZM41.443 45.6369V45.7043C41.443 46.3447 40.9206 46.867 40.2719 46.867H23.2775C22.6287 46.867 22.1063 46.3446 22.1063 45.6369C22.1063 44.9966 22.6287 44.4742 23.2775 44.4742H40.2719C40.9122 44.4742 41.443 44.9966 41.443 45.6369Z" fill="url(#paint0_linear_1024_4613)"/>
<path d="M45.0407 17.841C45.0407 18.178 45.3188 18.456 45.6558 18.456C45.9928 18.456 46.2709 18.178 46.2709 17.841C46.2709 12.8446 43.5915 8.16843 39.2692 5.62391C38.9743 5.44697 38.5952 5.54808 38.4267 5.84297C38.2497 6.13787 38.3508 6.51701 38.6457 6.68553C42.5889 9.01098 45.0407 13.2827 45.0407 17.841Z" fill="url(#paint1_linear_1024_4613)"/>
<path d="M33.9274 3.78713C33.582 3.74501 33.2786 3.98092 33.2365 4.31794C33.1944 4.65497 33.4303 4.96671 33.7673 5.00884C34.0285 5.04254 34.2897 5.08467 34.5425 5.13522C34.5846 5.14365 34.6183 5.14365 34.6604 5.14365C34.9469 5.14365 35.2081 4.94144 35.2671 4.64654C35.3345 4.30952 35.1154 3.98935 34.7784 3.92194C34.4919 3.87139 34.2139 3.82926 33.9274 3.78713Z" fill="url(#paint2_linear_1024_4613)"/>
<path d="M38.1149 5.68289C38.2497 5.37114 38.1065 5.00884 37.7947 4.86561C37.5336 4.74765 37.2639 4.64654 36.9943 4.54543C36.6741 4.42748 36.3203 4.58756 36.2023 4.90773C36.0844 5.2279 36.2444 5.58178 36.5646 5.69974C36.809 5.79242 37.0533 5.89352 37.2976 5.99463C37.3819 6.02833 37.4661 6.04518 37.542 6.04518C37.7863 6.05361 38.0138 5.91038 38.1149 5.68289Z" fill="url(#paint3_linear_1024_4613)"/>
<path d="M22.9826 11.3701C23.2607 12.4233 24.2043 13.1985 25.3418 13.1985C26.6899 13.1985 27.7936 12.1032 27.7936 10.7466C27.7936 9.39856 26.6983 8.29481 25.3418 8.29481C24.2043 8.29481 23.2607 9.07839 22.9826 10.1232H14.7003C14.4981 10.1232 14.3127 10.2243 14.1947 10.3843L9.7292 16.7372C9.71235 16.7625 9.70392 16.7878 9.69549 16.8131C9.68707 16.8383 9.67022 16.8552 9.66179 16.8805C9.61124 17.0237 9.61124 17.1754 9.66179 17.3102C9.67022 17.3354 9.67864 17.3523 9.69549 17.3776C9.71235 17.4028 9.71235 17.4281 9.7292 17.4534L14.1947 23.8063C14.3127 23.9664 14.4981 24.0675 14.7003 24.0675H37.9548C38.2329 25.1207 39.1765 25.8958 40.314 25.8958C41.6621 25.8958 42.7658 24.8005 42.7658 23.444C42.7658 22.0875 41.6705 20.9921 40.314 20.9921C39.1765 20.9921 38.2329 21.7757 37.9548 22.8205H26.6056L30.0264 17.7062H33.5567C33.86 18.7088 34.7868 19.4418 35.8906 19.4418C37.2387 19.4418 38.3424 18.3465 38.3424 16.99C38.3424 15.6419 37.2471 14.5382 35.8906 14.5382C34.7194 14.5382 33.7421 15.3639 33.4977 16.4592H29.6978C29.4871 16.4592 29.3018 16.5603 29.1838 16.7372L25.1227 22.8121H15.0204L11.4227 17.6977H20.2612C20.5392 18.7509 21.4829 19.5261 22.6203 19.5261C23.9684 19.5261 25.0721 18.4308 25.0721 17.0742C25.0721 15.7262 23.9768 14.6224 22.6203 14.6224C21.4829 14.6224 20.5392 15.406 20.2612 16.4508H11.4227L15.0204 11.3364H22.9826V11.3701ZM25.3418 9.54179C26.0074 9.54179 26.555 10.0895 26.555 10.7551C26.555 11.4207 26.0074 11.9684 25.3418 11.9684C24.6761 11.9684 24.1285 11.4207 24.1285 10.7551C24.1285 10.0895 24.6677 9.54179 25.3418 9.54179ZM35.8821 15.802C36.5478 15.802 37.0954 16.3496 37.0954 17.0153C37.0954 17.6809 36.5478 18.2285 35.8821 18.2285C35.2165 18.2285 34.6689 17.6809 34.6689 17.0153C34.6689 16.3496 35.2165 15.802 35.8821 15.802ZM40.314 22.2475C40.9796 22.2475 41.5273 22.7952 41.5273 23.4608C41.5273 24.1264 40.9796 24.6741 40.314 24.6741C39.6484 24.6741 39.1007 24.1264 39.1007 23.4608C39.1007 22.7952 39.6484 22.2475 40.314 22.2475ZM22.6287 15.8947C23.2944 15.8947 23.842 16.4423 23.842 17.1079C23.842 17.7736 23.2944 18.3212 22.6287 18.3212C21.9631 18.3212 21.4155 17.7736 21.4155 17.1079C21.4155 16.4423 21.9547 15.8947 22.6287 15.8947Z" fill="url(#paint4_linear_1024_4613)"/>
<path d="M8.07779 17.723C8.41481 17.723 8.69285 17.445 8.69285 17.1079C8.69285 16.7709 8.41481 16.4929 8.07779 16.4929H5.75233C5.41531 16.4929 5.13727 16.7709 5.13727 17.1079C5.13727 17.445 5.41531 17.723 5.75233 17.723H8.07779Z" fill="url(#paint5_linear_1024_4613)"/>
<path d="M15.6608 39.1155C15.6608 37.0934 14.0684 35.4504 12.1221 35.4504C10.1673 35.4504 8.57489 37.0934 8.57489 39.1155C8.57489 41.1377 10.1673 42.7806 12.1221 42.7806C14.0684 42.7806 15.6608 41.1377 15.6608 39.1155ZM9.7966 39.1155C9.7966 37.7759 10.8329 36.6805 12.1136 36.6805C13.3859 36.6805 14.4222 37.7759 14.4222 39.1155C14.4222 40.4552 13.3859 41.5505 12.1136 41.5505C10.8414 41.5505 9.7966 40.4552 9.7966 39.1155Z" fill="url(#paint6_linear_1024_4613)"/>
<path d="M8.92877 36.0065C9.15626 35.779 9.14783 35.4251 8.92877 35.1976C8.7097 34.9786 8.3474 34.9701 8.11991 35.1976C7.90085 35.4167 7.90928 35.779 8.12834 35.9981C8.35583 36.2255 8.7097 36.2256 8.92877 36.0065Z" fill="url(#paint7_linear_1024_4613)"/>
<path d="M15.2901 42.3678C15.071 42.5869 15.0794 42.9492 15.2985 43.1682C15.5176 43.3873 15.8799 43.3957 16.0989 43.1766C16.3264 42.9492 16.318 42.5953 16.0989 42.3678C15.8799 42.1487 15.5176 42.1403 15.2901 42.3678Z" fill="url(#paint8_linear_1024_4613)"/>
<path d="M7.04987 38.6184C6.73812 38.6184 6.47693 38.8628 6.47693 39.1913C6.47693 39.5031 6.73812 39.7474 7.04987 39.7474C7.36161 39.7474 7.62281 39.5031 7.62281 39.1913C7.61438 38.8712 7.36161 38.6184 7.04987 38.6184Z" fill="url(#paint9_linear_1024_4613)"/>
<path d="M17.1858 39.7474C17.4976 39.7474 17.7588 39.5031 17.7588 39.1913C17.7588 38.8712 17.4976 38.6184 17.1858 38.6184C16.8741 38.6184 16.6129 38.8628 16.6129 39.1913C16.6129 39.5031 16.8741 39.7474 17.1858 39.7474Z" fill="url(#paint10_linear_1024_4613)"/>
<path d="M8.12834 42.3678C7.90928 42.5869 7.90085 42.9492 8.12834 43.1766C8.3474 43.3957 8.7097 43.3873 8.92877 43.1682C9.14783 42.9492 9.15626 42.5869 8.93719 42.3678C8.7097 42.1403 8.35583 42.1487 8.12834 42.3678Z" fill="url(#paint11_linear_1024_4613)"/>
<path d="M16.0989 35.9981C16.318 35.779 16.3264 35.4167 16.1073 35.1976C15.8799 34.9701 15.526 34.9786 15.2985 35.1976C15.0794 35.4167 15.071 35.779 15.2985 36.0065C15.5176 36.234 15.8799 36.2255 16.0989 35.9981Z" fill="url(#paint12_linear_1024_4613)"/>
<path d="M12.1221 43.6822C11.8019 43.6822 11.5491 43.9434 11.5491 44.2551C11.5491 44.5669 11.7935 44.828 12.1221 44.828C12.4338 44.828 12.6781 44.5669 12.6781 44.2551C12.6781 43.9434 12.4338 43.6822 12.1221 43.6822Z" fill="url(#paint13_linear_1024_4613)"/>
<path d="M12.1221 34.6837C12.4338 34.6837 12.6781 34.4225 12.6781 34.1107C12.6781 33.799 12.4338 33.5378 12.1221 33.5378C11.8019 33.5378 11.5491 33.799 11.5491 34.1107C11.5491 34.4309 11.8019 34.6837 12.1221 34.6837Z" fill="url(#paint14_linear_1024_4613)"/>
<path d="M35.9748 53.4474H17.8599C17.5228 53.4474 17.2448 53.7254 17.2448 54.0625C17.2448 54.3995 17.5228 54.686 17.8599 54.686H35.9748C36.3118 54.686 36.5899 54.4079 36.5899 54.0709C36.5899 53.7339 36.3118 53.4474 35.9748 53.4474Z" fill="url(#paint15_linear_1024_4613)"/>
<path d="M52.4384 46.867H47.501C47.164 46.867 46.8859 47.1451 46.8859 47.4821C46.8859 47.8191 47.164 48.0972 47.501 48.0972H52.4384C52.7754 48.0972 53.0534 47.8191 53.0534 47.4821C53.0534 47.1451 52.7754 46.867 52.4384 46.867Z" fill="url(#paint16_linear_1024_4613)"/>
<path d="M9.86401 50.2036C9.63652 50.1025 9.35847 50.1614 9.19839 50.3384C9.08043 50.4563 9.02145 50.608 9.02145 50.7765C9.02145 50.945 9.08885 51.0967 9.19839 51.2146C9.31634 51.3326 9.468 51.3916 9.63652 51.3916C9.80503 51.3916 9.95669 51.3242 10.0746 51.2146C10.1926 51.0967 10.2516 50.945 10.2516 50.7765C10.2516 50.608 10.1842 50.4563 10.0746 50.3384C10.0072 50.2794 9.93984 50.2373 9.86401 50.2036Z" fill="url(#paint17_linear_1024_4613)"/>
<defs>
<linearGradient id="paint0_linear_1024_4613" x1="4.96439" y1="4.25241" x2="7.45686" y2="54.6784" gradientUnits="userSpaceOnUse">
<stop stop-color="#AFEEFB"/>
<stop offset="1" stop-color="#2F94F8"/>
</linearGradient>
<linearGradient id="paint1_linear_1024_4613" x1="4.96439" y1="4.25241" x2="7.45686" y2="54.6784" gradientUnits="userSpaceOnUse">
<stop stop-color="#AFEEFB"/>
<stop offset="1" stop-color="#2F94F8"/>
</linearGradient>
<linearGradient id="paint2_linear_1024_4613" x1="4.96439" y1="4.25241" x2="7.45686" y2="54.6784" gradientUnits="userSpaceOnUse">
<stop stop-color="#AFEEFB"/>
<stop offset="1" stop-color="#2F94F8"/>
</linearGradient>
<linearGradient id="paint3_linear_1024_4613" x1="4.96439" y1="4.25241" x2="7.45686" y2="54.6784" gradientUnits="userSpaceOnUse">
<stop stop-color="#AFEEFB"/>
<stop offset="1" stop-color="#2F94F8"/>
</linearGradient>
<linearGradient id="paint4_linear_1024_4613" x1="4.96439" y1="4.25241" x2="7.45686" y2="54.6784" gradientUnits="userSpaceOnUse">
<stop stop-color="#AFEEFB"/>
<stop offset="1" stop-color="#2F94F8"/>
</linearGradient>
<linearGradient id="paint5_linear_1024_4613" x1="4.96439" y1="4.25241" x2="7.45686" y2="54.6784" gradientUnits="userSpaceOnUse">
<stop stop-color="#AFEEFB"/>
<stop offset="1" stop-color="#2F94F8"/>
</linearGradient>
<linearGradient id="paint6_linear_1024_4613" x1="4.96439" y1="4.25241" x2="7.45686" y2="54.6784" gradientUnits="userSpaceOnUse">
<stop stop-color="#AFEEFB"/>
<stop offset="1" stop-color="#2F94F8"/>
</linearGradient>
<linearGradient id="paint7_linear_1024_4613" x1="4.96439" y1="4.25241" x2="7.45686" y2="54.6784" gradientUnits="userSpaceOnUse">
<stop stop-color="#AFEEFB"/>
<stop offset="1" stop-color="#2F94F8"/>
</linearGradient>
<linearGradient id="paint8_linear_1024_4613" x1="4.96439" y1="4.25241" x2="7.45686" y2="54.6784" gradientUnits="userSpaceOnUse">
<stop stop-color="#AFEEFB"/>
<stop offset="1" stop-color="#2F94F8"/>
</linearGradient>
<linearGradient id="paint9_linear_1024_4613" x1="4.96439" y1="4.25241" x2="7.45686" y2="54.6784" gradientUnits="userSpaceOnUse">
<stop stop-color="#AFEEFB"/>
<stop offset="1" stop-color="#2F94F8"/>
</linearGradient>
<linearGradient id="paint10_linear_1024_4613" x1="4.96439" y1="4.25241" x2="7.45686" y2="54.6784" gradientUnits="userSpaceOnUse">
<stop stop-color="#AFEEFB"/>
<stop offset="1" stop-color="#2F94F8"/>
</linearGradient>
<linearGradient id="paint11_linear_1024_4613" x1="4.96439" y1="4.25241" x2="7.45686" y2="54.6784" gradientUnits="userSpaceOnUse">
<stop stop-color="#AFEEFB"/>
<stop offset="1" stop-color="#2F94F8"/>
</linearGradient>
<linearGradient id="paint12_linear_1024_4613" x1="4.96439" y1="4.25241" x2="7.45686" y2="54.6784" gradientUnits="userSpaceOnUse">
<stop stop-color="#AFEEFB"/>
<stop offset="1" stop-color="#2F94F8"/>
</linearGradient>
<linearGradient id="paint13_linear_1024_4613" x1="4.96439" y1="4.25241" x2="7.45686" y2="54.6784" gradientUnits="userSpaceOnUse">
<stop stop-color="#AFEEFB"/>
<stop offset="1" stop-color="#2F94F8"/>
</linearGradient>
<linearGradient id="paint14_linear_1024_4613" x1="4.96439" y1="4.25241" x2="7.45686" y2="54.6784" gradientUnits="userSpaceOnUse">
<stop stop-color="#AFEEFB"/>
<stop offset="1" stop-color="#2F94F8"/>
</linearGradient>
<linearGradient id="paint15_linear_1024_4613" x1="4.96439" y1="4.25241" x2="7.45686" y2="54.6784" gradientUnits="userSpaceOnUse">
<stop stop-color="#AFEEFB"/>
<stop offset="1" stop-color="#2F94F8"/>
</linearGradient>
<linearGradient id="paint16_linear_1024_4613" x1="4.96439" y1="4.25241" x2="7.45686" y2="54.6784" gradientUnits="userSpaceOnUse">
<stop stop-color="#AFEEFB"/>
<stop offset="1" stop-color="#2F94F8"/>
</linearGradient>
<linearGradient id="paint17_linear_1024_4613" x1="4.96439" y1="4.25241" x2="7.45686" y2="54.6784" gradientUnits="userSpaceOnUse">
<stop stop-color="#AFEEFB"/>
<stop offset="1" stop-color="#2F94F8"/>
</linearGradient>
</defs>
</svg>
