<svg width="57" height="57" viewBox="0 0 57 57" fill="none" xmlns="http://www.w3.org/2000/svg">
<path d="M16.2134 19.2837L14.6586 21.9776C14.3901 22.4465 14.3178 23.0026 14.4577 23.5245C14.5976 24.0465 14.9382 24.492 15.4053 24.7637L15.6388 24.9157C15.1135 27.0391 15.1078 29.2577 15.6222 31.3837C15.3588 31.5013 15.1228 31.6725 14.9293 31.8864C14.7358 32.1003 14.5889 32.3521 14.4982 32.6259C14.4074 32.8997 14.3748 33.1894 14.4022 33.4765C14.4297 33.7637 14.5167 34.0419 14.6577 34.2935L16.2134 36.9883C16.3506 37.2213 16.5324 37.4249 16.7483 37.5875C16.9643 37.7501 17.2101 37.8686 17.4719 37.9362C17.7336 38.0038 18.0061 38.0191 18.2738 37.9813C18.5415 37.9435 18.7991 37.8533 19.0319 37.7159L19.2459 37.6074C20.82 39.1269 22.7391 40.2419 24.8387 40.8568C24.8082 41.1439 24.8381 41.4342 24.9263 41.7091C25.0146 41.9839 25.1594 42.2373 25.3513 42.453C25.5433 42.6686 25.7782 42.8417 26.041 42.9613C26.3037 43.0808 26.5886 43.1441 26.8773 43.147H29.9909C30.5313 43.1464 31.0494 42.9314 31.4316 42.5492C31.8137 42.167 32.0287 41.6489 32.0294 41.1085L32.0411 40.8285C34.1391 40.2324 36.0566 39.1258 37.6223 37.6075C37.8581 37.7778 38.1266 37.8973 38.4109 37.9586C38.6953 38.0198 38.9892 38.0214 39.2742 37.9633C39.5592 37.9052 39.829 37.7885 40.0666 37.6208C40.3042 37.4531 40.5045 37.2379 40.6547 36.9889L42.2096 34.2951C42.4781 33.8261 42.5503 33.27 42.4105 32.7481C42.2706 32.2261 41.93 31.7807 41.4629 31.5089L41.2294 31.3569C41.4951 30.304 41.6294 29.2222 41.6291 28.1363C41.6251 27.0428 41.4966 25.9533 41.246 24.8889L41.4639 24.7638C41.9303 24.4918 42.2704 24.0466 42.4102 23.5251C42.55 23.0036 42.4783 22.4479 42.2105 21.9791L40.6547 19.2843C40.5175 19.0514 40.3358 18.8477 40.1198 18.6851C39.9039 18.5225 39.658 18.404 39.3963 18.3364C39.1345 18.2688 38.862 18.2535 38.5944 18.2913C38.3267 18.3291 38.0691 18.4193 37.8363 18.5567L37.6223 18.6652C36.0482 17.1457 34.1291 16.0307 32.0294 15.4158C32.0599 15.1287 32.0301 14.8384 31.9418 14.5635C31.8536 14.2887 31.7088 14.0353 31.5169 13.8196C31.3249 13.604 31.09 13.4309 30.8272 13.3113C30.5644 13.1918 30.2796 13.1285 29.9909 13.1256H26.8773C26.5863 13.1306 26.2994 13.1961 26.035 13.318C25.7707 13.4398 25.5346 13.6154 25.3417 13.8334C25.1489 14.0515 25.0035 14.3073 24.9149 14.5846C24.8263 14.8619 24.7964 15.1546 24.8271 15.4441C22.7232 16.047 20.7972 17.1516 19.2146 18.6632C18.9623 18.4835 18.6739 18.3609 18.3694 18.304C18.065 18.2471 17.7517 18.2573 17.4516 18.3339C17.1926 18.4024 16.9498 18.5216 16.7373 18.6847C16.5247 18.8477 16.3467 19.0513 16.2134 19.2837ZM17.9969 20.2703L18.2109 20.3949C18.5927 20.6161 19.0361 20.7072 19.4742 20.6543C19.9123 20.6014 20.3213 20.4074 20.6394 20.1017C21.9674 18.8139 23.5938 17.8753 25.3733 17.3698C25.8387 17.218 26.2398 16.9146 26.5124 16.508C26.7851 16.1014 26.9135 15.6151 26.8772 15.1269L30.028 15.1641V15.4157C30.0279 15.8566 30.171 16.2855 30.4358 16.638C30.7005 16.9904 31.0725 17.2474 31.4958 17.3703C33.275 17.8756 34.9011 18.8141 36.2287 20.1017C36.5922 20.4293 37.0551 20.6253 37.5433 20.6584C38.0315 20.6915 38.5167 20.5598 38.9211 20.2844L40.4642 23.0301C38.2913 24.0607 39.7837 26.3489 39.6276 28.1363C39.8081 29.819 38.3596 32.0173 40.2472 33.1174L40.4769 33.2928L38.8702 36.0018C38.4789 35.7186 38.0011 35.5806 37.5191 35.6115C37.037 35.6423 36.5808 35.8401 36.2287 36.1709C34.9007 37.4587 33.2743 38.3973 31.4949 38.9028C31.0294 39.0546 30.6283 39.358 30.3557 39.7646C30.0831 40.1712 29.9546 40.6574 29.9909 41.1456L26.8402 41.1085V40.8568C26.8402 40.416 26.6971 39.9871 26.4324 39.6346C26.1677 39.2821 25.7957 39.0251 25.3723 38.9023C23.5932 38.3969 21.9671 37.4585 20.6394 36.1709C20.321 35.8656 19.9121 35.6719 19.4741 35.619C19.0362 35.5662 18.5929 35.6569 18.2109 35.8777L17.9471 35.9881L16.4041 33.2425C18.5768 32.212 17.0845 29.9235 17.2406 28.1362C17.2402 27.2157 17.3542 26.2987 17.5797 25.4063C17.6815 24.9272 17.6198 24.4278 17.4043 23.9879C17.1889 23.548 16.8322 23.1931 16.3913 22.9798L17.9969 20.2703ZM36.8288 28.1361C36.8263 25.9113 35.9408 23.7784 34.3667 22.2061C32.7927 20.6338 30.6589 19.7506 28.434 19.7507C26.2092 19.7507 24.0754 20.6339 22.5014 22.2062C20.9273 23.7785 20.0418 25.9114 20.0394 28.1362C20.4611 39.2577 36.4088 39.2546 36.8288 28.1361ZM34.8273 28.1363C34.8273 29.8319 34.1537 31.458 32.9548 32.657C31.7558 33.856 30.1297 34.5295 28.4341 34.5295C26.7385 34.5295 25.1123 33.8559 23.9134 32.657C22.7144 31.458 22.0408 29.8318 22.0409 28.1362C22.3411 19.6748 34.5284 19.6769 34.8273 28.1363ZM18.7072 8.28205C20.3229 7.62667 21.9812 7.08173 23.6707 6.651C24.0357 7.7865 24.7943 8.75428 25.8098 9.37988C26.8253 10.0055 28.0308 10.2478 29.2091 10.063C30.3875 9.8783 31.461 9.27872 32.2364 8.37238C33.0117 7.46603 33.4377 6.31253 33.4377 5.11982C33.2731 -1.21318 24.1914 -1.61162 23.4606 4.64951C21.676 5.02399 19.9401 5.60148 18.2868 6.37071C18.0466 6.48366 17.8606 6.68659 17.7688 6.93564C17.677 7.18469 17.687 7.45984 17.7965 7.70162C17.8762 7.87586 18.0045 8.02336 18.1661 8.12634C18.3277 8.22932 18.5156 8.28339 18.7072 8.28205ZM28.4341 2.11767C29.2244 2.12669 29.9792 2.44697 30.5349 3.00901C31.0905 3.57106 31.4021 4.32953 31.4021 5.11987C31.4021 5.91022 31.0905 6.66868 30.5348 7.2307C29.9791 7.79272 29.2242 8.11297 28.4339 8.12196C27.6437 8.11294 26.8888 7.79266 26.3331 7.23061C25.7775 6.66857 25.4659 5.9101 25.4659 5.11975C25.4659 4.32941 25.7775 3.57095 26.3332 3.00893C26.8889 2.44691 27.6438 2.12666 28.4341 2.11767ZM51.9109 23.1627C51.5462 21.3767 50.9718 19.6401 50.1996 17.989C50.0869 17.7494 49.8841 17.5641 49.6353 17.4734C49.3866 17.3828 49.1121 17.3942 48.8717 17.5051C48.6313 17.6161 48.4445 17.8176 48.3521 18.0657C48.2597 18.3138 48.2691 18.5884 48.3783 18.8296C49.0592 20.2821 49.576 21.8059 49.9194 23.3728C48.7839 23.7378 47.8161 24.4964 47.1905 25.5119C46.5649 26.5274 46.3226 27.7329 46.5073 28.9112C46.692 30.0896 47.2916 31.1632 48.1979 31.9385C49.1043 32.7138 50.2578 33.1399 51.4505 33.1398C57.7867 32.9781 58.1824 23.875 51.9109 23.1627ZM51.4505 31.1384C50.6765 31.1302 49.9356 30.8233 49.3826 30.2818C48.8295 29.7403 48.507 29.006 48.4825 28.2324C48.458 27.4587 48.7333 26.7055 49.2509 26.13C49.7686 25.5546 50.4885 25.2013 51.2604 25.1441C51.6641 25.1142 52.0697 25.1663 52.4528 25.2972C52.8358 25.4281 53.1884 25.6352 53.4894 25.9059C53.7903 26.1767 54.0334 26.5055 54.2039 26.8726C54.3745 27.2397 54.4691 27.6375 54.4819 28.0421C54.4947 28.4467 54.4256 28.8497 54.2786 29.2269C54.1317 29.6041 53.9099 29.9476 53.6267 30.2369C53.3435 30.5262 53.0048 30.7551 52.6308 30.9101C52.2568 31.065 51.8553 31.1427 51.4505 31.1384ZM35.9895 7.4614C37.4858 8.00897 38.9186 8.71694 40.2625 9.57295C39.6928 10.6739 39.5521 11.9472 39.8677 13.146C40.1832 14.3448 40.9326 15.3837 41.9705 16.0615C43.0085 16.7393 44.2611 17.0076 45.4856 16.8144C46.7101 16.6213 47.8193 15.9805 48.5982 15.0161C49.3771 14.0518 49.7703 12.8326 49.7015 11.5949C49.6328 10.3571 49.107 9.18899 48.226 8.31685C47.3451 7.4447 46.1717 6.93065 44.9334 6.87432C43.695 6.81799 42.4799 7.22339 41.5234 8.01195C39.9994 7.014 38.3638 6.19784 36.65 5.58012C36.4012 5.49511 36.1288 5.51186 35.8923 5.62671C35.6557 5.74156 35.4741 5.94521 35.387 6.19332C35.2999 6.44143 35.3143 6.71391 35.4272 6.95143C35.54 7.18895 35.7421 7.37219 35.9895 7.4614ZM42.4641 9.87316C42.7319 9.57784 43.0559 9.33889 43.4172 9.17029C43.7784 9.00168 44.1697 8.90679 44.568 8.89119C44.9664 8.87558 45.3638 8.93957 45.7372 9.0794C46.1105 9.21923 46.4522 9.4321 46.7423 9.70556C47.0324 9.97902 47.265 10.3076 47.4266 10.672C47.5882 11.0365 47.6755 11.4295 47.6834 11.828C47.6913 12.2266 47.6196 12.6228 47.4726 12.9933C47.3256 13.3639 47.1062 13.7014 46.8272 13.9862C46.2775 14.5465 45.53 14.869 44.7452 14.8844C43.9604 14.8997 43.2008 14.6067 42.6296 14.0683C42.0584 13.5299 41.7212 12.7889 41.6902 12.0045C41.6593 11.2202 41.9371 10.4549 42.4641 9.87316ZM6.48969 21.1958C6.74028 21.2827 7.0151 21.2667 7.25395 21.1514C7.49281 21.0361 7.67624 20.8308 7.76406 20.5806C8.30947 19.0774 9.02564 17.6417 9.89852 16.3019C10.8358 16.7866 11.9029 16.9603 12.9455 16.798C13.9881 16.6357 14.952 16.1457 15.6975 15.3991C16.385 14.716 16.859 13.8477 17.0617 12.9001C17.2645 11.9524 17.1873 10.9662 16.8396 10.0616C16.4918 9.15701 15.8885 8.37308 15.1031 7.80529C14.3177 7.23749 13.3842 6.91035 12.4162 6.8637C11.4482 6.81704 10.4875 7.0529 9.65114 7.54253C8.8148 8.03217 8.13889 8.75445 7.70575 9.6214C7.27262 10.4884 7.10094 11.4626 7.21164 12.4253C7.32233 13.3881 7.71062 14.2979 8.32921 15.044C7.31981 16.5662 6.49561 18.2034 5.87406 19.9209C5.7868 20.1716 5.80262 20.4467 5.91805 20.6857C6.03349 20.9248 6.23909 21.1082 6.48969 21.1958ZM10.0362 9.73835C10.6014 9.18587 11.3616 8.87854 12.152 8.88303C12.9424 8.88751 13.6991 9.20346 14.258 9.76231C14.8169 10.3212 15.1329 11.0779 15.1374 11.8682C15.142 12.6586 14.8347 13.4189 14.2823 13.9841C13.7171 14.5366 12.9568 14.8439 12.1665 14.8394C11.3761 14.835 10.6194 14.519 10.0605 13.9602C9.5016 13.4013 9.18559 12.6446 9.18104 11.8543C9.17648 11.0639 9.48375 10.3036 10.0362 9.73835ZM50.3785 35.0768C50.1279 34.9897 49.853 35.0055 49.6141 35.1209C49.3752 35.2362 49.1918 35.4416 49.1041 35.692C48.5587 37.1952 47.8426 38.6308 46.9697 39.9707C46.0325 39.486 44.9653 39.3122 43.9227 39.4745C42.8801 39.6368 41.9163 40.1268 41.1707 40.8734C40.4833 41.5565 40.0093 42.4247 39.8065 43.3724C39.6037 44.3201 39.6809 45.3063 40.0287 46.2109C40.3764 47.1155 40.9797 47.8994 41.7651 48.4672C42.5505 49.035 43.484 49.3622 44.452 49.4088C45.42 49.4555 46.3807 49.2197 47.2171 48.73C48.0534 48.2404 48.7293 47.5181 49.1625 46.6512C49.5956 45.7842 49.7673 44.81 49.6566 43.8472C49.5459 42.8844 49.1576 41.9746 48.539 41.2286C49.5484 39.7063 50.3726 38.0691 50.9942 36.3516C51.0814 36.1009 51.0656 35.8258 50.9501 35.5868C50.8347 35.3477 50.6291 35.1643 50.3785 35.0768ZM46.8321 46.5342C46.2665 47.0849 45.5068 47.3908 44.7174 47.3856C43.928 47.3803 43.1724 47.0645 42.6142 46.5063C42.056 45.9481 41.74 45.1925 41.7347 44.4032C41.7294 43.6138 42.0352 42.854 42.5859 42.2884C43.1515 41.7377 43.9112 41.4318 44.7006 41.437C45.49 41.4423 46.2456 41.7582 46.8038 42.3163C47.362 42.8745 47.678 43.6301 47.6833 44.4195C47.6885 45.2089 47.3828 45.9686 46.8321 46.5342ZM20.8789 48.8073C19.3748 48.2609 17.9382 47.544 16.5974 46.6706C17.1593 45.5687 17.2922 44.2975 16.9704 43.1032C16.6486 41.9089 15.8951 40.8765 14.8557 40.206C13.8163 39.5355 12.5651 39.2746 11.3443 39.4739C10.1236 39.6731 9.02026 40.3184 8.24804 41.2846C7.47582 42.2508 7.08966 43.4692 7.16438 44.7038C7.2391 45.9385 7.76936 47.1014 8.65247 47.9675C9.53558 48.8335 10.7087 49.341 11.9445 49.3916C13.1804 49.4422 14.391 49.0323 15.342 48.2413C16.8641 49.2505 18.5011 50.0747 20.2183 50.6964C20.3426 50.7408 20.4744 50.7603 20.6063 50.7536C20.7381 50.7468 20.8673 50.7141 20.9864 50.6572C21.1056 50.6004 21.2123 50.5205 21.3004 50.4222C21.3885 50.3239 21.4563 50.2092 21.4999 50.0846C21.5435 49.9599 21.562 49.8279 21.5543 49.6962C21.5467 49.5644 21.513 49.4354 21.4553 49.3167C21.3975 49.198 21.3169 49.0918 21.218 49.0044C21.1191 48.917 21.0038 48.85 20.8789 48.8073ZM10.0362 46.5342C9.48349 45.969 9.17602 45.2086 9.18048 44.4181C9.18494 43.6276 9.50098 42.8707 10.06 42.3118C10.619 41.7528 11.3759 41.4369 12.1664 41.4325C12.957 41.4282 13.7173 41.7358 14.2824 42.2885C14.8351 42.8538 15.1426 43.6141 15.1381 44.4047C15.1337 45.1952 14.8176 45.952 14.2586 46.511C13.6996 47.0699 12.9427 47.3858 12.1522 47.3902C11.3616 47.3945 10.6013 47.087 10.0362 46.5342ZM8.00249 38.7703C8.24307 38.658 8.42919 38.4548 8.51991 38.2052C8.61063 37.9557 8.59852 37.6804 8.48624 37.4398C7.80171 35.9814 7.29129 34.4475 6.9655 32.8698C7.96684 32.5456 8.84015 31.9134 9.46075 31.0633C10.0813 30.2132 10.4175 29.1888 10.4212 28.1363C10.2125 21.5272 0.624113 21.5225 0.414062 28.1364C0.418042 29.382 0.887376 30.581 1.72995 31.4983C2.57253 32.4156 3.72751 32.9849 4.96822 33.0944C5.32351 34.8881 5.89579 36.6318 6.67244 38.2871C6.78519 38.5272 6.98844 38.7128 7.2377 38.8033C7.48697 38.8939 7.76195 38.882 8.00249 38.7703ZM2.41549 28.1363C2.42428 27.3458 2.74444 26.5907 3.30651 26.0349C3.86857 25.479 4.62717 25.1673 5.41767 25.1673C6.20816 25.1673 6.96676 25.4791 7.52881 26.0349C8.09086 26.5908 8.41102 27.3459 8.41978 28.1363C8.411 28.9268 8.09083 29.6819 7.52877 30.2377C6.9667 30.7936 6.2081 31.1053 5.41761 31.1053C4.62711 31.1053 3.86852 30.7935 3.30647 30.2377C2.74441 29.6818 2.42426 28.9267 2.41549 28.1363ZM37.7366 48.0846C36.2787 48.7692 34.7452 49.2796 33.1678 49.6054C32.7852 48.4297 31.9799 47.438 30.908 46.8221C29.836 46.2062 28.5736 46.0101 27.3653 46.2718C26.157 46.5334 25.0888 47.2342 24.3677 48.2384C23.6465 49.2425 23.3237 50.4786 23.4617 51.7072C23.5998 52.9357 24.1889 54.0693 25.1149 54.8884C26.0409 55.7075 27.238 56.1537 28.4742 56.1407C29.7104 56.1276 30.8978 55.6563 31.8064 54.8179C32.715 53.9795 33.28 52.8337 33.3922 51.6025C35.186 51.2473 36.9297 50.6747 38.5849 49.8974C38.7039 49.8417 38.8108 49.7631 38.8995 49.6661C38.9881 49.5691 39.0568 49.4556 39.1016 49.3321C39.1464 49.2085 39.1664 49.0773 39.1605 48.9461C39.1546 48.8148 39.1229 48.6859 39.0672 48.5669C39.0115 48.4479 38.9329 48.341 38.8359 48.2523C38.7389 48.1637 38.6253 48.095 38.5018 48.0502C38.3782 48.0054 38.2471 47.9854 38.1158 47.9913C37.9845 47.9972 37.8557 48.0289 37.7366 48.0846ZM28.4341 54.1549C27.6436 54.1461 26.8885 53.8259 26.3327 53.2639C25.7768 52.7018 25.4651 51.9432 25.4651 51.1527C25.4651 50.3622 25.7769 49.6036 26.3327 49.0416C26.8886 48.4795 27.6437 48.1593 28.4341 48.1506C29.2246 48.1594 29.9797 48.4795 30.5355 49.0416C31.0914 49.6037 31.4031 50.3623 31.4031 51.1528C31.4031 51.9432 31.0913 52.7018 30.5355 53.2639C29.9796 53.826 29.2245 54.1461 28.4341 54.1549Z" fill="url(#paint0_linear_1449_12891)"/>
<defs>
<linearGradient id="paint0_linear_1449_12891" x1="0.414063" y1="28.1361" x2="56.4141" y2="28.1361" gradientUnits="userSpaceOnUse">
<stop stop-color="#00C0FF"/>
<stop offset="1" stop-color="#5558FF"/>
</linearGradient>
</defs>
</svg>
