<svg width="46" height="58" viewBox="0 0 46 58" fill="none" xmlns="http://www.w3.org/2000/svg">
<path d="M43.1332 0.755859H30.4014C28.8972 0.755859 27.6731 1.97993 27.6731 3.48411V5.30294C25.6669 5.30294 24.0354 6.93443 24.0354 8.9406C24.0354 10.9468 25.6669 12.5783 27.6731 12.5783V17.1253H34.9484V15.3065C34.9484 14.3034 35.7642 13.4877 36.7673 13.4877C37.7704 13.4877 38.5861 14.3034 38.5861 15.3065V17.1253H43.1332C44.6373 17.1253 45.8614 15.9013 45.8614 14.3971V3.48411C45.8614 1.97993 44.6373 0.755859 43.1332 0.755859ZM44.0426 14.3971C44.0426 14.8982 43.6352 15.3065 43.1332 15.3065H40.4049C40.4049 13.3003 38.7734 11.6689 36.7673 11.6689C34.7611 11.6689 33.1296 13.3003 33.1296 15.3065H29.4919V10.7594H27.6731C26.67 10.7594 25.8543 9.94369 25.8543 8.9406C25.8543 7.93752 26.67 7.12177 27.6731 7.12177H29.4919V3.48411C29.4919 2.98302 29.8994 2.57469 30.4014 2.57469H43.1332C43.6352 2.57469 44.0426 2.98302 44.0426 3.48411V14.3971Z" fill="url(#paint0_linear_1024_4612)"/>
<path d="M27.6731 18.9442C25.6669 18.9442 24.0354 20.5757 24.0354 22.5818H20.3978V18.0348H18.5789C17.5759 18.0348 16.7601 17.219 16.7601 16.2159C16.7601 15.2128 17.5759 14.3971 18.5789 14.3971H20.3978V6.21236H17.9596C8.27253 6.21236 0.390625 14.0943 0.390625 23.7814C0.390625 29.0723 2.73965 34.0287 6.83475 37.3789L10.3942 40.2918V42.7572C9.33837 43.1337 8.57537 44.1341 8.57537 45.3181C8.57537 46.5759 9.43477 47.6272 10.5943 47.9409C10.4679 48.2547 10.3942 48.5957 10.3942 48.9549C10.3942 50.1572 11.1808 51.1684 12.2621 51.5313C12.6386 54.6851 15.326 57.1397 18.5789 57.1397C21.8319 57.1397 24.5193 54.6851 24.8958 51.5313C25.977 51.1684 26.7637 50.1572 26.7637 48.9549C26.7637 48.5957 26.69 48.2547 26.5636 47.94C27.7231 47.6253 28.5825 46.575 28.5825 45.3172C28.5825 44.1332 27.8195 43.1328 26.7637 42.7563V40.2909L30.3231 37.378C34.4182 34.0287 36.7673 29.0723 36.7673 23.7814V22.5818H31.3108C31.3108 20.5757 29.6793 18.9442 27.6731 18.9442ZM17.9596 8.03119H18.5789V12.5783C16.5728 12.5783 14.9413 14.2098 14.9413 16.2159C14.9413 18.2221 16.5728 19.8536 18.5789 19.8536V22.5818H14.9413C14.9413 20.5757 13.3098 18.9442 11.3036 18.9442C9.29745 18.9442 7.66595 20.5757 7.66595 22.5818H2.25493C2.86969 14.4553 9.67849 8.03119 17.9596 8.03119ZM7.98607 35.9712C4.47481 33.0983 2.39589 28.9096 2.22219 24.4007H9.48479V22.5818C9.48479 21.5788 10.3005 20.763 11.3036 20.763C12.3067 20.763 13.1224 21.5788 13.1224 22.5818V24.4007H18.5789V28.0383C16.5728 28.0383 14.9413 29.6698 14.9413 31.676C14.9413 33.6822 16.5728 35.3137 18.5789 35.3137V42.589H12.213V39.4297L7.98607 35.9712ZM18.5789 55.3208C16.3836 55.3208 14.5466 53.7557 14.1237 51.6832H23.0342C22.6113 53.7557 20.7743 55.3208 18.5789 55.3208ZM24.0354 49.8643H13.1224C12.6205 49.8643 12.213 49.456 12.213 48.9549C12.213 48.4538 12.6205 48.0455 13.1224 48.0455H24.0354C24.5374 48.0455 24.9449 48.4538 24.9449 48.9549C24.9449 49.456 24.5374 49.8643 24.0354 49.8643ZM25.8543 46.2267H11.3036C10.8016 46.2267 10.3942 45.8183 10.3942 45.3172C10.3942 44.8162 10.8016 44.4078 11.3036 44.4078H25.8543C26.3563 44.4078 26.7637 44.8162 26.7637 45.3172C26.7637 45.8183 26.3563 46.2267 25.8543 46.2267ZM29.1718 35.9712L24.9449 39.4297V42.589H20.3978V33.4948H18.5789C17.5759 33.4948 16.7601 32.6791 16.7601 31.676C16.7601 30.6729 17.5759 29.8572 18.5789 29.8572H20.3978V24.4007H25.8543V22.5818C25.8543 21.5788 26.67 20.763 27.6731 20.763C28.6762 20.763 29.4919 21.5788 29.4919 22.5818V24.4007H34.9357C34.762 28.9096 32.6831 33.0983 29.1718 35.9712Z" fill="url(#paint1_linear_1024_4612)"/>
<defs>
<linearGradient id="paint0_linear_1024_4612" x1="4.02948" y1="4.40767" x2="7.15849" y2="57.0747" gradientUnits="userSpaceOnUse">
<stop stop-color="#AFEEFB"/>
<stop offset="1" stop-color="#2F94F8"/>
</linearGradient>
<linearGradient id="paint1_linear_1024_4612" x1="4.02948" y1="4.40767" x2="7.15849" y2="57.0747" gradientUnits="userSpaceOnUse">
<stop stop-color="#AFEEFB"/>
<stop offset="1" stop-color="#2F94F8"/>
</linearGradient>
</defs>
</svg>
