<svg width="37" height="40" viewBox="0 0 37 40" fill="none" xmlns="http://www.w3.org/2000/svg">
<path d="M18.2905 14.8703C15.7478 14.8703 13.6968 17.1597 13.6968 19.998C13.6968 22.8364 15.7478 25.1258 18.2905 25.1258C20.8331 25.1258 22.8841 22.8364 22.8841 19.998C22.8841 17.1597 20.8331 14.8703 18.2905 14.8703ZM18.2905 23.3318C16.6473 23.3318 15.304 21.8367 15.304 19.998C15.304 18.1594 16.6433 16.6643 18.2905 16.6643C19.9376 16.6643 21.2769 18.1594 21.2769 19.998C21.2769 21.8367 19.9336 23.3318 18.2905 23.3318ZM24.1434 14.6605C24.1434 15.3255 23.6637 15.8566 23.072 15.8566C22.4763 15.8566 22.0005 15.321 22.0005 14.6605C22.0005 14.0001 22.4803 13.4645 23.072 13.4645C23.6637 13.4645 24.1434 14.0001 24.1434 14.6605ZM27.1858 15.8744C27.1179 14.2723 26.79 12.8531 25.7386 11.6839C24.6911 10.5146 23.4198 10.1487 21.9845 10.0683C20.5053 9.97462 16.0716 9.97462 14.5924 10.0683C13.1611 10.1442 11.8898 10.5102 10.8383 11.6794C9.78689 12.8487 9.46305 14.2678 9.39109 15.87C9.30714 17.5212 9.30714 22.4704 9.39109 24.1217C9.45906 25.7238 9.78689 27.143 10.8383 28.3122C11.8898 29.4815 13.1571 29.8474 14.5924 29.9278C16.0716 30.0215 20.5053 30.0215 21.9845 29.9278C23.4198 29.8519 24.6911 29.4859 25.7386 28.3122C26.786 27.143 27.1139 25.7238 27.1858 24.1217C27.2698 22.4704 27.2698 17.5257 27.1858 15.8744ZM25.2748 25.8934C24.963 26.7681 24.3593 27.442 23.5717 27.7945C22.3923 28.3167 19.5938 28.1962 18.2905 28.1962C16.9871 28.1962 14.1846 28.3122 13.0092 27.7945C12.2256 27.4464 11.6219 26.7726 11.3061 25.8934C10.8383 24.5769 10.9463 21.4529 10.9463 19.998C10.9463 18.5432 10.8423 15.4148 11.3061 14.1027C11.6179 13.228 12.2216 12.5541 13.0092 12.2016C14.1886 11.6794 16.9871 11.7999 18.2905 11.7999C19.5938 11.7999 22.3963 11.6839 23.5717 12.2016C24.3553 12.5496 24.959 13.2235 25.2748 14.1027C25.7426 15.4192 25.6346 18.5432 25.6346 19.998C25.6346 21.4529 25.7426 24.5813 25.2748 25.8934Z" fill="#D3D3D3"/>
</svg>
