<svg width="36" height="40" viewBox="0 0 36 40" fill="none" xmlns="http://www.w3.org/2000/svg">
<path d="M13.1355 29.998H9.42095V16.6451H13.1355V29.998ZM11.2762 14.8236C10.0884 14.8236 9.125 13.7254 9.125 12.3994C9.125 11.7626 9.35165 11.1517 9.75509 10.7014C10.1585 10.251 10.7057 9.99805 11.2762 9.99805C11.8468 9.99805 12.394 10.251 12.7974 10.7014C13.2008 11.1517 13.4275 11.7626 13.4275 12.3994C13.4275 13.7254 12.4637 14.8236 11.2762 14.8236ZM27.0381 29.998H23.3315V23.4979C23.3315 21.9488 23.3035 19.9621 21.4002 19.9621C19.4689 19.9621 19.173 21.6452 19.173 23.3863V29.998H15.4624V16.6451H19.025V18.4665H19.077C19.5729 17.4174 20.7843 16.3102 22.5916 16.3102C26.351 16.3102 27.0421 19.0737 27.0421 22.6631V29.998H27.0381Z" fill="#D3D3D3"/>
</svg>
