<svg width="50" height="50" viewBox="0 0 50 50" fill="none" xmlns="http://www.w3.org/2000/svg">
<path d="M32.1834 24.0156C31.5383 24.0156 30.9077 24.2069 30.3714 24.5653C29.835 24.9237 29.417 25.433 29.1701 26.029C28.9233 26.625 28.8587 27.2807 28.9845 27.9134C29.1104 28.5461 29.421 29.1272 29.8771 29.5834C30.3333 30.0395 30.9144 30.3501 31.5471 30.476C32.1798 30.6018 32.8355 30.5372 33.4315 30.2904C34.0275 30.0435 34.5368 29.6255 34.8952 29.0891C35.2536 28.5528 35.4449 27.9222 35.4449 27.2771C35.4449 26.4121 35.1013 25.5825 34.4896 24.9709C33.878 24.3592 33.0484 24.0156 32.1834 24.0156ZM32.1834 28.9075C31.8609 28.9075 31.5457 28.8119 31.2776 28.6327C31.0095 28.4536 30.8005 28.199 30.6771 27.901C30.5537 27.6031 30.5214 27.2753 30.5843 26.9591C30.6472 26.6428 30.8025 26.3523 31.0305 26.1243C31.2585 25.8963 31.549 25.741 31.8653 25.6781C32.1816 25.6152 32.5094 25.6475 32.8073 25.7709C33.1052 25.8943 33.3598 26.1032 33.539 26.3713C33.7181 26.6395 33.8138 26.9547 33.8138 27.2771C33.8138 27.7095 33.642 28.1242 33.3362 28.43C33.0305 28.7357 32.6158 28.9075 32.1834 28.9075Z" fill="url(#paint0_linear_1024_4419)"/>
<path d="M44.4097 15.0468H43.5291C43.5751 14.7775 43.5968 14.5045 43.5941 14.2313C43.5925 12.7181 42.9907 11.2673 41.9207 10.1973C40.8506 9.12729 39.3999 8.52545 37.8867 8.52383C36.6814 8.52087 35.507 8.9051 34.5365 9.61992C33.4331 8.48598 32.0491 7.66447 30.5252 7.23895C30.4056 5.81301 29.7554 4.48382 28.7031 3.51408C27.6509 2.54434 26.2731 2.00462 24.8422 2.00159C23.637 1.99735 22.4624 2.38024 21.4912 3.09385C20.2967 1.8621 18.7739 0.998881 17.1035 0.606627C15.433 0.214374 13.6852 0.309551 12.0672 0.880865C10.4493 1.45218 9.02918 2.47565 7.97545 3.82983C6.92172 5.18401 6.27858 6.81205 6.12236 8.52077H5.27469C3.97728 8.52077 2.73301 9.03617 1.81561 9.95357C0.898205 10.871 0.382813 12.1152 0.382812 13.4126C0.382813 14.7101 0.898205 15.9543 1.81561 16.8717C2.73301 17.7891 3.97728 18.3045 5.27469 18.3045H13.7132C13.4486 19.0421 13.3656 19.8326 13.4712 20.6091C13.5768 21.3856 13.8678 22.1252 14.3197 22.7654C14.7716 23.4055 15.3711 23.9275 16.0674 24.2869C16.7637 24.6464 17.5363 24.8329 18.3199 24.8306H25.5599L25.4621 24.855C25.2852 24.8988 25.1281 25.0004 25.0158 25.1438C24.9034 25.2871 24.8423 25.464 24.8422 25.6462V26.4617H4.45912C4.008 26.4608 3.56552 26.5854 3.1811 26.8214C2.79668 27.0575 2.48547 27.3958 2.28224 27.7986C2.10819 28.1426 2.01611 28.5222 2.01318 28.9077V44.3981H1.29622C1.17783 44.3988 1.06101 44.4253 0.953894 44.4757C0.846774 44.5261 0.751915 44.5993 0.675908 44.69C0.599901 44.7808 0.544568 44.887 0.513753 45.0014C0.482938 45.1157 0.47738 45.2353 0.497466 45.352L0.872764 47.4394C0.873428 47.4699 0.878844 47.5001 0.888816 47.5289C1.03937 48.0354 1.34885 48.4801 1.77154 48.7972C2.19424 49.1143 2.70773 49.2871 3.23615 49.29H31.7726C32.3008 49.2874 32.8141 49.1152 33.2369 48.7987C33.6597 48.4821 33.9696 48.038 34.1207 47.5319C34.1307 47.5031 34.1361 47.473 34.1367 47.4425L34.512 45.3551C34.5326 45.2381 34.5274 45.118 34.4968 45.0033C34.4662 44.8885 34.4108 44.7819 34.3347 44.6907C34.2586 44.5996 34.1634 44.5262 34.056 44.4756C33.9485 44.4251 33.8313 44.3986 33.7125 44.3981H32.9948V34.6143H33.8104C33.9925 34.6142 34.1694 34.5531 34.3127 34.4407C34.4561 34.3284 34.5578 34.1713 34.6015 33.9944L34.7398 33.4479L35.2206 33.7414C35.3763 33.8344 35.5585 33.8728 35.7384 33.8507C35.9184 33.8286 36.0858 33.7471 36.2143 33.6191L38.5241 31.3123C38.6521 31.1838 38.7336 31.0164 38.7557 30.8365C38.7778 30.6565 38.7394 30.4743 38.6464 30.3187L38.3529 29.8379L38.8994 29.6995C39.0763 29.6558 39.2334 29.5542 39.3457 29.4108C39.4581 29.2674 39.5192 29.0906 39.5193 28.9084V25.6462C39.5192 25.464 39.4581 25.2871 39.3457 25.1438C39.2334 25.0004 39.0763 24.8988 38.8994 24.855L38.8001 24.8306H44.4097C45.7071 24.8306 46.9513 24.3152 47.8687 23.3978C48.7862 22.4804 49.3015 21.2361 49.3015 19.9387C49.3015 18.6413 48.7862 17.397 47.8687 16.4796C46.9513 15.5622 45.7071 15.0468 44.4097 15.0468ZM14.6831 16.6772H5.27469C4.84223 16.6838 4.41277 16.6044 4.01131 16.4435C3.60985 16.2825 3.24441 16.0434 2.93625 15.7399C2.62809 15.4364 2.38336 15.0747 2.21632 14.6757C2.04928 14.2768 1.96325 13.8486 1.96325 13.4161C1.96325 12.9836 2.04928 12.5554 2.21632 12.1564C2.38336 11.7575 2.62809 11.3958 2.93625 11.0923C3.24441 10.7888 3.60985 10.5496 4.01131 10.3887C4.41277 10.2278 4.84223 10.1483 5.27469 10.155H6.90506C7.12136 10.155 7.3288 10.069 7.48175 9.91609C7.6347 9.76314 7.72062 9.5557 7.72062 9.3394C7.72144 7.82124 8.19312 6.34072 9.07066 5.10188C9.9482 3.86304 11.1884 2.92688 12.6203 2.42244C14.0522 1.918 15.6053 1.87012 17.0656 2.28538C18.5258 2.70065 19.8213 3.55862 20.7735 4.74104C20.8466 4.82973 20.9372 4.90235 21.0396 4.95431C21.1421 5.00627 21.2542 5.03645 21.3689 5.04296C21.4817 5.04803 21.5942 5.02966 21.6995 4.989C21.8047 4.94835 21.9004 4.8863 21.9804 4.80677C22.5049 4.28881 23.1602 3.92301 23.8764 3.74842C24.5926 3.57384 25.3427 3.59702 26.0468 3.81551C26.7508 4.03399 27.3823 4.43956 27.8738 4.98893C28.3653 5.5383 28.6984 6.21084 28.8375 6.93474C28.5929 6.91028 28.3483 6.89423 28.1037 6.89423C25.8666 6.89679 23.7109 7.7338 22.0583 9.24156C20.4056 10.7493 19.3749 12.8194 19.1676 15.0468H18.3199C17.6333 15.0481 16.9546 15.194 16.328 15.4749C15.7014 15.7558 15.141 16.1654 14.6831 16.6772ZM3.64355 28.9069C3.64606 28.7795 3.67659 28.6543 3.73298 28.54C3.79979 28.4048 3.90319 28.2911 4.03142 28.2118C4.15965 28.1325 4.30757 28.0907 4.45835 28.0913H24.8422V28.9069C24.8423 29.089 24.9034 29.2659 25.0158 29.4093C25.1281 29.5527 25.2852 29.6543 25.4621 29.698L26.0086 29.8363L25.7151 30.3171C25.6221 30.4728 25.5837 30.655 25.6058 30.8349C25.628 31.0149 25.7094 31.1823 25.8374 31.3108L28.1442 33.6207C28.2727 33.7486 28.4401 33.8301 28.6201 33.8522C28.8 33.8744 28.9822 33.8359 29.1379 33.743L29.6186 33.4495L29.757 33.996C29.8007 34.1728 29.9023 34.3299 30.0457 34.4423C30.1891 34.5546 30.3659 34.6157 30.5481 34.6159H31.3637V44.3981H19.9503C19.734 44.3981 19.5266 44.484 19.3736 44.637C19.2207 44.7899 19.1347 44.9973 19.1347 45.2136H15.874C15.874 44.9973 15.7881 44.7899 15.6351 44.637C15.4822 44.484 15.2747 44.3981 15.0584 44.3981H3.64432L3.64355 28.9069ZM32.5469 47.1047C32.4907 47.2656 32.3861 47.4052 32.2475 47.5043C32.1089 47.6035 31.943 47.6575 31.7726 47.6588H3.23615C3.06572 47.6575 2.89985 47.6035 2.76126 47.5043C2.62266 47.4052 2.51809 47.2656 2.46186 47.1047L2.27459 46.0285H14.2429C14.2429 46.2448 14.3288 46.4522 14.4817 46.6051C14.6347 46.7581 14.8421 46.844 15.0584 46.844H19.9503C20.1666 46.844 20.3741 46.7581 20.527 46.6051C20.6799 46.4522 20.7659 46.2448 20.7659 46.0285H32.7341L32.5469 47.1047ZM37.8874 28.2702L36.8938 28.5148C36.7704 28.5465 36.6562 28.6064 36.56 28.6898C36.4638 28.7733 36.3884 28.8779 36.3396 28.9956C36.2909 29.1134 36.27 29.2409 36.2785 29.3682C36.2869 29.4954 36.3246 29.619 36.3885 29.7293L36.9182 30.6099L35.5149 32.0155L34.6343 31.4805C34.524 31.4166 34.4004 31.3789 34.2732 31.3704C34.1459 31.3619 34.0184 31.3829 33.9006 31.4316C33.7829 31.4803 33.6783 31.5558 33.5948 31.6519C33.5114 31.7481 33.4514 31.8624 33.4198 31.9857L33.1752 32.9794H31.1863L30.9417 31.9857C30.9101 31.8624 30.8501 31.7481 30.7667 31.6519C30.6833 31.5558 30.5786 31.4803 30.461 31.4316C30.3431 31.3829 30.2156 31.3619 30.0884 31.3704C29.9611 31.3789 29.8375 31.4166 29.7272 31.4805L28.8466 32.0102L27.441 30.6114L27.9707 29.7309C28.0346 29.6205 28.0723 29.4969 28.0807 29.3697C28.0892 29.2424 28.0683 29.1149 28.0196 28.9971C27.9708 28.8795 27.8954 28.7748 27.7992 28.6913C27.703 28.6079 27.5888 28.548 27.4654 28.5163L26.4718 28.2717V26.2829L27.4654 26.0383C27.5888 26.0066 27.703 25.9467 27.7992 25.8632C27.8954 25.7798 27.9708 25.6751 28.0196 25.5575C28.0683 25.4396 28.0892 25.3121 28.0807 25.1849C28.0723 25.0576 28.0346 24.9341 27.9707 24.8237L27.441 23.9416L28.8451 22.5375L29.7256 23.0596C29.8346 23.1267 29.958 23.1669 30.0856 23.1768C30.2132 23.1868 30.3413 23.1663 30.4594 23.1169C30.5771 23.0681 30.6817 22.9927 30.7652 22.8965C30.8486 22.8003 30.9085 22.6861 30.9402 22.5627L31.1848 21.5691H33.1721L33.4167 22.5627C33.4484 22.6861 33.5083 22.8003 33.5918 22.8965C33.6752 22.9927 33.7799 23.0681 33.8975 23.1169C34.0156 23.1663 34.1437 23.1868 34.2713 23.1768C34.3989 23.1669 34.5223 23.1267 34.6313 23.0596L35.5149 22.5375L36.919 23.9416L36.3839 24.8222C36.32 24.9325 36.2824 25.0561 36.2739 25.1834C36.2654 25.3106 36.2863 25.4381 36.335 25.556C36.3838 25.6736 36.4592 25.7783 36.5554 25.8617C36.6516 25.9451 36.7659 26.0051 36.8892 26.0367L37.8828 26.2813L37.8874 28.2702ZM44.4097 23.2002H38.4821L36.2158 20.9324C36.0873 20.8044 35.9199 20.723 35.7399 20.7008C35.56 20.6787 35.3778 20.7171 35.2221 20.8101L34.7413 21.1036L34.603 20.5571C34.5593 20.3802 34.4577 20.2231 34.3143 20.1108C34.1709 19.9984 33.994 19.9373 33.8119 19.9372H30.5496C30.3675 19.9373 30.1906 19.9984 30.0472 20.1108C29.9039 20.2231 29.8022 20.3802 29.7585 20.5571L29.6202 21.1036L29.1394 20.8101C28.9837 20.7171 28.8015 20.6787 28.6216 20.7008C28.4416 20.723 28.2742 20.8044 28.1457 20.9324L25.8794 23.1987H18.3199C17.8875 23.2053 17.458 23.1259 17.0566 22.9649C16.6551 22.804 16.2897 22.5649 15.9815 22.2614C15.6733 21.9579 15.4286 21.5962 15.2616 21.1972C15.0945 20.7983 15.0085 20.3701 15.0085 19.9376C15.0085 19.5051 15.0945 19.0769 15.2616 18.6779C15.4286 18.279 15.6733 17.9172 15.9815 17.6138C16.2897 17.3103 16.6551 17.0711 17.0566 16.9102C17.458 16.7493 17.8875 16.6698 18.3199 16.6764H19.9503C20.1666 16.6764 20.3741 16.5905 20.527 16.4376C20.6799 16.2846 20.7659 16.0772 20.7659 15.8609C20.7667 14.3427 21.2384 12.8622 22.1159 11.6234C22.9935 10.3845 24.2336 9.44836 25.6655 8.94392C27.0974 8.43948 28.6506 8.3916 30.1108 8.80686C31.5711 9.22213 32.8666 10.0801 33.8188 11.2625C33.8918 11.3512 33.9824 11.4238 34.0849 11.4758C34.1874 11.5277 34.2995 11.5579 34.4142 11.5644C34.5269 11.5695 34.6395 11.5511 34.7447 11.5105C34.85 11.4698 34.9456 11.4078 35.0257 11.3283C35.5982 10.7639 36.3247 10.3814 37.114 10.2289C37.9033 10.0763 38.72 10.1606 39.4616 10.471C40.2031 10.7815 40.8363 11.3042 41.2815 11.9735C41.7267 12.6429 41.9641 13.4289 41.9637 14.2328C41.96 14.6964 41.8802 15.1563 41.7276 15.5941C41.6843 15.7168 41.6707 15.848 41.6877 15.9769C41.7047 16.1059 41.7519 16.229 41.8254 16.3363C41.9027 16.4413 42.0033 16.527 42.1194 16.5864C42.2355 16.6458 42.3638 16.6774 42.4942 16.6787H44.4097C44.8421 16.6721 45.2716 16.7516 45.673 16.9125C46.0745 17.0734 46.44 17.3126 46.7481 17.616C47.0563 17.9195 47.301 18.2813 47.468 18.6802C47.6351 19.0792 47.7211 19.5074 47.7211 19.9399C47.7211 20.3724 47.6351 20.8006 47.468 21.1995C47.301 21.5985 47.0563 21.9602 46.7481 22.2637C46.44 22.5672 46.0745 22.8063 45.673 22.9672C45.2716 23.1281 44.8421 23.2076 44.4097 23.201V23.2002Z" fill="url(#paint1_linear_1024_4419)"/>
<path d="M43.5932 36.2447C43.5932 36.8934 43.3355 37.5155 42.8768 37.9742C42.4181 38.4329 41.7959 38.6906 41.1472 38.6906H34.625V40.321H41.1472C42.228 40.3198 43.2642 39.8899 44.0286 39.1258C44.7929 38.3616 45.2229 37.3255 45.2243 36.2447V26.4609H43.5932V36.2447Z" fill="url(#paint2_linear_1024_4419)"/>
<path d="M17.9662 35.5312H16.4375V37.06H17.9662V35.5312Z" fill="url(#paint3_linear_1024_4419)"/>
<path d="M21.7865 35.5312H20.2578V37.06H21.7865V35.5312Z" fill="url(#paint4_linear_1024_4419)"/>
<path d="M14.9037 35.5312H13.375V37.06H14.9037V35.5312Z" fill="url(#paint5_linear_1024_4419)"/>
<defs>
<linearGradient id="paint0_linear_1024_4419" x1="32.1834" y1="24.0156" x2="32.1834" y2="30.5386" gradientUnits="userSpaceOnUse">
<stop stop-color="#B2F0FB"/>
<stop offset="1" stop-color="#1783F7"/>
</linearGradient>
<linearGradient id="paint1_linear_1024_4419" x1="24.8422" y1="0.369141" x2="24.8422" y2="49.29" gradientUnits="userSpaceOnUse">
<stop stop-color="#B2F0FB"/>
<stop offset="1" stop-color="#1783F7"/>
</linearGradient>
<linearGradient id="paint2_linear_1024_4419" x1="39.9247" y1="26.4609" x2="39.9247" y2="40.321" gradientUnits="userSpaceOnUse">
<stop stop-color="#B2F0FB"/>
<stop offset="1" stop-color="#1783F7"/>
</linearGradient>
<linearGradient id="paint3_linear_1024_4419" x1="17.2019" y1="35.5313" x2="17.2019" y2="37.06" gradientUnits="userSpaceOnUse">
<stop stop-color="#B2F0FB"/>
<stop offset="1" stop-color="#1783F7"/>
</linearGradient>
<linearGradient id="paint4_linear_1024_4419" x1="21.0222" y1="35.5313" x2="21.0222" y2="37.06" gradientUnits="userSpaceOnUse">
<stop stop-color="#B2F0FB"/>
<stop offset="1" stop-color="#1783F7"/>
</linearGradient>
<linearGradient id="paint5_linear_1024_4419" x1="14.1394" y1="35.5313" x2="14.1394" y2="37.06" gradientUnits="userSpaceOnUse">
<stop stop-color="#B2F0FB"/>
<stop offset="1" stop-color="#1783F7"/>
</linearGradient>
</defs>
</svg>
