<svg width="57" height="44" viewBox="0 0 57 44" fill="none" xmlns="http://www.w3.org/2000/svg">
<path d="M11.7417 6.36885V10.8686C11.7365 11.1304 11.6289 11.3797 11.4419 11.563C11.255 11.7463 11.0036 11.849 10.7418 11.849C10.4799 11.849 10.2285 11.7464 10.0416 11.5631C9.85459 11.3798 9.74696 11.1304 9.74178 10.8686V6.36885C9.74695 6.10706 9.85457 5.85775 10.0415 5.67444C10.2285 5.49113 10.4799 5.38845 10.7417 5.38845C11.0036 5.38845 11.255 5.49113 11.4419 5.67444C11.6289 5.85775 11.7365 6.10706 11.7417 6.36885ZM5.24199 6.36885V10.8686C5.24717 11.1304 5.3548 11.3798 5.54177 11.5631C5.72874 11.7464 5.98014 11.849 6.24197 11.849C6.50381 11.849 6.7552 11.7463 6.94216 11.563C7.12912 11.3797 7.23674 11.1304 7.2419 10.8686V6.36885C7.23673 6.10706 7.1291 5.85775 6.94214 5.67444C6.75517 5.49113 6.50378 5.38845 6.24194 5.38845C5.98011 5.38845 5.72871 5.49113 5.54175 5.67444C5.35478 5.85775 5.24716 6.10706 5.24199 6.36885ZM14.2416 6.36885V10.8686C14.2468 11.1304 14.3544 11.3798 14.5414 11.5631C14.7283 11.7464 14.9797 11.849 15.2416 11.849C15.5034 11.849 15.7548 11.7463 15.9417 11.563C16.1287 11.3797 16.2363 11.1304 16.2415 10.8686V6.36885C16.2363 6.10706 16.1287 5.85775 15.9417 5.67444C15.7548 5.49113 15.5034 5.38845 15.2415 5.38845C14.9797 5.38845 14.7283 5.49113 14.5413 5.67444C14.3544 5.85775 14.2467 6.10706 14.2416 6.36885ZM9.74178 19.8682V24.368C9.74682 24.6299 9.8544 24.8794 10.0414 25.0628C10.2284 25.2462 10.4798 25.3489 10.7418 25.3489C11.0037 25.3489 11.2552 25.2462 11.4421 25.0627C11.6291 24.8793 11.7367 24.6299 11.7417 24.368V19.8682C11.7365 19.6065 11.6289 19.3571 11.4419 19.1738C11.255 18.9905 11.0036 18.8878 10.7417 18.8878C10.4799 18.8878 10.2285 18.9905 10.0415 19.1738C9.85457 19.3571 9.74695 19.6065 9.74178 19.8682ZM5.24199 19.8682V24.368C5.24703 24.6299 5.35461 24.8794 5.54159 25.0628C5.72858 25.2462 5.98005 25.3489 6.24197 25.3489C6.50389 25.3489 6.75536 25.2462 6.94234 25.0627C7.12931 24.8793 7.23687 24.6299 7.2419 24.368V19.8682C7.23673 19.6065 7.1291 19.3571 6.94214 19.1738C6.75517 18.9905 6.50378 18.8878 6.24194 18.8878C5.98011 18.8878 5.72871 18.9905 5.54175 19.1738C5.35478 19.3571 5.24716 19.6065 5.24199 19.8682ZM14.2416 19.8682V24.368C14.2466 24.6299 14.3542 24.8794 14.5412 25.0628C14.7282 25.2462 14.9796 25.3489 15.2416 25.3489C15.5035 25.3489 15.755 25.2462 15.9419 25.0627C16.1289 24.8793 16.2365 24.6299 16.2415 24.368V19.8682C16.2363 19.6065 16.1287 19.3571 15.9417 19.1738C15.7548 18.9905 15.5034 18.8878 15.2415 18.8878C14.9797 18.8878 14.7283 18.9905 14.5413 19.1738C14.3544 19.3571 14.2467 19.6065 14.2416 19.8682ZM46.7401 37.3675C46.6088 37.3674 46.4787 37.3933 46.3574 37.4435C46.2361 37.4937 46.1258 37.5674 46.0329 37.6603C45.9401 37.7531 45.8664 37.8634 45.8162 37.9847C45.766 38.106 45.7401 38.2361 45.7401 38.3674V40.3673C45.7399 40.6324 45.6344 40.8867 45.447 41.0741C45.2595 41.2616 45.0053 41.367 44.7401 41.3673H3.74205C3.47691 41.367 3.22271 41.2616 3.03523 41.0741C2.84775 40.8867 2.74231 40.6324 2.74205 40.3673V30.8677C2.74231 30.6026 2.84775 30.3484 3.03523 30.1609C3.22271 29.9735 3.47692 29.868 3.74205 29.8678H30.0709C30.3328 29.8627 30.5823 29.7552 30.7657 29.5682C30.9491 29.3812 31.0518 29.1297 31.0518 28.8678C31.0518 28.6059 30.949 28.3544 30.7656 28.1674C30.5822 27.9805 30.3328 27.8729 30.0709 27.8679H3.74205C3.47691 27.8676 3.2227 27.7622 3.03522 27.5747C2.84773 27.3872 2.7423 27.133 2.74205 26.8679V17.3684C2.74238 17.1032 2.84784 16.8491 3.03531 16.6616C3.22277 16.4742 3.47693 16.3687 3.74205 16.3684H27.0808C27.3434 16.3644 27.5939 16.2573 27.7782 16.0702C27.9624 15.8831 28.0657 15.631 28.0657 15.3684C28.0657 15.1058 27.9624 14.8537 27.7781 14.6666C27.5938 14.4795 27.3434 14.3724 27.0808 14.3685H3.74205C3.47693 14.3681 3.22277 14.2627 3.03531 14.0752C2.84784 13.8877 2.74238 13.6336 2.74205 13.3685V3.86897C2.74238 3.60386 2.84784 3.3497 3.03531 3.16223C3.22277 2.97477 3.47693 2.8693 3.74205 2.86897H44.7402C45.0053 2.8693 45.2595 2.97477 45.4469 3.16223C45.6344 3.3497 45.7399 3.60386 45.7402 3.86897V5.73897C45.7442 6.00155 45.8513 6.25202 46.0384 6.43629C46.2255 6.62057 46.4776 6.72385 46.7402 6.72384C47.0028 6.72384 47.2548 6.62054 47.4419 6.43625C47.629 6.25197 47.7361 6.00149 47.7401 5.73891V3.86891C47.7392 3.07357 47.4228 2.31107 46.8604 1.74869C46.298 1.18632 45.5355 0.869998 44.7402 0.869141H3.74205C2.94671 0.870011 2.18419 1.18634 1.6218 1.74873C1.05941 2.31112 0.743066 3.07363 0.742188 3.86897V13.3685C0.744495 14.109 1.02268 14.822 1.52243 15.3685C1.02267 15.9148 0.744487 16.6279 0.742188 17.3684V26.8679C0.744487 27.6084 1.02267 28.3214 1.52243 28.8678C1.02268 29.4142 0.744495 30.1273 0.742188 30.8677V40.3673C0.743066 41.1627 1.05941 41.9252 1.6218 42.4876C2.18419 43.0499 2.94671 43.3663 3.74205 43.3671H44.7402C45.5355 43.3663 46.2981 43.0499 46.8605 42.4875C47.4229 41.9251 47.7392 41.1626 47.7401 40.3673V38.3674C47.7401 38.2361 47.7142 38.106 47.664 37.9847C47.6138 37.8634 47.5401 37.7531 47.4473 37.6603C47.3544 37.5674 47.2441 37.4937 47.1228 37.4435C47.0015 37.3933 46.8714 37.3674 46.7401 37.3675ZM9.74178 33.3676V37.8674C9.74682 38.1293 9.8544 38.3787 10.0414 38.5622C10.2284 38.7456 10.4798 38.8483 10.7418 38.8483C11.0037 38.8483 11.2552 38.7455 11.4421 38.5621C11.6291 38.3787 11.7367 38.1292 11.7417 37.8674V33.3676C11.7367 33.1058 11.6291 32.8563 11.4421 32.6729C11.2551 32.4895 11.0037 32.3867 10.7417 32.3867C10.4798 32.3867 10.2283 32.4895 10.0414 32.6729C9.85438 32.8563 9.74681 33.1058 9.74178 33.3676ZM5.24199 33.3676V37.8674C5.24703 38.1293 5.35461 38.3787 5.54159 38.5622C5.72858 38.7456 5.98005 38.8483 6.24198 38.8483C6.5039 38.8483 6.75537 38.7455 6.94234 38.5621C7.12931 38.3787 7.23687 38.1292 7.2419 37.8674V33.3676C7.23686 33.1058 7.12929 32.8563 6.94231 32.6729C6.75533 32.4895 6.50386 32.3867 6.24194 32.3867C5.98002 32.3867 5.72855 32.4895 5.54157 32.6729C5.35459 32.8563 5.24703 33.1058 5.24199 33.3676ZM14.2416 33.3676V37.8674C14.2466 38.1293 14.3542 38.3787 14.5412 38.5622C14.7282 38.7456 14.9796 38.8483 15.2416 38.8483C15.5035 38.8483 15.755 38.7455 15.9419 38.5621C16.1289 38.3787 16.2365 38.1292 16.2415 37.8674V33.3676C16.2365 33.1058 16.1289 32.8563 15.9419 32.6729C15.7549 32.4895 15.5035 32.3867 15.2415 32.3867C14.9796 32.3867 14.7281 32.4895 14.5412 32.6729C14.3542 32.8563 14.2466 33.1058 14.2416 33.3676ZM43.3653 36.5413C38.8204 34.8303 35.026 31.5688 32.6517 27.3325C30.2774 23.0962 29.4757 18.1574 30.3883 13.3876C30.4096 13.2058 30.4791 13.0329 30.5897 12.8869C30.7003 12.741 30.8479 12.6273 31.0172 12.5575L42.9937 7.76674C43.2323 7.67202 43.4982 7.67202 43.7368 7.76674L55.7133 12.5575C55.867 12.6191 56.003 12.7178 56.1091 12.8449C56.2152 12.972 56.2881 13.1234 56.3212 13.2855C57.2617 18.0681 56.476 23.0291 54.1039 27.2871C51.7318 31.545 47.9268 34.824 43.3653 36.5413ZM54.4624 14.2113L43.3653 9.77251L32.2681 14.2113C31.5919 18.3383 32.3174 22.5728 34.3287 26.2394C36.3401 29.906 39.5214 32.7933 43.3653 34.4408C47.2091 32.7933 50.3904 29.9059 52.4017 26.2394C54.413 22.5728 55.1385 18.3383 54.4624 14.2113Z" fill="url(#paint0_linear_1449_12893)"/>
<defs>
<linearGradient id="paint0_linear_1449_12893" x1="0.742188" y1="22.1181" x2="56.7422" y2="22.1181" gradientUnits="userSpaceOnUse">
<stop stop-color="#00C0FF"/>
<stop offset="1" stop-color="#5558FF"/>
</linearGradient>
</defs>
</svg>
