<svg width="49" height="48" viewBox="0 0 49 48" fill="none" xmlns="http://www.w3.org/2000/svg">
<path d="M3.66406 6.26758H5.26406V7.86758H3.66406V6.26758Z" fill="#7E7E7E"/>
<path d="M6.85938 6.26758H8.45937V7.86758H6.85938V6.26758Z" fill="#7E7E7E"/>
<path d="M10.0625 6.26758H11.6625V7.86758H10.0625V6.26758Z" fill="#7E7E7E"/>
<path d="M3.66094 41.4683H17.7667L17.3303 46.2683H14.8609V47.8683H32.4609V46.2683H29.9915L29.5551 41.4683H43.6609C44.5093 41.4674 45.3227 41.1299 45.9226 40.53C46.5225 39.9301 46.86 39.1167 46.8609 38.2683V20.6684H45.2609V33.4684H2.06094V11.0684H22.8609V9.46836H2.06094V6.26836C2.06144 5.84417 2.23017 5.43749 2.53012 5.13754C2.83007 4.83759 3.23674 4.66886 3.66094 4.66836H28.4609V3.06836H3.66094C2.81254 3.06931 1.99916 3.40676 1.39925 4.00667C0.799338 4.60658 0.46189 5.41996 0.460938 6.26836V38.2683C0.46189 39.1167 0.799338 39.9301 1.39925 40.53C1.99916 41.1299 2.81254 41.4674 3.66094 41.4683ZM28.3849 46.2683H18.9369L19.3733 41.4683H27.9485L28.3849 46.2683ZM45.2609 35.0683V38.2683C45.2604 38.6925 45.0917 39.0992 44.7917 39.3992C44.4918 39.6991 44.0851 39.8678 43.6609 39.8683H3.66094C3.23674 39.8678 2.83007 39.6991 2.53012 39.3992C2.23017 39.0992 2.06144 38.6925 2.06094 38.2683V35.0683H45.2609Z" fill="#7E7E7E"/>
<path d="M22.8594 36.668H24.4594V38.268H22.8594V36.668Z" fill="#7E7E7E"/>
<path d="M36.4641 17.4672C37.4134 17.4672 38.3414 17.1857 39.1308 16.6582C39.9202 16.1308 40.5354 15.3812 40.8987 14.5041C41.262 13.627 41.357 12.6619 41.1718 11.7308C40.9866 10.7996 40.5295 9.94437 39.8582 9.27308C39.1869 8.60178 38.3316 8.14463 37.4005 7.95942C36.4694 7.77421 35.5043 7.86927 34.6272 8.23257C33.7501 8.59587 33.0004 9.2111 32.473 10.0005C31.9456 10.7898 31.6641 11.7178 31.6641 12.6672C31.6655 13.9398 32.1717 15.1598 33.0716 16.0597C33.9714 16.9596 35.1915 17.4657 36.4641 17.4672ZM36.4641 9.46719C37.097 9.46719 37.7156 9.65487 38.2419 10.0065C38.7681 10.3581 39.1783 10.8579 39.4205 11.4426C39.6627 12.0273 39.726 12.6707 39.6026 13.2915C39.4791 13.9122 39.1743 14.4824 38.7268 14.9299C38.2793 15.3775 37.7091 15.6822 37.0883 15.8057C36.4676 15.9292 35.8242 15.8658 35.2395 15.6236C34.6548 15.3814 34.155 14.9712 33.8034 14.445C33.4517 13.9188 33.2641 13.3001 33.2641 12.6672C33.265 11.8188 33.6025 11.0054 34.2024 10.4055C34.8023 9.80559 35.6157 9.46814 36.4641 9.46719Z" fill="#7E7E7E"/>
<path d="M26.3768 6.15478C26.2118 6.14623 26.0482 6.18903 25.9086 6.27728C25.7689 6.36553 25.66 6.4949 25.5969 6.64758L24.5219 9.24298C24.4586 9.3956 24.4442 9.56404 24.4805 9.72519C24.5169 9.88634 24.6022 10.0323 24.7249 10.143L26.6899 11.917V13.419L24.7249 15.193C24.6022 15.3037 24.5169 15.4496 24.4805 15.6108C24.4442 15.7719 24.4586 15.9404 24.5219 16.093L25.5969 18.6884C25.6601 18.841 25.769 18.9703 25.9087 19.0585C26.0483 19.1468 26.2119 19.1896 26.3768 19.1812L29.0207 19.0462L30.0827 20.1082L29.9478 22.7521C29.9393 22.9171 29.9821 23.0806 30.0704 23.2203C30.1586 23.3599 30.2879 23.4689 30.4405 23.5321L33.0359 24.6071C33.1886 24.6703 33.357 24.6847 33.5182 24.6484C33.6793 24.612 33.8252 24.5267 33.9359 24.4041L35.7099 22.4391H37.2119L38.9859 24.4041C39.0966 24.5267 39.2426 24.612 39.4037 24.6484C39.5649 24.6847 39.7333 24.6703 39.8859 24.6071L42.4813 23.5321C42.634 23.4689 42.7633 23.3599 42.8515 23.2203C42.9398 23.0806 42.9826 22.9171 42.9741 22.7521L42.8391 20.1082L43.9011 19.0462L46.545 19.1812C46.7101 19.1899 46.8738 19.1472 47.0135 19.0589C47.1532 18.9707 47.2621 18.8412 47.325 18.6884L48.4 16.093C48.4633 15.9404 48.4777 15.7719 48.4414 15.6108C48.405 15.4496 48.3197 15.3037 48.197 15.193L46.232 13.419V11.917L48.197 10.143C48.3197 10.0323 48.405 9.88634 48.4414 9.72519C48.4777 9.56404 48.4633 9.3956 48.4 9.24298L47.325 6.64798C47.2618 6.49536 47.1529 6.36605 47.0132 6.27781C46.8736 6.18957 46.71 6.14674 46.545 6.15518L43.9009 6.28978L42.8391 5.22798L42.9741 2.58408C42.9826 2.4191 42.9398 2.25555 42.8515 2.11588C42.7633 1.97622 42.634 1.8673 42.4813 1.80408L39.8859 0.728883C39.7333 0.665657 39.5649 0.651227 39.4037 0.687574C39.2426 0.723922 39.0966 0.809264 38.9859 0.931883L37.2119 2.89688H35.7099L33.9359 0.931883C33.8252 0.809264 33.6793 0.723922 33.5182 0.687574C33.357 0.651227 33.1886 0.665657 33.0359 0.728883L30.4409 1.80388C30.2883 1.8671 30.159 1.97602 30.0708 2.11568C29.9825 2.25535 29.9397 2.4189 29.9482 2.58388L30.0831 5.22778L29.021 6.28978L26.3768 6.15478ZM29.9009 7.67258L31.4655 6.10798C31.5447 6.02883 31.6064 5.93396 31.6466 5.82949C31.6867 5.72501 31.7046 5.61327 31.6988 5.50148L31.5744 3.06638L33.1266 2.42348L34.7609 4.23298C34.836 4.31606 34.9276 4.38248 35.0298 4.42794C35.1321 4.47339 35.2428 4.49688 35.3547 4.49688H37.5677C37.6796 4.4968 37.7901 4.47327 37.8923 4.42781C37.9945 4.38236 38.086 4.31599 38.1609 4.23298L39.7949 2.42298L41.3471 3.06588L41.2227 5.50098C41.217 5.61277 41.2349 5.72451 41.275 5.82899C41.3152 5.93346 41.3769 6.02833 41.456 6.10748L43.0209 7.67258C43.1001 7.75167 43.195 7.8133 43.2995 7.85348C43.4039 7.89366 43.5157 7.91151 43.6274 7.90588L46.0625 7.78148L46.7054 9.33368L44.8959 10.968C44.8129 11.043 44.7464 11.1346 44.701 11.2369C44.6555 11.3392 44.632 11.4499 44.632 11.5618V13.7748C44.6321 13.8866 44.6557 13.9972 44.7011 14.0994C44.7466 14.2015 44.8129 14.293 44.8959 14.368L46.7059 16.002L46.063 17.5542L43.6279 17.4298C43.5162 17.424 43.4044 17.4418 43.2999 17.482C43.1954 17.5222 43.1006 17.5839 43.0214 17.6631L41.4563 19.228C41.3772 19.3071 41.3155 19.402 41.2753 19.5065C41.2352 19.6109 41.2173 19.7227 41.223 19.8345L41.3474 22.2696L39.7952 22.9125L38.1609 21.103C38.0859 21.0199 37.9943 20.9535 37.892 20.908C37.7898 20.8626 37.6791 20.8391 37.5671 20.8391H35.3541C35.2423 20.8392 35.1317 20.8627 35.0296 20.9081C34.9274 20.9536 34.8359 21.02 34.7609 21.103L33.1269 22.913L31.5747 22.2701L31.6991 19.835C31.7049 19.7232 31.687 19.6114 31.6469 19.507C31.6067 19.4025 31.545 19.3076 31.4658 19.2285L29.9009 17.6634C29.8217 17.5843 29.7269 17.5227 29.6224 17.4825C29.5179 17.4423 29.4062 17.4245 29.2944 17.4301L26.8594 17.5545L26.2164 16.0023L28.0259 14.368C28.109 14.293 28.1754 14.2014 28.2209 14.0991C28.2664 13.9968 28.2898 13.8861 28.2898 13.7742V11.5612C28.2898 11.4494 28.2662 11.3388 28.2208 11.2366C28.1753 11.1344 28.109 11.0429 28.0259 10.968L26.2159 9.33398L26.8589 7.78178L29.2939 7.90618C29.4058 7.91189 29.5177 7.89405 29.6222 7.85381C29.7268 7.81357 29.8218 7.75183 29.9009 7.67258Z" fill="#7E7E7E"/>
<path d="M9.26094 14.2687C9.26094 14.0566 9.17665 13.8531 9.02662 13.7031C8.87659 13.553 8.67311 13.4688 8.46094 13.4688H5.26094C5.04876 13.4688 4.84528 13.553 4.69525 13.7031C4.54522 13.8531 4.46094 14.0566 4.46094 14.2687V17.4687C4.46094 17.6809 4.54522 17.8844 4.69525 18.0344C4.84528 18.1845 5.04876 18.2687 5.26094 18.2687H8.46094C8.67311 18.2687 8.87659 18.1845 9.02662 18.0344C9.17665 17.8844 9.26094 17.6809 9.26094 17.4687V14.2687ZM7.66094 16.6687H6.06094V15.0687H7.66094V16.6687Z" fill="#7E7E7E"/>
<path d="M15.6594 14.2687C15.6594 14.0566 15.5751 13.8531 15.4251 13.7031C15.275 13.553 15.0715 13.4688 14.8594 13.4688H11.6594C11.4472 13.4688 11.2437 13.553 11.0937 13.7031C10.9437 13.8531 10.8594 14.0566 10.8594 14.2687V17.4687C10.8594 17.6809 10.9437 17.8844 11.0937 18.0344C11.2437 18.1845 11.4472 18.2687 11.6594 18.2687H14.8594C15.0715 18.2687 15.275 18.1845 15.4251 18.0344C15.5751 17.8844 15.6594 17.6809 15.6594 17.4687V14.2687ZM14.0594 16.6687H12.4594V15.0687H14.0594V16.6687Z" fill="#7E7E7E"/>
<path d="M22.0578 14.2687C22.0578 14.0566 21.9735 13.8531 21.8235 13.7031C21.6735 13.553 21.47 13.4688 21.2578 13.4688H18.0578C17.8456 13.4688 17.6422 13.553 17.4921 13.7031C17.3421 13.8531 17.2578 14.0566 17.2578 14.2687V17.4687C17.2578 17.6809 17.3421 17.8844 17.4921 18.0344C17.6422 18.1845 17.8456 18.2687 18.0578 18.2687H21.2578C21.47 18.2687 21.6735 18.1845 21.8235 18.0344C21.9735 17.8844 22.0578 17.6809 22.0578 17.4687V14.2687ZM20.4578 16.6687H18.8578V15.0687H20.4578V16.6687Z" fill="#7E7E7E"/>
<path d="M9.26094 20.6672C9.26094 20.455 9.17665 20.2515 9.02662 20.1015C8.87659 19.9515 8.67311 19.8672 8.46094 19.8672H5.26094C5.04876 19.8672 4.84528 19.9515 4.69525 20.1015C4.54522 20.2515 4.46094 20.455 4.46094 20.6672V23.8672C4.46094 24.0794 4.54522 24.2828 4.69525 24.4329C4.84528 24.5829 5.04876 24.6672 5.26094 24.6672H8.46094C8.67311 24.6672 8.87659 24.5829 9.02662 24.4329C9.17665 24.2828 9.26094 24.0794 9.26094 23.8672V20.6672ZM7.66094 23.0672H6.06094V21.4672H7.66094V23.0672Z" fill="#7E7E7E"/>
<path d="M15.6594 20.6672C15.6594 20.455 15.5751 20.2515 15.4251 20.1015C15.275 19.9515 15.0715 19.8672 14.8594 19.8672H11.6594C11.4472 19.8672 11.2437 19.9515 11.0937 20.1015C10.9437 20.2515 10.8594 20.455 10.8594 20.6672V23.8672C10.8594 24.0794 10.9437 24.2828 11.0937 24.4329C11.2437 24.5829 11.4472 24.6672 11.6594 24.6672H14.8594C15.0715 24.6672 15.275 24.5829 15.4251 24.4329C15.5751 24.2828 15.6594 24.0794 15.6594 23.8672V20.6672ZM14.0594 23.0672H12.4594V21.4672H14.0594V23.0672Z" fill="#7E7E7E"/>
<path d="M22.0578 20.6672C22.0578 20.455 21.9735 20.2515 21.8235 20.1015C21.6735 19.9515 21.47 19.8672 21.2578 19.8672H18.0578C17.8456 19.8672 17.6422 19.9515 17.4921 20.1015C17.3421 20.2515 17.2578 20.455 17.2578 20.6672V23.8672C17.2578 24.0794 17.3421 24.2828 17.4921 24.4329C17.6422 24.5829 17.8456 24.6672 18.0578 24.6672H21.2578C21.47 24.6672 21.6735 24.5829 21.8235 24.4329C21.9735 24.2828 22.0578 24.0794 22.0578 23.8672V20.6672ZM20.4578 23.0672H18.8578V21.4672H20.4578V23.0672Z" fill="#7E7E7E"/>
<path d="M8.46094 26.2676H5.26094C5.04876 26.2676 4.84528 26.3519 4.69525 26.5019C4.54522 26.6519 4.46094 26.8554 4.46094 27.0676V30.2676C4.46094 30.4798 4.54522 30.6832 4.69525 30.8333C4.84528 30.9833 5.04876 31.0676 5.26094 31.0676H8.46094C8.67311 31.0676 8.87659 30.9833 9.02662 30.8333C9.17665 30.6832 9.26094 30.4798 9.26094 30.2676V27.0676C9.26094 26.8554 9.17665 26.6519 9.02662 26.5019C8.87659 26.3519 8.67311 26.2676 8.46094 26.2676ZM7.66094 29.4676H6.06094V27.8676H7.66094V29.4676Z" fill="#7E7E7E"/>
<path d="M14.8594 26.2676H11.6594C11.4472 26.2676 11.2437 26.3519 11.0937 26.5019C10.9437 26.6519 10.8594 26.8554 10.8594 27.0676V30.2676C10.8594 30.4798 10.9437 30.6832 11.0937 30.8333C11.2437 30.9833 11.4472 31.0676 11.6594 31.0676H14.8594C15.0715 31.0676 15.275 30.9833 15.4251 30.8333C15.5751 30.6832 15.6594 30.4798 15.6594 30.2676V27.0676C15.6594 26.8554 15.5751 26.6519 15.4251 26.5019C15.275 26.3519 15.0715 26.2676 14.8594 26.2676ZM14.0594 29.4676H12.4594V27.8676H14.0594V29.4676Z" fill="#7E7E7E"/>
<path d="M21.2578 26.2676H18.0578C17.8456 26.2676 17.6422 26.3519 17.4921 26.5019C17.3421 26.6519 17.2578 26.8554 17.2578 27.0676V30.2676C17.2578 30.4798 17.3421 30.6832 17.4921 30.8333C17.6422 30.9833 17.8456 31.0676 18.0578 31.0676H21.2578C21.47 31.0676 21.6735 30.9833 21.8235 30.8333C21.9735 30.6832 22.0578 30.4798 22.0578 30.2676V27.0676C22.0578 26.8554 21.9735 26.6519 21.8235 26.5019C21.6735 26.3519 21.47 26.2676 21.2578 26.2676ZM20.4578 29.4676H18.8578V27.8676H20.4578V29.4676Z" fill="#7E7E7E"/>
<path d="M26.0625 26.2676H27.6625V27.8676H26.0625V26.2676Z" fill="#7E7E7E"/>
<path d="M29.2578 26.2676H42.8578V27.8676H29.2578V26.2676Z" fill="#7E7E7E"/>
<path d="M24.4609 29.4688H39.6609V31.0687H24.4609V29.4688Z" fill="#7E7E7E"/>
</svg>
