<svg width="55" height="55" viewBox="0 0 55 55" fill="none" xmlns="http://www.w3.org/2000/svg">
<path d="M22.5138 36.6278H31.514C33.0052 36.6278 34.214 35.4189 34.214 33.9277V25.8276C34.214 24.3364 33.0052 23.1276 31.514 23.1276V21.3275C31.514 18.8422 29.4992 16.8275 27.0139 16.8275C24.5286 16.8275 22.5138 18.8422 22.5138 21.3275V23.1276C21.0227 23.1276 19.8138 24.3364 19.8138 25.8276V33.9277C19.8138 35.4189 21.0227 36.6278 22.5138 36.6278ZM24.3139 21.3275C24.3139 19.8363 25.5227 18.6275 27.0139 18.6275C28.5051 18.6275 29.714 19.8363 29.714 21.3275V23.1276H24.3139V21.3275ZM21.6138 25.8276C21.6138 25.3305 22.0168 24.9276 22.5138 24.9276H31.514C32.011 24.9276 32.414 25.3305 32.414 25.8276V33.9277C32.414 34.4248 32.011 34.8277 31.514 34.8277H22.5138C22.0168 34.8277 21.6138 34.4248 21.6138 33.9277V25.8276Z" fill="url(#paint0_linear_1024_4611)"/>
<path d="M26.1139 31.9621V32.1277C26.1139 32.6248 26.5168 33.0277 27.0139 33.0277C27.511 33.0277 27.9139 32.6248 27.9139 32.1277V31.9621C29.1537 31.5238 29.8974 30.256 29.675 28.9599C29.4527 27.6638 28.3289 26.7164 27.0139 26.7164C25.6989 26.7164 24.5751 27.6638 24.3527 28.9599C24.1304 30.256 24.8741 31.5238 26.1139 31.9621ZM27.0139 28.5277C27.511 28.5277 27.9139 28.9306 27.9139 29.4277C27.9139 29.9247 27.511 30.3277 27.0139 30.3277C26.5168 30.3277 26.1139 29.9247 26.1139 29.4277C26.1139 28.9306 26.5168 28.5277 27.0139 28.5277Z" fill="url(#paint1_linear_1024_4611)"/>
<path d="M11.7136 27.6277C11.7136 36.0777 18.5637 42.9279 27.0138 42.9279C35.4639 42.9279 42.3141 36.0777 42.3141 27.6277C42.3141 19.1776 35.4639 12.3274 27.0138 12.3274C18.5676 12.3368 11.723 19.1815 11.7136 27.6277ZM27.0138 14.1274C34.4698 14.1274 40.514 20.1717 40.514 27.6277C40.514 35.0836 34.4698 41.1279 27.0138 41.1279C19.5579 41.1279 13.5136 35.0836 13.5136 27.6277C13.5221 20.1752 19.5614 14.1359 27.0138 14.1274Z" fill="url(#paint2_linear_1024_4611)"/>
<path d="M45.0142 47.4279C43.3776 47.4341 41.9511 48.5433 41.5419 50.128H35.114V44.6874C37.1263 43.7402 38.9546 42.4436 40.5141 40.8578C40.7447 40.6293 40.8343 40.2944 40.7486 39.9812C40.663 39.6681 40.4154 39.4254 40.1007 39.346C39.7859 39.2666 39.4528 39.3628 39.2289 39.5978C37.7008 41.1601 35.8868 42.4144 33.8855 43.2924C33.7647 43.3404 33.6559 43.4144 33.5669 43.5093C33.557 43.5201 33.5516 43.5345 33.5417 43.5471C33.4759 43.6203 33.4227 43.7039 33.3842 43.7946C33.3666 43.8511 33.3548 43.9093 33.3491 43.9683C33.3324 44.0192 33.3206 44.0717 33.314 44.1249V50.128C33.314 51.1221 34.1199 51.928 35.114 51.928H41.5419C42.0128 53.7349 43.789 54.8801 45.6292 54.5634C47.4693 54.2466 48.7603 52.5734 48.6 50.7131C48.4397 48.8528 46.8814 47.4252 45.0142 47.4279ZM45.0142 52.828C44.0201 52.828 43.2142 52.0221 43.2142 51.028C43.2142 50.0339 44.0201 49.228 45.0142 49.228C46.0083 49.228 46.8142 50.0339 46.8142 51.028C46.8142 52.0221 46.0083 52.828 45.0142 52.828Z" fill="url(#paint3_linear_1024_4611)"/>
<path d="M7.08579 37.5278H11.4347C11.4419 37.5278 11.4482 37.5233 11.4563 37.5233C11.5458 37.5193 11.6341 37.5014 11.7182 37.4702C11.7601 37.4564 11.8011 37.4396 11.8406 37.4198C11.8505 37.4144 11.8622 37.4126 11.8721 37.4063C11.882 37.4 11.8973 37.3811 11.9117 37.3712C11.9933 37.3209 12.0658 37.2569 12.1259 37.1822C12.1365 37.1683 12.1464 37.1539 12.1556 37.139C12.2138 37.057 12.2577 36.9657 12.2852 36.869C12.2852 36.8555 12.2906 36.842 12.2933 36.8285C12.315 36.7635 12.3289 36.6961 12.3347 36.6278C12.33 36.5938 12.3231 36.5601 12.314 36.527C12.314 36.5153 12.314 36.5045 12.3077 36.4919C12.2924 36.3863 12.2579 36.2844 12.206 36.1913L12.2015 36.1769C11.2786 34.5839 10.6214 32.8511 10.2556 31.0468C10.1562 30.5597 9.68075 30.2454 9.19363 30.3448C8.7065 30.4442 8.3922 30.9197 8.49162 31.4068C8.79443 32.9 9.278 34.3507 9.93164 35.7269H7.08579C6.63258 33.9716 4.94485 32.8271 3.14643 33.0555C1.34801 33.284 0 34.814 0 36.6269C0 38.4398 1.34801 39.9698 3.14643 40.1982C4.94485 40.4267 6.63258 39.2831 7.08579 37.5278ZM3.61354 38.4278C2.61941 38.4278 1.81351 37.6219 1.81351 36.6278C1.81351 35.6337 2.61941 34.8278 3.61354 34.8278C4.60767 34.8278 5.41357 35.6337 5.41357 36.6278C5.41357 37.6219 4.60767 38.4278 3.61354 38.4278Z" fill="url(#paint4_linear_1024_4611)"/>
<path d="M0.0133926 18.6275C0.0111411 20.4381 1.35655 21.9675 3.15268 22.1961C4.94882 22.4247 6.6344 21.281 7.0857 19.5275H11.4589C11.5477 19.5225 11.6353 19.5046 11.719 19.4744C11.7585 19.4618 11.797 19.4462 11.8342 19.4276C11.8822 19.4024 11.9274 19.3722 11.9692 19.3376C12.0451 19.2803 12.1108 19.2107 12.1636 19.1315C12.1753 19.1144 12.1906 19.1018 12.2014 19.0838C13.3554 17.0812 14.9041 15.3337 16.7537 13.9474C17.0109 13.7545 17.1457 13.439 17.1072 13.1198C17.0687 12.8005 16.8629 12.5261 16.5672 12.3998C16.2715 12.2735 15.9309 12.3145 15.6736 12.5074C13.7796 13.9342 12.1714 15.7051 10.9333 17.7275H7.0857C6.6344 15.974 4.94882 14.8304 3.15268 15.0589C1.35655 15.2875 0.0111411 16.8169 0.0133926 18.6275ZM5.41348 18.6275C5.41348 19.6216 4.60758 20.4275 3.61345 20.4275C2.61932 20.4275 1.81342 19.6216 1.81342 18.6275C1.81342 17.6334 2.61932 16.8275 3.61345 16.8275C4.09085 16.8275 4.54869 17.0171 4.88626 17.3547C5.22383 17.6923 5.41348 18.1501 5.41348 18.6275Z" fill="url(#paint5_linear_1024_4611)"/>
<path d="M50.4143 33.0277C48.7777 33.0339 47.3512 34.1431 46.942 35.7278H44.0953C44.7495 34.3518 45.2331 32.901 45.5353 31.4077C45.6347 30.9203 45.3202 30.4447 44.8328 30.3453C44.3455 30.2458 43.8698 30.5603 43.7704 31.0477C43.4053 32.852 42.7487 34.5847 41.8263 36.1778V36.1895C41.7726 36.2846 41.7371 36.3891 41.7219 36.4973C41.7219 36.5072 41.7219 36.5162 41.7156 36.5261C41.7063 36.5596 41.6988 36.5935 41.6931 36.6278C41.6986 36.6985 41.7125 36.7683 41.7345 36.8357C41.7345 36.8474 41.7345 36.8591 41.7417 36.8708C41.7697 36.9679 41.8145 37.0592 41.874 37.1408C41.883 37.1543 41.8902 37.1678 41.9001 37.1804C41.9611 37.2555 42.0341 37.32 42.1161 37.3712C42.1305 37.3811 42.1395 37.3964 42.1548 37.4054C42.1701 37.4144 42.1764 37.4135 42.1863 37.4189C42.2263 37.4393 42.2678 37.4565 42.3105 37.4702C42.3942 37.5004 42.4818 37.518 42.5706 37.5224C42.5787 37.5224 42.585 37.5269 42.5931 37.5269H46.942C47.4125 39.334 49.1886 40.4797 51.0289 40.1633C52.8693 39.8468 54.1606 38.1735 54.0003 36.3131C53.8401 34.4526 52.2816 33.0248 50.4143 33.0277ZM50.4143 38.4278C49.4201 38.4278 48.6142 37.6219 48.6142 36.6278C48.6142 35.6337 49.4201 34.8278 50.4143 34.8278C51.4084 34.8278 52.2143 35.6337 52.2143 36.6278C52.2143 37.6219 51.4084 38.4278 50.4143 38.4278Z" fill="url(#paint6_linear_1024_4611)"/>
<path d="M20.7137 44.1249C20.708 44.0744 20.6981 44.0244 20.684 43.9755C20.6777 43.9144 20.6653 43.8542 20.6471 43.7955C20.6092 43.7063 20.5569 43.6239 20.4923 43.5516C20.4806 43.5381 20.4752 43.5219 20.4635 43.5093C20.3742 43.4144 20.2651 43.3404 20.144 43.2924C17.7881 42.2526 15.6951 40.6984 14.0185 38.7437C13.8123 38.4899 13.4846 38.3679 13.1626 38.425C12.8406 38.4822 12.5749 38.7096 12.4687 39.0189C12.3625 39.3282 12.4324 39.6708 12.6514 39.9138C14.3822 41.9284 16.5153 43.5588 18.9137 44.7V50.128H12.4858C12.0326 48.3727 10.3449 47.2282 8.54643 47.4567C6.74801 47.6851 5.4 49.2152 5.4 51.028C5.4 52.8409 6.74801 54.371 8.54643 54.5994C10.3449 54.8278 12.0326 53.6833 12.4858 51.928H18.9137C19.9078 51.928 20.7137 51.1221 20.7137 50.128V44.1249ZM9.01354 52.828C8.01941 52.828 7.21351 52.0221 7.21351 51.028C7.21351 50.0339 8.01941 49.228 9.01354 49.228C10.0077 49.228 10.8136 50.0339 10.8136 51.028C10.8136 52.0221 10.0077 52.828 9.01354 52.828Z" fill="url(#paint7_linear_1024_4611)"/>
<path d="M30.434 44.3859C28.1765 44.8392 25.8514 44.8392 23.5939 44.3859C23.2754 44.3128 22.9424 44.4181 22.7238 44.6609C22.5052 44.9037 22.4353 45.2459 22.5412 45.5549C22.6472 45.864 22.9123 46.0914 23.2338 46.149C24.1839 46.3336 25.1468 46.4452 26.1139 46.4829V53.728C26.1139 54.2251 26.5168 54.628 27.0139 54.628C27.511 54.628 27.9139 54.2251 27.9139 53.728V46.4829C28.8811 46.4453 29.8439 46.3337 30.794 46.149C31.2702 46.0397 31.5723 45.5705 31.4745 45.0917C31.3768 44.613 30.9149 44.2997 30.434 44.3859Z" fill="url(#paint8_linear_1024_4611)"/>
<path d="M18.9137 3.32726H12.4858C12.0326 1.57196 10.3449 0.427484 8.54643 0.655913C6.74801 0.884342 5.4 2.41441 5.4 4.22727C5.4 6.04014 6.74801 7.57021 8.54643 7.79864C10.3449 8.02707 12.0326 6.88259 12.4858 5.12729H18.9137V11.1322C18.9137 11.1682 18.9308 11.2033 18.9353 11.2393C18.9447 11.3324 18.9687 11.4236 19.0064 11.5093C19.0438 11.5895 19.0936 11.6633 19.154 11.728C19.1842 11.7606 19.217 11.7908 19.2521 11.818C19.2962 11.8541 19.3435 11.886 19.3934 11.9134C19.435 11.9364 19.4784 11.9563 19.523 11.9728C19.5874 11.9932 19.6537 12.0065 19.721 12.0124C19.7506 12.0205 19.7807 12.0268 19.811 12.0313C19.94 12.0286 20.0668 11.9979 20.1827 11.9413C21.2791 11.4659 22.4224 11.1069 23.5938 10.8703C24.0811 10.7709 24.3956 10.2952 24.2962 9.80781C24.1968 9.32044 23.7211 9.00594 23.2338 9.10535C22.3784 9.28036 21.5364 9.51494 20.7137 9.80736V5.12729C20.7137 4.13316 19.9078 3.32726 18.9137 3.32726ZM9.01354 6.0273C8.01941 6.0273 7.21351 5.2214 7.21351 4.22727C7.21351 3.23315 8.01941 2.42725 9.01354 2.42725C10.0077 2.42725 10.8136 3.23315 10.8136 4.22727C10.8136 4.70467 10.6239 5.16252 10.2864 5.50009C9.94878 5.83766 9.49094 6.0273 9.01354 6.0273Z" fill="url(#paint9_linear_1024_4611)"/>
<path d="M41.5419 5.12729C41.9952 6.88259 43.6829 8.02707 45.4813 7.79864C47.2797 7.57021 48.6277 6.04014 48.6277 4.22727C48.6277 2.41441 47.2797 0.884342 45.4813 0.655913C43.6829 0.427484 41.9952 1.57196 41.5419 3.32726H35.114C34.1199 3.32726 33.314 4.13316 33.314 5.12729V11.1295C33.3195 11.1826 33.33 11.235 33.3455 11.2861C33.3512 11.345 33.363 11.4032 33.3806 11.4598C33.4191 11.5504 33.4723 11.6341 33.5381 11.7073C33.548 11.719 33.5534 11.7343 33.5633 11.7451C33.6523 11.8399 33.7611 11.914 33.8819 11.962C35.8828 12.8387 37.6968 14.0914 39.2253 15.6521C39.446 15.8973 39.7833 16.0021 40.1041 15.9252C40.425 15.8483 40.678 15.602 40.7636 15.2833C40.8491 14.9646 40.7534 14.6247 40.5141 14.3974C38.9546 12.8117 37.1263 11.5151 35.114 10.5679V5.12729H41.5419ZM45.0142 2.42725C46.0083 2.42725 46.8142 3.23315 46.8142 4.22727C46.8142 5.2214 46.0083 6.0273 45.0142 6.0273C44.0201 6.0273 43.2142 5.2214 43.2142 4.22727C43.2142 3.23315 44.0201 2.42725 45.0142 2.42725Z" fill="url(#paint10_linear_1024_4611)"/>
<path d="M27.0138 0.627211C26.5168 0.627211 26.1138 1.03016 26.1138 1.52722V9.62735C26.1138 10.1244 26.5168 10.5274 27.0138 10.5274C28.1624 10.5271 29.3081 10.6417 30.4339 10.8694C30.4931 10.8815 30.5534 10.8876 30.6139 10.8874C31.0746 10.8856 31.4596 10.5362 31.5059 10.0779C31.5522 9.61949 31.2449 9.20014 30.7939 9.10624C29.8438 8.92158 28.881 8.80995 27.9138 8.77234V1.52722C27.9138 1.03016 27.5109 0.627211 27.0138 0.627211Z" fill="url(#paint11_linear_1024_4611)"/>
<path d="M46.942 19.5275C47.3952 21.2828 49.083 22.4273 50.8814 22.1988C52.6798 21.9704 54.0278 20.4404 54.0278 18.6275C54.0278 16.8146 52.6798 15.2845 50.8814 15.0561C49.083 14.8277 47.3952 15.9722 46.942 17.7275H42.5931C42.576 17.7275 42.5625 17.7365 42.5463 17.7365C42.4942 17.7421 42.4426 17.7527 42.3924 17.768C42.3185 17.7826 42.2468 17.8068 42.1791 17.84C42.1719 17.84 42.1629 17.84 42.1548 17.849C42.1467 17.858 42.1314 17.8733 42.1161 17.8832C42.0341 17.9344 41.9611 17.9989 41.9001 18.074C41.8902 18.0866 41.883 18.1001 41.874 18.1136C41.8145 18.1951 41.7697 18.2865 41.7417 18.3836C41.7417 18.3953 41.7417 18.407 41.7345 18.4187C41.7124 18.4864 41.6985 18.5565 41.6931 18.6275C41.6979 18.662 41.7045 18.6963 41.7129 18.7301C41.7129 18.74 41.7174 18.749 41.7192 18.7589C41.7344 18.8671 41.7699 18.9715 41.8236 19.0667V19.0784C43.3247 21.6775 44.1147 24.6262 44.1142 27.6276C44.1142 28.1247 44.5171 28.5276 45.0142 28.5276H53.1143C53.6114 28.5276 54.0143 28.1247 54.0143 27.6276C54.0143 27.1306 53.6114 26.7276 53.1143 26.7276H45.8845C45.7665 24.2322 45.1547 21.7849 44.0845 19.5275H46.942ZM50.4143 16.8275C51.4084 16.8275 52.2143 17.6334 52.2143 18.6275C52.2143 19.6216 51.4084 20.4275 50.4143 20.4275C49.4201 20.4275 48.6142 19.6216 48.6142 18.6275C48.6142 17.6334 49.4201 16.8275 50.4143 16.8275Z" fill="url(#paint12_linear_1024_4611)"/>
<path d="M0.913404 28.5276H9.01353C9.51059 28.5276 9.91354 28.1247 9.91354 27.6276C9.91164 25.8091 10.2 24.002 10.7677 22.2744C10.8681 21.9689 10.798 21.633 10.5837 21.3933C10.3694 21.1535 10.0435 21.0463 9.72871 21.112C9.41393 21.1777 9.15811 21.4064 9.05763 21.7118C8.5289 23.3349 8.2231 25.0222 8.14861 26.7276H0.913404C0.41634 26.7276 0.0133898 27.1306 0.0133898 27.6276C0.0133898 28.1247 0.41634 28.5276 0.913404 28.5276Z" fill="url(#paint13_linear_1024_4611)"/>
<defs>
<linearGradient id="paint0_linear_1024_4611" x1="4.32364" y1="4.12446" x2="6.74221" y2="54.6283" gradientUnits="userSpaceOnUse">
<stop stop-color="#AFEEFB"/>
<stop offset="1" stop-color="#2F94F8"/>
</linearGradient>
<linearGradient id="paint1_linear_1024_4611" x1="4.32364" y1="4.12446" x2="6.74221" y2="54.6283" gradientUnits="userSpaceOnUse">
<stop stop-color="#AFEEFB"/>
<stop offset="1" stop-color="#2F94F8"/>
</linearGradient>
<linearGradient id="paint2_linear_1024_4611" x1="4.32364" y1="4.12446" x2="6.74221" y2="54.6283" gradientUnits="userSpaceOnUse">
<stop stop-color="#AFEEFB"/>
<stop offset="1" stop-color="#2F94F8"/>
</linearGradient>
<linearGradient id="paint3_linear_1024_4611" x1="4.32364" y1="4.12446" x2="6.74221" y2="54.6283" gradientUnits="userSpaceOnUse">
<stop stop-color="#AFEEFB"/>
<stop offset="1" stop-color="#2F94F8"/>
</linearGradient>
<linearGradient id="paint4_linear_1024_4611" x1="4.32364" y1="4.12446" x2="6.74221" y2="54.6283" gradientUnits="userSpaceOnUse">
<stop stop-color="#AFEEFB"/>
<stop offset="1" stop-color="#2F94F8"/>
</linearGradient>
<linearGradient id="paint5_linear_1024_4611" x1="4.32364" y1="4.12446" x2="6.74221" y2="54.6283" gradientUnits="userSpaceOnUse">
<stop stop-color="#AFEEFB"/>
<stop offset="1" stop-color="#2F94F8"/>
</linearGradient>
<linearGradient id="paint6_linear_1024_4611" x1="4.32364" y1="4.12446" x2="6.74221" y2="54.6283" gradientUnits="userSpaceOnUse">
<stop stop-color="#AFEEFB"/>
<stop offset="1" stop-color="#2F94F8"/>
</linearGradient>
<linearGradient id="paint7_linear_1024_4611" x1="4.32364" y1="4.12446" x2="6.74221" y2="54.6283" gradientUnits="userSpaceOnUse">
<stop stop-color="#AFEEFB"/>
<stop offset="1" stop-color="#2F94F8"/>
</linearGradient>
<linearGradient id="paint8_linear_1024_4611" x1="4.32364" y1="4.12446" x2="6.74221" y2="54.6283" gradientUnits="userSpaceOnUse">
<stop stop-color="#AFEEFB"/>
<stop offset="1" stop-color="#2F94F8"/>
</linearGradient>
<linearGradient id="paint9_linear_1024_4611" x1="4.32364" y1="4.12446" x2="6.74221" y2="54.6283" gradientUnits="userSpaceOnUse">
<stop stop-color="#AFEEFB"/>
<stop offset="1" stop-color="#2F94F8"/>
</linearGradient>
<linearGradient id="paint10_linear_1024_4611" x1="4.32364" y1="4.12446" x2="6.74221" y2="54.6283" gradientUnits="userSpaceOnUse">
<stop stop-color="#AFEEFB"/>
<stop offset="1" stop-color="#2F94F8"/>
</linearGradient>
<linearGradient id="paint11_linear_1024_4611" x1="4.32364" y1="4.12446" x2="6.74221" y2="54.6283" gradientUnits="userSpaceOnUse">
<stop stop-color="#AFEEFB"/>
<stop offset="1" stop-color="#2F94F8"/>
</linearGradient>
<linearGradient id="paint12_linear_1024_4611" x1="4.32364" y1="4.12446" x2="6.74221" y2="54.6283" gradientUnits="userSpaceOnUse">
<stop stop-color="#AFEEFB"/>
<stop offset="1" stop-color="#2F94F8"/>
</linearGradient>
<linearGradient id="paint13_linear_1024_4611" x1="4.32364" y1="4.12446" x2="6.74221" y2="54.6283" gradientUnits="userSpaceOnUse">
<stop stop-color="#AFEEFB"/>
<stop offset="1" stop-color="#2F94F8"/>
</linearGradient>
</defs>
</svg>
