<svg width="30" height="30" viewBox="0 0 30 30" fill="none" xmlns="http://www.w3.org/2000/svg">
<path id="+" d="M7.46251 7.39441C8.0877 6.74701 8.6161 6.6317 9.0477 7.0485L14.842 12.644L20.3749 6.91443C20.7917 6.48283 21.3238 6.57962 21.9712 7.20481L22.1978 7.42363C22.8452 8.04882 22.9605 8.57722 22.5437 9.00882L17.0108 14.7384L22.8051 20.3338C23.2367 20.7506 23.1399 21.2827 22.5147 21.9301L22.2959 22.1567C21.6707 22.8041 21.1423 22.9194 20.7107 22.5027L14.9164 16.9072L9.41471 22.6043C8.99791 23.036 8.46581 22.9392 7.8184 22.314L7.59181 22.0951C6.94441 21.47 6.8291 20.9416 7.2459 20.51L12.7476 14.8128L6.95331 9.21731C6.5217 8.80051 6.6185 8.26841 7.24369 7.62101L7.46251 7.39441Z" fill="#CDEDF8"/>
</svg>
