<svg width="50" height="47" viewBox="0 0 50 47" fill="none" xmlns="http://www.w3.org/2000/svg">
<path d="M28.5619 43.7878C28.7935 43.7878 29.0156 43.6958 29.1794 43.532C29.3431 43.3683 29.4351 43.1462 29.4351 42.9146V34.4006C29.4339 33.4167 29.0426 32.4735 28.3468 31.7777C27.6511 31.082 26.7078 30.6906 25.7239 30.6895H24.3049C23.321 30.6906 22.3778 31.082 21.682 31.7777C20.9863 32.4735 20.5949 33.4167 20.5938 34.4006V42.9146C20.5982 43.1432 20.6922 43.361 20.8555 43.5211C21.0187 43.6812 21.2383 43.7709 21.467 43.7709C21.6957 43.7709 21.9153 43.6812 22.0785 43.5211C22.2418 43.3609 22.3357 43.1432 22.3402 42.9145V38.1118H27.6887V42.9146C27.6887 43.1462 27.7807 43.3683 27.9444 43.532C28.1082 43.6958 28.3303 43.7878 28.5619 43.7878ZM22.3402 36.3654V34.4006C22.3408 33.8797 22.5479 33.3803 22.9163 33.012C23.2846 32.6436 23.784 32.4365 24.3049 32.4359H25.7239C26.2448 32.4365 26.7442 32.6436 27.1126 33.012C27.4809 33.3803 27.6881 33.8797 27.6887 34.4006V36.3654H22.3402Z" fill="#7E7E7E"/>
<path d="M32.9808 42.9146V38.1118H36.3646C37.3431 38.1031 38.2785 37.7082 38.9674 37.0132C39.6562 36.3181 40.0427 35.3792 40.0426 34.4006C40.0426 33.422 39.6561 32.4831 38.9673 31.7881C38.2784 31.093 37.343 30.6982 36.3645 30.6895H32.1076C31.876 30.6895 31.6539 30.7815 31.4901 30.9452C31.3264 31.109 31.2344 31.3311 31.2344 31.5627V42.9146C31.2388 43.1432 31.3328 43.361 31.4961 43.5211C31.6593 43.6812 31.8789 43.7709 32.1076 43.7709C32.3363 43.7709 32.5559 43.6812 32.7191 43.5211C32.8824 43.361 32.9764 43.1432 32.9808 42.9146ZM32.9808 32.4359H36.3646C36.8856 32.4359 37.3854 32.6429 37.7538 33.0114C38.1223 33.3798 38.3293 33.8796 38.3293 34.4006C38.3293 34.9217 38.1223 35.4215 37.7538 35.7899C37.3854 36.1584 36.8856 36.3654 36.3646 36.3654H32.9808V32.4359Z" fill="#7E7E7E"/>
<path d="M15.0833 42.0413H10.8263C10.5948 42.0413 10.3726 42.1333 10.2089 42.2971C10.0451 42.4609 9.95312 42.683 9.95312 42.9146C9.95312 43.1462 10.0451 43.3683 10.2089 43.532C10.3726 43.6958 10.5948 43.7878 10.8263 43.7878H15.0833C16.0618 43.779 16.9973 43.3841 17.6861 42.6891C18.375 41.9941 18.7614 41.0551 18.7614 40.0765C18.7614 39.098 18.3749 38.159 17.686 37.464C16.9972 36.769 16.0617 36.3741 15.0832 36.3654H13.6643C13.147 36.3596 12.6529 36.1501 12.2891 35.7822C11.9254 35.4144 11.7214 34.9179 11.7214 34.4006C11.7214 33.8833 11.9254 33.3869 12.2892 33.019C12.6529 32.6512 13.1471 32.4417 13.6644 32.4359H17.9213C18.1529 32.4359 18.375 32.3439 18.5387 32.1801C18.7025 32.0164 18.7945 31.7943 18.7945 31.5627C18.7945 31.3311 18.7025 31.109 18.5387 30.9452C18.375 30.7815 18.1529 30.6895 17.9213 30.6895H13.6643C12.6858 30.6982 11.7503 31.0931 11.0615 31.7881C10.3727 32.4832 9.98621 33.4221 9.98622 34.4007C9.98624 35.3793 10.3727 36.3182 11.0616 37.0132C11.7504 37.7083 12.6859 38.1031 13.6644 38.1118H15.0833C15.6006 38.1176 16.0947 38.3271 16.4585 38.695C16.8222 39.0628 17.0263 39.5593 17.0263 40.0766C17.0263 40.5939 16.8222 41.0904 16.4585 41.4582C16.0947 41.826 15.6006 42.0356 15.0833 42.0413Z" fill="#7E7E7E"/>
<path d="M42.4747 27.6328H7.5458C6.38825 27.6342 5.2785 28.0946 4.45999 28.9131C3.64148 29.7316 3.18105 30.8414 3.17969 31.9989V38.9847C3.18391 39.2135 3.27777 39.4315 3.44108 39.5918C3.60439 39.7521 3.82409 39.8419 4.05294 39.8419C4.28178 39.8419 4.50148 39.7521 4.66477 39.5918C4.82807 39.4315 4.92192 39.2134 4.92613 38.9846V31.9989C4.92689 31.3044 5.20313 30.6385 5.69425 30.1474C6.18537 29.6563 6.85125 29.38 7.5458 29.3793H42.4747C43.1692 29.38 43.8351 29.6563 44.3262 30.1474C44.8173 30.6385 45.0936 31.3044 45.0943 31.9989C45.0943 32.2305 45.1863 32.4526 45.3501 32.6164C45.5139 32.7801 45.736 32.8721 45.9676 32.8721C46.1992 32.8721 46.4213 32.7801 46.585 32.6164C46.7488 32.4526 46.8408 32.2305 46.8408 31.9989C46.8394 30.8414 46.379 29.7316 45.5605 28.9131C44.742 28.0946 43.6322 27.6342 42.4747 27.6328Z" fill="#7E7E7E"/>
<path d="M45.9676 34.6172C45.736 34.6172 45.5139 34.7092 45.3501 34.8729C45.1863 35.0367 45.0943 35.2588 45.0943 35.4904V42.4762C45.0936 43.1707 44.8173 43.8366 44.3262 44.3277C43.8351 44.8188 43.1692 45.0951 42.4747 45.0959H7.5458C6.85125 45.0951 6.18537 44.8188 5.69425 44.3277C5.20313 43.8366 4.92689 43.1707 4.92613 42.4762C4.92613 42.2446 4.83413 42.0225 4.67037 41.8587C4.50661 41.695 4.2845 41.603 4.05291 41.603C3.82132 41.603 3.59921 41.695 3.43545 41.8587C3.27169 42.0225 3.17969 42.2446 3.17969 42.4762C3.18105 43.6337 3.64148 44.7435 4.45999 45.562C5.2785 46.3805 6.38825 46.8409 7.5458 46.8423H42.4747C43.6322 46.8409 44.742 46.3805 45.5605 45.562C46.379 44.7435 46.8394 43.6337 46.8408 42.4762V35.4904C46.8408 35.2588 46.7488 35.0367 46.585 34.8729C46.4213 34.7092 46.1992 34.6172 45.9676 34.6172Z" fill="#7E7E7E"/>
<path d="M48.5897 20.4543H47.0965C46.1946 20.4435 45.3157 20.1683 44.5687 19.6627C43.8218 19.1571 43.2396 18.4434 42.8944 17.6101C42.5492 16.7768 42.4562 15.8605 42.6268 14.9748C42.7975 14.0891 43.2243 13.273 43.8544 12.6276L44.9109 11.5711C44.992 11.4901 45.0563 11.3938 45.1002 11.2879C45.1441 11.1819 45.1667 11.0684 45.1667 10.9537C45.1667 10.8391 45.1441 10.7255 45.1002 10.6196C45.0563 10.5136 44.992 10.4174 44.9109 10.3363L39.689 5.11446C38.7835 4.2802 38.0064 5.66438 37.3977 6.17106C36.7533 6.80771 35.9359 7.24084 35.0473 7.41657C34.1586 7.5923 33.2379 7.50287 32.3997 7.1594C31.5605 6.81607 30.843 6.23 30.3391 5.4763C29.8352 4.72259 29.5677 3.83558 29.5711 2.92893V1.43572C29.5711 1.20413 29.4791 0.982022 29.3154 0.818261C29.1516 0.6545 28.9295 0.5625 28.6979 0.5625H21.3275C21.0959 0.5625 20.8738 0.6545 20.7101 0.818261C20.5463 0.982022 20.4543 1.20413 20.4543 1.43572V2.92893C20.453 3.83513 20.1834 4.72065 19.6794 5.47378C19.1754 6.22691 18.4597 6.81391 17.6225 7.16072C16.7853 7.50754 15.8641 7.59863 14.9752 7.42251C14.0863 7.24639 13.2694 6.81094 12.6277 6.17111L11.5711 5.11451C11.4901 5.03341 11.3938 4.96907 11.2879 4.92517C11.1819 4.88128 11.0684 4.85869 10.9537 4.85869C10.8391 4.85869 10.7255 4.88128 10.6196 4.92517C10.5136 4.96907 10.4174 5.03341 10.3363 5.11451L5.11446 10.3364C5.03335 10.4174 4.96902 10.5137 4.92512 10.6196C4.88123 10.7256 4.85863 10.8391 4.85863 10.9538C4.85863 11.0684 4.88123 11.182 4.92512 11.2879C4.96902 11.3939 5.03335 11.4901 5.11446 11.5712L6.17106 12.6278C6.81089 13.2695 7.24634 14.0863 7.42246 14.9752C7.59859 15.8641 7.5075 16.7853 7.16069 17.6225C6.81388 18.4597 6.22689 19.1754 5.47376 19.6794C4.72064 20.1834 3.83512 20.453 2.92893 20.4543H1.43572C1.20413 20.4543 0.982022 20.5463 0.818261 20.7101C0.6545 20.8738 0.5625 21.0959 0.5625 21.3275V28.628C0.566847 28.8567 0.660761 29.0746 0.824054 29.2348C0.987347 29.395 1.20698 29.4848 1.43575 29.4848C1.66451 29.4848 1.88414 29.395 2.04743 29.2348C2.21071 29.0745 2.30461 28.8566 2.30894 28.6279V22.2008C3.66272 22.3233 5.02023 22.01 6.18335 21.3065C7.34647 20.603 8.25432 19.5462 8.77441 18.2903C9.29451 17.0345 9.39962 15.6452 9.0744 14.3254C8.74919 13.0056 8.01067 11.8242 6.96664 10.9538L10.9538 6.96669C11.5916 7.71917 12.3945 8.31435 13.2999 8.70596C14.2053 9.09757 15.1888 9.27504 16.174 9.22457C17.1591 9.1741 18.1194 8.89706 18.98 8.41498C19.8406 7.9329 20.5785 7.25879 21.1361 6.44507C21.9348 5.22034 22.3088 3.76708 22.2007 2.30894H27.8247C27.7085 3.66029 28.0257 5.01352 28.7302 6.17251C29.4348 7.33149 30.4901 8.23601 31.7432 8.75495C32.9963 9.2739 34.3822 9.38031 35.6998 9.05876C37.0175 8.73722 38.1985 8.00442 39.0718 6.96659L43.0588 10.9537L42.6196 11.3929C38.4225 15.572 41.8651 22.7118 47.7166 22.2006L47.7165 28.628C47.7205 28.8569 47.8142 29.0752 47.9775 29.2357C48.1409 29.3962 48.3607 29.4862 48.5897 29.4862C48.8187 29.4862 49.0386 29.3962 49.2019 29.2357C49.3652 29.0752 49.459 28.8569 49.4629 28.6279V21.3275C49.4629 21.0959 49.3709 20.8738 49.2072 20.7101C49.0434 20.5463 48.8213 20.4543 48.5897 20.4543Z" fill="#7E7E7E"/>
<path d="M12.348 25.0136C13.0448 8.21413 36.9791 8.22303 37.6714 25.0137C37.6715 25.2453 37.7635 25.4674 37.9272 25.6312C38.091 25.7949 38.3131 25.8869 38.5447 25.8869C38.7763 25.8869 38.9984 25.7949 39.1622 25.6311C39.3259 25.4673 39.4179 25.2452 39.4179 25.0136C39.4179 21.1923 37.8999 17.5276 35.1978 14.8255C32.4958 12.1235 28.831 10.6055 25.0097 10.6055C21.1884 10.6055 17.5237 12.1235 14.8216 14.8255C12.1196 17.5276 10.6016 21.1923 10.6016 25.0136C10.6059 25.2424 10.6998 25.4602 10.8631 25.6205C11.0264 25.7807 11.246 25.8704 11.4748 25.8704C11.7035 25.8704 11.9232 25.7807 12.0865 25.6205C12.2498 25.4602 12.3437 25.2424 12.348 25.0136Z" fill="#7E7E7E"/>
</svg>
