<svg width="64" height="55" viewBox="0 0 64 55" fill="none" xmlns="http://www.w3.org/2000/svg">
<path d="M61.5401 17.0752H60.1062C59.7132 15.6613 59.153 14.3084 58.4354 13.0398L59.4492 12.0259C59.8627 11.6125 60.0904 11.0617 60.0904 10.4746C60.0904 9.8876 59.8627 9.33691 59.4492 8.92349L55.6632 5.13734C54.8097 4.28918 53.421 4.28943 52.566 5.1391L51.551 6.15399C50.2779 5.4372 48.9241 4.87786 47.5131 4.48574V3.04815C47.5131 1.84022 46.5303 0.857422 45.3224 0.857422H39.971C38.7612 0.857422 37.7768 1.84022 37.7768 3.04815V4.48499C36.3695 4.8746 35.0166 5.43419 33.742 6.15361L32.7258 5.13747C31.87 4.28693 30.4805 4.28743 29.6286 5.13923L25.8442 8.92361C24.9889 9.77892 24.9889 11.1708 25.8436 12.0254L26.8555 13.0399C26.1349 14.3165 25.5752 15.6694 25.1864 17.0753H23.7497C22.5417 17.0753 21.5591 18.0597 21.5591 19.2695V20.9044C20.4194 20.53 19.2031 20.3267 17.9399 20.3267C11.5298 20.3267 6.31495 25.54 6.31495 31.948C6.31495 34.1427 6.93233 36.2839 8.10102 38.1413C8.37681 38.5779 8.64156 38.9901 8.89553 39.3854C10.015 41.1277 10.9041 42.5138 11.5881 44.2117V47.7928C11.5881 48.9866 12.3332 50.0088 13.3825 50.421V51.8365C13.3825 52.7988 13.9504 53.6186 14.9817 54.145C15.7757 54.5501 16.8262 54.7735 17.9399 54.7735C20.623 54.7735 22.4971 53.5657 22.4971 51.8365V50.4196C23.5446 50.0066 24.2881 48.9852 24.2881 47.7928V44.2117C24.972 42.5138 25.8613 41.1277 26.9806 39.3854C27.2344 38.9901 27.4993 38.5781 27.7751 38.1412C27.9378 37.8835 28.0887 37.6196 28.2299 37.3512L29.627 38.7459C30.038 39.1596 30.5872 39.3879 31.1734 39.3889H31.1769C31.7634 39.3889 32.314 39.1612 32.7276 38.7477L33.7415 37.7338C35.0083 38.4505 36.3613 39.0106 37.7768 39.4043V40.8385C37.7768 42.0483 38.7612 43.0327 39.971 43.0327H45.3224C46.5303 43.0327 47.5131 42.0483 47.5131 40.8385V39.4044C48.9201 39.0129 50.2738 38.4525 51.5511 37.7328L52.566 38.7477C53.4204 39.6021 54.8106 39.6021 55.6649 38.7477L59.4492 34.9633C59.8637 34.5489 60.0914 33.9969 60.0904 33.4091C60.0895 32.8228 59.8611 32.2736 59.4492 31.8645L58.4344 30.8496C59.1541 29.5725 59.7146 28.2186 60.1061 26.8116H61.5401C62.75 26.8116 63.7344 25.8288 63.7344 24.6209V19.2695C63.7344 18.0597 62.75 17.0753 61.5401 17.0753V17.0752ZM17.9399 53.2701C16.4385 53.2701 14.8857 52.7338 14.8857 51.8363V50.6157H20.9941V51.8363C20.9941 52.7337 19.441 53.2701 17.9399 53.2701ZM22.7849 47.7927C22.7849 48.5206 22.1926 49.1127 21.4648 49.1127H14.4112C13.6833 49.1127 13.0911 48.5205 13.0911 47.7927V44.8167H22.7849V47.7927ZM16.5558 43.3137V34.9488H19.3239V43.3137H16.5558ZM26.5041 37.3388C26.2306 37.7719 25.968 38.1808 25.716 38.5729C24.6256 40.2701 23.7453 41.6422 23.0331 43.3137H20.827V34.9488H22.4028C24.1027 34.9488 25.4855 33.5659 25.4855 31.8662C25.4855 30.1665 24.1027 28.7872 22.4028 28.7872C20.703 28.7872 19.3238 30.1685 19.3238 31.8662V33.4457H16.5557V31.8662C16.5557 30.1684 15.1729 28.7872 13.4731 28.7872C11.7732 28.7872 10.3904 30.1685 10.3904 31.8662C10.3904 33.5639 11.7732 34.9488 13.4731 34.9488H15.0527V43.3137H12.8429C12.1306 41.642 11.2502 40.27 10.16 38.5729C9.90804 38.1808 9.64542 37.7719 9.37252 37.3398C8.3555 35.7235 7.81797 33.859 7.81797 31.948C7.81797 26.3687 12.3588 21.8297 17.9399 21.8297C23.521 21.8297 28.0583 26.3687 28.0583 31.948C28.0583 33.8643 27.5208 35.7285 26.5041 37.3388ZM20.827 33.4457V31.8662C20.827 30.9971 21.534 30.2903 22.4028 30.2903C23.2717 30.2903 23.9824 30.9973 23.9824 31.8662C23.9824 32.7352 23.2739 33.4457 22.4028 33.4457H20.827ZM15.0528 33.4457H13.4732C12.6022 33.4457 11.8936 32.7372 11.8936 31.8662C11.8936 30.9953 12.6021 30.2903 13.4732 30.2903C14.3443 30.2903 15.0528 30.9973 15.0528 31.8662V33.4457ZM62.2314 24.6209C62.2314 25 61.9212 25.3085 61.5401 25.3085H59.5254C59.1787 25.3085 58.8771 25.5456 58.7952 25.8823C58.3928 27.5368 57.7384 29.1177 56.8504 30.5808C56.6707 30.8768 56.7167 31.2573 56.9615 31.5022L58.388 32.9289C58.5163 33.0564 58.5871 33.2276 58.5874 33.4114C58.5877 33.5968 58.5163 33.7705 58.3863 33.9004L54.602 37.6848C54.4725 37.8143 54.2997 37.8857 54.1154 37.8857C53.9311 37.8857 53.7584 37.8144 53.6288 37.6848L52.2038 36.2599C51.9589 36.015 51.5784 35.969 51.2825 36.1488C49.8192 37.0368 48.2384 37.6912 46.584 38.0936C46.2471 38.1754 46.0101 38.4772 46.0101 38.8238V40.8385C46.0101 41.2196 45.7016 41.5297 45.3225 41.5297H39.9712C39.5901 41.5297 39.2799 41.2196 39.2799 40.8385V38.8238C39.2799 38.4772 39.043 38.1757 38.7064 38.0936C37.0385 37.687 35.4593 37.0331 34.0128 36.1498C33.7168 35.9692 33.3352 36.0144 33.0898 36.2599L31.6649 37.6848C31.5353 37.8144 31.3621 37.8857 31.1769 37.8857H31.1758C30.992 37.8855 30.8206 37.8148 30.6911 37.6844L28.8792 35.8755C29.3283 34.6241 29.5614 33.2973 29.5614 31.948C29.5614 27.3773 26.9086 23.4151 23.0622 21.5183V19.2694C23.0622 18.8883 23.3706 18.5782 23.7497 18.5782H25.7681C26.1154 18.5782 26.4174 18.3404 26.4987 18.0028C26.8972 16.3506 27.5501 14.7717 28.4391 13.3098C28.6191 13.0141 28.5736 12.6337 28.3291 12.3885L26.907 10.9629C26.7775 10.8333 26.7061 10.6599 26.7061 10.4745C26.7061 10.2891 26.7774 10.1159 26.907 9.98614L30.6914 6.20175C30.9543 5.93875 31.4008 5.93975 31.6647 6.20175L33.0896 7.62667C33.3348 7.87187 33.7155 7.91738 34.0116 7.73736C35.4709 6.84959 37.0499 6.19673 38.7047 5.79684C39.042 5.71536 39.2797 5.41338 39.2797 5.06639V3.04803C39.2797 2.66895 39.5898 2.36045 39.9709 2.36045H45.3223C45.7013 2.36045 46.0098 2.66895 46.0098 3.04803V5.06639C46.0098 5.41313 46.247 5.71474 46.5837 5.79659C48.2447 6.20062 49.8254 6.85373 51.2822 7.73774C51.5781 7.91738 51.9585 7.8715 52.2036 7.62667L53.6269 6.20338C53.8963 5.93549 54.3344 5.93574 54.6018 6.20162L58.386 9.98614C58.5157 10.1156 58.5871 10.2891 58.5871 10.4744C58.5871 10.6597 58.5158 10.8332 58.386 10.9628L56.9612 12.3877C56.7158 12.6332 56.6704 13.0146 56.8512 13.3107C57.7359 14.7597 58.3898 16.3387 58.795 18.0039C58.8768 18.3408 59.1785 18.5778 59.5252 18.5778H61.5399C61.921 18.5778 62.2311 18.888 62.2311 19.269V24.6204L62.2314 24.6209ZM51.0418 13.5465C46.4137 8.91847 38.8802 8.91797 34.2478 13.5468C29.6197 18.1786 29.6197 25.7122 34.2483 30.3405C36.5641 32.6546 39.6052 33.8114 42.6461 33.8114C45.687 33.8114 48.7277 32.6544 51.0418 30.3403C55.6701 25.7122 55.6701 18.1786 51.042 13.5468L51.0418 13.5465ZM49.9789 29.2774C45.9366 33.3197 39.3565 33.3197 35.3108 29.2774C31.2684 25.2351 31.2685 18.6549 35.3105 14.6095C37.3337 12.588 39.9897 11.5775 42.6461 11.5775C45.3026 11.5775 47.9579 12.5882 49.9788 14.6092C54.0205 18.6549 54.021 25.2354 49.9788 29.2774H49.9789ZM49.9989 18.0525C49.9982 18.0926 49.9948 18.1326 49.9874 18.1725C49.9869 18.1756 49.9869 18.1787 49.9863 18.1817C49.9794 18.2165 49.9701 18.2513 49.9581 18.2854L49.0625 20.8367C48.954 21.1461 48.6635 21.3397 48.3534 21.3397C48.2708 21.3397 48.1869 21.326 48.1045 21.2971C47.8434 21.2054 47.6657 20.984 47.6162 20.7308L43.6256 24.719C43.3319 25.0124 42.8562 25.0124 42.5628 24.719L40.401 22.5573L36.5759 26.3853C36.4291 26.5322 36.2367 26.6057 36.0443 26.6057C35.8518 26.6057 35.6598 26.5323 35.5131 26.3858C35.2194 26.0923 35.2193 25.6165 35.5126 25.3229L39.8691 20.963C40.01 20.822 40.2012 20.7426 40.4006 20.7426C40.6 20.7426 40.7911 20.8218 40.932 20.9627L43.0942 23.1249L46.5986 19.6227C46.3125 19.5928 46.0565 19.3994 45.9615 19.1082C45.8328 18.7137 46.0485 18.2895 46.4431 18.1608L49.0158 17.3223C49.0382 17.315 49.061 17.3105 49.0837 17.3053C49.0932 17.3032 49.1025 17.3001 49.1123 17.2983C49.154 17.2907 49.1959 17.2869 49.2376 17.2864C49.2494 17.2863 49.2611 17.2873 49.2729 17.2877C49.3052 17.2887 49.3373 17.2917 49.3691 17.2969C49.3819 17.2991 49.3946 17.3008 49.4074 17.3036C49.4486 17.3125 49.4891 17.3238 49.5283 17.3396C49.5341 17.3418 49.5395 17.3451 49.5451 17.3476C49.5799 17.3625 49.6133 17.3804 49.6457 17.4006C49.6565 17.4072 49.6669 17.4143 49.6774 17.4217C49.7102 17.4446 49.7417 17.4698 49.771 17.4981C49.774 17.501 49.7774 17.5029 49.7804 17.5058C49.7812 17.5065 49.7817 17.5074 49.7824 17.5082C49.7837 17.5094 49.7851 17.5104 49.7863 17.5117C49.8169 17.5429 49.8431 17.577 49.8673 17.6122C49.8745 17.6226 49.8807 17.6331 49.8872 17.6438C49.9052 17.6729 49.921 17.7028 49.9345 17.7338C49.939 17.7441 49.9443 17.7539 49.9483 17.7643C49.9637 17.8036 49.9756 17.8441 49.9841 17.8855C49.9863 17.8954 49.987 17.9053 49.9887 17.9153C49.9942 17.9489 49.9974 17.9826 49.9983 18.0167C49.9987 18.0289 49.9991 18.0409 49.9987 18.0531L49.9989 18.0525ZM17.277 17.3649V15.318C17.277 14.9029 17.6135 14.5665 18.0285 14.5665C18.4436 14.5665 18.78 14.903 18.78 15.318V17.3649C18.78 17.7801 18.4436 18.1164 18.0285 18.1164C17.6135 18.1164 17.277 17.7799 17.277 17.3649ZM9.04847 17.8756C8.84101 17.5161 8.96423 17.0565 9.32363 16.849C9.68328 16.6416 10.1428 16.7647 10.3502 17.1242L11.3735 18.8974C11.5809 19.2569 11.4577 19.7164 11.0983 19.9239C10.98 19.9922 10.8507 20.0247 10.7234 20.0247C10.4636 20.0247 10.2109 19.8899 10.0718 19.6487L9.04847 17.8756ZM6.00055 24.9545C5.86141 25.1954 5.60881 25.3299 5.34932 25.3299C5.22159 25.3299 5.09234 25.2973 4.97388 25.2287L3.20422 24.2053C2.84495 23.9976 2.72198 23.5379 2.92994 23.1787C3.13753 22.8193 3.59734 22.6963 3.95661 22.9044L5.72627 23.9278C6.08554 24.1355 6.20852 24.5952 6.00055 24.9545ZM3.35302 32.6107H1.3062C0.891019 32.6107 0.554688 32.2743 0.554688 31.8592C0.554688 31.4442 0.891144 31.1077 1.3062 31.1077H3.35302C3.7682 31.1077 4.10453 31.4442 4.10453 31.8592C4.10453 32.2743 3.76808 32.6107 3.35302 32.6107ZM5.91167 38.7887C6.11951 39.1481 5.99679 39.6078 5.63739 39.8155L3.86786 40.8389C3.7494 40.9075 3.61991 40.94 3.49229 40.94C3.2328 40.94 2.98021 40.8055 2.84107 40.5647C2.63322 40.2053 2.75595 39.7456 3.11535 39.5379L4.88488 38.5145C5.24428 38.3066 5.70396 38.4294 5.91167 38.7888V38.7887Z" fill="url(#paint0_linear_1455_16046)"/>
<defs>
<linearGradient id="paint0_linear_1455_16046" x1="0.554688" y1="27.8034" x2="63.7344" y2="27.8034" gradientUnits="userSpaceOnUse">
<stop stop-color="#00C0FF"/>
<stop offset="1" stop-color="#5558FF"/>
</linearGradient>
</defs>
</svg>
