<svg width="57" height="54" viewBox="0 0 57 54" fill="none" xmlns="http://www.w3.org/2000/svg">
<path d="M32.6172 49.791C32.8824 49.791 33.1368 49.6857 33.3243 49.4981C33.5118 49.3106 33.6172 49.0562 33.6172 48.791V39.041C33.6158 37.9143 33.1676 36.834 32.3709 36.0373C31.5742 35.2406 30.4939 34.7924 29.3672 34.791H27.7422C26.6154 34.7924 25.5352 35.2406 24.7385 36.0373C23.9417 36.834 23.4935 37.9143 23.4922 39.041V48.791C23.4973 49.0529 23.6049 49.3022 23.7919 49.4856C23.9789 49.669 24.2303 49.7717 24.4922 49.7717C24.7541 49.7717 25.0055 49.6689 25.1925 49.4856C25.3795 49.3022 25.4871 49.0528 25.4922 48.791V43.291H31.6172V48.791C31.6172 49.0562 31.7225 49.3106 31.9101 49.4981C32.0976 49.6857 32.352 49.791 32.6172 49.791ZM25.4922 41.291V39.041C25.4928 38.4445 25.7301 37.8726 26.1519 37.4507C26.5737 37.0289 27.1457 36.7917 27.7422 36.791H29.3672C29.9637 36.7917 30.5356 37.0289 30.9575 37.4507C31.3793 37.8726 31.6165 38.4445 31.6172 39.041V41.291H25.4922Z" fill="url(#paint0_linear_1455_16048)"/>
<path d="M37.6797 48.791V43.291H41.5547C42.6753 43.281 43.7465 42.8288 44.5354 42.0328C45.3242 41.2369 45.7668 40.1616 45.7668 39.041C45.7668 37.9203 45.3242 36.845 44.5353 36.0491C43.7464 35.2532 42.6752 34.801 41.5546 34.791H36.6797C36.4145 34.791 36.1601 34.8964 35.9726 35.0839C35.785 35.2714 35.6797 35.5258 35.6797 35.791V48.791C35.6848 49.0529 35.7924 49.3022 35.9794 49.4856C36.1664 49.669 36.4178 49.7717 36.6797 49.7717C36.9416 49.7717 37.193 49.669 37.38 49.4856C37.567 49.3022 37.6746 49.0529 37.6797 48.791ZM37.6797 36.791H41.5547C42.1514 36.791 42.7237 37.0281 43.1457 37.45C43.5676 37.872 43.8047 38.4443 43.8047 39.041C43.8047 39.6378 43.5676 40.2101 43.1457 40.632C42.7237 41.054 42.1514 41.291 41.5547 41.291H37.6797V36.791Z" fill="url(#paint1_linear_1455_16048)"/>
<path d="M17.1797 47.791H12.3047C12.0395 47.791 11.7851 47.8964 11.5976 48.0839C11.41 48.2714 11.3047 48.5258 11.3047 48.791C11.3047 49.0562 11.41 49.3106 11.5976 49.4981C11.7851 49.6857 12.0395 49.791 12.3047 49.791H17.1797C18.3003 49.781 19.3715 49.3288 20.1604 48.5328C20.9492 47.7369 21.3918 46.6616 21.3918 45.541C21.3918 44.4203 20.9492 43.345 20.1603 42.5491C19.3714 41.7532 18.3002 41.301 17.1796 41.291H15.5547C14.9623 41.2844 14.3964 41.0444 13.9799 40.6232C13.5633 40.2019 13.3297 39.6334 13.3297 39.041C13.3297 38.4486 13.5633 37.88 13.9799 37.4588C14.3965 37.0376 14.9624 36.7976 15.5547 36.791H20.4297C20.6949 36.791 20.9493 36.6857 21.1368 36.4981C21.3243 36.3106 21.4297 36.0562 21.4297 35.791C21.4297 35.5258 21.3243 35.2714 21.1368 35.0839C20.9493 34.8964 20.6949 34.791 20.4297 34.791H15.5547C14.4341 34.8011 13.3628 35.2533 12.574 36.0492C11.7851 36.8452 11.3426 37.9204 11.3426 39.0411C11.3426 40.1617 11.7852 41.237 12.5741 42.0329C13.3629 42.8288 14.4342 43.281 15.5548 43.291H17.1797C17.7721 43.2976 18.338 43.5376 18.7545 43.9588C19.1711 44.3801 19.4047 44.9486 19.4047 45.541C19.4047 46.1334 19.1711 46.702 18.7545 47.1232C18.338 47.5444 17.7721 47.7844 17.1797 47.791Z" fill="url(#paint2_linear_1455_16048)"/>
<path d="M48.5547 31.291H8.55469C7.22908 31.2926 5.95822 31.8199 5.02087 32.7572C4.08353 33.6945 3.55624 34.9654 3.55469 36.291V44.291C3.55953 44.553 3.66702 44.8027 3.85403 44.9863C4.04105 45.1699 4.29265 45.2727 4.55472 45.2727C4.81678 45.2727 5.06838 45.1698 5.25539 44.9862C5.44239 44.8026 5.54986 44.553 5.55469 44.291V36.291C5.55556 35.4956 5.87191 34.7331 6.43433 34.1707C6.99675 33.6082 7.7593 33.2919 8.55469 33.291H48.5547C49.3501 33.2919 50.1126 33.6082 50.675 34.1707C51.2375 34.7331 51.5538 35.4956 51.5547 36.291C51.5547 36.5562 51.66 36.8106 51.8476 36.9981C52.0351 37.1857 52.2895 37.291 52.5547 37.291C52.8199 37.291 53.0743 37.1857 53.2618 36.9981C53.4493 36.8106 53.5547 36.5562 53.5547 36.291C53.5531 34.9654 53.0258 33.6945 52.0885 32.7572C51.1512 31.8199 49.8803 31.2926 48.5547 31.291Z" fill="url(#paint3_linear_1455_16048)"/>
<path d="M52.5547 39.291C52.2895 39.291 52.0351 39.3964 51.8476 39.5839C51.66 39.7714 51.5547 40.0258 51.5547 40.291V48.291C51.5538 49.0864 51.2375 49.849 50.675 50.4114C50.1126 50.9738 49.3501 51.2901 48.5547 51.291H8.55469C7.7593 51.2901 6.99675 50.9738 6.43433 50.4114C5.87191 49.849 5.55556 49.0864 5.55469 48.291C5.55469 48.0258 5.44933 47.7714 5.26179 47.5839C5.07426 47.3964 4.8199 47.291 4.55469 47.291C4.28947 47.291 4.03512 47.3964 3.84758 47.5839C3.66004 47.7714 3.55469 48.0258 3.55469 48.291C3.55624 49.6166 4.08353 50.8875 5.02087 51.8248C5.95822 52.7622 7.22908 53.2895 8.55469 53.291H48.5547C49.8803 53.2895 51.1512 52.7622 52.0885 51.8248C53.0258 50.8875 53.5531 49.6166 53.5547 48.291V40.291C53.5547 40.0258 53.4493 39.7714 53.2618 39.5839C53.0743 39.3964 52.8199 39.291 52.5547 39.291Z" fill="url(#paint4_linear_1455_16048)"/>
<path d="M55.5547 23.0708H53.8447C52.8118 23.0585 51.8053 22.7432 50.9499 22.1643C50.0945 21.5853 49.4278 20.768 49.0325 19.8137C48.6372 18.8594 48.5307 17.8101 48.7261 16.7958C48.9215 15.7815 49.4103 14.8469 50.1319 14.1078L51.3418 12.8979C51.4346 12.8051 51.5083 12.6949 51.5586 12.5735C51.6088 12.4522 51.6347 12.3222 51.6347 12.1909C51.6347 12.0596 51.6088 11.9295 51.5586 11.8082C51.5083 11.6869 51.4346 11.5767 51.3418 11.4838L45.3618 5.50385C44.3248 4.54847 43.4348 6.13361 42.7378 6.71385C41.9998 7.44293 41.0638 7.93895 40.0461 8.14019C39.0284 8.34143 37.974 8.23902 37.0141 7.84569C36.0532 7.45251 35.2315 6.78135 34.6544 5.91822C34.0773 5.05509 33.771 4.0393 33.7749 3.00102V1.29102C33.7749 1.0258 33.6695 0.771445 33.482 0.583909C33.2945 0.396373 33.0401 0.291016 32.7749 0.291016H24.3345C24.0693 0.291016 23.8149 0.396373 23.6274 0.583909C23.4398 0.771445 23.3345 1.0258 23.3345 1.29102V3.00102C23.333 4.03878 23.0242 5.05286 22.4471 5.91534C21.8699 6.77781 21.0503 7.45003 20.0915 7.8472C19.1328 8.24436 18.0779 8.34868 17.0599 8.14699C16.0419 7.9453 15.1065 7.44663 14.3716 6.71391L13.1616 5.50391C13.0687 5.41103 12.9585 5.33735 12.8372 5.28708C12.7159 5.23681 12.5859 5.21094 12.4545 5.21094C12.3232 5.21094 12.1932 5.23681 12.0719 5.28708C11.9506 5.33735 11.8403 5.41103 11.7475 5.50391L5.76752 11.4839C5.67464 11.5767 5.60096 11.687 5.55069 11.8083C5.50043 11.9296 5.47455 12.0596 5.47455 12.1909C5.47455 12.3223 5.50043 12.4523 5.55069 12.5736C5.60096 12.6949 5.67464 12.8051 5.76752 12.898L6.97752 14.108C7.71025 14.8428 8.20891 15.7783 8.41061 16.7962C8.6123 17.8142 8.50799 18.8691 8.11083 19.8279C7.71367 20.7866 7.04145 21.6063 6.17899 22.1834C5.31652 22.7606 4.30244 23.0693 3.26469 23.0708H1.55469C1.28947 23.0708 1.03512 23.1762 0.847581 23.3637C0.660045 23.5512 0.554688 23.8056 0.554688 24.0708V32.4312C0.559665 32.6931 0.667214 32.9426 0.854215 33.1261C1.04122 33.3096 1.29274 33.4123 1.55472 33.4123C1.8167 33.4123 2.06821 33.3095 2.2552 33.126C2.44219 32.9426 2.54973 32.693 2.55469 32.4311V25.0708C4.10501 25.2111 5.6596 24.8523 6.99159 24.0467C8.32358 23.2411 9.36324 22.0309 9.95884 20.5927C10.5544 19.1545 10.6748 17.5635 10.3024 16.0521C9.92995 14.5406 9.08422 13.1878 7.88861 12.1909L12.4546 7.625C13.1851 8.48672 14.1045 9.16832 15.1413 9.61678C16.1782 10.0652 17.3045 10.2685 18.4327 10.2107C19.5609 10.1529 20.6605 9.83562 21.6461 9.28355C22.6317 8.73148 23.4767 7.9595 24.1153 7.02765C25.0299 5.6251 25.4582 3.96085 25.3344 2.29102H31.7749C31.6419 3.83856 32.0051 5.38826 32.8119 6.71551C33.6188 8.04276 34.8273 9.07859 36.2623 9.67288C37.6974 10.2672 39.2844 10.389 40.7934 10.0208C42.3024 9.65257 43.6549 8.81339 44.6549 7.62488L49.2208 12.1909L48.7178 12.6938C43.9113 17.4796 47.8537 25.656 54.5548 25.0706L54.5547 32.4312C54.5592 32.6934 54.6666 32.9433 54.8536 33.1271C55.0407 33.311 55.2925 33.414 55.5547 33.414C55.817 33.4139 56.0687 33.3109 56.2558 33.1271C56.4428 32.9433 56.5502 32.6933 56.5547 32.4311V24.0708C56.5547 23.8056 56.4493 23.5512 56.2618 23.3637C56.0743 23.1762 55.8199 23.0708 55.5547 23.0708Z" fill="url(#paint5_linear_1455_16048)"/>
<path d="M14.0547 28.291C14.8526 9.05249 42.2618 9.06268 43.0547 28.2911C43.0547 28.5564 43.1601 28.8107 43.3476 28.9982C43.5352 29.1858 43.7895 29.2911 44.0547 29.2911C44.32 29.2911 44.5743 29.1857 44.7618 28.9981C44.9494 28.8106 45.0547 28.5562 45.0547 28.291C45.0547 23.9149 43.3163 19.7181 40.222 16.6238C37.1276 13.5294 32.9308 11.791 28.5547 11.791C24.1786 11.791 19.9818 13.5294 16.8874 16.6238C13.7931 19.7181 12.0547 23.9149 12.0547 28.291C12.0597 28.5529 12.1672 28.8025 12.3542 28.986C12.5412 29.1694 12.7927 29.2722 13.0547 29.2722C13.3167 29.2722 13.5682 29.1694 13.7552 28.986C13.9422 28.8025 14.0497 28.5529 14.0547 28.291Z" fill="url(#paint6_linear_1455_16048)"/>
<defs>
<linearGradient id="paint0_linear_1455_16048" x1="0.554688" y1="26.7792" x2="56.5547" y2="26.7792" gradientUnits="userSpaceOnUse">
<stop stop-color="#00C0FF"/>
<stop offset="1" stop-color="#5558FF"/>
</linearGradient>
<linearGradient id="paint1_linear_1455_16048" x1="0.554688" y1="26.7792" x2="56.5547" y2="26.7792" gradientUnits="userSpaceOnUse">
<stop stop-color="#00C0FF"/>
<stop offset="1" stop-color="#5558FF"/>
</linearGradient>
<linearGradient id="paint2_linear_1455_16048" x1="0.554688" y1="26.7792" x2="56.5547" y2="26.7792" gradientUnits="userSpaceOnUse">
<stop stop-color="#00C0FF"/>
<stop offset="1" stop-color="#5558FF"/>
</linearGradient>
<linearGradient id="paint3_linear_1455_16048" x1="0.554688" y1="26.7792" x2="56.5547" y2="26.7792" gradientUnits="userSpaceOnUse">
<stop stop-color="#00C0FF"/>
<stop offset="1" stop-color="#5558FF"/>
</linearGradient>
<linearGradient id="paint4_linear_1455_16048" x1="0.554688" y1="26.7792" x2="56.5547" y2="26.7792" gradientUnits="userSpaceOnUse">
<stop stop-color="#00C0FF"/>
<stop offset="1" stop-color="#5558FF"/>
</linearGradient>
<linearGradient id="paint5_linear_1455_16048" x1="0.554688" y1="26.7792" x2="56.5547" y2="26.7792" gradientUnits="userSpaceOnUse">
<stop stop-color="#00C0FF"/>
<stop offset="1" stop-color="#5558FF"/>
</linearGradient>
<linearGradient id="paint6_linear_1455_16048" x1="0.554688" y1="26.7792" x2="56.5547" y2="26.7792" gradientUnits="userSpaceOnUse">
<stop stop-color="#00C0FF"/>
<stop offset="1" stop-color="#5558FF"/>
</linearGradient>
</defs>
</svg>
