<svg width="59" height="59" viewBox="0 0 59 59" fill="none" xmlns="http://www.w3.org/2000/svg">
<path d="M55.8523 0.486328H31.4839C29.9337 0.486328 28.6721 1.74786 28.6721 3.29807V10.7961H26.1219L25.3074 13.2385C23.8444 13.6237 22.4422 14.2058 21.1273 14.9743L19.2996 14.0596V0.486328H0.554688V21.1058H15.0174C14.2629 22.4076 13.6883 23.7938 13.3078 25.239L10.8644 26.0535V32.3528H3.36643C1.81622 32.3528 0.554688 33.6143 0.554688 35.1645V50.1605C0.554688 51.7107 1.81622 52.9722 3.36643 52.9722H8.98992V53.1334C8.98992 54.4681 8.50911 55.7268 7.63935 56.7212H5.24093V58.5957H25.8604V56.7212H23.462C22.5922 55.7258 22.1114 54.4681 22.1114 53.1334V52.9722H27.7349C29.2851 52.9722 30.5466 51.7107 30.5466 50.1605V48.286H33.0969L33.9113 45.8435C35.3744 45.4583 36.7765 44.8763 38.0915 44.1077L39.9191 45.0225V58.5957H58.6641V37.9762H44.2014C44.9559 36.6744 45.5304 35.2882 45.9109 33.843L48.3543 33.0285V26.7293H53.9778V24.8548H51.5794C50.7096 23.8594 50.2288 22.6016 50.2288 21.267V21.1058H55.8523C57.4025 21.1058 58.6641 19.8442 58.6641 18.294V3.29807C58.6641 1.74786 57.4025 0.486328 55.8523 0.486328ZM31.4839 2.36082H55.8523C56.3687 2.36082 56.7896 2.78071 56.7896 3.29807V13.6078H30.5466V3.29807C30.5466 2.78071 30.9674 2.36082 31.4839 2.36082ZM35.7568 24.8548H33.3584V26.7293H40.4955C40.7317 27.6431 40.8563 28.585 40.8563 29.541C40.8563 35.4269 36.3098 40.2613 30.5466 40.7402V35.1645C30.5466 33.6143 29.2851 32.3528 27.7349 32.3528H18.7232C18.4871 31.438 18.3624 30.4961 18.3624 29.541C18.3624 23.6542 22.9109 18.818 28.6768 18.3409C28.7031 19.8696 29.9496 21.1058 31.4839 21.1058H37.1074V21.267C37.1074 22.6016 36.6265 23.8594 35.7568 24.8548ZM2.42918 2.36082H17.4252V15.2161L15.5507 17.0906V11.7333H4.30368V17.3568H15.2845L13.8889 18.7524L14.1279 19.2313H2.42918V2.36082ZM13.6762 13.6078V15.4823H6.17818V13.6078H13.6762ZM12.7389 27.405L14.889 26.688L15.0061 26.1744C15.3773 24.5577 16.0165 23.0187 16.905 21.5997L17.1843 21.1526L16.1692 19.1216L19.19 16.0999L21.2219 17.1159L21.6681 16.8366C23.0871 15.9481 24.626 15.3089 26.2428 14.9378L26.7555 14.8197L27.4734 12.6706H28.6721V16.4673C21.8743 16.951 16.4879 22.6223 16.4879 29.541C16.4879 30.4923 16.5966 31.4324 16.7981 32.3528H12.7389V27.405ZM3.36643 34.2273H27.7349C28.2513 34.2273 28.6721 34.6471 28.6721 35.1645V45.4742H2.42918V35.1645C2.42918 34.6471 2.85001 34.2273 3.36643 34.2273ZM21.177 56.7212H9.92436C10.5345 55.6377 10.8644 54.4118 10.8644 53.1334V52.9722H20.2369V53.1334C20.2369 54.4118 20.5668 55.6377 21.177 56.7212ZM27.7349 51.0977H3.36643C2.85001 51.0977 2.42918 50.6778 2.42918 50.1605V47.3487H28.6721V50.1605C28.6721 50.6778 28.2513 51.0977 27.7349 51.0977ZM56.7896 56.7212H41.7936V43.8669L43.6681 41.9914V47.3487H54.9151V41.7252H43.9343L45.3298 40.3297L45.0908 39.8507H56.7896V56.7212ZM45.5426 45.4742V43.5997H53.0406V45.4742H45.5426ZM46.4798 31.677L44.3298 32.394L44.2126 32.9076C43.8415 34.5244 43.2023 36.0633 42.3138 37.4823L42.0345 37.9294L43.0495 39.9604L40.0288 42.9821L37.9968 41.9661L37.5507 42.2454C36.1317 43.1339 34.5927 43.7731 32.976 44.1443L32.4633 44.2624L31.7454 46.4115H30.5466V42.6147C37.3445 42.1311 42.7308 36.4598 42.7308 29.541C42.7308 28.5888 42.6221 27.6487 42.4216 26.7293H46.4798V31.677ZM49.2944 24.8548H38.0418C38.6519 23.7713 38.9819 22.5454 38.9819 21.267V21.1058H48.3543V21.267C48.3543 22.5454 48.6842 23.7713 49.2944 24.8548ZM55.8523 19.2313H31.4839C30.9674 19.2313 30.5466 18.8114 30.5466 18.294V15.4823H56.7896V18.294C56.7896 18.8114 56.3687 19.2313 55.8523 19.2313ZM43.6681 49.2232H54.9151V51.0977H43.6681V49.2232ZM43.6681 52.9722H45.5426V54.8467H43.6681V52.9722ZM47.4171 52.9722H54.9151V54.8467H47.4171V52.9722ZM15.5507 9.85881H4.30368V7.98431H15.5507V9.85881ZM15.5507 6.10982H13.6762V4.23532H15.5507V6.10982ZM11.8017 6.10982H4.30368V4.23532H11.8017V6.10982ZM37.5741 34.4831L35.9827 33.4925C36.276 33.021 36.5169 32.5168 36.6978 31.9919L38.4701 32.6039C38.2414 33.2619 37.9406 33.8936 37.5741 34.4831ZM34.8167 37.3342L33.7745 35.7765C34.1991 35.4916 34.5955 35.1645 34.9536 34.8008L36.2901 36.1149C35.8421 36.5694 35.3472 36.98 34.8167 37.3342ZM37.0614 30.3724C37.0914 30.0996 37.1074 29.8222 37.1074 29.541C37.1074 29.2589 37.0914 28.9805 37.0614 28.7078L38.9237 28.4988C38.9622 28.8418 38.9819 29.1895 38.9819 29.541C38.9819 29.8915 38.9622 30.2365 38.9247 30.5767L37.0614 30.3724Z" fill="url(#paint0_linear_1455_16047)"/>
<path d="M8.43848 39.7773V40.6519H5.0415V39.7773H8.43848ZM5.31396 37.1055V43.5039H4.21094V37.1055H5.31396ZM9.28662 37.1055V43.5039H8.18799V37.1055H9.28662Z" fill="url(#paint1_linear_1455_16047)"/>
<path d="M13.1714 37.958L11.2598 43.5039H10.104L12.5122 37.1055H13.2505L13.1714 37.958ZM14.771 43.5039L12.855 37.958L12.7715 37.1055H13.5142L15.9312 43.5039H14.771ZM14.6787 41.1309V42.0054H11.1982V41.1309H14.6787Z" fill="url(#paint2_linear_1455_16047)"/>
<path d="M21.7231 37.1055V43.5039H20.6201L17.7505 38.9204V43.5039H16.6475V37.1055H17.7505L20.6289 41.6978V37.1055H21.7231Z" fill="url(#paint3_linear_1455_16047)"/>
<path d="M25.6079 37.958L23.6963 43.5039H22.5405L24.9487 37.1055H25.687L25.6079 37.958ZM27.2075 43.5039L25.2915 37.958L25.208 37.1055H25.9507L28.3677 43.5039H27.2075ZM27.1152 41.1309V42.0054H23.6348V41.1309H27.1152Z" fill="url(#paint4_linear_1455_16047)"/>
<defs>
<linearGradient id="paint0_linear_1455_16047" x1="0.554688" y1="29.5281" x2="58.6641" y2="29.5281" gradientUnits="userSpaceOnUse">
<stop stop-color="#00C0FF"/>
<stop offset="1" stop-color="#5558FF"/>
</linearGradient>
<linearGradient id="paint1_linear_1455_16047" x1="0.554688" y1="29.5281" x2="58.6641" y2="29.5281" gradientUnits="userSpaceOnUse">
<stop stop-color="#00C0FF"/>
<stop offset="1" stop-color="#5558FF"/>
</linearGradient>
<linearGradient id="paint2_linear_1455_16047" x1="0.554688" y1="29.5281" x2="58.6641" y2="29.5281" gradientUnits="userSpaceOnUse">
<stop stop-color="#00C0FF"/>
<stop offset="1" stop-color="#5558FF"/>
</linearGradient>
<linearGradient id="paint3_linear_1455_16047" x1="0.554688" y1="29.5281" x2="58.6641" y2="29.5281" gradientUnits="userSpaceOnUse">
<stop stop-color="#00C0FF"/>
<stop offset="1" stop-color="#5558FF"/>
</linearGradient>
<linearGradient id="paint4_linear_1455_16047" x1="0.554688" y1="29.5281" x2="58.6641" y2="29.5281" gradientUnits="userSpaceOnUse">
<stop stop-color="#00C0FF"/>
<stop offset="1" stop-color="#5558FF"/>
</linearGradient>
</defs>
</svg>
