<svg width="45" height="52" viewBox="0 0 45 52" fill="none" xmlns="http://www.w3.org/2000/svg">
<path d="M42.6953 15.2863H39.5993C39.3191 15.2863 39.0919 15.1236 39.0043 14.8629C38.7793 14.1896 38.5002 13.5269 38.1735 12.8929C38.047 12.6472 38.0913 12.3738 38.2893 12.1792L40.4798 10.0251C41.2306 9.28691 41.2306 8.08703 40.4798 7.34881L37.4444 4.36401C37.0821 4.0066 36.5985 3.81087 36.0836 3.81087C35.5687 3.81087 35.0851 4.00766 34.7228 4.36401L32.5322 6.51804C32.3342 6.71271 32.0562 6.75632 31.8064 6.63186C31.1627 6.31168 30.4888 6.03618 29.8029 5.81492C29.5368 5.72876 29.3724 5.50432 29.3724 5.22988V2.18338C29.3724 1.13987 28.5092 0.291016 27.448 0.291016H23.1545C22.0933 0.291016 21.2301 1.13987 21.2301 2.18338V5.22775C21.2301 5.50325 21.0646 5.7277 20.7995 5.8128C20.1148 6.03405 19.4409 6.30849 18.7961 6.62973C18.5462 6.75419 18.2682 6.71058 18.0703 6.51592L15.8797 4.36188C15.5173 4.00447 15.0338 3.80874 14.5189 3.80874C14.004 3.80874 13.5204 4.00553 13.158 4.36188L10.1227 7.34668C9.37192 8.08491 9.37192 9.28478 10.1227 10.023L12.3132 12.177C12.5112 12.3717 12.5555 12.6451 12.4289 12.8908C12.1023 13.5248 11.8232 14.1875 11.5982 14.8608C11.5105 15.1225 11.2823 15.2852 11.0032 15.2852H7.90723C6.84603 15.2852 5.98279 16.1341 5.98279 17.1776V21.3995C5.98279 22.443 6.84603 23.2919 7.90723 23.2919H8.63092V27.8095V30.8634C4.60681 30.9571 0.515625 31.9229 0.515625 33.9227V48.4946C0.515625 50.6019 5.05898 51.5613 9.27997 51.5613C13.501 51.5613 18.0443 50.6019 18.0443 48.4946V45.4896H41.3258C41.6838 45.4896 41.9748 45.2035 41.9748 44.8514V36.3299V27.8084V23.2908H42.6985C43.7597 23.2908 44.6229 22.442 44.6229 21.3984V17.1765C44.6197 16.1352 43.7565 15.2863 42.6953 15.2863ZM39.5214 19.9273C40.1564 19.9273 40.6735 20.4358 40.6735 21.0602V27.1723H9.92578V21.0602C9.92578 20.4358 10.4429 19.9273 11.0778 19.9273H39.5214ZM17.3498 18.6509C17.6819 14.6225 21.1187 11.4441 25.2996 11.4441C29.4806 11.4441 32.9173 14.6225 33.2494 18.6509H17.3498ZM18.0411 33.9238C18.0411 31.924 13.951 30.9581 9.92578 30.8645V28.4488H40.6735V35.6938H18.0411V33.9238ZM9.27672 32.1325C14.203 32.1325 16.743 33.3877 16.743 33.9227C16.743 34.4578 14.203 35.713 9.27672 35.713C4.35043 35.713 1.81048 34.4578 1.81048 33.9227C1.81048 33.3877 4.35043 32.1325 9.27672 32.1325ZM1.81048 35.6353C3.46231 36.5575 6.44146 36.9905 9.27672 36.9905C12.112 36.9905 15.0911 36.5575 16.743 35.6353V38.7807C16.743 39.3158 14.203 40.571 9.27672 40.571C4.35043 40.571 1.81048 39.3158 1.81048 38.7807V35.6353ZM1.81048 40.4923C3.46231 41.4145 6.44146 41.8474 9.27672 41.8474C12.112 41.8474 15.0911 41.4145 16.743 40.4923V43.6377C16.743 44.1727 14.203 45.4279 9.27672 45.4279C4.35043 45.4279 1.81048 44.1727 1.81048 43.6377V40.4923ZM16.743 48.4957C16.743 49.0308 14.203 50.2859 9.27672 50.2859C4.35043 50.2859 1.81048 49.0308 1.81048 48.4957V45.3503C3.46231 46.2725 6.44146 46.7055 9.27672 46.7055C11.9627 46.7055 14.7785 46.3172 16.4715 45.4907H16.743V48.4957ZM18.0411 44.2142V36.9692H40.6735V44.2142H18.0411ZM43.3216 21.4006C43.3216 21.7399 43.0403 22.0165 42.6953 22.0165H41.9716V21.0602C41.9716 19.7316 40.8725 18.6509 39.5214 18.6509H34.5508C34.2165 13.9184 30.1967 10.1677 25.2996 10.1677C20.4025 10.1677 16.3827 13.9184 16.0485 18.6509H11.0778C9.72673 18.6509 8.62768 19.7316 8.62768 21.0602V22.0165H7.90398C7.55891 22.0165 7.27765 21.7399 7.27765 21.4006V17.1787C7.27765 16.8393 7.55891 16.5628 7.90398 16.5628H11C11.8459 16.5628 12.5642 16.0522 12.8281 15.2608C13.0326 14.6481 13.2868 14.046 13.5843 13.4695C13.9672 12.7259 13.8277 11.8654 13.2284 11.2761L11.0378 9.12204C10.7933 8.88163 10.7933 8.49125 11.0378 8.25085L14.0732 5.26604C14.1911 5.1501 14.348 5.08627 14.5156 5.08627C14.6833 5.08627 14.8413 5.1501 14.9592 5.26604L17.1497 7.42008C17.749 8.00938 18.6241 8.1466 19.3803 7.77004C19.9666 7.47752 20.5789 7.22861 21.2019 7.0265C22.0057 6.76695 22.526 6.06064 22.526 5.22881V2.18338C22.526 1.84405 22.8073 1.56748 23.1523 1.56748H27.4458C27.7909 1.56748 28.0721 1.84405 28.0721 2.18338V5.22775C28.0721 6.06064 28.5914 6.76589 29.3962 7.02544C30.0193 7.22648 30.6327 7.47646 31.2179 7.76898C31.974 8.14554 32.8492 8.00832 33.4485 7.41902L35.639 5.26498C35.7569 5.14903 35.9138 5.08521 36.0814 5.08521C36.2491 5.08521 36.407 5.14903 36.525 5.26498L39.5603 8.24978C39.8048 8.49018 39.8048 8.88057 39.5603 9.12097L37.3698 11.275C36.7705 11.8643 36.631 12.7249 37.0139 13.4684C37.3114 14.0449 37.5656 14.6481 37.77 15.2597C38.034 16.0501 38.7523 16.5617 39.5982 16.5617H42.6942C43.0393 16.5617 43.3205 16.8383 43.3205 17.1776V21.4006H43.3216ZM31.034 23.5504C31.034 23.1983 31.325 22.9121 31.683 22.9121H37.0853C37.4434 22.9121 37.7343 23.1983 37.7343 23.5504C37.7343 23.9025 37.4434 24.1886 37.0853 24.1886H31.683C31.325 24.1886 31.034 23.9025 31.034 23.5504ZM31.034 32.0708C31.034 31.7187 31.325 31.4325 31.683 31.4325H37.0853C37.4434 31.4325 37.7343 31.7187 37.7343 32.0708C37.7343 32.4229 37.4434 32.709 37.0853 32.709H31.683C31.325 32.709 31.034 32.4229 31.034 32.0708ZM37.7354 40.5922C37.7354 40.9443 37.4444 41.2305 37.0864 41.2305H31.6841C31.3261 41.2305 31.0351 40.9443 31.0351 40.5922C31.0351 40.2402 31.3261 39.954 31.6841 39.954H37.0864C37.4444 39.954 37.7354 40.2391 37.7354 40.5922Z" fill="url(#paint0_linear_1455_15655)"/>
<defs>
<linearGradient id="paint0_linear_1455_15655" x1="0.515625" y1="25.9148" x2="44.6229" y2="25.9148" gradientUnits="userSpaceOnUse">
<stop stop-color="#00C0FF"/>
<stop offset="1" stop-color="#5558FF"/>
</linearGradient>
</defs>
</svg>
