<svg width="59" height="49" viewBox="0 0 59 49" fill="none" xmlns="http://www.w3.org/2000/svg">
<path d="M22.6518 23.0388L13.4544 34.3103H18.6652V48.1639H26.6385V34.3103H31.8493L22.6518 23.0388ZM24.9536 32.6255V46.4791H20.3501V32.6255H17.004L22.6518 25.7039L28.2996 32.6255H24.9536Z" fill="url(#paint0_linear_1455_15457)"/>
<path d="M40.6402 23.5283H32.667V37.3824H27.4562L36.6536 48.6534L45.851 37.3824H40.6402V23.5283ZM42.3014 39.0672L36.6536 45.9883L31.0058 39.0672H34.3518V25.2132H38.9554V39.0672H42.3014Z" fill="url(#paint1_linear_1455_15457)"/>
<path d="M47.8821 14.1326C47.5263 6.51562 41.2181 0.427734 33.5147 0.427734C27.637 0.427734 22.5964 3.94884 20.3679 8.96789C19.6492 8.68927 18.8805 8.54448 18.1043 8.54448C14.9013 8.54448 12.2521 10.9603 11.8822 14.0655C5.66134 14.8386 0.890625 20.1709 0.890625 26.5203C0.890625 33.441 6.52132 39.0717 13.442 39.0717H17.2531V37.3868H13.442C7.45019 37.3868 2.57549 32.5121 2.57549 26.5203C2.57549 20.8054 7.03819 16.0426 12.7351 15.6771L13.5337 15.6257L13.5232 14.8254L13.5227 14.8035C13.5267 12.2806 15.5805 10.2293 18.1043 10.2293C18.9068 10.2293 19.697 10.4408 20.3903 10.8414L21.2551 11.3407L21.6017 10.404C23.4371 5.44459 28.2245 2.1126 33.5143 2.1126C40.5161 2.1126 46.2126 7.80911 46.2126 14.8109L46.2078 15.6323L46.9686 15.7104C52.5251 16.2786 56.7154 20.9256 56.7154 26.5199C56.7154 32.1343 52.5085 36.7835 46.9295 37.3337L47.095 39.0103C53.4667 38.3819 58.4002 33.0075 58.4002 26.5199C58.4007 20.3447 53.9116 15.1159 47.8821 14.1326Z" fill="url(#paint2_linear_1455_15457)"/>
<path d="M46.0989 36.2609L46.0554 34.5765C50.3834 34.4655 53.9045 30.8518 53.9045 26.5203C53.9045 26.2355 53.8892 25.9482 53.8598 25.6665L55.535 25.4888C55.571 25.8292 55.5894 26.1763 55.5894 26.5207C55.5894 29.0752 54.6044 31.4915 52.8155 33.3234C51.0297 35.1526 48.6446 36.1956 46.0989 36.2609ZM53.6891 24.6643C53.5724 24.1707 53.4083 23.6854 53.2003 23.2225L54.7378 22.5332C54.9892 23.0931 55.1879 23.6802 55.3288 24.2778L53.6891 24.6643ZM52.7269 22.3239C52.4628 21.8913 52.1556 21.4815 51.8138 21.105L53.0608 19.9722C53.4741 20.4272 53.8453 20.9225 54.1647 21.4455L52.7269 22.3239Z" fill="url(#paint3_linear_1455_15457)"/>
<path d="M23.8279 44.5138H22.1431V39.5176H23.8279V44.5138ZM23.8279 38.3943H22.1431V36.7095H23.8279V38.3943ZM23.8279 35.5862H22.1431V33.9013H23.8279V35.5862Z" fill="url(#paint4_linear_1455_15457)"/>
<path d="M37.8297 37.1578H36.1448V32.7952H37.8297V37.1578ZM37.8297 31.6719H36.1448V29.9871H37.8297V31.6719ZM37.8297 28.8638H36.1448V27.1789H37.8297V28.8638Z" fill="url(#paint5_linear_1455_15457)"/>
<defs>
<linearGradient id="paint0_linear_1455_15457" x1="0.890625" y1="24.5298" x2="58.4002" y2="24.5298" gradientUnits="userSpaceOnUse">
<stop stop-color="#00C0FF"/>
<stop offset="1" stop-color="#5558FF"/>
</linearGradient>
<linearGradient id="paint1_linear_1455_15457" x1="0.890625" y1="24.5298" x2="58.4002" y2="24.5298" gradientUnits="userSpaceOnUse">
<stop stop-color="#00C0FF"/>
<stop offset="1" stop-color="#5558FF"/>
</linearGradient>
<linearGradient id="paint2_linear_1455_15457" x1="0.890625" y1="24.5298" x2="58.4002" y2="24.5298" gradientUnits="userSpaceOnUse">
<stop stop-color="#00C0FF"/>
<stop offset="1" stop-color="#5558FF"/>
</linearGradient>
<linearGradient id="paint3_linear_1455_15457" x1="0.890625" y1="24.5298" x2="58.4002" y2="24.5298" gradientUnits="userSpaceOnUse">
<stop stop-color="#00C0FF"/>
<stop offset="1" stop-color="#5558FF"/>
</linearGradient>
<linearGradient id="paint4_linear_1455_15457" x1="0.890625" y1="24.5298" x2="58.4002" y2="24.5298" gradientUnits="userSpaceOnUse">
<stop stop-color="#00C0FF"/>
<stop offset="1" stop-color="#5558FF"/>
</linearGradient>
<linearGradient id="paint5_linear_1455_15457" x1="0.890625" y1="24.5298" x2="58.4002" y2="24.5298" gradientUnits="userSpaceOnUse">
<stop stop-color="#00C0FF"/>
<stop offset="1" stop-color="#5558FF"/>
</linearGradient>
</defs>
</svg>
