<svg width="85" height="65" viewBox="0 0 85 65" fill="none" xmlns="http://www.w3.org/2000/svg">
<path fill-rule="evenodd" clip-rule="evenodd" d="M0.789062 44.5693V64.8867H33.3052V44.5693C33.2487 37.6275 34.0249 31.4758 35.6338 26.1142C37.2427 20.7527 39.5149 15.6169 42.4504 10.7068L23.1439 0.886719C19.6439 3.82146 16.1721 7.65921 12.7286 12.3999C9.28503 17.1407 6.43422 22.3047 4.17616 27.892C1.91809 33.4793 0.789062 39.0384 0.789062 44.5693ZM43.125 44.5693V64.8867H75.6411V44.5693C75.5847 37.6275 76.3609 31.4758 77.9698 26.1142C79.5786 20.7527 81.8508 15.6169 84.7863 10.7068L65.4798 0.886719C61.9798 3.82146 58.5081 7.65921 55.0645 12.3999C51.621 17.1407 48.7702 22.3047 46.5121 27.892C44.254 33.4793 43.125 39.0384 43.125 44.5693Z" fill="#B2F0FB"/>
</svg>
