<svg width="100" height="101" viewBox="0 0 100 101" fill="none" xmlns="http://www.w3.org/2000/svg">
<g clip-path="url(#clip0_938_12796)">
<path d="M76.3672 22.7246L62.5771 36.5146L66.7199 40.6574L73.4375 33.9398V50.5002C73.4375 55.3467 69.4949 59.2893 64.6484 59.2893H35.3516C27.2748 59.2893 20.7031 66.0563 20.7031 74.133V83.4617C17.3004 84.6752 14.8438 87.8967 14.8438 91.7111C14.8438 96.5576 18.7863 100.5 23.6328 100.5C28.4793 100.5 32.4219 96.5576 32.4219 91.7111C32.4219 87.8967 29.9652 84.6752 26.5625 83.4617V74.133C26.5625 69.2865 30.5051 65.1486 35.3516 65.1486H64.6484C72.7252 65.1486 79.2969 58.577 79.2969 50.5002V33.9398L86.0146 40.6576L90.1574 36.5148L76.3672 22.7246Z" fill="#29256E"/>
<path d="M80.1553 72.0615L73.4375 78.7791L66.7197 72.0615L62.5771 76.2041L69.2947 82.9219L62.5771 89.6396L66.7197 93.7822L73.4375 87.0647L80.1553 93.7822L84.2979 89.6396L77.5803 82.9219L84.2979 76.2041L80.1553 72.0615Z" fill="#29256E"/>
<path d="M37.4228 29.1338L44.1406 22.4162L50.8584 29.1338L55.001 24.9912L48.2834 18.2734L55.001 11.5557L50.8584 7.41309L44.1406 14.1307L37.4228 7.41309L33.2803 11.5557L39.9979 18.2734L33.2803 24.9912L37.4228 29.1338Z" fill="#29256E"/>
<path d="M27.4209 52.5713L31.5635 48.4287L24.8459 41.7109L31.5635 34.9932L27.4209 30.8506L20.7031 37.5682L13.9854 30.8506L9.84277 34.9932L16.5604 41.7109L9.84277 48.4287L13.9854 52.5713L20.7031 45.8537L27.4209 52.5713Z" fill="#29256E"/>
<path d="M76.3672 18.0781C81.2213 18.0781 85.1562 14.1431 85.1562 9.28906C85.1562 4.435 81.2213 0.5 76.3672 0.5C71.5131 0.5 67.5781 4.435 67.5781 9.28906C67.5781 14.1431 71.5131 18.0781 76.3672 18.0781Z" fill="#29256E"/>
</g>
<defs>
<clipPath id="clip0_938_12796">
<rect width="100" height="100" fill="white" transform="translate(0 0.5)"/>
</clipPath>
</defs>
</svg>
