<svg width="54" height="57" viewBox="0 0 54 57" fill="none" xmlns="http://www.w3.org/2000/svg">
<path d="M19.7688 0.134766C23.5026 0.143213 27.1517 1.24809 30.263 3.31223C33.3744 5.37637 35.811 8.30887 37.2703 11.7457C37.3672 11.989 37.3649 12.2606 37.2638 12.5022C37.1626 12.7439 36.9708 12.9362 36.7295 13.038C36.4881 13.1397 36.2165 13.1428 35.9729 13.0466C35.7293 12.9503 35.5332 12.7624 35.4266 12.5231C34.1216 9.44785 31.9419 6.82379 29.1582 4.97688C26.3745 3.12998 23.1095 2.14164 19.7688 2.13464C19.507 2.1296 19.2575 2.02204 19.0741 1.83507C18.8907 1.6481 18.7879 1.39664 18.7879 1.13472C18.7879 0.872803 18.8907 0.621336 19.0741 0.434357C19.2575 0.247377 19.5069 0.139808 19.7688 0.134766ZM3.0144 39.9608C2.54377 38.5911 2.85072 20.9993 2.7692 19.1341C2.78511 15.2865 4.09908 11.557 6.4984 8.54911C8.89772 5.54125 12.242 3.43119 15.9897 2.56049C16.2446 2.49825 16.4649 2.33836 16.603 2.11527C16.7411 1.89218 16.7861 1.62376 16.7282 1.36784C16.6703 1.11192 16.5141 0.889001 16.2934 0.747115C16.0727 0.605229 15.8051 0.555737 15.5482 0.609305C11.8859 1.45249 8.55486 3.35991 5.974 6.09161C3.39314 8.82332 1.6778 12.2573 1.04379 15.9615C0.516378 17.7534 0.861078 34.9033 0.769238 37.1337C0.769469 38.1972 0.861312 39.2587 1.04375 40.3065C1.08959 40.5678 1.23737 40.8002 1.45457 40.9526C1.67177 41.105 1.9406 41.1648 2.20192 41.119C2.46325 41.0731 2.69566 40.9253 2.84803 40.7081C3.00039 40.4909 3.06024 40.2221 3.0144 39.9608ZM19.7688 54.1333C16.4277 54.1283 13.1619 53.1407 10.3778 51.2936C7.59374 49.4464 5.41441 46.8213 4.11108 43.7448C4.00435 43.5058 3.80821 43.3181 3.56471 43.222C3.32122 43.1259 3.04977 43.1291 2.80856 43.2308C2.56735 43.3325 2.37561 43.5247 2.27444 43.7661C2.17327 44.0075 2.17073 44.279 2.26738 44.5223C3.72469 47.9605 6.16079 50.8944 9.27259 52.9588C12.3844 55.0233 16.0345 56.1272 19.7689 56.1332C20.0307 56.1281 20.2801 56.0205 20.4634 55.8335C20.6468 55.6465 20.7495 55.3951 20.7495 55.1332C20.7495 54.8713 20.6468 54.6199 20.4634 54.4329C20.28 54.246 20.0307 54.1384 19.7688 54.1333ZM36.5233 16.3071C36.9301 18.1986 36.7217 23.1493 36.7684 25.1341C36.7735 25.396 36.8811 25.6454 37.0681 25.8288C37.255 26.0122 37.5065 26.115 37.7684 26.115C38.0304 26.115 38.2818 26.0122 38.4688 25.8288C38.6558 25.6453 38.7633 25.3959 38.7683 25.134V19.1342C38.6193 18.0033 39.0627 14.9467 37.3359 15.1489C37.0747 15.195 36.8424 15.3428 36.69 15.5599C36.5377 15.7771 36.4777 16.0458 36.5233 16.3071ZM7.06508 16.352C7.71595 13.4637 9.32626 10.8812 11.6334 9.02564C13.9405 7.17008 16.8082 6.15098 19.7689 6.13458C22.6844 6.12733 25.5161 7.10953 27.8009 8.92058C28.0099 9.07794 28.2723 9.14714 28.5317 9.11333C28.7912 9.07952 29.0271 8.9454 29.1888 8.73971C29.3505 8.53403 29.4252 8.27317 29.3968 8.01307C29.3685 7.75297 29.2393 7.51433 29.0371 7.34834C20.5587 0.470875 7.32641 5.27197 5.11208 15.9226C4.45425 17.7481 4.88321 34.8616 4.76908 37.1337C4.76708 39.7675 5.46183 42.355 6.78283 44.6335C6.9182 44.8577 7.13609 45.0198 7.3897 45.0851C7.64331 45.1504 7.91242 45.1137 8.13923 44.9828C8.36603 44.8518 8.53245 44.6372 8.60274 44.3849C8.67303 44.1326 8.64159 43.8629 8.51517 43.6335C7.36881 41.6594 6.76635 39.4166 6.76917 37.1337C6.86883 35.1947 6.48956 17.7773 7.06508 16.352ZM22.5461 49.8287C20.6731 50.242 18.7316 50.2338 16.8622 49.8046C14.9927 49.3755 13.242 48.5361 11.7368 47.3473C11.5278 47.1897 11.2653 47.1203 11.0057 47.1541C10.7462 47.1878 10.5101 47.322 10.3484 47.5277C10.1866 47.7335 10.1119 47.9945 10.1403 48.2547C10.1688 48.5149 10.2981 48.7536 10.5006 48.9196C12.24 50.2931 14.2634 51.2622 16.4238 51.7566C18.5843 52.251 20.8278 52.2582 22.9914 51.7778C23.2465 51.7156 23.4669 51.5554 23.6049 51.332C23.7429 51.1086 23.7875 50.8399 23.729 50.5839C23.6705 50.3279 23.5136 50.1052 23.2923 49.9639C23.071 49.8226 22.8029 49.774 22.5461 49.8287ZM33.7685 26.134C33.8998 26.1341 34.0299 26.1083 34.1513 26.058C34.2726 26.0078 34.3829 25.9342 34.4758 25.8413C34.5686 25.7484 34.6423 25.6381 34.6925 25.5168C34.7427 25.3954 34.7686 25.2653 34.7685 25.134C34.7024 22.8897 34.9874 18.0564 34.4238 15.9165C34.0816 14.7715 33.0776 10.3085 31.3888 11.2681C31.275 11.3337 31.1752 11.4211 31.0952 11.5253C31.0152 11.6295 30.9565 11.7484 30.9225 11.8753C30.8885 12.0022 30.8798 12.1345 30.897 12.2648C30.9141 12.395 30.9568 12.5206 31.0225 12.6343C31.6908 13.7909 32.1791 15.0425 32.4707 16.3462C32.9684 18.2152 32.7094 23.1633 32.7685 25.1341C32.7685 25.2654 32.7943 25.3955 32.8445 25.5168C32.8947 25.6382 32.9684 25.7484 33.0612 25.8413C33.1541 25.9342 33.2644 26.0078 33.3857 26.0581C33.5071 26.1083 33.6371 26.1341 33.7685 26.134ZM15.3637 47.2077C16.4777 47.6635 20.6764 49.1393 20.7688 47.1336C20.7689 47.0022 20.7431 46.8722 20.6929 46.7508C20.6427 46.6294 20.569 46.5191 20.4761 46.4263C20.3833 46.3334 20.273 46.2597 20.1516 46.2095C20.0303 46.1592 19.9002 46.1334 19.7688 46.1335C17.3858 46.1211 15.1039 45.1689 13.4188 43.4838C11.7337 41.7987 10.7815 39.5167 10.7691 37.1337L10.7691 28.134C10.7652 27.8713 10.6581 27.6208 10.471 27.4364C10.2839 27.252 10.0318 27.1487 9.76911 27.1487C9.50644 27.1487 9.25431 27.252 9.06721 27.4364C8.8801 27.6208 8.77303 27.8713 8.76914 28.134V37.1337C8.76894 39.2724 9.39276 41.3647 10.5641 43.1541C11.7355 44.9435 13.4035 46.3523 15.3637 47.2077ZM26.7687 25.5442V19.3442C26.7684 18.34 26.5628 17.3465 26.1645 16.4247C25.7661 15.5029 25.1835 14.6723 24.4523 13.984C24.2585 13.8036 24.0009 13.7074 23.7363 13.7165C23.4716 13.7257 23.2214 13.8394 23.0404 14.0328C22.8594 14.2261 22.7625 14.4834 22.7709 14.7481C22.7793 15.0128 22.8923 15.2633 23.0852 15.4449C23.6171 15.9455 24.0409 16.5497 24.3304 17.2203C24.62 17.8909 24.7691 18.6137 24.7687 19.3442V25.5442C24.7741 25.8058 24.8818 26.055 25.0688 26.2381C25.2557 26.4213 25.507 26.5239 25.7687 26.5239C26.0304 26.5239 26.2817 26.4213 26.4686 26.2381C26.6556 26.055 26.7633 25.8058 26.7687 25.5442ZM22.26 41.4627C18.9272 43.4754 14.6693 40.7339 14.7691 36.9236L14.769 28.134C14.77 28.002 14.7449 27.8711 14.6951 27.7489C14.6453 27.6267 14.5718 27.5155 14.4788 27.4218C14.3859 27.3282 14.2753 27.2538 14.1535 27.2031C14.0316 27.1523 13.901 27.1262 13.769 27.1262C13.637 27.1262 13.5064 27.1523 13.3845 27.2031C13.2627 27.2538 13.1521 27.3282 13.0592 27.4218C12.9662 27.5155 12.8927 27.6267 12.8429 27.7489C12.7931 27.8711 12.768 28.002 12.769 28.134V36.9238C12.6271 42.2361 18.6789 46.0169 23.2776 43.1851C23.5006 43.0476 23.6608 42.828 23.7236 42.5736C23.7865 42.3192 23.747 42.0503 23.6137 41.8247C23.4804 41.5991 23.264 41.4348 23.0108 41.3671C22.7577 41.2994 22.4881 41.3338 22.26 41.4627ZM29.7686 26.134C29.8999 26.1341 30.03 26.1083 30.1514 26.058C30.2727 26.0078 30.383 25.9342 30.4759 25.8413C30.5687 25.7484 30.6424 25.6381 30.6926 25.5168C30.7428 25.3954 30.7687 25.2653 30.7686 25.134V19.1342C30.0408 4.36513 9.27531 4.58133 8.7692 19.4839V22.1341C8.77786 22.924 9.09775 23.6787 9.65941 24.2342C10.2211 24.7897 10.9792 25.1013 11.7692 25.1013C12.5591 25.1013 13.3172 24.7897 13.8789 24.2341C14.4405 23.6786 14.7604 22.924 14.769 22.134V19.1342C14.7793 17.8113 15.3093 16.5455 16.2448 15.61C17.1802 14.6746 18.4461 14.1446 19.7689 14.1344C20.0317 14.1306 20.2825 14.0236 20.467 13.8365C20.6515 13.6493 20.7549 13.3971 20.7549 13.1343C20.7549 12.8715 20.6514 12.6193 20.4669 12.4322C20.2824 12.245 20.0316 12.1381 19.7689 12.1344C17.916 12.146 16.1423 12.8873 14.8322 14.1975C13.522 15.5077 12.7807 17.2814 12.7691 19.1342V22.1341C12.7633 22.3955 12.6555 22.6443 12.4686 22.8271C12.2816 23.01 12.0306 23.1124 11.7691 23.1124C11.5076 23.1124 11.2565 23.01 11.0696 22.8271C10.8827 22.6443 10.7749 22.3955 10.7691 22.1341V19.4838C10.7687 17.6875 11.2766 15.9277 12.2341 14.4079C13.1916 12.8881 14.5597 11.6702 16.1801 10.8951C21.8447 8.18422 28.9591 12.8631 28.7685 19.1343L28.7687 25.134C28.7686 25.2654 28.7944 25.3954 28.8446 25.5168C28.8949 25.6381 28.9685 25.7484 29.0614 25.8413C29.1542 25.9341 29.2645 26.0078 29.3858 26.058C29.5072 26.1083 29.6372 26.1341 29.7686 26.134ZM17.7689 27.134C17.6376 27.1339 17.5075 27.1597 17.3861 27.21C17.2648 27.2602 17.1545 27.3339 17.0616 27.4267C16.9687 27.5196 16.8951 27.6299 16.8449 27.7512C16.7946 27.8726 16.7688 28.0027 16.7689 28.134V37.1338C16.7778 37.9235 17.0978 38.678 17.6594 39.2333C18.2211 39.7886 18.979 40.1001 19.7689 40.1001C20.5587 40.1001 21.3167 39.7886 21.8783 39.2332C22.4399 38.6779 22.7599 37.9235 22.7687 37.1337V19.1342C22.7679 18.3388 22.4515 17.5763 21.8891 17.0139C21.3267 16.4515 20.5642 16.1351 19.7688 16.1343C19.5066 16.1388 19.2567 16.2462 19.0728 16.4332C18.889 16.6203 18.786 16.872 18.786 17.1343C18.786 17.3966 18.889 17.6483 19.0729 17.8353C19.2567 18.0224 19.5067 18.1297 19.7689 18.1343C20.034 18.1345 20.2883 18.2399 20.4757 18.4274C20.6632 18.6149 20.7686 18.8691 20.7688 19.1343V37.1337C20.7636 37.3955 20.656 37.6448 20.469 37.8281C20.282 38.0114 20.0306 38.1141 19.7688 38.1141C19.5069 38.1141 19.2555 38.0114 19.0686 37.8281C18.8816 37.6448 18.774 37.3954 18.7688 37.1336V28.134C18.7689 28.0026 18.7431 27.8726 18.6929 27.7512C18.6427 27.6298 18.569 27.5196 18.4761 27.4267C18.3833 27.3338 18.273 27.2602 18.1517 27.21C18.0303 27.1597 17.9002 27.1339 17.7689 27.134ZM49.6079 43.1336V44.6003H50.688C50.9519 44.6022 51.2045 44.7084 51.3905 44.8957C51.5765 45.083 51.6809 45.3363 51.6809 45.6003C51.6809 45.8643 51.5765 46.1176 51.3905 46.3049C51.2045 46.4922 50.9519 46.5984 50.688 46.6003H49.608V48.067H52.768C53.032 48.0689 53.2845 48.1751 53.4705 48.3624C53.6565 48.5497 53.7609 48.803 53.7609 49.067C53.7609 49.331 53.6565 49.5843 53.4705 49.7716C53.2845 49.959 53.032 50.0651 52.768 50.067H49.5984C49.5749 50.5624 49.3675 51.0313 49.0168 51.3821C48.666 51.7328 48.1972 51.9402 47.7017 51.9637V55.1332C47.6976 55.3957 47.5905 55.6461 47.4034 55.8304C47.2163 56.0146 46.9643 56.1178 46.7018 56.1178C46.4392 56.1178 46.1872 56.0146 46.0001 55.8304C45.813 55.6462 45.7058 55.3958 45.7018 55.1333V51.9732H44.235V53.0532C44.231 53.3158 44.1239 53.5662 43.9368 53.7505C43.7497 53.9348 43.4976 54.0381 43.235 54.0381C42.9724 54.0381 42.7203 53.9348 42.5332 53.7505C42.3461 53.5662 42.239 53.3158 42.235 53.0532V51.9732H40.7683V55.1332C40.7693 55.2652 40.7442 55.3961 40.6944 55.5183C40.6446 55.6405 40.5711 55.7517 40.4782 55.8454C40.3852 55.939 40.2746 56.0134 40.1528 56.0641C40.031 56.1149 39.9003 56.141 39.7683 56.141C39.6363 56.141 39.5057 56.1149 39.3838 56.0641C39.262 56.0134 39.1514 55.939 39.0585 55.8454C38.9655 55.7517 38.892 55.6405 38.8422 55.5183C38.7924 55.3961 38.7673 55.2652 38.7683 55.1332V51.9732H37.3016V53.0532C37.2997 53.3172 37.1935 53.5697 37.0062 53.7558C36.8189 53.9418 36.5656 54.0462 36.3016 54.0462C36.0376 54.0462 35.7843 53.9418 35.597 53.7558C35.4097 53.5697 35.3035 53.3172 35.3016 53.0532V51.9732H33.8349V55.1332C33.8297 55.395 33.7221 55.6443 33.5351 55.8277C33.3482 56.011 33.0968 56.1137 32.8349 56.1137C32.5731 56.1137 32.3217 56.011 32.1347 55.8277C31.9477 55.6444 31.8401 55.3951 31.8349 55.1333V51.9637C31.3395 51.9402 30.8706 51.7328 30.5199 51.382C30.1691 51.0313 29.9617 50.5624 29.9382 50.067H26.7687C26.5047 50.0651 26.2521 49.9589 26.0661 49.7716C25.8801 49.5843 25.7757 49.331 25.7757 49.067C25.7757 48.803 25.8801 48.5497 26.0661 48.3624C26.2521 48.1751 26.5047 48.0689 26.7687 48.067H29.9287V46.6003H28.8487C28.5847 46.5984 28.3322 46.4922 28.1462 46.3049C27.9602 46.1176 27.8558 45.8643 27.8558 45.6003C27.8558 45.3363 27.9602 45.083 28.1462 44.8957C28.3322 44.7084 28.5847 44.6022 28.8487 44.6003H29.9288V43.1336H26.7687C26.5048 43.1315 26.2524 43.0253 26.0666 42.838C25.8807 42.6507 25.7764 42.3975 25.7764 42.1336C25.7764 41.8697 25.8807 41.6166 26.0666 41.4292C26.2524 41.2419 26.5048 41.1357 26.7687 41.1336H29.9287V39.6669H28.8487C28.5847 39.665 28.3322 39.5588 28.1462 39.3715C27.9602 39.1842 27.8558 38.9309 27.8558 38.6669C27.8558 38.4029 27.9602 38.1496 28.1462 37.9623C28.3322 37.7749 28.5847 37.6688 28.8487 37.6669H29.9288V36.2001H26.7687C26.5047 36.1983 26.2521 36.0921 26.0661 35.9048C25.8801 35.7174 25.7757 35.4642 25.7757 35.2002C25.7757 34.9362 25.8801 34.6829 26.0661 34.4956C26.2521 34.3082 26.5047 34.2021 26.7687 34.2002H29.9382C29.9617 33.7047 30.1691 33.2359 30.5199 32.8851C30.8706 32.5344 31.3395 32.327 31.8349 32.3035V29.134C31.839 28.8715 31.9461 28.621 32.1332 28.4368C32.3203 28.2526 32.5723 28.1494 32.8349 28.1494C33.0974 28.1493 33.3495 28.2526 33.5366 28.4368C33.7236 28.621 33.8308 28.8714 33.8349 29.1339V32.294H35.3016V31.214C35.3056 30.9514 35.4127 30.7009 35.5998 30.5166C35.7869 30.3324 36.039 30.2291 36.3016 30.2291C36.5642 30.2291 36.8163 30.3324 37.0034 30.5166C37.1905 30.7009 37.2976 30.9514 37.3016 31.214V32.294H38.7683V29.134C38.7736 28.8723 38.8812 28.623 39.0682 28.4398C39.2551 28.2565 39.5065 28.1539 39.7683 28.1538C40.0301 28.1538 40.2814 28.2565 40.4684 28.4397C40.6554 28.623 40.763 28.8722 40.7683 29.134V32.294H42.2351V31.214C42.2369 30.9501 42.3431 30.6975 42.5304 30.5115C42.7178 30.3255 42.9711 30.2211 43.2351 30.2211C43.499 30.2211 43.7523 30.3255 43.9397 30.5115C44.127 30.6975 44.2332 30.9501 44.235 31.214V32.2941H45.7018V29.1339C45.7037 28.8699 45.8098 28.6174 45.9972 28.4314C46.1845 28.2454 46.4378 28.141 46.7018 28.141C46.9658 28.141 47.219 28.2454 47.4064 28.4314C47.5937 28.6174 47.6999 28.8699 47.7017 29.1339V32.3035C48.1972 32.327 48.6661 32.5344 49.0168 32.8851C49.3675 33.2359 49.5749 33.7047 49.5985 34.2002H52.768C53.0305 34.2043 53.2809 34.3114 53.4651 34.4985C53.6493 34.6856 53.7526 34.9376 53.7526 35.2001C53.7526 35.4627 53.6493 35.7147 53.4651 35.9018C53.2809 36.0889 53.0305 36.1961 52.768 36.2001H49.6079V37.6669H50.6879C50.9505 37.6709 51.201 37.778 51.3853 37.9651C51.5695 38.1522 51.6728 38.4043 51.6728 38.6669C51.6728 38.9295 51.5695 39.1816 51.3853 39.3687C51.201 39.5558 50.9505 39.6629 50.6879 39.6668H49.6079V41.1336H52.7679C53.0299 41.1384 53.2796 41.2459 53.4632 41.4329C53.6468 41.6199 53.7497 41.8715 53.7497 42.1335C53.7497 42.3956 53.6468 42.6472 53.4632 42.8342C53.2797 43.0212 53.03 43.1287 52.768 43.1336H49.6079ZM47.608 34.294H31.9287V49.9732H47.6099C47.6099 49.9732 47.6086 38.975 47.608 34.294ZM44.1012 37.0205C43.9699 37.0204 43.8398 37.0462 43.7184 37.0964C43.5971 37.1466 43.4868 37.2203 43.3939 37.3132C43.3011 37.406 43.2274 37.5163 43.1772 37.6377C43.1269 37.759 43.1011 37.8891 43.1012 38.0205V46.2468C43.1012 46.512 43.2066 46.7664 43.3941 46.9539C43.5816 47.1414 43.836 47.2468 44.1012 47.2468C44.3664 47.2468 44.6208 47.1414 44.8083 46.9539C44.9959 46.7664 45.1012 46.512 45.1012 46.2468V38.0204C45.1013 37.8891 45.0755 37.759 45.0252 37.6376C44.975 37.5163 44.9014 37.406 44.8085 37.3131C44.7156 37.2203 44.6053 37.1466 44.484 37.0964C44.3626 37.0462 44.2326 37.0204 44.1012 37.0205ZM41.5759 40.077V46.2467C41.5707 46.5085 41.4631 46.7578 41.2761 46.9412C41.0892 47.1245 40.8378 47.2272 40.5759 47.2272C40.3141 47.2272 40.0627 47.1245 39.8757 46.9412C39.6888 46.7579 39.5811 46.5086 39.5759 46.2468V43.1336H36.4354V46.2467C36.4304 46.5086 36.3228 46.7581 36.1358 46.9415C35.9489 47.1249 35.6974 47.2277 35.4355 47.2277C35.1735 47.2277 34.922 47.1249 34.7351 46.9415C34.5481 46.7581 34.4405 46.5087 34.4354 46.2468V40.077C34.4363 39.2666 34.7586 38.4897 35.3317 37.9167C35.9047 37.3436 36.6816 37.0213 37.492 37.0204H38.5193C39.3297 37.0213 40.1066 37.3436 40.6797 37.9167C41.2527 38.4897 41.575 39.2666 41.5759 40.077ZM39.5759 41.1336V40.077C39.5757 39.7968 39.4644 39.5282 39.2663 39.3301C39.0681 39.132 38.7995 39.0206 38.5193 39.0204H37.492C37.2118 39.0206 36.9432 39.132 36.7451 39.3301C36.547 39.5282 36.4356 39.7968 36.4354 40.077V41.1336H39.5759Z" fill="url(#paint0_linear_1449_12892)"/>
<defs>
<linearGradient id="paint0_linear_1449_12892" x1="0.742078" y1="28.1336" x2="53.7681" y2="28.1336" gradientUnits="userSpaceOnUse">
<stop stop-color="#00C0FF"/>
<stop offset="1" stop-color="#5558FF"/>
</linearGradient>
</defs>
</svg>
