<svg width="37" height="40" viewBox="0 0 37 40" fill="none" xmlns="http://www.w3.org/2000/svg">
<path d="M25.825 16.0463C25.8364 16.2239 25.8364 16.4016 25.8364 16.5793C25.8364 21.998 22.1417 28.2417 15.3888 28.2417C13.3083 28.2417 11.3757 27.5691 9.75 26.4017C10.0456 26.4397 10.3298 26.4524 10.6367 26.4524C12.3534 26.4524 13.9336 25.8052 15.1955 24.7011C13.5812 24.6631 12.2283 23.4829 11.7622 21.8585C11.9896 21.8965 12.2169 21.9219 12.4557 21.9219C12.7854 21.9219 13.1151 21.8711 13.422 21.7823C11.7395 21.4016 10.4776 19.7519 10.4776 17.7595V17.7087C10.9664 18.0133 11.5348 18.2037 12.1373 18.229C11.1483 17.493 10.5003 16.2366 10.5003 14.8153C10.5003 14.0539 10.6822 13.3559 11.0005 12.7468C12.8081 15.2341 15.5252 16.8584 18.5719 17.0361C18.5151 16.7315 18.4809 16.4143 18.4809 16.097C18.4809 13.8381 20.118 11.998 22.153 11.998C23.2102 11.998 24.1652 12.493 24.8359 13.2925C25.6658 13.1148 26.4616 12.7722 27.1665 12.3026C26.8936 13.2544 26.3138 14.0539 25.5521 14.5615C26.2911 14.4727 27.0073 14.2442 27.6667 13.927C27.1665 14.7392 26.5412 15.4625 25.825 16.0463Z" fill="#D3D3D3"/>
</svg>
