<svg width="37" height="40" viewBox="0 0 37 40" fill="none" xmlns="http://www.w3.org/2000/svg">
<path d="M27.0892 15.1983C26.8831 14.3323 26.276 13.6502 25.5051 13.4187C24.1079 12.998 18.5052 12.998 18.5052 12.998C18.5052 12.998 12.9025 12.998 11.5053 13.4187C10.7344 13.6502 10.1273 14.3323 9.92126 15.1983C9.54688 16.7682 9.54688 20.0435 9.54688 20.0435C9.54688 20.0435 9.54688 23.3188 9.92126 24.8886C10.1273 25.7547 10.7344 26.4084 11.5053 26.6399C12.9025 27.0605 18.5052 27.0605 18.5052 27.0605C18.5052 27.0605 24.1079 27.0605 25.5051 26.6399C26.276 26.4084 26.8831 25.7547 27.0892 24.8886C27.4635 23.3188 27.4635 20.0435 27.4635 20.0435C27.4635 20.0435 27.4635 16.7682 27.0892 15.1983ZM16.6728 23.0172V17.0698L21.3556 20.0436L16.6728 23.0172Z" fill="#D3D3D3"/>
</svg>
